<svg xmlns="http://www.w3.org/2000/svg">
<defs>
<font id="GTEestiProDisplay-Medium" horiz-adv-x="600" >
  <font-face 
    font-family="GT Eesti Pro Display Medium"
    font-weight="500"
    font-stretch="normal"
    units-per-em="1000"
    panose-1="0 0 6 0 0 0 0 0 0 0"
    ascent="750"
    descent="-250"
    x-height="462"
    cap-height="700"
    bbox="-424.997 -252 1204 882"
    underline-thickness="50"
    underline-position="-50"
    unicode-range="U+0020-U+FB02"
  />
<missing-glyph horiz-adv-x="770" 
d="M197.5 32c-55.667 31.333 -99.167 74.833 -130.5 130.5s-47 118.167 -47 187.5c0 70 15.667 132.667 47 188s74.833 98.666 130.5 129.999s118.167 47 187.5 47c70 0 132.667 -15.667 188 -47s98.666 -74.666 129.999 -129.999s47 -118 47 -188
c0 -69.333 -15.667 -131.833 -47 -187.5s-74.666 -99.167 -129.999 -130.5s-118 -47 -188 -47c-69.333 0 -131.833 15.667 -187.5 47zM560 54.5c52 29.667 92.833 70.834 122.5 123.501s44.5 111.667 44.5 177l-51 65l-70 -30l-68 90l-79 -44l-74 118l-74 -118l-79 44
l-68 -90l-70 30l-51 -65c0 -65.333 14.833 -124.333 44.5 -177s70.5 -93.834 122.5 -123.501s110.333 -44.5 175 -44.5s123 14.833 175 44.5zM257 328c-6.66699 6.66699 -10 15 -10 25s3.33301 18.333 10 25s15 10 25 10s18.333 -3.33301 25 -10s10 -15 10 -25
s-3.33301 -18.333 -10 -25s-15 -10 -25 -10s-18.333 3.33301 -25 10zM462 328c-6.66699 6.66699 -10 15 -10 25s3.33301 18.333 10 25s15 10 25 10s18.333 -3.33301 25 -10s10 -15 10 -25s-3.33301 -18.333 -10 -25s-15 -10 -25 -10s-18.333 3.33301 -25 10zM379 356
c0.666992 2.66699 2 4.50098 4 5.50098s4.33301 0.833008 7 -0.5c2 -0.666992 3.5 -2 4.5 -4s1.16699 -4.33301 0.5 -7l-28 -78h34c2.66699 0 4.83398 -0.833008 6.50098 -2.5s2.5 -3.83398 2.5 -6.50098c0 -2 -0.833008 -3.83301 -2.5 -5.5s-3.83398 -2.5 -6.50098 -2.5
h-58zM138.5 190.501c-13 13 -19.5 29.5 -19.5 49.5s6.5 36.5 19.5 49.5s29.5 19.5 49.5 19.5s36.5 -6.5 49.5 -19.5s19.5 -29.5 19.5 -49.5s-6.5 -36.5 -19.5 -49.5s-29.5 -19.5 -49.5 -19.5s-36.5 6.5 -49.5 19.5zM531.5 190.501c-13 13 -19.5 29.5 -19.5 49.5

<glyph glyph-name="fi" unicode="fi" horiz-adv-x="562" 
d="M236.5 576c-14.333 -13.333 -21.5 -36 -21.5 -68v-46h95v-103h-95v-359h-122v359h-77v103h77v46c0 66.667 16.667 117 50 151s82.666 51 147.999 51h25v-114h-14c-29.333 0 -51.166 -6.66699 -65.499 -20zM382 462h123v-462h-123v462zM514 559h-140v135h140v-135z" />
    <glyph glyph-name="fl" unicode="fl" horiz-adv-x="562" 
d="M236.5 576c-14.333 -13.333 -21.5 -36 -21.5 -68v-46h95v-103h-95v-359h-122v359h-77v103h77v46c0 66.667 16.667 117 50 151s82.666 51 147.999 51h25v-114h-14c-29.333 0 -51.166 -6.66699 -65.499 -20zM505 0h-123v700h123v-700z" />
    <glyph glyph-name="f_f" unicode="ff" horiz-adv-x="654" 
d="M236.5 576c-14.333 -13.333 -21.5 -36 -21.5 -68v-46h95v-103h-95v-359h-122v359h-77v103h77v46c0 66.667 16.667 117 50 151s82.666 51 147.999 51h25v-114h-14c-29.333 0 -51.166 -6.66699 -65.499 -20zM564.5 576c-14.333 -13.333 -21.5 -36 -21.5 -68v-46h95v-103
h-95v-359h-122v359h-77v103h77v46c0 66.667 16.667 117 50 151s82.666 51 147.999 51h25v-114h-14c-29.333 0 -51.166 -6.66699 -65.499 -20z" />
    <glyph glyph-name="f_f_i" unicode="ffi" horiz-adv-x="890" 
d="M236.5 576c-14.333 -13.333 -21.5 -36 -21.5 -68v-46h95v-103h-95v-359h-122v359h-77v103h77v46c0 66.667 16.667 117 50 151s82.666 51 147.999 51h25v-114h-14c-29.333 0 -51.166 -6.66699 -65.499 -20zM564.5 576c-14.333 -13.333 -21.5 -36 -21.5 -68v-46h95v-103
h-95v-359h-122v359h-77v103h77v46c0 66.667 16.667 117 50 151s82.666 51 147.999 51h25v-114h-14c-29.333 0 -51.166 -6.66699 -65.499 -20zM710 462h123v-462h-123v462zM842 559h-140v135h140v-135z" />
    <glyph glyph-name="f_f_l" unicode="ffl" horiz-adv-x="890" 
d="M236.5 576c-14.333 -13.333 -21.5 -36 -21.5 -68v-46h95v-103h-95v-359h-122v359h-77v103h77v46c0 66.667 16.667 117 50 151s82.666 51 147.999 51h25v-114h-14c-29.333 0 -51.166 -6.66699 -65.499 -20zM564.5 576c-14.333 -13.333 -21.5 -36 -21.5 -68v-46h95v-103
h-95v-359h-122v359h-77v103h77v46c0 66.667 16.667 117 50 151s82.666 51 147.999 51h25v-114h-14c-29.333 0 -51.166 -6.66699 -65.499 -20zM833 0h-123v700h123v-700z" />
    <glyph glyph-name=".notdef" horiz-adv-x="770" 
d="M197.5 32c-55.667 31.333 -99.167 74.833 -130.5 130.5s-47 118.167 -47 187.5c0 70 15.667 132.667 47 188s74.833 98.666 130.5 129.999s118.167 47 187.5 47c70 0 132.667 -15.667 188 -47s98.666 -74.666 129.999 -129.999s47 -118 47 -188
c0 -69.333 -15.667 -131.833 -47 -187.5s-74.666 -99.167 -129.999 -130.5s-118 -47 -188 -47c-69.333 0 -131.833 15.667 -187.5 47zM560 54.5c52 29.667 92.833 70.834 122.5 123.501s44.5 111.667 44.5 177l-51 65l-70 -30l-68 90l-79 -44l-74 118l-74 -118l-79 44
l-68 -90l-70 30l-51 -65c0 -65.333 14.833 -124.333 44.5 -177s70.5 -93.834 122.5 -123.501s110.333 -44.5 175 -44.5s123 14.833 175 44.5zM257 328c-6.66699 6.66699 -10 15 -10 25s3.33301 18.333 10 25s15 10 25 10s18.333 -3.33301 25 -10s10 -15 10 -25
s-3.33301 -18.333 -10 -25s-15 -10 -25 -10s-18.333 3.33301 -25 10zM462 328c-6.66699 6.66699 -10 15 -10 25s3.33301 18.333 10 25s15 10 25 10s18.333 -3.33301 25 -10s10 -15 10 -25s-3.33301 -18.333 -10 -25s-15 -10 -25 -10s-18.333 3.33301 -25 10zM379 356
c0.666992 2.66699 2 4.50098 4 5.50098s4.33301 0.833008 7 -0.5c2 -0.666992 3.5 -2 4.5 -4s1.16699 -4.33301 0.5 -7l-28 -78h34c2.66699 0 4.83398 -0.833008 6.50098 -2.5s2.5 -3.83398 2.5 -6.50098c0 -2 -0.833008 -3.83301 -2.5 -5.5s-3.83398 -2.5 -6.50098 -2.5
h-58zM138.5 190.501c-13 13 -19.5 29.5 -19.5 49.5s6.5 36.5 19.5 49.5s29.5 19.5 49.5 19.5s36.5 -6.5 49.5 -19.5s19.5 -29.5 19.5 -49.5s-6.5 -36.5 -19.5 -49.5s-29.5 -19.5 -49.5 -19.5s-36.5 6.5 -49.5 19.5zM531.5 190.501c-13 13 -19.5 29.5 -19.5 49.5
s6.5 36.5 19.5 49.5s29.5 19.5 49.5 19.5s36.5 -6.5 49.5 -19.5s19.5 -29.5 19.5 -49.5s-6.5 -36.5 -19.5 -49.5s-29.5 -19.5 -49.5 -19.5s-36.5 6.5 -49.5 19.5zM346.5 185.001c-11 -5.33301 -18.833 -12.666 -23.5 -21.999c-2 -4 -5 -6 -9 -6c-5.33301 0 -8 3 -8 9
c0 11.333 8.16699 21.666 24.5 30.999s34.5 14 54.5 14s38.167 -4.66699 54.5 -14s24.5 -19.666 24.5 -30.999c0 -6 -2.66699 -9 -8 -9c-4 0 -7 2 -9 6c-4.66699 9.33301 -12.5 16.666 -23.5 21.999s-23.833 8 -38.5 8s-27.5 -2.66699 -38.5 -8z" />
    <glyph glyph-name="space" unicode=" " horiz-adv-x="277" 
 />
    <glyph glyph-name="exclam" unicode="!" horiz-adv-x="323" 
d="M90 700h142l-27 -480h-87zM231 0h-139v139h139v-139z" />
    <glyph glyph-name="quotedbl" unicode="&#x22;" horiz-adv-x="321" 
d="M50 715h96l-23 -253h-50zM175 715h96l-23 -253h-50z" />
    <glyph glyph-name="numbersign" unicode="#" horiz-adv-x="636" 
d="M466 447l-31 -174h113v-58h-124l-39 -215h-63l39 215h-136l-39 -215h-63l39 215h-112v58h123l31 174h-116v58h127l35 195h63l-35 -195h136l35 195h63l-35 -195h109v-58h-120zM403 447h-136l-31 -174h136z" />
    <glyph glyph-name="dollar" unicode="$" horiz-adv-x="532" 
d="M444 44c-38.667 -36 -91.333 -55.667 -158 -59v-62h-28v62c-71.333 2 -127.166 22.667 -167.499 62s-60.5 90.666 -60.5 153.999h126c2.66699 -34.667 12.667 -60.167 30 -76.5s41.333 -25.5 72 -27.5v198c-46 19.333 -81.167 35.833 -105.5 49.5s-46 33.834 -65 60.501
s-28.5 61 -28.5 103c0 55.333 17.667 98.833 53 130.5s84 48.834 146 51.501v72h28v-72c62 -2.66699 111.5 -20.667 148.5 -54s55.5 -82 55.5 -146h-125c-2 54 -28.333 82.667 -79 86v-161c50.667 -20.667 88.667 -37.834 114 -51.501s48.666 -34.667 69.999 -63
s32 -65.5 32 -111.5c0 -60.667 -19.333 -109 -58 -145zM202.501 463c13 -12.667 31.5 -24.667 55.5 -36v150c-24 -2 -42.5 -8.83301 -55.5 -20.5s-19.5 -27.5 -19.5 -47.5c0 -18 6.5 -33.333 19.5 -46zM354.501 122c15 14 22.5 33 22.5 57
c0 24.667 -7.83301 44.667 -23.5 60s-38.167 30 -67.5 44v-186c30.667 2.66699 53.5 11 68.5 25z" />
    <glyph glyph-name="percent" unicode="%" horiz-adv-x="774" 
d="M328.5 645c30.333 -30 45.501 -69 45.501 -117s-15 -87 -45 -117s-69 -45 -117 -45c-47.333 0 -86.166 15 -116.499 45s-45.5 69 -45.5 117s15.167 87 45.5 117s69.166 45 116.499 45s86.166 -15 116.499 -45zM547.001 675h67l-395 -675h-67zM143.001 599.5
c-17.333 -18.333 -26 -42.166 -26 -71.499s8.66699 -53.166 26 -71.499s40.333 -27.5 69 -27.5s51.667 9.16699 69 27.5s26 42.166 26 71.499s-8.66699 53.166 -26 71.499s-40.333 27.5 -69 27.5s-51.667 -9.16699 -69 -27.5zM679.001 274c30 -30 44.998 -69 44.998 -117
s-15.167 -87 -45.5 -117s-69.166 -45 -116.499 -45s-86.166 15 -116.499 45s-45.5 69 -45.5 117s15 87 45 117s69 45 117 45s87 -15 117 -45zM492.999 228.5c-17.333 -18.333 -26 -42.166 -26 -71.499s8.66699 -53.166 26 -71.499s40.333 -27.5 69 -27.5
s51.667 9.16699 69 27.5s26 42.166 26 71.499s-8.66699 53.166 -26 71.499s-40.333 27.5 -69 27.5s-51.667 -9.16699 -69 -27.5z" />
    <glyph glyph-name="ampersand" unicode="&#x26;" horiz-adv-x="700" 
d="M564 135l98.002 -135.002h-146l-35 49c-55.333 -42.667 -118.666 -64 -189.999 -64c-48.667 0 -91.834 8.83301 -129.501 26.5s-67.167 43.667 -88.5 78s-32 75.833 -32 124.5c0 52.667 13.833 98.167 41.5 136.5s67.167 65.833 118.5 82.5
c-28 40.667 -42 81.334 -42 122.001c0 42 14.833 75 44.5 99s71.5 36 125.5 36c49.333 0 99.666 -9 150.999 -27l-35 -108c-43.333 13.333 -79 20 -107 20c-33.333 0 -50 -12.333 -50 -37c0 -9.33301 2.16699 -18.5 6.5 -27.5s10.833 -19.5 19.5 -31.5l176 -242
c23.333 34.667 46.666 77.334 69.999 128.001l106 -54c-36 -74 -70 -132.667 -102 -176zM409.002 146.998l-142 195c-31.333 -9.33301 -56 -24.5 -74 -45.5s-27 -46.5 -27 -76.5c0 -36 11.167 -64.167 33.5 -84.5s52.5 -30.5 90.5 -30.5c43.333 0 83 14 119 42z" />
    <glyph glyph-name="quotesingle" unicode="'" horiz-adv-x="206" 
d="M133 462h-60l-23 253h106z" />
    <glyph glyph-name="parenleft" unicode="(" horiz-adv-x="315" 
d="M295 718c-45.333 -64.667 -80 -130.833 -104 -198.5s-36 -143.834 -36 -228.501c0 -86.667 12.167 -166.667 36.5 -240s58.166 -142.333 101.499 -207l-89 -59c-51.333 77.333 -90.833 155.5 -118.5 234.5s-41.5 169.5 -41.5 271.5c0 100 13.833 187.333 41.5 262
s67.834 149.334 120.501 224.001z" />
    <glyph glyph-name="parenright" unicode=")" horiz-adv-x="315" 
d="M22 -156c91.333 136 137.001 285 137.001 447c0 85.333 -12 161.833 -36 229.5s-58.667 133.5 -104 197.5l90 59c52 -75.333 91.833 -150.166 119.5 -224.499s41.5 -161.5 41.5 -261.5c0 -102.667 -13.833 -193.334 -41.5 -272.001s-66.834 -156.667 -117.501 -234z" />
    <glyph glyph-name="asterisk" unicode="*" horiz-adv-x="421" 
d="M267 522l82 -98l-71 -52l-67 108l-69 -109l-70 53l82 98l-124 31l27 82l119 -48l-9 128h87l-9 -127l119 47l27 -82z" />
    <glyph glyph-name="plus" unicode="+" 
d="M329 325h215v-54h-215v-216h-58v216h-215v54h215v216h58v-216z" />
    <glyph glyph-name="comma" unicode="," horiz-adv-x="236" 
d="M187 0l-80 -153h-56l54 153h-56v139h138v-139z" />
    <glyph glyph-name="hyphen" unicode="-" horiz-adv-x="358" 
d="M315 208h-272v114h272v-114z" />
    <glyph glyph-name="period" unicode="." horiz-adv-x="235" 
d="M187 0h-139v139h139v-139z" />
    <glyph glyph-name="slash" unicode="/" horiz-adv-x="622" 
d="M592 736l-471 -848l-91 49l471 849z" />
    <glyph glyph-name="zero" unicode="0" horiz-adv-x="592" 
d="M486.5 598.5c44.333 -61 66.5 -147.833 66.5 -260.5s-22.333 -199.667 -67 -261s-108 -92 -190 -92c-82.667 0 -146.167 30.5 -190.5 91.5s-66.5 148.167 -66.5 261.5c0 112.667 22.167 199.5 66.5 260.5s107.833 91.5 190.5 91.5s146.167 -30.5 190.5 -91.5zM200 512
c-22.667 -41.333 -34 -99.333 -34 -174s11.5 -132.834 34.5 -174.501s54.833 -62.5 95.5 -62.5s72.334 20.833 95.001 62.5s34 99.834 34 174.501s-11.333 132.667 -34 174s-54.334 62 -95.001 62c-41.333 0 -73.333 -20.667 -96 -62z" />
    <glyph glyph-name="one" unicode="1" horiz-adv-x="326" 
d="M226 0h-124v555h-40v120h164v-675z" />
    <glyph glyph-name="two" unicode="2" horiz-adv-x="515" 
d="M33 94l230 246.003c32 33.333 54.5 61.166 67.5 83.499s19.5 44.166 19.5 65.499c0 27.333 -8.33301 48.666 -25 63.999s-39.334 23 -68.001 23c-31.333 0 -56 -8.83301 -74 -26.5s-27.333 -42.5 -28 -74.5h-124c1.33301 67.333 22.333 120 63 158s96.334 57 167.001 57
c67.333 0 120.166 -17.167 158.499 -51.5s57.5 -81.5 57.5 -141.5c0 -37.333 -8.66699 -72.5 -26 -105.5s-46.666 -70.5 -87.999 -112.5l-160 -167l275 1v-113h-445v94z" />
    <glyph glyph-name="three" unicode="3" horiz-adv-x="529" 
d="M417 643.5c38.667 -31 58.001 -74.166 58.001 -129.499c0 -39.333 -10.5 -72.5 -31.5 -99.5s-50.5 -44.833 -88.5 -53.5v-2c46 -6 81.333 -23.5 106 -52.5s37 -67.833 37 -116.5c0 -64 -20.833 -114.167 -62.5 -150.5s-99.5 -54.5 -173.5 -54.5
c-75.333 0 -134 18.167 -176 54.5s-63.667 87.5 -65 153.5h127c2 -30 13 -53.167 33 -69.5s47.333 -24.5 82 -24.5s61 8.66699 79 26s27 42.666 27 75.999c0 36 -11.333 61.667 -34 77s-60.334 22.666 -113.001 21.999h-28v100h28c81.333 0 122 30.667 122 92
c0 26.667 -8 47.334 -24 62.001s-38.667 22 -68 22c-30 0 -53.5 -7.16699 -70.5 -21.5s-25.833 -34.5 -26.5 -60.5h-125c0.666992 61.333 21.167 109.333 61.5 144s95.166 52 164.499 52c68.667 0 122.334 -15.5 161.001 -46.5z" />
    <glyph glyph-name="four" unicode="4" horiz-adv-x="559" 
d="M532 116h-67v-116h-117v116h-330v98l324 461h123v-447h67v-112zM348 228v282h-4l-198 -282h202z" />
    <glyph glyph-name="five" unicode="5" horiz-adv-x="535" 
d="M409 418c32 -18 56.8311 -43.667 74.498 -77s26.5 -72 26.5 -116c0 -74.667 -22.333 -133.334 -67 -176.001s-106 -64 -184 -64c-50.667 0 -96.167 9.66699 -136.5 29s-73.166 47.666 -98.499 84.999l85 84c38 -56 88 -84 150 -84c38 0 68 11.333 90 34s33 53.667 33 93
c0 36.667 -10.167 65.834 -30.5 87.501s-48.166 32.5 -83.499 32.5c-22 0 -42.167 -4.66699 -60.5 -14s-32.833 -22.333 -43.5 -39h-102l35 382h353v-113h-261l-16 -156h2c14.667 12.667 32.5 22.334 53.5 29.001s43.833 10 68.5 10c42.667 0 80 -9 112 -27z" />
    <glyph glyph-name="six" unicode="6" horiz-adv-x="548" 
d="M145.5 16c-38.333 20.667 -67.833 49.835 -88.5 87.502s-31 81.834 -31 132.501c0 51.333 10 100.166 30 146.499s52.333 95.833 97 148.5l125 149h150l-242 -280l3 -2c19.333 19.333 38.666 33.166 57.999 41.499s41.333 12.5 66 12.5c42 0 79.333 -9.5 112 -28.5
s58 -45.833 76 -80.5s27 -74.334 27 -119.001c0 -46.667 -10.5 -88 -31.5 -124s-50.333 -64.167 -88 -84.5s-80.5 -30.5 -128.5 -30.5c-51.333 0 -96.166 10.333 -134.499 31zM366 133.001c22.667 22.667 34 52.667 34 90s-11.333 67.333 -34 90s-52.667 34 -90 34
c-36.667 0 -66.334 -11.333 -89.001 -34s-34 -52.667 -34 -90s11.333 -67.333 34 -90s52.667 -34 90 -34c36.667 0 66.334 11.333 89.001 34z" />
    <glyph glyph-name="seven" unicode="7" horiz-adv-x="471" 
d="M453 566l-267 -566h-131l268 558h-304v117h434v-109z" />
    <glyph glyph-name="eight" unicode="8" horiz-adv-x="557" 
d="M100 38.5c-43.333 35.667 -65 84.834 -65 147.501c0 43.333 11.333 80.333 34 111s53.667 51 93 61v3c-32.667 9.33301 -58.834 27.666 -78.501 54.999s-29.5 58.666 -29.5 93.999c0 54.667 20.333 98.334 61 131.001s95 49 163 49c68.667 0 123.167 -16.167 163.5 -48.5
s60.5 -76.166 60.5 -131.499c0 -36 -9.66699 -67.5 -29 -94.5s-45.333 -45.167 -78 -54.5v-3c39.333 -10 70.333 -30.333 93 -61s34 -67.667 34 -111c0 -62.667 -21.833 -111.834 -65.5 -147.501s-103.167 -53.5 -178.5 -53.5s-134.666 17.833 -177.999 53.5zM346.5 434.5
c17 15.667 25.5 36.5 25.5 62.5c0 26.667 -8.5 47.667 -25.5 63s-39.833 23 -68.5 23s-51.5 -7.66699 -68.5 -23s-25.5 -36.333 -25.5 -63c0 -26 8.66699 -46.833 26 -62.5s40 -23.5 68 -23.5c28.667 0 51.5 7.83301 68.5 23.5zM361 124c20 19.333 30 45.666 30 78.999
c0 32.667 -10.333 58.834 -31 78.501s-48 29.5 -82 29.5c-33.333 0 -60.333 -9.83301 -81 -29.5s-31 -45.834 -31 -78.501c0 -33.333 10 -59.666 30 -78.999s47.333 -29 82 -29c35.333 0 63 9.66699 83 29z" />
    <glyph glyph-name="nine" unicode="9" horiz-adv-x="533" 
d="M354 273l-1.99805 1.99902c-34.667 -30.667 -75.334 -46 -122.001 -46c-39.333 0 -75 10 -107 30s-57.333 47.167 -76 81.5s-28 72.5 -28 114.5c0 45.333 10.5 85.833 31.5 121.5s50.333 63.5 88 83.5s80.5 30 128.5 30c50 0 93.667 -10.333 131 -31
s66.166 -50.167 86.499 -88.5s30.5 -83.166 30.5 -134.499c0 -50.667 -10.667 -99.667 -32 -147s-56 -99 -104 -155l-114 -134h-147zM354.502 366.999c22.333 22 33.501 50.999 33.501 86.999s-11.167 65.167 -33.5 87.5s-51.5 33.5 -87.5 33.5s-65.167 -11 -87.5 -33
s-33.5 -51.333 -33.5 -88c0 -35.333 11.167 -64.166 33.5 -86.499s51.833 -33.5 88.5 -33.5c35.333 0 64.166 11 86.499 33z" />
    <glyph glyph-name="colon" unicode=":" horiz-adv-x="235" 
d="M187 0h-139v139h139v-139zM187 323h-139v139h139v-139z" />
    <glyph glyph-name="semicolon" unicode=";" horiz-adv-x="236" 
d="M187 0l-80 -153h-56l54 153h-56v139h138v-139zM188 323h-139v139h139v-139z" />
    <glyph glyph-name="less" unicode="&#x3c;" 
d="M529 468l-391 -169l391 -168v-64l-458 202v61l458 202v-64z" />
    <glyph glyph-name="equal" unicode="=" 
d="M553 372h-506v56h506v-56zM553 172h-506v56h506v-56z" />
    <glyph glyph-name="greater" unicode="&#x3e;" 
d="M529 330v-61l-458 -202v64l391 168l-391 169v64z" />
    <glyph glyph-name="question" unicode="?" horiz-adv-x="485" 
d="M394 662.5c35.333 -35 53.002 -80.1689 53.002 -135.502c0 -33.333 -6.33301 -61.666 -19 -84.999s-30.334 -46 -53.001 -68c-4.66699 -4 -15.667 -14 -33 -30s-30.166 -32.667 -38.499 -50s-12.5 -36.333 -12.5 -57v-17h-121v29c0 36.667 7.16699 66.667 21.5 90
s29.666 43.166 45.999 59.499l31.5 31.5c18 17.333 31.5 32.833 40.5 46.5s13.5 28.834 13.5 45.501c0 22.667 -6.83301 40.834 -20.5 54.501s-33.834 20.5 -60.501 20.5c-28 0 -50.5 -8.66699 -67.5 -26s-25.5 -40 -25.5 -68h-121c0 66 19.167 117.833 57.5 155.5
s91.5 56.5 159.5 56.5c64 0 113.667 -17.5 149 -52.5zM300.002 -0.00195312h-139v139h139v-139z" />
    <glyph glyph-name="at" unicode="@" horiz-adv-x="937" 
d="M695 642.5c62 -31.667 110.163 -76.499 144.496 -134.499s51.5 -125.333 51.5 -202c0 -46 -6.83301 -88.333 -20.5 -127s-34.167 -69.667 -61.5 -93s-60.666 -35 -99.999 -35c-60 0 -100.667 26.667 -122 80h-3c-12.667 -24 -30.834 -43.333 -54.501 -58
s-52.5 -22 -86.5 -22c-36 0 -68.833 8.66699 -98.5 26s-53.334 42.5 -71.001 75.5s-26.5 71.833 -26.5 116.5s8.83301 83.5 26.5 116.5s41.5 58.167 71.5 75.5s63 26 99 26c58.667 0 102.334 -24.667 131.001 -74h1v59h101v-279c0 -38.667 14.667 -58 44 -58
c23.333 0 42.333 13.833 57 41.5s22 67.167 22 118.5c0 67.333 -14 124.333 -42 171s-66.167 81.5 -114.5 104.5s-102.166 34.5 -161.499 34.5c-65.333 0 -124 -12.5 -176 -37.5s-93.167 -63 -123.5 -114s-45.5 -113.5 -45.5 -187.5c0 -72.667 16.5 -134 49.5 -184
s76 -87 129 -111s109.833 -36 170.5 -36c62.667 0 124 12.333 184 37l32 -80c-75.333 -28 -147.666 -42 -216.999 -42c-73.333 0 -143.5 15 -210.5 45s-121.833 76.167 -164.5 138.5s-64 139.166 -64 230.499c0 89.333 18.333 166 55 230s87.834 112.667 153.501 146
s140.834 50 225.501 50c81.333 0 153 -15.833 215 -47.5zM389.996 352.001c-20.667 -21.333 -31 -48.666 -31 -81.999s10.167 -60.833 30.5 -82.5s46.833 -32.5 79.5 -32.5c32 0 58.167 10.833 78.5 32.5s30.5 49.167 30.5 82.5s-10.167 60.666 -30.5 81.999
s-46.5 32 -78.5 32s-58.333 -10.667 -79 -32z" />
    <glyph glyph-name="A" unicode="A" horiz-adv-x="696" 
d="M492 159h-288l-59 -159h-142l281 700h128l281 -700h-142zM450 275l-102 275l-102 -275h204z" />
    <glyph glyph-name="B" unicode="B" horiz-adv-x="621" 
d="M549.5 317.5c25.667 -29 38.501 -68.832 38.501 -119.499c0 -64.667 -21.333 -113.834 -64 -147.501s-96.667 -50.5 -162 -50.5h-296v700h277c63.333 0 114.166 -15.167 152.499 -45.5s57.5 -73.833 57.5 -130.5c0 -38 -9.16699 -70 -27.5 -96s-44.833 -44.333 -79.5 -55
v-2c43.333 -6.66699 77.833 -24.5 103.5 -53.5zM194.001 582.001l-0.000976562 -168h124c32.667 0 57.667 7.33301 75 22s26 35.667 26 63c0 26.667 -8.66699 47.167 -26 61.5s-40.666 21.5 -69.999 21.5h-129zM422 142.501c20 16.333 30 39.168 30 68.501
s-10 52.166 -30 68.499s-49 24.5 -87 24.5h-141v-186h146c34.667 0 62 8.16699 82 24.5z" />
    <glyph glyph-name="C" unicode="C" horiz-adv-x="675" 
d="M211 30.5c-57.333 30.333 -102 72.998 -134 127.998s-48 118.833 -48 191.5s16 136.5 48 191.5s76.667 97.667 134 128s122.666 45.5 195.999 45.5c93.333 0 176.666 -25.667 249.999 -77l-74 -112c-55.333 38.667 -114.333 58 -177 58c-45.333 0 -86 -9.66699 -122 -29
s-64.167 -46.666 -84.5 -81.999s-30.5 -76.333 -30.5 -123s10.167 -87.667 30.5 -123s48.5 -62.666 84.5 -81.999s76.667 -29 122 -29c62.667 0 121.667 19.333 177 58l74 -112c-73.333 -51.333 -156.666 -77 -249.999 -77c-73.333 0 -138.666 15.167 -195.999 45.5z" />
    <glyph glyph-name="D" unicode="D" horiz-adv-x="683" 
d="M478.5 657.5c55 -28.333 98 -68.833 129 -121.5s46.5 -114.667 46.5 -186s-15.5 -133.333 -46.5 -186s-74 -93.167 -129 -121.5s-117.833 -42.5 -188.5 -42.5h-224v700h224c70.667 0 133.5 -14.167 188.5 -42.5zM194 582v-464h102c42.667 0 80.5 9 113.5 27
s59 44.333 78 79s28.5 76.667 28.5 126s-9.5 91.333 -28.5 126s-45 61 -78 79s-70.833 27 -113.5 27h-102z" />
    <glyph glyph-name="E" unicode="E" horiz-adv-x="525" 
d="M486 120v-120h-420v700h415v-120h-287v-140h262v-118h-262v-202h292z" />
    <glyph glyph-name="F" unicode="F" horiz-adv-x="510" 
d="M194 580v-172h266v-118h-266v-290h-128v700h424v-120h-296z" />
    <glyph glyph-name="G" unicode="G" horiz-adv-x="767" 
d="M747 356c0 -68.667 -13.002 -131.003 -39.002 -187.003s-65 -100.667 -117 -134s-116 -50 -192 -50c-71.333 0 -135 15 -191 45s-99.833 72.5 -131.5 127.5s-47.5 119.167 -47.5 192.5c0 71.333 15.5 134.666 46.5 189.999s74.833 98.333 131.5 129s122.667 46 198 46
c104.667 0 195.334 -31 272.001 -93l-85 -109c-56.667 47.333 -120.667 71 -192 71c-46.667 0 -87.5 -10.167 -122.5 -30.5s-61.833 -48.166 -80.5 -83.499s-28 -75.333 -28 -120c0 -45.333 9.66699 -85.666 29 -120.999s46.833 -63 82.5 -83s77.167 -30 124.5 -30
c42.667 0 78.834 7.83301 108.501 23.5s52.5 35.834 68.5 60.501s25.333 50.667 28 78h-201v118h337c0.666992 -9.33301 1 -22.666 1 -39.999z" />
    <glyph glyph-name="H" unicode="H" horiz-adv-x="720" 
d="M654 700v-700h-128v307h-332v-307h-128v700h128v-271h332v271h128z" />
    <glyph glyph-name="I" unicode="I" horiz-adv-x="261" 
d="M195 0h-129v700h129v-700z" />
    <glyph glyph-name="J" unicode="J" horiz-adv-x="287" 
d="M221 175c0 -61.333 -13.666 -106.501 -40.999 -135.501s-69 -43.5 -125 -43.5h-42v122h29c17.333 0 30.166 4.83301 38.499 14.5s12.5 25.834 12.5 48.501v519h128v-525z" />
    <glyph glyph-name="K" unicode="K" horiz-adv-x="685" 
d="M497 0l-303 343v-343h-128v700h128v-310l264 310h176l-297 -324l346 -376h-186z" />
    <glyph glyph-name="L" unicode="L" horiz-adv-x="489" 
d="M194 121h292v-121h-420v700h128v-579z" />
    <glyph glyph-name="M" unicode="M" horiz-adv-x="873" 
d="M870 0h-135l-106 455h-2l-144 -351h-93l-144 351h-2l-107 -455h-134l174 700h100l158 -398h2l159 398h100z" />
    <glyph glyph-name="N" unicode="N" horiz-adv-x="720" 
d="M654 0h-119l-340 480h-1v-480h-128v700h119l340 -481h1v481h128v-700z" />
    <glyph glyph-name="O" unicode="O" horiz-adv-x="791" 
d="M582 669c56 -30.667 100 -73.834 132 -129.501s48 -118.834 48 -189.501s-16 -133.834 -48 -189.501s-76 -98.834 -132 -129.501s-118.333 -46 -187 -46s-130.834 15.333 -186.501 46s-99.5 73.834 -131.5 129.501s-48 118.834 -48 189.501s16 133.834 48 189.501
s75.833 98.834 131.5 129.501s117.834 46 186.501 46s131 -15.333 187 -46zM278.5 554.5c-34.333 -19.667 -61.166 -47.332 -80.499 -82.999s-29 -76.167 -29 -121.5s9.66699 -85.833 29 -121.5s46.166 -63.334 80.499 -83.001s73.166 -29.5 116.499 -29.5
s82.166 9.83301 116.499 29.5s61.166 47.167 80.499 82.5s29 76 29 122s-9.66699 86.667 -29 122s-46.166 62.833 -80.499 82.5s-73.166 29.5 -116.499 29.5s-82.166 -9.83301 -116.499 -29.5z" />
    <glyph glyph-name="P" unicode="P" horiz-adv-x="557" 
d="M485 639.5c40.667 -40.333 61 -92.833 61 -157.5c0 -66.667 -20.333 -120.5 -61 -161.5s-99 -61.5 -175 -61.5h-116v-259h-128v700h244c76 0 134.333 -20.167 175 -60.5zM379 403.5c20 17.667 30 43.5 30 77.5c0 33.333 -10 58.5 -30 75.5s-47.667 25.5 -83 25.5h-102
v-205h102c35.333 0 63 8.83301 83 26.5z" />
    <glyph glyph-name="Q" unicode="Q" horiz-adv-x="796" 
d="M636 0l-39.001 39.999c-59.333 -36.667 -126.666 -55 -201.999 -55c-68.667 0 -130.834 15.333 -186.501 46s-99.5 73.834 -131.5 129.501s-48 118.834 -48 189.501s16 133.834 48 189.501s75.833 98.834 131.5 129.501s117.834 46 186.501 46s131 -15.333 187 -46
s100 -73.834 132 -129.501s48 -118.834 48 -189.501c0 -46.667 -7.16699 -90.334 -21.5 -131.001s-34.833 -76.667 -61.5 -108l110 -111h-153zM497.999 138.999l-152.002 153.001h154l81 -82c26.667 38.667 40 85.334 40 140.001c0 46 -9.66699 86.667 -29 122
s-46.166 62.833 -80.499 82.5s-73.166 29.5 -116.499 29.5s-82.166 -9.83301 -116.499 -29.5s-61.166 -47.334 -80.499 -83.001s-29 -76.167 -29 -121.5s9.66699 -85.833 29 -121.5s46.166 -63.334 80.499 -83.001s73.166 -29.5 116.499 -29.5c38 0 72.333 7.66699 103 23z
" />
    <glyph glyph-name="R" unicode="R" horiz-adv-x="598" 
d="M241 279h-47v-279h-128v700h258c46 0 86 -8.83301 120 -26.5s60.167 -42.5 78.5 -74.5s27.5 -69 27.5 -111c0 -52 -14.5 -96.167 -43.5 -132.5s-69.167 -59.833 -120.5 -70.5l207 -285h-161zM194 392l110 0.000976562c36 0 63.167 8.16699 81.5 24.5s27.5 39.5 27.5 69.5
c0 29.333 -9.16699 52.666 -27.5 69.999s-45.5 26 -81.5 26h-110v-190z" />
    <glyph glyph-name="S" unicode="S" horiz-adv-x="521" 
d="M474 666l-55.002 -117.001c-56 28.667 -105.667 43 -149 43c-48.667 0 -73 -17 -73 -51c0 -13.333 4 -25.166 12 -35.499s22 -22.5 42 -36.5l121 -85c40.667 -28 70.834 -57.167 90.501 -87.5s29.5 -66.833 29.5 -109.5c0 -65.333 -21.167 -115.333 -63.5 -150
s-100.833 -52 -175.5 -52c-44 0 -86.833 6 -128.5 18s-79.5 28.667 -113.5 50l57 117c69.333 -40.667 132.333 -61 189 -61c32 0 56.5 6.5 73.5 19.5s25.5 30.167 25.5 51.5c0 16.667 -5.66699 31.667 -17 45s-29.333 29 -54 47l-113 81
c-37.333 26 -65.166 53.833 -83.499 83.5s-27.5 63.167 -27.5 100.5c0 55.333 18.167 98.833 54.5 130.5s87.5 47.5 153.5 47.5s134.333 -16.333 205 -49z" />
    <glyph glyph-name="T" unicode="T" horiz-adv-x="526" 
d="M518 580h-191v-580h-128v580h-191v120h510v-120z" />
    <glyph glyph-name="U" unicode="U" horiz-adv-x="693" 
d="M635 276c0 -58.667 -11.334 -109.832 -34.001 -153.499s-55.667 -77.334 -99 -101.001s-95 -35.5 -155 -35.5c-91.333 0 -162.333 26 -213 78s-76 122.667 -76 212v424h135v-416c0 -50.667 14 -91 42 -121s65.333 -45 112 -45s83.834 15 111.501 45s41.5 70.333 41.5 121
v416h135v-424z" />
    <glyph glyph-name="V" unicode="V" horiz-adv-x="653" 
d="M391 0h-129l-259 700h150l172 -528h3l172 528h150z" />
    <glyph glyph-name="W" unicode="W" horiz-adv-x="1023" 
d="M790 0h-118l-159 491h-3l-159 -491h-118l-222 700h147l135 -495h2l157 495h119l158 -495h2l135 495h146z" />
    <glyph glyph-name="X" unicode="X" horiz-adv-x="668" 
d="M504 0l-170 267l-170 -267h-158l247 371l-220 329h159l142 -224l143 224h158l-220 -329l247 -371h-158z" />
    <glyph glyph-name="Y" unicode="Y" horiz-adv-x="597" 
d="M363 269v-269h-129v267l-234 433h151l146 -301h3l146 301h151z" />
    <glyph glyph-name="Z" unicode="Z" horiz-adv-x="554" 
d="M534 120v-120h-514v120l346 460h-317v120h473v-120l-345 -460h357z" />
    <glyph glyph-name="bracketleft" unicode="[" horiz-adv-x="345" 
d="M335 661h-130v-779h130v-97h-242v974h242v-98z" />
    <glyph glyph-name="backslash" unicode="\" horiz-adv-x="622" 
d="M30 736l91 50l471 -849l-92 -49z" />
    <glyph glyph-name="bracketright" unicode="]" horiz-adv-x="345" 
d="M10 -118h130v779h-130v98h242v-974h-242v97z" />
    <glyph glyph-name="asciicircum" unicode="^" 
d="M502 393h-90l-112 257l-112 -257h-90l144 322h116z" />
    <glyph glyph-name="underscore" unicode="_" horiz-adv-x="533" 
d="M523 -111h-513v96h513v-96z" />
    <glyph glyph-name="grave" unicode="`" horiz-adv-x="349" 
d="M299 553h-96l-153 154h145z" />
    <glyph glyph-name="a" unicode="a" horiz-adv-x="578" 
d="M136 14c-34 19.333 -60.833 47.5 -80.5 84.5s-29.5 81.167 -29.5 132.5s9.83301 95.5 29.5 132.5s46.5 65.167 80.5 84.5s71.333 29 112 29c36 0 66.833 -7 92.5 -21s46.167 -33.667 61.5 -59h2v65h122v-462h-122v65h-2c-15.333 -25.333 -35.833 -45 -61.5 -59
s-56.5 -21 -92.5 -21c-40.667 0 -78 9.66699 -112 29zM369.5 137c23 24 34.5 55.333 34.5 94s-11.5 70 -34.5 94s-53.167 36 -90.5 36s-67.5 -12 -90.5 -36s-34.5 -55.333 -34.5 -94s11.5 -70 34.5 -94s53.167 -36 90.5 -36s67.5 12 90.5 36z" />
    <glyph glyph-name="b" unicode="b" horiz-adv-x="583" 
d="M242.5 6c-25.667 14 -46.167 33.667 -61.5 59h-2v-65h-123v700h123v-303h2c15.333 25.333 35.833 45 61.5 59s56.5 21 92.5 21c40.667 0 78 -9.66699 112 -29s60.833 -47.5 80.5 -84.5s29.5 -81.167 29.5 -132.5s-9.83301 -95.5 -29.5 -132.5s-46.5 -65.167 -80.5 -84.5
s-71.333 -29 -112 -29c-36 0 -66.833 7 -92.5 21zM394.5 137c23 24 34.5 55.333 34.5 94s-11.5 70 -34.5 94s-53.167 36 -90.5 36s-67.5 -12 -90.5 -36s-34.5 -55.333 -34.5 -94s11.5 -70 34.5 -94s53.167 -36 90.5 -36s67.5 12 90.5 36z" />
    <glyph glyph-name="c" unicode="c" horiz-adv-x="457" 
d="M149 15.5c-38.667 20.333 -68.834 49.168 -90.501 86.501s-32.5 80.333 -32.5 129s10.833 91.667 32.5 129s51.834 66.166 90.501 86.499s82.667 30.5 132 30.5c58.667 0 112.667 -15.333 162 -46l-53 -101c-34 21.333 -69.667 32 -107 32
c-38 0 -69.333 -12.167 -94 -36.5s-37 -55.833 -37 -94.5s12.333 -70.167 37 -94.5s56 -36.5 94 -36.5c37.333 0 73 10.667 107 32l53 -101c-49.333 -30.667 -103.333 -46 -162 -46c-49.333 0 -93.333 10.167 -132 30.5z" />
    <glyph glyph-name="d" unicode="d" horiz-adv-x="583" 
d="M136 14c-34 19.333 -60.833 47.5 -80.5 84.5s-29.5 81.167 -29.5 132.5s9.83301 95.5 29.5 132.5s46.5 65.167 80.5 84.5s71.333 29 112 29c36 0 66.833 -7 92.5 -21s46.167 -33.667 61.5 -59h2v303h122v-700h-122v65h-2c-15.333 -25.333 -35.833 -45 -61.5 -59
s-56.5 -21 -92.5 -21c-40.667 0 -78 9.66699 -112 29zM369.5 137c23 24 34.5 55.333 34.5 94s-11.5 70 -34.5 94s-53.167 36 -90.5 36s-67.5 -12 -90.5 -36s-34.5 -55.333 -34.5 -94s11.5 -70 34.5 -94s53.167 -36 90.5 -36s67.5 12 90.5 36z" />
    <glyph glyph-name="e" unicode="e" horiz-adv-x="514" 
d="M431 412.5c39.333 -43 59 -103.833 59 -182.5v-24h-345c3.33301 -35.333 16.833 -62.833 40.5 -82.5s53.5 -29.5 89.5 -29.5c50 0 96 21 138 63l62 -89c-26 -24 -55 -43.833 -87 -59.5s-69.667 -23.5 -113 -23.5c-50 0 -93.667 10.167 -131 30.5s-66.333 49 -87 86
s-31 79.833 -31 128.5s10 91.667 30 129s48 66.333 84 87s78 31 126 31c70.667 0 125.667 -21.5 165 -64.5zM184.5 355c-19.667 -15.333 -31.832 -38.666 -36.499 -69.999h218c-2 29.333 -12.5 52.166 -31.5 68.499s-43.833 24.5 -74.5 24.5s-55.834 -7.66699 -75.501 -23z
" />
    <glyph glyph-name="f" unicode="f" horiz-adv-x="326" 
d="M236.5 576c-14.333 -13.333 -21.5 -36 -21.5 -68v-46h95v-103h-95v-359h-122v359h-77v103h77v46c0 66.667 16.667 117 50 151s82.666 51 147.999 51h25v-114h-14c-29.333 0 -51.166 -6.66699 -65.499 -20z" />
    <glyph glyph-name="g" unicode="g" horiz-adv-x="578" 
d="M106 -193l22.0029 116.999c64 -15.333 117.667 -23 161 -23c42 0 71.667 8.83301 89 26.5s26 49.167 26 94.5v43h-2c-34.667 -51.333 -86.334 -77 -155.001 -77c-40.667 0 -77.834 9.5 -111.501 28.5s-60.334 46.833 -80.001 83.5s-29.5 80.334 -29.5 131.001
c0 51.333 9.83301 95.5 29.5 132.5s46.5 65.167 80.5 84.5s71.333 29 112 29c36 0 66.833 -7 92.5 -21s46.167 -33.667 61.5 -59h2v65h122v-462c-0.666992 -78 -21 -133.333 -61 -166s-97 -49 -171 -49c-50 0 -112.667 7.33301 -188 22zM369.503 136.999
c23 24 34.5 55.333 34.5 94s-11.5 70 -34.5 94s-53.167 36 -90.5 36s-67.5 -12 -90.5 -36s-34.5 -55.333 -34.5 -94s11.5 -70 34.5 -94s53.167 -36 90.5 -36s67.5 12 90.5 36z" />
    <glyph glyph-name="h" unicode="h" horiz-adv-x="554" 
d="M179 396l2.00098 -0.000976562c34 54 84 81 150 81c53.333 0 95.666 -15.667 126.999 -47s47 -79.666 47 -144.999v-285h-123v256c0 71.333 -32 107 -96 107c-33.333 0 -59.5 -11 -78.5 -33s-28.5 -56.667 -28.5 -104v-226h-123v700h123v-304z" />
    <glyph glyph-name="i" unicode="i" horiz-adv-x="236" 
d="M56 462h123v-462h-123v462zM188 559h-140v135h140v-135z" />
    <glyph glyph-name="j" unicode="j" horiz-adv-x="236" 
d="M0 -90c20 0 34.333 4.83301 43 14.5s13 25.167 13 46.5v491h123v-496c0 -55.333 -13.5 -97.333 -40.5 -126s-66.833 -43 -119.5 -43h-40v113h21zM188 559h-140v135h140v-135z" />
    <glyph glyph-name="k" unicode="k" horiz-adv-x="517" 
d="M352 0l-173 221v-221h-123v700h123v-429l152 191h156l-189 -210l214 -252h-160z" />
    <glyph glyph-name="l" unicode="l" horiz-adv-x="236" 
d="M179 0h-123v700h123v-700z" />
    <glyph glyph-name="m" unicode="m" horiz-adv-x="822" 
d="M54 462l121.001 -0.000976562v-70h2c12.667 28 31.334 49.167 56.001 63.5s53 21.5 85 21.5c34 0 63 -7.66699 87 -23s42.333 -38.333 55 -69h2c15.333 30 36.166 52.833 62.499 68.5s55.833 23.5 88.5 23.5c47.333 0 86 -15.667 116 -47s45 -77 45 -137v-293h-123v267
c0 30.667 -7 54.334 -21 71.001s-35 25 -63 25c-28.667 0 -51.334 -10.167 -68.001 -30.5s-25 -52.833 -25 -97.5v-235h-121v267c0 30.667 -7 54.334 -21 71.001s-34.667 25 -62 25c-28.667 0 -51.5 -10.333 -68.5 -31s-25.5 -53.334 -25.5 -98.001v-234h-122v462z" />
    <glyph glyph-name="n" unicode="n" horiz-adv-x="551" 
d="M455 430c31.333 -31.333 47 -79.667 47 -145v-285h-123v256c0 71.333 -31.667 107 -95 107c-33.333 0 -59.666 -11 -78.999 -33s-29 -56.667 -29 -104v-226h-122v462h121v-70h2c16 27.333 36.833 48.333 62.5 63s55.167 22 88.5 22c53.333 0 95.666 -15.667 126.999 -47z
" />
    <glyph glyph-name="o" unicode="o" horiz-adv-x="563" 
d="M413.5 445.5c39 -21 69.5 -50.167 91.5 -87.5s33 -79.666 33 -126.999s-11 -89.666 -33 -126.999s-52.5 -66.5 -91.5 -87.5s-82.833 -31.5 -131.5 -31.5s-92.5 10.5 -131.5 31.5s-69.5 50.167 -91.5 87.5s-33 79.666 -33 126.999s11 89.666 33 126.999
s52.5 66.5 91.5 87.5s82.833 31.5 131.5 31.5s92.5 -10.5 131.5 -31.5zM188.5 325.5c-24.333 -23.667 -36.5 -55.167 -36.5 -94.5s12.167 -70.833 36.5 -94.5s55.5 -35.5 93.5 -35.5s69 11.833 93 35.5s36 55.167 36 94.5s-12 70.833 -36 94.5s-55 35.5 -93 35.5
s-69.167 -11.833 -93.5 -35.5z" />
    <glyph glyph-name="p" unicode="p" horiz-adv-x="580" 
d="M54 462h122v-65h2c15.333 25.333 35.833 45 61.5 59s56.5 21 92.5 21c40.667 0 78 -9.66699 112 -29s60.833 -47.5 80.5 -84.5s29.5 -81.167 29.5 -132.5s-9.83301 -95.5 -29.5 -132.5s-46.5 -65.167 -80.5 -84.5s-71.333 -29 -112 -29c-36 0 -66.833 7 -92.5 21
s-46.167 33.667 -61.5 59h-2v-265h-122v662zM391.5 137c23 24 34.5 55.333 34.5 94s-11.5 70 -34.5 94s-53.167 36 -90.5 36s-67.5 -12 -90.5 -36s-34.5 -55.333 -34.5 -94s11.5 -70 34.5 -94s53.167 -36 90.5 -36s67.5 12 90.5 36z" />
    <glyph glyph-name="q" unicode="q" horiz-adv-x="578" 
d="M404 65h-2c-15.333 -25.333 -35.833 -45 -61.5 -59s-56.5 -21 -92.5 -21c-40.667 0 -78 9.66699 -112 29s-60.833 47.5 -80.5 84.5s-29.5 81.167 -29.5 132.5s9.83301 95.5 29.5 132.5s46.5 65.167 80.5 84.5s71.333 29 112 29c36 0 66.833 -7 92.5 -21
s46.167 -33.667 61.5 -59h2v65h122v-662h-122v265zM369.5 137c23 24 34.5 55.333 34.5 94s-11.5 70 -34.5 94s-53.167 36 -90.5 36s-67.5 -12 -90.5 -36s-34.5 -55.333 -34.5 -94s11.5 -70 34.5 -94s53.167 -36 90.5 -36s67.5 12 90.5 36z" />
    <glyph glyph-name="r" unicode="r" horiz-adv-x="345" 
d="M335 344h-14c-50 0 -86.667 -12 -110 -36s-35 -63.667 -35 -119v-189h-122v462h121v-98h2c12 36 31 63.667 57 83s58 29 96 29h5v-132z" />
    <glyph glyph-name="s" unicode="s" horiz-adv-x="418" 
d="M109 -3c-34.667 8 -66.668 20.332 -96.001 36.999l50 104c54.667 -32 106.334 -48 155.001 -48c38 0 57 11 57 33c0 8.66699 -3 15.667 -9 21s-16.333 11.666 -31 18.999l-83 36c-36 16 -62.333 35.333 -79 58s-25 49.334 -25 80.001c0 45.333 15.333 80 46 104
s75 36 133 36c52 0 106.667 -10.667 164 -32l-41 -103c-50 21.333 -93.333 32 -130 32c-17.333 0 -29.5 -2.33301 -36.5 -7s-10.5 -11.667 -10.5 -21c0 -8.66699 3.16699 -16 9.5 -22s17.833 -12.667 34.5 -20l83 -36c34 -14 59.5 -31.667 76.5 -53
s25.5 -48.666 25.5 -81.999c0 -49.333 -17 -86.333 -51 -111s-80.667 -37 -140 -37c-33.333 0 -67.333 4 -102 12z" />
    <glyph glyph-name="t" unicode="t" horiz-adv-x="334" 
d="M221 359v-194c0 -18.667 3.66699 -32 11 -40s20 -12 38 -12h21v-114h-54c-44.667 0 -79 11.5 -103 34.5s-36 57.167 -36 102.5v223h-85v103h85v185h123v-185h95v-103h-95z" />
    <glyph glyph-name="u" unicode="u" horiz-adv-x="541" 
d="M96.5 33c-31.667 32 -47.498 80.667 -47.498 146v283h126v-261c0 -34.667 7.66699 -60.5 23 -77.5s36.666 -25.5 63.999 -25.5c32 0 57 11.5 75 34.5s27 58.833 27 107.5v222h123v-462h-121v71h-2c-32 -57.333 -80 -86 -144 -86c-50.667 0 -91.834 16 -123.501 48z" />
    <glyph glyph-name="v" unicode="v" horiz-adv-x="507" 
d="M502 462l-189 -462h-120l-188 462h139l109 -320l109 320h140z" />
    <glyph glyph-name="w" unicode="w" horiz-adv-x="762" 
d="M757 462l-161 -462h-109l-106 302l-106 -302h-109l-161 462h128l89 -303l101 303h116l101 -305l89 305h128z" />
    <glyph glyph-name="x" unicode="x" horiz-adv-x="527" 
d="M263 156l-110 -156h-148l184 243l-162 219h149l87 -134l88 134h149l-162 -219l184 -243h-149z" />
    <glyph glyph-name="y" unicode="y" horiz-adv-x="520" 
d="M515 462l-296 -662h-127l113 243l-200 419h144l117 -281l120 281h129z" />
    <glyph glyph-name="z" unicode="z" horiz-adv-x="443" 
d="M423 108v-108h-402v99l235 255h-222v108h372v-98l-237 -256h254z" />
    <glyph glyph-name="braceleft" unicode="{" horiz-adv-x="408" 
d="M398 650l-30 -0.00292969c-29.333 0 -52.5 -7.5 -69.5 -22.5s-25.5 -43.167 -25.5 -84.5v-106c0 -45.333 -9.16699 -81.166 -27.5 -107.499s-47.5 -44.166 -87.5 -53.499v-2c40 -9.33301 69.167 -27.166 87.5 -53.499s27.5 -62.166 27.5 -107.499v-118
c0 -41.333 8.5 -69.333 25.5 -84s40.167 -22 69.5 -22h30v-104h-39c-55.333 0 -101.833 16.167 -139.5 48.5s-56.5 84.166 -56.5 155.499v128c0 30.667 -11.333 54.667 -34 72s-54 27 -94 29v114c40 2 71.333 11.667 94 29s34 41.333 34 72v116
c0 71.333 18.833 123.333 56.5 156s84.167 49 139.5 49h39v-104z" />
    <glyph glyph-name="bar" unicode="|" horiz-adv-x="317" 
d="M207 -215h-97v942h97v-942z" />
    <glyph glyph-name="braceright" unicode="}" horiz-adv-x="408" 
d="M10 -111l30 0.00292969c29.333 0 52.666 7.33301 69.999 22s26 42.667 26 84v118c0 45.333 9 81.166 27 107.499s47 44.166 87 53.499v2c-40 9.33301 -69 27.166 -87 53.499s-27 62.166 -27 107.499v106c0 41.333 -8.66699 69.5 -26 84.5s-40.666 22.5 -69.999 22.5h-30
v104h39c55.333 0 101.833 -16.333 139.5 -49s56.5 -84.667 56.5 -156v-116c0 -30.667 11.333 -54.667 34 -72s54 -27 94 -29v-114c-40 -2 -71.333 -11.667 -94 -29s-34 -41.333 -34 -72v-128c0 -71.333 -18.833 -123.166 -56.5 -155.499s-84.167 -48.5 -139.5 -48.5h-39v104
z" />
    <glyph glyph-name="asciitilde" unicode="~" 
d="M257.5 381c18.333 -6 38.5029 -14.333 60.5029 -25c18.667 -8.66699 34.667 -15.334 48 -20.001s27.666 -7 42.999 -7c22 0 41 4.33301 57 13s36 22.667 60 42l53 -84c-30.667 -25.333 -59.834 -44.166 -87.501 -56.499s-56.5 -18.5 -86.5 -18.5
c-22 0 -41.667 2.66699 -59 8s-36.666 13.333 -57.999 24c-20.667 9.33301 -37.667 16.333 -51 21s-28.333 7 -45 7c-22.667 0 -41.834 -4.33301 -57.501 -13s-35.834 -23 -60.501 -43l-53 84c31.333 26 60.833 45.333 88.5 58s56.5 19 86.5 19c22.667 0 43.167 -3 61.5 -9z
" />
    <glyph glyph-name="exclamdown" unicode="&#xa1;" horiz-adv-x="323" 
d="M92 500h139v-139h-139v139zM118 280h87l27 -480h-142z" />
    <glyph glyph-name="cent" unicode="&#xa2;" horiz-adv-x="452" 
d="M422 19c-41.333 -22 -85.333 -33.334 -132 -34.001v-49h-28v50c-44.667 3.33301 -84.334 15.833 -119.001 37.5s-61.667 50.5 -81 86.5s-29 76.333 -29 121s9.83301 85.167 29.5 121.5s46.834 65.333 81.501 87s74 33.834 118 36.501v55h28v-54
c45.333 -2 88.333 -12.333 129 -31v-119c-27.333 12.667 -50.5 21.5 -69.5 26.5s-38.833 7.5 -59.5 7.5v-260c20 0 40 3 60 9s44 15.667 72 29v-120zM188.5 145.999c19 -22.667 43.501 -36.999 73.501 -42.999v256c-30.667 -5.33301 -55.334 -19.333 -74.001 -42
s-28 -51 -28 -85c0 -34.667 9.5 -63.334 28.5 -86.001z" />
    <glyph glyph-name="sterling" unicode="&#xa3;" horiz-adv-x="539" 
d="M198 113l294.002 0.00195312v-113h-434v92c33.333 18.667 60.666 41.167 81.999 67.5s32 53.833 32 82.5c0 16.667 -3.16699 32 -9.5 46s-16.833 33 -31.5 57h-91v30h73c-22 39.333 -33 78.666 -33 117.999c0 59.333 19.5 107 58.5 143s93.167 54 162.5 54
c64.667 0 116.667 -17.167 156 -51.5s59 -85.5 59 -153.5h-127c-1.33301 29.333 -9.83301 51.666 -25.5 66.999s-37.5 23 -65.5 23s-50 -8 -66 -24s-24 -37 -24 -63c0 -17.333 3.66699 -34.5 11 -51.5s18 -37.5 32 -61.5h169v-30h-151
c9.33301 -18 16.666 -34.333 21.999 -49s8 -29.667 8 -45c0 -54 -34 -99 -102 -135z" />
    <glyph glyph-name="currency" unicode="&#xa4;" 
d="M522.5 236c-10.333 -27.333 -25.166 -51 -44.499 -71l55 -55l-20 -19l-55 55c-44.667 -36 -97.334 -54 -158.001 -54c-30.667 0 -59.5 4.66699 -86.5 14s-50.833 22.666 -71.5 39.999l-56 -55l-19 20l55 55c-19.333 20 -34.166 43.5 -44.499 70.5
s-15.5 56.167 -15.5 87.5s5.16699 60.5 15.5 87.5s25.166 50.5 44.499 70.5l-55 55l20 20l55 -55c44.667 36 97.334 54 158.001 54c30.667 0 59.5 -4.66699 86.5 -14s50.833 -23 71.5 -41l55 56l20 -20l-55 -55c19.333 -20 34.166 -43.5 44.499 -70.5
s15.5 -56.167 15.5 -87.5s-5.16699 -60.666 -15.5 -87.999zM388 235.5c22.667 22.333 34 51.833 34 88.5c0 36 -11.333 65.333 -34 88s-52 34 -88 34s-65.333 -11.333 -88 -34s-34 -52 -34 -88c0 -36.667 11.333 -66.167 34 -88.5s52 -33.5 88 -33.5s65.333 11.167 88 33.5z
" />
    <glyph glyph-name="yen" unicode="&#xa5;" horiz-adv-x="609" 
d="M416 337h115v-30h-130l-29 -56h159v-30h-167v-221h-120v221h-167v30h159l-28 56h-131v30h116l-170 338h146l135 -312l136 312h146z" />
    <glyph glyph-name="brokenbar" unicode="&#xa6;" horiz-adv-x="317" 
d="M207 339h-97v388h97v-388zM207 -215h-97v396h97v-396z" />
    <glyph glyph-name="section" unicode="&#xa7;" horiz-adv-x="565" 
d="M490.5 175.5c-16.333 -27 -38.168 -49.832 -65.501 -68.499c28 -29.333 42 -64.333 42 -105c0 -49.333 -17 -88.333 -51 -117s-82 -43 -144 -43c-70 0 -133.333 19 -190 57l60 97c21.333 -14 44.166 -25.167 68.499 -33.5s47.833 -12.5 70.5 -12.5
c23.333 0 40.833 4.33301 52.5 13s17.5 20.667 17.5 36c0 18 -8.66699 32.833 -26 44.5s-45.666 26.167 -84.999 43.5s-71.666 33.333 -96.999 48s-47.166 34.667 -65.499 60s-27.5 56.666 -27.5 93.999c0 34.667 8 65.5 24 92.5s37.667 49.5 65 67.5c-28 30 -42 65 -42 105
c0 49.333 17.167 88.5 51.5 117.5s82.5 43.5 144.5 43.5c66 0 129.333 -18.333 190 -55l-60 -99c-22 14 -45 25 -69 33s-47.667 12 -71 12c-22.667 0 -40 -4.33301 -52 -13s-18 -20.334 -18 -35.001c0 -18.667 9 -34 27 -46s46 -26 84 -42c40 -17.333 72.667 -33.333 98 -48
s47.166 -34.667 65.499 -60s27.5 -56.666 27.5 -93.999c0 -34.667 -8.16699 -65.5 -24.5 -92.5zM182.498 253.001c11 -12.667 24.499 -23.501 40.499 -32.501s39 -20.167 69 -33.5c18.667 -8 32.667 -14.333 42 -19c18 10.667 33.167 23.667 45.5 39s18.5 32.333 18.5 51
c0 17.333 -5.5 32.5 -16.5 45.5s-24.667 24 -41 33s-39.166 20.167 -68.499 33.5l-41 19c-18.667 -11.333 -34.167 -24.666 -46.5 -39.999s-18.5 -32.333 -18.5 -51c0 -17.333 5.5 -32.333 16.5 -45z" />
    <glyph glyph-name="dieresis" unicode="&#xa8;" horiz-adv-x="399" 
d="M161 563h-111v127h111v-127zM349 563h-111v127h111v-127z" />
    <glyph glyph-name="copyright" unicode="&#xa9;" horiz-adv-x="828" 
d="M230 32c-55.333 31.333 -99.166 74.833 -131.499 130.5s-48.5 118.167 -48.5 187.5s16.167 131.833 48.5 187.5s76.166 99.167 131.499 130.5s116.666 47 183.999 47s128.666 -15.667 183.999 -47s99.166 -74.833 131.499 -130.5s48.5 -118.167 48.5 -187.5
s-16.167 -131.833 -48.5 -187.5s-76.166 -99.167 -131.499 -130.5s-116.666 -47 -183.999 -47s-128.666 15.667 -183.999 47zM563 89c44.667 25.333 80 60.666 106 105.999s39 97 39 155s-13 109.667 -39 155s-61.333 80.666 -106 105.999s-94.334 38 -149.001 38
s-104.334 -12.667 -149.001 -38s-80 -60.666 -106 -105.999s-39 -97 -39 -155s13 -109.667 39 -155s61.333 -80.666 106 -105.999s94.334 -38 149.001 -38s104.334 12.667 149.001 38zM300.5 157.5c-35.667 19.667 -63.498 46.8291 -83.498 81.4961s-30 73.334 -30 116.001
s10 81.334 30 116.001s47.833 61.834 83.5 81.501s75.5 29.5 119.5 29.5c54 0 104.333 -16.333 151 -49l-43 -75c-16.667 10.667 -33.834 19.334 -51.501 26.001s-37.5 10 -59.5 10c-40 0 -72.5 -12.833 -97.5 -38.5s-37.5 -59.167 -37.5 -100.5
c0 -42 12.5 -75.667 37.5 -101s57.5 -38 97.5 -38c22 0 41.667 3.16699 59 9.5s34.666 14.833 51.999 25.5l43 -75c-46 -32 -96.333 -48 -151 -48c-44 0 -83.833 9.83301 -119.5 29.5z" />
    <glyph glyph-name="ordfeminine" unicode="&#xaa;" horiz-adv-x="448" 
d="M123 357c-22.667 12.667 -40.834 31.332 -54.501 55.999s-20.5 54 -20.5 88s6.83301 63.333 20.5 88s31.834 43.334 54.501 56.001s47.334 19 74.001 19c48 0 83 -19.333 105 -58h2v48h96v-306h-96v48h-2c-22 -38.667 -57 -58 -105 -58
c-26.667 0 -51.334 6.33301 -74.001 19zM280.5 446.498c14.333 13.667 21.5 31.8301 21.5 54.4971s-7.16699 40.834 -21.5 54.501s-32.5 20.5 -54.5 20.5c-22.667 0 -41.167 -6.66699 -55.5 -20s-21.5 -31.666 -21.5 -54.999s7.16699 -41.666 21.5 -54.999
s32.833 -20 55.5 -20c22 0 40.167 6.83301 54.5 20.5z" />
    <glyph glyph-name="guillemotleft" unicode="&#xab;" horiz-adv-x="520" 
d="M152 236l155 -167h-134l-155 167l155 166h134zM355 236l155 -167h-134l-155 167l155 166h134z" />
    <glyph glyph-name="logicalnot" unicode="&#xac;" 
d="M529 432v-265h-59v208h-399v57h458z" />
    <glyph glyph-name="uni00AD" unicode="&#xad;" horiz-adv-x="358" 
d="M315 208h-272v114h272v-114z" />
    <glyph glyph-name="registered" unicode="&#xae;" horiz-adv-x="560" 
d="M400.5 685c35.667 -20 63.5 -47.833 83.5 -83.5s30 -76.5 30 -122.5s-10 -87 -30 -123s-47.833 -64 -83.5 -84s-75.834 -30 -120.501 -30s-84.834 10 -120.501 30s-63.5 48 -83.5 84s-30 77 -30 123s10 86.833 30 122.5s47.833 63.5 83.5 83.5s75.834 30 120.501 30
s84.834 -10 120.501 -30zM376.5 312c28.333 16 50.333 38.5 66 67.5s23.5 62.167 23.5 99.5s-7.83301 70.333 -23.5 99s-37.667 51 -66 67s-60.5 24 -96.5 24s-68.167 -8 -96.5 -24s-50.333 -38.333 -66 -67s-23.5 -61.667 -23.5 -99s7.83301 -70.5 23.5 -99.5
s37.667 -51.5 66 -67.5s60.5 -24 96.5 -24s68.167 8 96.5 24zM364.5 490c-10.333 -14 -24.5 -23.333 -42.5 -28l67 -105h-52l-61 102h-31v-102h-44v260h96c24.667 0 44.667 -7 60 -21s23 -32.667 23 -56c0 -19.333 -5.16699 -36 -15.5 -50zM245 500h46
c13.333 0 23.833 3.5 31.5 10.5s11.5 16.167 11.5 27.5c0 12 -3.66699 21.333 -11 28s-18 10 -32 10h-46v-76z" />
    <glyph glyph-name="macron" unicode="&#xaf;" horiz-adv-x="406" 
d="M356 582h-306v85h306v-85z" />
    <glyph glyph-name="degree" unicode="&#xb0;" horiz-adv-x="361" 
d="M281 651c26.667 -26 40 -59.667 40 -101s-13.333 -75.166 -40 -101.499s-60.334 -39.5 -101.001 -39.5s-74.167 13.167 -100.5 39.5s-39.5 60.166 -39.5 101.499s13.167 75 39.5 101s59.833 39 100.5 39s74.334 -13 101.001 -39zM120.5 610.5
c-15.667 -15.667 -23.5 -35.834 -23.5 -60.501c0 -25.333 7.83301 -45.833 23.5 -61.5s35.5 -23.5 59.5 -23.5s43.833 7.83301 59.5 23.5s23.5 36.167 23.5 61.5c0 24.667 -7.83301 44.834 -23.5 60.501s-35.5 23.5 -59.5 23.5s-43.833 -7.83301 -59.5 -23.5z" />
    <glyph glyph-name="plusminus" unicode="&#xb1;" 
d="M329 388h210v-55h-210v-133h-58v133h-210v55h210v133h58v-133zM539 99h-478v57h478v-57z" />
    <glyph glyph-name="acute" unicode="&#xb4;" horiz-adv-x="349" 
d="M146 553h-96l104 154h145z" />
    <glyph glyph-name="uni00B5" unicode="&#xb5;" 
d="M519 462l0.000976562 -462h-121v71h-2c-32 -57.333 -80 -86 -144 -86c-20.667 0 -39 2.33301 -55 7v-192h-115v353c-0.666992 5.33301 -1 14 -1 26v283h126v-261c0 -34.667 7.66699 -60.5 23 -77.5s36.666 -25.5 63.999 -25.5c32 0 57 11.5 75 34.5s27 58.833 27 107.5
v222h123z" />
    <glyph glyph-name="paragraph" unicode="&#xb6;" horiz-adv-x="638" 
d="M588 608h-62.001v-714h-93v714h-97v-714h-92v416c-38 0 -71.667 8.33301 -101 25s-52.166 40 -68.499 70s-24.5 64.667 -24.5 104c0 38 8.5 71.333 25.5 100s41 51 72 67s66.5 24 106.5 24h334v-92z" />
    <glyph glyph-name="periodcentered" unicode="&#xb7;" horiz-adv-x="235" 
d="M187 323h-139v139h139v-139z" />
    <glyph glyph-name="cedilla" unicode="&#xb8;" horiz-adv-x="262" 
d="M134 -37c24.667 -5.33301 43.834 -13.001 57.501 -23.001s20.5 -24.667 20.5 -44c0 -16 -6.16699 -30.167 -18.5 -42.5s-27.833 -22.833 -46.5 -31.5s-46.334 -20 -83.001 -34l-14 32c30.667 14 52 24.833 64 32.5s18 15.834 18 24.501c0 10 -4.5 17.333 -13.5 22
s-24.833 9.66699 -47.5 15l44 119h46z" />
    <glyph glyph-name="ordmasculine" unicode="&#xba;" horiz-adv-x="443" 
d="M346 619c32.667 -30 49 -69.333 49 -118s-16.333 -88 -49 -118s-74.334 -45 -125.001 -45c-50 0 -91.333 15 -124 45s-49 69.333 -49 118s16.333 88 49 118s74 45 124 45c50.667 0 92.334 -15 125.001 -45zM167.5 555c-14.333 -13.333 -21.5 -31.333 -21.5 -54
s7.16699 -40.667 21.5 -54s32.166 -20 53.499 -20s39.166 6.66699 53.499 20s21.5 31.333 21.5 54s-7.16699 40.667 -21.5 54s-32.166 20 -53.499 20s-39.166 -6.66699 -53.499 -20z" />
    <glyph glyph-name="guillemotright" unicode="&#xbb;" horiz-adv-x="520" 
d="M368 236l-155 -167h134l155 167l-155 166h-134zM165 236l-155 -167h134l155 167l-155 166h-134z" />
    <glyph glyph-name="onequarter" unicode="&#xbc;" horiz-adv-x="667" 
d="M143 289h-68v318h-33v68h101v-386zM454 675h67l-395 -675h-67zM642 69h-44v-69h-68v69h-201v59l191 258h78v-254h44v-63zM530 132v170h-2l-125 -170h127z" />
    <glyph glyph-name="onehalf" unicode="&#xbd;" horiz-adv-x="687" 
d="M143 289h-68v318h-33v68h101v-386zM454 675h67l-395 -675h-67zM616 363.5c22.667 -21 33.999 -48.833 33.999 -83.5c0 -23.333 -5.66699 -44.5 -17 -63.5s-28 -38.833 -50 -59.5l-97 -91h166v-66h-268l-1 57l143 136c16.667 16 29.334 30.333 38.001 43s13 26 13 40
c0 16 -5.16699 28.833 -15.5 38.5s-24.5 14.5 -42.5 14.5c-41.333 0 -64.333 -20.667 -69 -62h-68c1.33301 40 13.833 71.333 37.5 94s57.167 34 100.5 34c41.333 0 73.333 -10.5 96 -31.5z" />
    <glyph glyph-name="threequarters" unicode="&#xbe;" horiz-adv-x="800" 
d="M273.5 656.5c22.333 -18.333 33.499 -42.502 33.499 -72.502c0 -23.333 -6.16699 -42.5 -18.5 -57.5s-30.5 -25.167 -54.5 -30.5v-1c58 -9.33301 87 -42.333 87 -99c0 -34.667 -12 -62.667 -36 -84s-60 -32 -108 -32c-44 0 -78.5 10.5 -103.5 31.5
s-38.5 50.833 -40.5 89.5h70c4.66699 -37.333 29.334 -56 74.001 -56c23.333 0 41.166 4.83301 53.499 14.5s18.5 23.834 18.5 42.501c0 20.667 -8.33301 35.334 -25 44.001s-42.334 13 -77.001 13v61c59.333 0 89 17.333 89 52c0 32 -20 48 -60 48
c-19.333 0 -35.166 -4.66699 -47.499 -14s-18.833 -23.333 -19.5 -42h-68c2 38 14.833 67.5 38.5 88.5s56.834 31.5 99.501 31.5c40.667 0 72.167 -9.16699 94.5 -27.5zM586.999 674.998h67l-395 -675h-67zM774.999 68.998h-44v-69h-68v69h-201v59l191 258h78v-254h44v-63z
M662.999 131.998v170h-2l-125 -170h127z" />
    <glyph glyph-name="questiondown" unicode="&#xbf;" horiz-adv-x="429" 
d="M163 500h139v-139h-139v139zM69 -162.5c-35.333 35 -53.002 80.1689 -53.002 135.502c0 33.333 6.33301 61.666 19 84.999s30.334 46 53.001 68c4.66699 4 15.667 14 33 30s30.166 32.667 38.499 50s12.5 36.333 12.5 57v17h121v-29
c0 -36.667 -7.16699 -66.667 -21.5 -90s-29.666 -43.166 -45.999 -59.499l-31.5 -31.5c-18 -17.333 -31.5 -32.833 -40.5 -46.5s-13.5 -28.834 -13.5 -45.501c0 -22.667 6.83301 -40.834 20.5 -54.501s33.834 -20.5 60.501 -20.5c28 0 50.5 8.66699 67.5 26s25.5 40 25.5 68
h121c0 -66 -19.167 -117.833 -57.5 -155.5s-91.5 -56.5 -159.5 -56.5c-64 0 -113.667 17.5 -149 52.5z" />
    <glyph glyph-name="Agrave" unicode="&#xc0;" horiz-adv-x="696" 
d="M492 159h-288l-59 -159h-142l281 700h128l281 -700h-142zM450 275l-102 275l-102 -275h204zM397 743h-90l-159 120h144z" />
    <glyph glyph-name="Aacute" unicode="&#xc1;" horiz-adv-x="696" 
d="M492 159h-288l-59 -159h-142l281 700h128l281 -700h-142zM450 275l-102 275l-102 -275h204zM389 743h-90l104 120h145z" />
    <glyph glyph-name="Acircumflex" unicode="&#xc2;" horiz-adv-x="696" 
d="M492 159h-288l-59 -159h-142l281 700h128l281 -700h-142zM450 275l-102 275l-102 -275h204zM527 743h-108l-72 69l-71 -69h-108l120 120h119z" />
    <glyph glyph-name="Atilde" unicode="&#xc3;" horiz-adv-x="696" 
d="M492 159h-288l-59 -159h-142l281 700h128l281 -700h-142zM450 275l-102 275l-102 -275h204zM389 747c-15.333 4 -33.665 9.66699 -54.998 17c-13.333 4.66699 -26.666 8.83398 -39.999 12.501s-24.333 5.5 -33 5.5c-22.667 0 -40.667 -14 -54 -42l-42 13
c20 76 56.333 114 109 114c13.333 0 27.166 -1.83301 41.499 -5.5s33.166 -9.5 56.499 -17.5c13.333 -4.66699 26.666 -8.83398 39.999 -12.501s24 -5.5 32 -5.5c23.333 0 41.666 14 54.999 42l41 -14c-20 -75.333 -56 -113 -108 -113c-13.333 0 -27.666 2 -42.999 6z" />
    <glyph glyph-name="Adieresis" unicode="&#xc4;" horiz-adv-x="696" 
d="M492 159h-288l-59 -159h-142l281 700h128l281 -700h-142zM450 275l-102 275l-102 -275h204zM301 743h-119v109h119v-109zM514 743h-119v109h119v-109z" />
    <glyph glyph-name="Aring" unicode="&#xc5;" horiz-adv-x="696" 
d="M492 159h-288l-59 -159h-142l281 700h128l281 -700h-142zM450 275l-102 275l-102 -275h204zM433 847c22 -22 33 -50 33 -84s-11 -62 -33 -84s-50.333 -33 -85 -33s-63.167 11 -85.5 33s-33.5 50 -33.5 84s11.167 62 33.5 84s50.833 33 85.5 33s63 -11 85 -33zM302.5 808
c-11.667 -12 -17.5 -27 -17.5 -45s5.83301 -33 17.5 -45s26.5 -18 44.5 -18c18.667 0 33.834 6 45.501 18s17.5 27 17.5 45s-5.83301 33 -17.5 45s-26.834 18 -45.501 18c-18 0 -32.833 -6 -44.5 -18z" />
    <glyph glyph-name="AE" unicode="&#xc6;" horiz-adv-x="964" 
d="M925 118v-118h-393v159h-266l-99 -159h-164l458 700h460v-118h-265v-142h239v-118h-239v-204h269zM532 275v312l-194 -312h194z" />
    <glyph glyph-name="Ccedilla" unicode="&#xc7;" horiz-adv-x="675" 
d="M211 30.5c-57.333 30.333 -102 72.998 -134 127.998s-48 118.833 -48 191.5s16 136.5 48 191.5s76.667 97.667 134 128s122.666 45.5 195.999 45.5c93.333 0 176.666 -25.667 249.999 -77l-74 -112c-55.333 38.667 -114.333 58 -177 58c-45.333 0 -86 -9.66699 -122 -29
s-64.167 -46.666 -84.5 -81.999s-30.5 -76.333 -30.5 -123s10.167 -87.667 30.5 -123s48.5 -62.666 84.5 -81.999s76.667 -29 122 -29c62.667 0 121.667 19.333 177 58l74 -112c-73.333 -51.333 -156.666 -77 -249.999 -77c-73.333 0 -138.666 15.167 -195.999 45.5z
M410 -37.002c24.667 -5.33301 43.834 -13.001 57.501 -23.001s20.5 -24.667 20.5 -44c0 -16 -6.16699 -30.167 -18.5 -42.5s-27.833 -22.833 -46.5 -31.5s-46.334 -20 -83.001 -34l-14 32c30.667 14 52 24.833 64 32.5s18 15.834 18 24.501c0 10 -4.5 17.333 -13.5 22
s-24.833 9.66699 -47.5 15l44 119h46z" />
    <glyph glyph-name="Egrave" unicode="&#xc8;" horiz-adv-x="525" 
d="M486 120v-120h-420v700h415v-120h-287v-140h262v-118h-262v-202h292zM340 743h-90l-159 120h144z" />
    <glyph glyph-name="Eacute" unicode="&#xc9;" horiz-adv-x="525" 
d="M486 120v-120h-420v700h415v-120h-287v-140h262v-118h-262v-202h292zM332 743h-90l104 120h145z" />
    <glyph glyph-name="Ecircumflex" unicode="&#xca;" horiz-adv-x="525" 
d="M486 120v-120h-420v700h415v-120h-287v-140h262v-118h-262v-202h292zM470 743h-108l-72 69l-71 -69h-108l120 120h119z" />
    <glyph glyph-name="Edieresis" unicode="&#xcb;" horiz-adv-x="525" 
d="M486 120v-120h-420v700h415v-120h-287v-140h262v-118h-262v-202h292zM244 743h-119v109h119v-109zM457 743h-119v109h119v-109z" />
    <glyph glyph-name="Igrave" unicode="&#xcc;" horiz-adv-x="261" 
d="M195 0h-129v700h129v-700zM179 743h-90l-159 120h144z" />
    <glyph glyph-name="Iacute" unicode="&#xcd;" horiz-adv-x="261" 
d="M195 0h-129v700h129v-700zM171 743h-90l104 120h145z" />
    <glyph glyph-name="Icircumflex" unicode="&#xce;" horiz-adv-x="261" 
d="M195 0h-129v700h129v-700zM309 743h-108l-72 69l-71 -69h-108l120 120h119z" />
    <glyph glyph-name="Idieresis" unicode="&#xcf;" horiz-adv-x="261" 
d="M195 0h-129v700h129v-700zM83 743h-119v109h119v-109zM296 743h-119v109h119v-109z" />
    <glyph glyph-name="Eth" unicode="&#xd0;" horiz-adv-x="689" 
d="M484.5 657.5c55 -28.333 98 -68.833 129 -121.5s46.5 -114.667 46.5 -186s-15.5 -133.333 -46.5 -186s-74 -93.167 -129 -121.5s-117.833 -42.5 -188.5 -42.5h-224v304h-76v103h76v293h224c70.667 0 133.5 -14.167 188.5 -42.5zM415.5 145c33 18 59 44.333 78 79
s28.5 76.667 28.5 126s-9.5 91.333 -28.5 126s-45 61 -78 79s-70.833 27 -113.5 27h-102v-175h147v-103h-147v-186h102c42.667 0 80.5 9 113.5 27z" />
    <glyph glyph-name="Ntilde" unicode="&#xd1;" horiz-adv-x="720" 
d="M654 0h-119l-340 480h-1v-480h-128v700h119l340 -481h1v481h128v-700zM401 747c-15.333 4 -33.665 9.66699 -54.998 17c-13.333 4.66699 -26.666 8.83398 -39.999 12.501s-24.333 5.5 -33 5.5c-22.667 0 -40.667 -14 -54 -42l-42 13c20 76 56.333 114 109 114
c13.333 0 27.166 -1.83301 41.499 -5.5s33.166 -9.5 56.499 -17.5c13.333 -4.66699 26.666 -8.83398 39.999 -12.501s24 -5.5 32 -5.5c23.333 0 41.666 14 54.999 42l41 -14c-20 -75.333 -56 -113 -108 -113c-13.333 0 -27.666 2 -42.999 6z" />
    <glyph glyph-name="Ograve" unicode="&#xd2;" horiz-adv-x="791" 
d="M582 669c56 -30.667 100 -73.834 132 -129.501s48 -118.834 48 -189.501s-16 -133.834 -48 -189.501s-76 -98.834 -132 -129.501s-118.333 -46 -187 -46s-130.834 15.333 -186.501 46s-99.5 73.834 -131.5 129.501s-48 118.834 -48 189.501s16 133.834 48 189.501
s75.833 98.834 131.5 129.501s117.834 46 186.501 46s131 -15.333 187 -46zM278.5 554.5c-34.333 -19.667 -61.166 -47.332 -80.499 -82.999s-29 -76.167 -29 -121.5s9.66699 -85.833 29 -121.5s46.166 -63.334 80.499 -83.001s73.166 -29.5 116.499 -29.5
s82.166 9.83301 116.499 29.5s61.166 47.167 80.499 82.5s29 76 29 122s-9.66699 86.667 -29 122s-46.166 62.833 -80.499 82.5s-73.166 29.5 -116.499 29.5s-82.166 -9.83301 -116.499 -29.5zM445 743.002h-90l-159 120h144z" />
    <glyph glyph-name="Oacute" unicode="&#xd3;" horiz-adv-x="791" 
d="M582 669c56 -30.667 100 -73.834 132 -129.501s48 -118.834 48 -189.501s-16 -133.834 -48 -189.501s-76 -98.834 -132 -129.501s-118.333 -46 -187 -46s-130.834 15.333 -186.501 46s-99.5 73.834 -131.5 129.501s-48 118.834 -48 189.501s16 133.834 48 189.501
s75.833 98.834 131.5 129.501s117.834 46 186.501 46s131 -15.333 187 -46zM278.5 554.5c-34.333 -19.667 -61.166 -47.332 -80.499 -82.999s-29 -76.167 -29 -121.5s9.66699 -85.833 29 -121.5s46.166 -63.334 80.499 -83.001s73.166 -29.5 116.499 -29.5
s82.166 9.83301 116.499 29.5s61.166 47.167 80.499 82.5s29 76 29 122s-9.66699 86.667 -29 122s-46.166 62.833 -80.499 82.5s-73.166 29.5 -116.499 29.5s-82.166 -9.83301 -116.499 -29.5zM437 743.002h-90l104 120h145z" />
    <glyph glyph-name="Ocircumflex" unicode="&#xd4;" horiz-adv-x="791" 
d="M582 669c56 -30.667 100 -73.834 132 -129.501s48 -118.834 48 -189.501s-16 -133.834 -48 -189.501s-76 -98.834 -132 -129.501s-118.333 -46 -187 -46s-130.834 15.333 -186.501 46s-99.5 73.834 -131.5 129.501s-48 118.834 -48 189.501s16 133.834 48 189.501
s75.833 98.834 131.5 129.501s117.834 46 186.501 46s131 -15.333 187 -46zM278.5 554.5c-34.333 -19.667 -61.166 -47.332 -80.499 -82.999s-29 -76.167 -29 -121.5s9.66699 -85.833 29 -121.5s46.166 -63.334 80.499 -83.001s73.166 -29.5 116.499 -29.5
s82.166 9.83301 116.499 29.5s61.166 47.167 80.499 82.5s29 76 29 122s-9.66699 86.667 -29 122s-46.166 62.833 -80.499 82.5s-73.166 29.5 -116.499 29.5s-82.166 -9.83301 -116.499 -29.5zM575 743.002h-108l-72 69l-71 -69h-108l120 120h119z" />
    <glyph glyph-name="Otilde" unicode="&#xd5;" horiz-adv-x="791" 
d="M582 669c56 -30.667 100 -73.834 132 -129.501s48 -118.834 48 -189.501s-16 -133.834 -48 -189.501s-76 -98.834 -132 -129.501s-118.333 -46 -187 -46s-130.834 15.333 -186.501 46s-99.5 73.834 -131.5 129.501s-48 118.834 -48 189.501s16 133.834 48 189.501
s75.833 98.834 131.5 129.501s117.834 46 186.501 46s131 -15.333 187 -46zM278.5 554.5c-34.333 -19.667 -61.166 -47.332 -80.499 -82.999s-29 -76.167 -29 -121.5s9.66699 -85.833 29 -121.5s46.166 -63.334 80.499 -83.001s73.166 -29.5 116.499 -29.5
s82.166 9.83301 116.499 29.5s61.166 47.167 80.499 82.5s29 76 29 122s-9.66699 86.667 -29 122s-46.166 62.833 -80.499 82.5s-73.166 29.5 -116.499 29.5s-82.166 -9.83301 -116.499 -29.5zM437 747.002c-15.333 4 -33.665 9.66699 -54.998 17
c-13.333 4.66699 -26.666 8.83398 -39.999 12.501s-24.333 5.5 -33 5.5c-22.667 0 -40.667 -14 -54 -42l-42 13c20 76 56.333 114 109 114c13.333 0 27.166 -1.83301 41.499 -5.5s33.166 -9.5 56.499 -17.5c13.333 -4.66699 26.666 -8.83398 39.999 -12.501s24 -5.5 32 -5.5
c23.333 0 41.666 14 54.999 42l41 -14c-20 -75.333 -56 -113 -108 -113c-13.333 0 -27.666 2 -42.999 6z" />
    <glyph glyph-name="Odieresis" unicode="&#xd6;" horiz-adv-x="791" 
d="M582 669c56 -30.667 100 -73.834 132 -129.501s48 -118.834 48 -189.501s-16 -133.834 -48 -189.501s-76 -98.834 -132 -129.501s-118.333 -46 -187 -46s-130.834 15.333 -186.501 46s-99.5 73.834 -131.5 129.501s-48 118.834 -48 189.501s16 133.834 48 189.501
s75.833 98.834 131.5 129.501s117.834 46 186.501 46s131 -15.333 187 -46zM278.5 554.5c-34.333 -19.667 -61.166 -47.332 -80.499 -82.999s-29 -76.167 -29 -121.5s9.66699 -85.833 29 -121.5s46.166 -63.334 80.499 -83.001s73.166 -29.5 116.499 -29.5
s82.166 9.83301 116.499 29.5s61.166 47.167 80.499 82.5s29 76 29 122s-9.66699 86.667 -29 122s-46.166 62.833 -80.499 82.5s-73.166 29.5 -116.499 29.5s-82.166 -9.83301 -116.499 -29.5zM349 743.002h-119v109h119v-109zM562 743.002h-119v109h119v-109z" />
    <glyph glyph-name="multiply" unicode="&#xd7;" 
d="M519 476l-178 -178l178 -178l-41 -41l-178 178l-178 -178l-41 41l178 178l-178 178l41 41l178 -178l178 178z" />
    <glyph glyph-name="Oslash" unicode="&#xd8;" horiz-adv-x="791" 
d="M728.5 511c22.333 -48.667 33.499 -102.333 33.499 -161c0 -70.667 -16 -133.834 -48 -189.501s-76 -98.834 -132 -129.501s-118.333 -46 -187 -46c-75.333 0 -142.333 18 -201 54l-39 -53l-38 25l40 54c-40.667 33.333 -72.167 74.333 -94.5 123
s-33.5 102.667 -33.5 162c0 70.667 16 133.834 48 189.501s75.833 98.834 131.5 129.501s117.834 46 186.501 46c74.667 0 142 -18.333 202 -55l40 54l38 -25l-41 -55c40.667 -33.333 72.167 -74.333 94.5 -123zM186.999 251.501c12 -29.667 29.3311 -55.166 51.998 -76.499
l278 377c-37.333 21.333 -78 32 -122 32c-43.333 0 -82.166 -9.83301 -116.499 -29.5s-61.166 -47.334 -80.499 -83.001s-29 -76.167 -29 -121.5c0 -36 6 -68.833 18 -98.5zM511.497 145.502c34.333 19.667 61.168 47.167 80.501 82.5s29 76 29 122
c0 35.333 -5.83301 67.833 -17.5 97.5s-28.5 55.167 -50.5 76.5l-278 -376c34.667 -21.333 74.667 -32 120 -32c43.333 0 82.166 9.83301 116.499 29.5z" />
    <glyph glyph-name="Ugrave" unicode="&#xd9;" horiz-adv-x="693" 
d="M635 276c0 -58.667 -11.334 -109.832 -34.001 -153.499s-55.667 -77.334 -99 -101.001s-95 -35.5 -155 -35.5c-91.333 0 -162.333 26 -213 78s-76 122.667 -76 212v424h135v-416c0 -50.667 14 -91 42 -121s65.333 -45 112 -45s83.834 15 111.501 45s41.5 70.333 41.5 121
v416h135v-424zM395.999 743.002h-90l-159 120h144z" />
    <glyph glyph-name="Uacute" unicode="&#xda;" horiz-adv-x="693" 
d="M635 276c0 -58.667 -11.334 -109.832 -34.001 -153.499s-55.667 -77.334 -99 -101.001s-95 -35.5 -155 -35.5c-91.333 0 -162.333 26 -213 78s-76 122.667 -76 212v424h135v-416c0 -50.667 14 -91 42 -121s65.333 -45 112 -45s83.834 15 111.501 45s41.5 70.333 41.5 121
v416h135v-424zM387.999 743.002h-90l104 120h145z" />
    <glyph glyph-name="Ucircumflex" unicode="&#xdb;" horiz-adv-x="693" 
d="M635 276c0 -58.667 -11.334 -109.832 -34.001 -153.499s-55.667 -77.334 -99 -101.001s-95 -35.5 -155 -35.5c-91.333 0 -162.333 26 -213 78s-76 122.667 -76 212v424h135v-416c0 -50.667 14 -91 42 -121s65.333 -45 112 -45s83.834 15 111.501 45s41.5 70.333 41.5 121
v416h135v-424zM525.999 743.002h-108l-72 69l-71 -69h-108l120 120h119z" />
    <glyph glyph-name="Udieresis" unicode="&#xdc;" horiz-adv-x="693" 
d="M635 276c0 -58.667 -11.334 -109.832 -34.001 -153.499s-55.667 -77.334 -99 -101.001s-95 -35.5 -155 -35.5c-91.333 0 -162.333 26 -213 78s-76 122.667 -76 212v424h135v-416c0 -50.667 14 -91 42 -121s65.333 -45 112 -45s83.834 15 111.501 45s41.5 70.333 41.5 121
v416h135v-424zM299.999 743.002h-119v109h119v-109zM512.999 743.002h-119v109h119v-109z" />
    <glyph glyph-name="Yacute" unicode="&#xdd;" horiz-adv-x="597" 
d="M363 269v-269h-129v267l-234 433h151l146 -301h3l146 301h151zM340 743h-90l104 120h145z" />
    <glyph glyph-name="Thorn" unicode="&#xde;" horiz-adv-x="578" 
d="M192 576l113 -0.000976562c52.667 0 97.334 -9.5 134.001 -28.5s64.334 -45.167 83.001 -78.5s28 -71.666 28 -114.999s-9.33301 -81.833 -28 -115.5s-46.334 -60.167 -83.001 -79.5s-81.334 -29 -134.001 -29h-113v-130h-126v700h126v-124zM192 460.999v-215.001h113
c36.667 0 65.667 9.33301 87 28s32 45.334 32 80.001s-10.667 61.167 -32 79.5s-50.333 27.5 -87 27.5h-113z" />
    <glyph glyph-name="germandbls" unicode="&#xdf;" horiz-adv-x="575" 
d="M500 343.5c33.333 -32.333 50.002 -77.166 50.002 -134.499c0 -69.333 -23.833 -122.333 -71.5 -159s-114.167 -55 -199.5 -55h-48v110h39c53.333 0 92.333 8.83301 117 26.5s37 46.167 37 85.5c0 46 -15.333 78.167 -46 96.5s-76.667 27.5 -138 27.5v98
c42 0 73.333 6.83301 94 20.5s31 35.167 31 64.5c0 26 -7.83301 46 -23.5 60s-36.834 21 -63.501 21c-30 0 -54 -8.66699 -72 -26s-27 -43 -27 -77v-632h-123v623c0 67.333 19.333 121.166 58 161.499s95 60.5 169 60.5c65.333 0 115.666 -15.667 150.999 -47
s53 -72 53 -122c0 -38 -10.833 -69.833 -32.5 -95.5s-54.167 -42.834 -97.5 -51.501v-2c62 -3.33301 109.667 -21.166 143 -53.499z" />
    <glyph glyph-name="agrave" unicode="&#xe0;" horiz-adv-x="578" 
d="M136 14c-34 19.333 -60.833 47.5 -80.5 84.5s-29.5 81.167 -29.5 132.5s9.83301 95.5 29.5 132.5s46.5 65.167 80.5 84.5s71.333 29 112 29c36 0 66.833 -7 92.5 -21s46.167 -33.667 61.5 -59h2v65h122v-462h-122v65h-2c-15.333 -25.333 -35.833 -45 -61.5 -59
s-56.5 -21 -92.5 -21c-40.667 0 -78 9.66699 -112 29zM369.5 137c23 24 34.5 55.333 34.5 94s-11.5 70 -34.5 94s-53.167 36 -90.5 36s-67.5 -12 -90.5 -36s-34.5 -55.333 -34.5 -94s11.5 -70 34.5 -94s53.167 -36 90.5 -36s67.5 12 90.5 36zM327 553h-96l-153 154h145z" />
    <glyph glyph-name="aacute" unicode="&#xe1;" horiz-adv-x="578" 
d="M136 14c-34 19.333 -60.833 47.5 -80.5 84.5s-29.5 81.167 -29.5 132.5s9.83301 95.5 29.5 132.5s46.5 65.167 80.5 84.5s71.333 29 112 29c36 0 66.833 -7 92.5 -21s46.167 -33.667 61.5 -59h2v65h122v-462h-122v65h-2c-15.333 -25.333 -35.833 -45 -61.5 -59
s-56.5 -21 -92.5 -21c-40.667 0 -78 9.66699 -112 29zM369.5 137c23 24 34.5 55.333 34.5 94s-11.5 70 -34.5 94s-53.167 36 -90.5 36s-67.5 -12 -90.5 -36s-34.5 -55.333 -34.5 -94s11.5 -70 34.5 -94s53.167 -36 90.5 -36s67.5 12 90.5 36zM326 553h-96l104 154h145z" />
    <glyph glyph-name="acircumflex" unicode="&#xe2;" horiz-adv-x="578" 
d="M136 14c-34 19.333 -60.833 47.5 -80.5 84.5s-29.5 81.167 -29.5 132.5s9.83301 95.5 29.5 132.5s46.5 65.167 80.5 84.5s71.333 29 112 29c36 0 66.833 -7 92.5 -21s46.167 -33.667 61.5 -59h2v65h122v-462h-122v65h-2c-15.333 -25.333 -35.833 -45 -61.5 -59
s-56.5 -21 -92.5 -21c-40.667 0 -78 9.66699 -112 29zM369.5 137c23 24 34.5 55.333 34.5 94s-11.5 70 -34.5 94s-53.167 36 -90.5 36s-67.5 -12 -90.5 -36s-34.5 -55.333 -34.5 -94s11.5 -70 34.5 -94s53.167 -36 90.5 -36s67.5 12 90.5 36zM462 553h-108l-74 89l-73 -89
h-109l123 154h118z" />
    <glyph glyph-name="atilde" unicode="&#xe3;" horiz-adv-x="578" 
d="M136 14c-34 19.333 -60.833 47.5 -80.5 84.5s-29.5 81.167 -29.5 132.5s9.83301 95.5 29.5 132.5s46.5 65.167 80.5 84.5s71.333 29 112 29c36 0 66.833 -7 92.5 -21s46.167 -33.667 61.5 -59h2v65h122v-462h-122v65h-2c-15.333 -25.333 -35.833 -45 -61.5 -59
s-56.5 -21 -92.5 -21c-40.667 0 -78 9.66699 -112 29zM369.5 137c23 24 34.5 55.333 34.5 94s-11.5 70 -34.5 94s-53.167 36 -90.5 36s-67.5 -12 -90.5 -36s-34.5 -55.333 -34.5 -94s11.5 -70 34.5 -94s53.167 -36 90.5 -36s67.5 12 90.5 36zM248.5 698
c14.333 -4.66699 31.5 -11.333 51.5 -20c16 -7.33301 29 -12.666 39 -15.999s19 -5 27 -5c21.333 0 39 15 53 45l48 -15c-18 -80.667 -53.667 -121 -107 -121c-14 0 -27.833 2.33301 -41.5 7s-31.5 11.667 -53.5 21c-16.667 7.33301 -29.667 12.666 -39 15.999s-18 5 -26 5
c-12 0 -22.333 -3.83301 -31 -11.5s-16.334 -19.167 -23.001 -34.5l-48 15c8 36.667 20.833 66 38.5 88s40.834 33 69.501 33c14 0 28.167 -2.33301 42.5 -7z" />
    <glyph glyph-name="adieresis" unicode="&#xe4;" horiz-adv-x="578" 
d="M136 14c-34 19.333 -60.833 47.5 -80.5 84.5s-29.5 81.167 -29.5 132.5s9.83301 95.5 29.5 132.5s46.5 65.167 80.5 84.5s71.333 29 112 29c36 0 66.833 -7 92.5 -21s46.167 -33.667 61.5 -59h2v65h122v-462h-122v65h-2c-15.333 -25.333 -35.833 -45 -61.5 -59
s-56.5 -21 -92.5 -21c-40.667 0 -78 9.66699 -112 29zM369.5 137c23 24 34.5 55.333 34.5 94s-11.5 70 -34.5 94s-53.167 36 -90.5 36s-67.5 -12 -90.5 -36s-34.5 -55.333 -34.5 -94s11.5 -70 34.5 -94s53.167 -36 90.5 -36s67.5 12 90.5 36zM241 563h-111v127h111v-127z
M429 563h-111v127h111v-127z" />
    <glyph glyph-name="aring" unicode="&#xe5;" horiz-adv-x="578" 
d="M136 14c-34 19.333 -60.833 47.5 -80.5 84.5s-29.5 81.167 -29.5 132.5s9.83301 95.5 29.5 132.5s46.5 65.167 80.5 84.5s71.333 29 112 29c36 0 66.833 -7 92.5 -21s46.167 -33.667 61.5 -59h2v65h122v-462h-122v65h-2c-15.333 -25.333 -35.833 -45 -61.5 -59
s-56.5 -21 -92.5 -21c-40.667 0 -78 9.66699 -112 29zM369.5 137c23 24 34.5 55.333 34.5 94s-11.5 70 -34.5 94s-53.167 36 -90.5 36s-67.5 -12 -90.5 -36s-34.5 -55.333 -34.5 -94s11.5 -70 34.5 -94s53.167 -36 90.5 -36s67.5 12 90.5 36zM365 714
c22.667 -22 34 -50 34 -84s-11.333 -62 -34 -84s-51.334 -33 -86.001 -33s-63.167 11 -85.5 33s-33.5 50 -33.5 84s11.167 62 33.5 84s50.833 33 85.5 33s63.334 -11 86.001 -33zM233.5 675c-11.667 -12 -17.5 -27 -17.5 -45s5.83301 -33 17.5 -45s26.834 -18 45.501 -18
c19.333 0 34.833 6 46.5 18s17.5 27 17.5 45s-5.83301 33 -17.5 45s-27.167 18 -46.5 18c-18.667 0 -33.834 -6 -45.501 -18z" />
    <glyph glyph-name="ae" unicode="&#xe6;" horiz-adv-x="820" 
d="M68 30c-34.667 30 -52.001 69.667 -52.001 119c0 48.667 16.667 87.667 50 117s77.666 44 132.999 44c29.333 0 56 -4.33301 80 -13s43.333 -20.667 58 -36h2v30c0 26.667 -8.66699 47.5 -26 62.5s-43.666 22.5 -78.999 22.5c-37.333 0 -85 -7.33301 -143 -22l-25 101
c64 14.667 121.333 22 172 22c40.667 0 74.5 -6.5 101.5 -19.5s47.5 -35.5 61.5 -67.5h2c16 26 39.167 47 69.5 63s65.5 24 105.5 24c67.333 0 120.666 -21.5 159.999 -64.5s59 -103.833 59 -182.5v-24h-342c4.66699 -34.667 17.667 -62 39 -82s50.666 -30 87.999 -30
c30.667 0 56.834 6 78.501 18s41.5 27 59.5 45l61 -87c-58 -56.667 -123.667 -85 -197 -85c-44.667 0 -83.5 9 -116.5 27s-57.833 42.333 -74.5 73h-2c-19.333 -33.333 -45.666 -58.333 -78.999 -75s-69.666 -25 -108.999 -25c-55.333 0 -100.333 15 -135 45zM670.999 285
c-0.666992 28 -10.5 50.501 -29.5 67.501s-43.5 25.5 -73.5 25.5c-28.667 0 -53 -7.83301 -73 -23.5s-32.333 -38.834 -37 -69.501h213zM311.499 102.001c19 12.667 28.5 29.335 28.5 50.002c0 21.333 -9.33301 38.166 -28 50.499s-42.334 18.5 -71.001 18.5
c-29.333 0 -51.833 -6.5 -67.5 -19.5s-23.5 -29.5 -23.5 -49.5c0 -20.667 7.83301 -37.334 23.5 -50.001s37.834 -19 66.501 -19s52.5 6.33301 71.5 19z" />
    <glyph glyph-name="ccedilla" unicode="&#xe7;" horiz-adv-x="457" 
d="M149 15.5c-38.667 20.333 -68.834 49.168 -90.501 86.501s-32.5 80.333 -32.5 129s10.833 91.667 32.5 129s51.834 66.166 90.501 86.499s82.667 30.5 132 30.5c58.667 0 112.667 -15.333 162 -46l-53 -101c-34 21.333 -69.667 32 -107 32
c-38 0 -69.333 -12.167 -94 -36.5s-37 -55.833 -37 -94.5s12.333 -70.167 37 -94.5s56 -36.5 94 -36.5c37.333 0 73 10.667 107 32l53 -101c-49.333 -30.667 -103.333 -46 -162 -46c-49.333 0 -93.333 10.167 -132 30.5zM281 -36.998
c24.667 -5.33301 43.834 -13.001 57.501 -23.001s20.5 -24.667 20.5 -44c0 -16 -6.16699 -30.167 -18.5 -42.5s-27.833 -22.833 -46.5 -31.5s-46.334 -20 -83.001 -34l-14 32c30.667 14 52 24.833 64 32.5s18 15.834 18 24.501c0 10 -4.5 17.333 -13.5 22
s-24.833 9.66699 -47.5 15l44 119h46z" />
    <glyph glyph-name="egrave" unicode="&#xe8;" horiz-adv-x="514" 
d="M431 412.5c39.333 -43 59 -103.833 59 -182.5v-24h-345c3.33301 -35.333 16.833 -62.833 40.5 -82.5s53.5 -29.5 89.5 -29.5c50 0 96 21 138 63l62 -89c-26 -24 -55 -43.833 -87 -59.5s-69.667 -23.5 -113 -23.5c-50 0 -93.667 10.167 -131 30.5s-66.333 49 -87 86
s-31 79.833 -31 128.5s10 91.667 30 129s48 66.333 84 87s78 31 126 31c70.667 0 125.667 -21.5 165 -64.5zM184.5 355c-19.667 -15.333 -31.832 -38.666 -36.499 -69.999h218c-2 29.333 -12.5 52.166 -31.5 68.499s-43.833 24.5 -74.5 24.5s-55.834 -7.66699 -75.501 -23z
M314.002 553h-96l-153 154h145z" />
    <glyph glyph-name="eacute" unicode="&#xe9;" horiz-adv-x="514" 
d="M431 412.5c39.333 -43 59 -103.833 59 -182.5v-24h-345c3.33301 -35.333 16.833 -62.833 40.5 -82.5s53.5 -29.5 89.5 -29.5c50 0 96 21 138 63l62 -89c-26 -24 -55 -43.833 -87 -59.5s-69.667 -23.5 -113 -23.5c-50 0 -93.667 10.167 -131 30.5s-66.333 49 -87 86
s-31 79.833 -31 128.5s10 91.667 30 129s48 66.333 84 87s78 31 126 31c70.667 0 125.667 -21.5 165 -64.5zM184.5 355c-19.667 -15.333 -31.832 -38.666 -36.499 -69.999h218c-2 29.333 -12.5 52.166 -31.5 68.499s-43.833 24.5 -74.5 24.5s-55.834 -7.66699 -75.501 -23z
M313.002 553h-96l104 154h145z" />
    <glyph glyph-name="ecircumflex" unicode="&#xea;" horiz-adv-x="514" 
d="M431 412.5c39.333 -43 59 -103.833 59 -182.5v-24h-345c3.33301 -35.333 16.833 -62.833 40.5 -82.5s53.5 -29.5 89.5 -29.5c50 0 96 21 138 63l62 -89c-26 -24 -55 -43.833 -87 -59.5s-69.667 -23.5 -113 -23.5c-50 0 -93.667 10.167 -131 30.5s-66.333 49 -87 86
s-31 79.833 -31 128.5s10 91.667 30 129s48 66.333 84 87s78 31 126 31c70.667 0 125.667 -21.5 165 -64.5zM184.5 355c-19.667 -15.333 -31.832 -38.666 -36.499 -69.999h218c-2 29.333 -12.5 52.166 -31.5 68.499s-43.833 24.5 -74.5 24.5s-55.834 -7.66699 -75.501 -23z
M449.002 553h-108l-74 89l-73 -89h-109l123 154h118z" />
    <glyph glyph-name="edieresis" unicode="&#xeb;" horiz-adv-x="514" 
d="M431 412.5c39.333 -43 59 -103.833 59 -182.5v-24h-345c3.33301 -35.333 16.833 -62.833 40.5 -82.5s53.5 -29.5 89.5 -29.5c50 0 96 21 138 63l62 -89c-26 -24 -55 -43.833 -87 -59.5s-69.667 -23.5 -113 -23.5c-50 0 -93.667 10.167 -131 30.5s-66.333 49 -87 86
s-31 79.833 -31 128.5s10 91.667 30 129s48 66.333 84 87s78 31 126 31c70.667 0 125.667 -21.5 165 -64.5zM184.5 355c-19.667 -15.333 -31.832 -38.666 -36.499 -69.999h218c-2 29.333 -12.5 52.166 -31.5 68.499s-43.833 24.5 -74.5 24.5s-55.834 -7.66699 -75.501 -23z
M228.002 563h-111v127h111v-127zM416.002 563h-111v127h111v-127z" />
    <glyph glyph-name="igrave" unicode="&#xec;" horiz-adv-x="236" 
d="M166 553h-96l-86 154h118zM56 462h123v-462h-123v462z" />
    <glyph glyph-name="iacute" unicode="&#xed;" horiz-adv-x="236" 
d="M134 707h118l-86 -154h-96zM56 462h123v-462h-123v462z" />
    <glyph glyph-name="icircumflex" unicode="&#xee;" horiz-adv-x="236" 
d="M266 553h-102l-46 93l-46 -93h-102l89 154h118zM56 462h123v-462h-123v462z" />
    <glyph glyph-name="idieresis" unicode="&#xef;" horiz-adv-x="236" 
d="M100 563h-100v127h100v-127zM236 563h-100v127h100v-127zM56 462h123v-462h-123v462z" />
    <glyph glyph-name="eth" unicode="&#xf0;" horiz-adv-x="572" 
d="M537 308c0 -77.333 -12.332 -140 -36.999 -188s-56.667 -82.5 -96 -103.5s-82.333 -31.5 -129 -31.5c-51.333 0 -95.666 10.667 -132.999 32s-66 50.5 -86 87.5s-30 78.833 -30 125.5c0 50.667 10.5 94.667 31.5 132s49.167 65.833 84.5 85.5s74.333 29.5 117 29.5
c36 0 68 -7 96 -21s50.667 -36 68 -66h2c-10.667 88.667 -48.334 157 -113.001 205l-101 -86l-47 51l84 71c-34.667 16 -76.334 27.667 -125.001 35l22 97c74.667 -11.333 138 -31 190 -59l78 66l45 -51l-64 -54c95.333 -78 143 -197 143 -357zM374.001 135.5
c24.667 24.333 36.998 56.499 36.998 96.499c0 40.667 -12.333 72.834 -37 96.501s-56.667 35.5 -96 35.5s-71 -12.333 -95 -37s-36 -56.667 -36 -96c0 -40 12.333 -72 37 -96s56.334 -36 95.001 -36s70.334 12.167 95.001 36.5z" />
    <glyph glyph-name="ntilde" unicode="&#xf1;" horiz-adv-x="551" 
d="M455 430c31.333 -31.333 47 -79.667 47 -145v-285h-123v256c0 71.333 -31.667 107 -95 107c-33.333 0 -59.666 -11 -78.999 -33s-29 -56.667 -29 -104v-226h-122v462h121v-70h2c16 27.333 36.833 48.333 62.5 63s55.167 22 88.5 22c53.333 0 95.666 -15.667 126.999 -47z
M256.5 697.999c14.333 -4.66699 31.5 -11.333 51.5 -20c16 -7.33301 29 -12.666 39 -15.999s19 -5 27 -5c21.333 0 39 15 53 45l48 -15c-18 -80.667 -53.667 -121 -107 -121c-14 0 -27.833 2.33301 -41.5 7s-31.5 11.667 -53.5 21
c-16.667 7.33301 -29.667 12.666 -39 15.999s-18 5 -26 5c-12 0 -22.333 -3.83301 -31 -11.5s-16.334 -19.167 -23.001 -34.5l-48 15c8 36.667 20.833 66 38.5 88s40.834 33 69.501 33c14 0 28.167 -2.33301 42.5 -7z" />
    <glyph glyph-name="ograve" unicode="&#xf2;" horiz-adv-x="563" 
d="M413.5 445.5c39 -21 69.5 -50.167 91.5 -87.5s33 -79.666 33 -126.999s-11 -89.666 -33 -126.999s-52.5 -66.5 -91.5 -87.5s-82.833 -31.5 -131.5 -31.5s-92.5 10.5 -131.5 31.5s-69.5 50.167 -91.5 87.5s-33 79.666 -33 126.999s11 89.666 33 126.999
s52.5 66.5 91.5 87.5s82.833 31.5 131.5 31.5s92.5 -10.5 131.5 -31.5zM188.5 325.5c-24.333 -23.667 -36.5 -55.167 -36.5 -94.5s12.167 -70.833 36.5 -94.5s55.5 -35.5 93.5 -35.5s69 11.833 93 35.5s36 55.167 36 94.5s-12 70.833 -36 94.5s-55 35.5 -93 35.5
s-69.167 -11.833 -93.5 -35.5zM329 553h-96l-153 154h145z" />
    <glyph glyph-name="oacute" unicode="&#xf3;" horiz-adv-x="563" 
d="M413.5 445.5c39 -21 69.5 -50.167 91.5 -87.5s33 -79.666 33 -126.999s-11 -89.666 -33 -126.999s-52.5 -66.5 -91.5 -87.5s-82.833 -31.5 -131.5 -31.5s-92.5 10.5 -131.5 31.5s-69.5 50.167 -91.5 87.5s-33 79.666 -33 126.999s11 89.666 33 126.999
s52.5 66.5 91.5 87.5s82.833 31.5 131.5 31.5s92.5 -10.5 131.5 -31.5zM188.5 325.5c-24.333 -23.667 -36.5 -55.167 -36.5 -94.5s12.167 -70.833 36.5 -94.5s55.5 -35.5 93.5 -35.5s69 11.833 93 35.5s36 55.167 36 94.5s-12 70.833 -36 94.5s-55 35.5 -93 35.5
s-69.167 -11.833 -93.5 -35.5zM328 553h-96l104 154h145z" />
    <glyph glyph-name="ocircumflex" unicode="&#xf4;" horiz-adv-x="563" 
d="M413.5 445.5c39 -21 69.5 -50.167 91.5 -87.5s33 -79.666 33 -126.999s-11 -89.666 -33 -126.999s-52.5 -66.5 -91.5 -87.5s-82.833 -31.5 -131.5 -31.5s-92.5 10.5 -131.5 31.5s-69.5 50.167 -91.5 87.5s-33 79.666 -33 126.999s11 89.666 33 126.999
s52.5 66.5 91.5 87.5s82.833 31.5 131.5 31.5s92.5 -10.5 131.5 -31.5zM188.5 325.5c-24.333 -23.667 -36.5 -55.167 -36.5 -94.5s12.167 -70.833 36.5 -94.5s55.5 -35.5 93.5 -35.5s69 11.833 93 35.5s36 55.167 36 94.5s-12 70.833 -36 94.5s-55 35.5 -93 35.5
s-69.167 -11.833 -93.5 -35.5zM464 553h-108l-74 89l-73 -89h-109l123 154h118z" />
    <glyph glyph-name="otilde" unicode="&#xf5;" horiz-adv-x="563" 
d="M413.5 445.5c39 -21 69.5 -50.167 91.5 -87.5s33 -79.666 33 -126.999s-11 -89.666 -33 -126.999s-52.5 -66.5 -91.5 -87.5s-82.833 -31.5 -131.5 -31.5s-92.5 10.5 -131.5 31.5s-69.5 50.167 -91.5 87.5s-33 79.666 -33 126.999s11 89.666 33 126.999
s52.5 66.5 91.5 87.5s82.833 31.5 131.5 31.5s92.5 -10.5 131.5 -31.5zM188.5 325.5c-24.333 -23.667 -36.5 -55.167 -36.5 -94.5s12.167 -70.833 36.5 -94.5s55.5 -35.5 93.5 -35.5s69 11.833 93 35.5s36 55.167 36 94.5s-12 70.833 -36 94.5s-55 35.5 -93 35.5
s-69.167 -11.833 -93.5 -35.5zM250.5 698c14.333 -4.66699 31.5 -11.333 51.5 -20c16 -7.33301 29 -12.666 39 -15.999s19 -5 27 -5c21.333 0 39 15 53 45l48 -15c-18 -80.667 -53.667 -121 -107 -121c-14 0 -27.833 2.33301 -41.5 7s-31.5 11.667 -53.5 21
c-16.667 7.33301 -29.667 12.666 -39 15.999s-18 5 -26 5c-12 0 -22.333 -3.83301 -31 -11.5s-16.334 -19.167 -23.001 -34.5l-48 15c8 36.667 20.833 66 38.5 88s40.834 33 69.501 33c14 0 28.167 -2.33301 42.5 -7z" />
    <glyph glyph-name="odieresis" unicode="&#xf6;" horiz-adv-x="563" 
d="M413.5 445.5c39 -21 69.5 -50.167 91.5 -87.5s33 -79.666 33 -126.999s-11 -89.666 -33 -126.999s-52.5 -66.5 -91.5 -87.5s-82.833 -31.5 -131.5 -31.5s-92.5 10.5 -131.5 31.5s-69.5 50.167 -91.5 87.5s-33 79.666 -33 126.999s11 89.666 33 126.999
s52.5 66.5 91.5 87.5s82.833 31.5 131.5 31.5s92.5 -10.5 131.5 -31.5zM188.5 325.5c-24.333 -23.667 -36.5 -55.167 -36.5 -94.5s12.167 -70.833 36.5 -94.5s55.5 -35.5 93.5 -35.5s69 11.833 93 35.5s36 55.167 36 94.5s-12 70.833 -36 94.5s-55 35.5 -93 35.5
s-69.167 -11.833 -93.5 -35.5zM243 563h-111v127h111v-127zM431 563h-111v127h111v-127z" />
    <glyph glyph-name="divide" unicode="&#xf7;" 
d="M344 414h-88v91h88v-91zM559 271h-518v55h518v-55zM344 92h-88v92h88v-92z" />
    <glyph glyph-name="oslash" unicode="&#xf8;" horiz-adv-x="563" 
d="M518 332.5c13.333 -31 20.001 -64.833 20.001 -101.5c0 -47.333 -11 -89.666 -33 -126.999s-52.5 -66.5 -91.5 -87.5s-82.833 -31.5 -131.5 -31.5c-60 0 -112.333 15.667 -157 47l-40 -46l-27 23l40 45c-22.667 22.667 -40.334 49 -53.001 79s-19 62.667 -19 98
c0 47.333 11 89.666 33 126.999s52.5 66.5 91.5 87.5s82.833 31.5 131.5 31.5c58 0 108 -14.333 150 -43l38 43l27 -24l-36 -41c24.667 -22 43.667 -48.5 57 -79.5zM179.001 147l173 196c-20 12 -43.333 18 -70 18c-38 0 -69.167 -11.833 -93.5 -35.5
s-36.5 -55.167 -36.5 -94.5c0 -32.667 9 -60.667 27 -84zM375.001 136.5c24 23.667 36 55.166 36 94.499c0 36.667 -10.333 66.334 -31 89.001l-174 -197c22 -14.667 47.333 -22 76 -22c38 0 69 11.833 93 35.5z" />
    <glyph glyph-name="ugrave" unicode="&#xf9;" horiz-adv-x="541" 
d="M96.5 33c-31.667 32 -47.498 80.667 -47.498 146v283h126v-261c0 -34.667 7.66699 -60.5 23 -77.5s36.666 -25.5 63.999 -25.5c32 0 57 11.5 75 34.5s27 58.833 27 107.5v222h123v-462h-121v71h-2c-32 -57.333 -80 -86 -144 -86c-50.667 0 -91.834 16 -123.501 48z
M318.002 553h-96l-153 154h145z" />
    <glyph glyph-name="uacute" unicode="&#xfa;" horiz-adv-x="541" 
d="M96.5 33c-31.667 32 -47.498 80.667 -47.498 146v283h126v-261c0 -34.667 7.66699 -60.5 23 -77.5s36.666 -25.5 63.999 -25.5c32 0 57 11.5 75 34.5s27 58.833 27 107.5v222h123v-462h-121v71h-2c-32 -57.333 -80 -86 -144 -86c-50.667 0 -91.834 16 -123.501 48z
M317.002 553h-96l104 154h145z" />
    <glyph glyph-name="ucircumflex" unicode="&#xfb;" horiz-adv-x="541" 
d="M96.5 33c-31.667 32 -47.498 80.667 -47.498 146v283h126v-261c0 -34.667 7.66699 -60.5 23 -77.5s36.666 -25.5 63.999 -25.5c32 0 57 11.5 75 34.5s27 58.833 27 107.5v222h123v-462h-121v71h-2c-32 -57.333 -80 -86 -144 -86c-50.667 0 -91.834 16 -123.501 48z
M453.002 553h-108l-74 89l-73 -89h-109l123 154h118z" />
    <glyph glyph-name="udieresis" unicode="&#xfc;" horiz-adv-x="541" 
d="M96.5 33c-31.667 32 -47.498 80.667 -47.498 146v283h126v-261c0 -34.667 7.66699 -60.5 23 -77.5s36.666 -25.5 63.999 -25.5c32 0 57 11.5 75 34.5s27 58.833 27 107.5v222h123v-462h-121v71h-2c-32 -57.333 -80 -86 -144 -86c-50.667 0 -91.834 16 -123.501 48z
M232.002 563h-111v127h111v-127zM420.002 563h-111v127h111v-127z" />
    <glyph glyph-name="yacute" unicode="&#xfd;" horiz-adv-x="520" 
d="M515 462l-296 -662h-127l113 243l-200 419h144l117 -281l120 281h129zM312 553h-96l104 154h145z" />
    <glyph glyph-name="thorn" unicode="&#xfe;" horiz-adv-x="582" 
d="M56 700l123 -0.00195312v-303h2c15.333 25.333 35.833 45 61.5 59s56.5 21 92.5 21c40.667 0 77.834 -9.66699 111.501 -29s60.334 -47.666 80.001 -84.999s29.5 -81.333 29.5 -132s-9.83301 -94.667 -29.5 -132s-46.334 -65.666 -80.001 -84.999
s-70.834 -29 -111.501 -29c-36 0 -66.833 7 -92.5 21s-46.167 33.667 -61.5 59h-2v-265h-123v900zM394.5 136.998c23 24 34.5 55.333 34.5 94s-11.5 70 -34.5 94s-53.167 36 -90.5 36s-67.5 -12 -90.5 -36s-34.5 -55.333 -34.5 -94s11.5 -70 34.5 -94s53.167 -36 90.5 -36
s67.5 12 90.5 36z" />
    <glyph glyph-name="ydieresis" unicode="&#xff;" horiz-adv-x="520" 
d="M515 462l-296 -662h-127l113 243l-200 419h144l117 -281l120 281h129zM227 563h-111v127h111v-127zM415 563h-111v127h111v-127z" />
    <glyph glyph-name="Amacron" unicode="&#x100;" horiz-adv-x="696" 
d="M492 159h-288l-59 -159h-142l281 700h128l281 -700h-142zM450 275l-102 275l-102 -275h204zM500 755h-306v83h306v-83z" />
    <glyph glyph-name="amacron" unicode="&#x101;" horiz-adv-x="578" 
d="M136 14c-34 19.333 -60.833 47.5 -80.5 84.5s-29.5 81.167 -29.5 132.5s9.83301 95.5 29.5 132.5s46.5 65.167 80.5 84.5s71.333 29 112 29c36 0 66.833 -7 92.5 -21s46.167 -33.667 61.5 -59h2v65h122v-462h-122v65h-2c-15.333 -25.333 -35.833 -45 -61.5 -59
s-56.5 -21 -92.5 -21c-40.667 0 -78 9.66699 -112 29zM369.5 137c23 24 34.5 55.333 34.5 94s-11.5 70 -34.5 94s-53.167 36 -90.5 36s-67.5 -12 -90.5 -36s-34.5 -55.333 -34.5 -94s11.5 -70 34.5 -94s53.167 -36 90.5 -36s67.5 12 90.5 36zM433 582h-306v85h306v-85z" />
    <glyph glyph-name="Abreve" unicode="&#x102;" horiz-adv-x="696" 
d="M492 159h-288l-59 -159h-142l281 700h128l281 -700h-142zM450 275l-102 275l-102 -275h204zM452 772c-26.667 -22 -61.3291 -33 -103.996 -33s-77.167 11 -103.5 33s-41.5 52.333 -45.5 91h84c1.33301 -16 7.66602 -28.5 18.999 -37.5s26.666 -13.5 45.999 -13.5
s34.666 4.5 45.999 13.5s17.666 21.5 18.999 37.5h85c-4 -38.667 -19.333 -69 -46 -91z" />
    <glyph glyph-name="abreve" unicode="&#x103;" horiz-adv-x="578" 
d="M136 14c-34 19.333 -60.833 47.5 -80.5 84.5s-29.5 81.167 -29.5 132.5s9.83301 95.5 29.5 132.5s46.5 65.167 80.5 84.5s71.333 29 112 29c36 0 66.833 -7 92.5 -21s46.167 -33.667 61.5 -59h2v65h122v-462h-122v65h-2c-15.333 -25.333 -35.833 -45 -61.5 -59
s-56.5 -21 -92.5 -21c-40.667 0 -78 9.66699 -112 29zM369.5 137c23 24 34.5 55.333 34.5 94s-11.5 70 -34.5 94s-53.167 36 -90.5 36s-67.5 -12 -90.5 -36s-34.5 -55.333 -34.5 -94s11.5 -70 34.5 -94s53.167 -36 90.5 -36s67.5 12 90.5 36zM388 590.5
c-28 -27 -63.998 -40.5 -107.998 -40.5s-79.833 13.5 -107.5 40.5s-41.5 63.5 -41.5 109.5h81c1.33301 -21.333 7.66602 -38.666 18.999 -51.999s27.666 -20 48.999 -20s37.833 6.66699 49.5 20s18.167 30.666 19.5 51.999h81c0 -46 -14 -82.5 -42 -109.5z" />
    <glyph glyph-name="Aogonek" unicode="&#x104;" horiz-adv-x="696" 
d="M492 159h-288l-59 -159h-142l281 700h128l281 -700h-142zM450 275l-102 275l-102 -275h204zM619 10c-50 -48.667 -75 -84 -75 -106c0 -6.66699 2.5 -12 7.5 -16s11.5 -6 19.5 -6c10.667 0 23.667 1.66699 39 5l12 -77c-26 -6 -49.333 -9 -70 -9
c-30 0 -53.667 6.66699 -71 20s-26 33.333 -26 60c0 22.667 8.66699 45.5 26 68.5s44.333 47.833 81 74.5z" />
    <glyph glyph-name="aogonek" unicode="&#x105;" horiz-adv-x="578" 
d="M136 14c-34 19.333 -60.833 47.5 -80.5 84.5s-29.5 81.167 -29.5 132.5s9.83301 95.5 29.5 132.5s46.5 65.167 80.5 84.5s71.333 29 112 29c36 0 66.833 -7 92.5 -21s46.167 -33.667 61.5 -59h2v65h122v-462h-122v65h-2c-15.333 -25.333 -35.833 -45 -61.5 -59
s-56.5 -21 -92.5 -21c-40.667 0 -78 9.66699 -112 29zM369.5 137c23 24 34.5 55.333 34.5 94s-11.5 70 -34.5 94s-53.167 36 -90.5 36s-67.5 -12 -90.5 -36s-34.5 -55.333 -34.5 -94s11.5 -70 34.5 -94s53.167 -36 90.5 -36s67.5 12 90.5 36zM480 10
c-50 -48.667 -75 -84 -75 -106c0 -6.66699 2.5 -12 7.5 -16s11.5 -6 19.5 -6c10.667 0 23.667 1.66699 39 5l12 -77c-26 -6 -49.333 -9 -70 -9c-30 0 -53.667 6.66699 -71 20s-26 33.333 -26 60c0 22.667 8.66699 45.5 26 68.5s44.333 47.833 81 74.5z" />
    <glyph glyph-name="Cacute" unicode="&#x106;" horiz-adv-x="675" 
d="M211 30.5c-57.333 30.333 -102 72.998 -134 127.998s-48 118.833 -48 191.5s16 136.5 48 191.5s76.667 97.667 134 128s122.666 45.5 195.999 45.5c93.333 0 176.666 -25.667 249.999 -77l-74 -112c-55.333 38.667 -114.333 58 -177 58c-45.333 0 -86 -9.66699 -122 -29
s-64.167 -46.666 -84.5 -81.999s-30.5 -76.333 -30.5 -123s10.167 -87.667 30.5 -123s48.5 -62.666 84.5 -81.999s76.667 -29 122 -29c62.667 0 121.667 19.333 177 58l74 -112c-73.333 -51.333 -156.666 -77 -249.999 -77c-73.333 0 -138.666 15.167 -195.999 45.5z
M445 742.998h-90l104 120h145z" />
    <glyph glyph-name="cacute" unicode="&#x107;" horiz-adv-x="457" 
d="M149 15.5c-38.667 20.333 -68.834 49.168 -90.501 86.501s-32.5 80.333 -32.5 129s10.833 91.667 32.5 129s51.834 66.166 90.501 86.499s82.667 30.5 132 30.5c58.667 0 112.667 -15.333 162 -46l-53 -101c-34 21.333 -69.667 32 -107 32
c-38 0 -69.333 -12.167 -94 -36.5s-37 -55.833 -37 -94.5s12.333 -70.167 37 -94.5s56 -36.5 94 -36.5c37.333 0 73 10.667 107 32l53 -101c-49.333 -30.667 -103.333 -46 -162 -46c-49.333 0 -93.333 10.167 -132 30.5zM319 553.002h-96l104 154h145z" />
    <glyph glyph-name="Ccircumflex" unicode="&#x108;" horiz-adv-x="675" 
d="M211 30.5c-57.333 30.333 -102 72.998 -134 127.998s-48 118.833 -48 191.5s16 136.5 48 191.5s76.667 97.667 134 128s122.666 45.5 195.999 45.5c93.333 0 176.666 -25.667 249.999 -77l-74 -112c-55.333 38.667 -114.333 58 -177 58c-45.333 0 -86 -9.66699 -122 -29
s-64.167 -46.666 -84.5 -81.999s-30.5 -76.333 -30.5 -123s10.167 -87.667 30.5 -123s48.5 -62.666 84.5 -81.999s76.667 -29 122 -29c62.667 0 121.667 19.333 177 58l74 -112c-73.333 -51.333 -156.666 -77 -249.999 -77c-73.333 0 -138.666 15.167 -195.999 45.5z
M583 742.998h-108l-72 69l-71 -69h-108l120 120h119z" />
    <glyph glyph-name="ccircumflex" unicode="&#x109;" horiz-adv-x="457" 
d="M149 15.5c-38.667 20.333 -68.834 49.168 -90.501 86.501s-32.5 80.333 -32.5 129s10.833 91.667 32.5 129s51.834 66.166 90.501 86.499s82.667 30.5 132 30.5c58.667 0 112.667 -15.333 162 -46l-53 -101c-34 21.333 -69.667 32 -107 32
c-38 0 -69.333 -12.167 -94 -36.5s-37 -55.833 -37 -94.5s12.333 -70.167 37 -94.5s56 -36.5 94 -36.5c37.333 0 73 10.667 107 32l53 -101c-49.333 -30.667 -103.333 -46 -162 -46c-49.333 0 -93.333 10.167 -132 30.5zM455 553.002h-108l-74 89l-73 -89h-109l123 154h118z
" />
    <glyph glyph-name="Cdotaccent" unicode="&#x10a;" horiz-adv-x="675" 
d="M211 30.5c-57.333 30.333 -102 72.998 -134 127.998s-48 118.833 -48 191.5s16 136.5 48 191.5s76.667 97.667 134 128s122.666 45.5 195.999 45.5c93.333 0 176.666 -25.667 249.999 -77l-74 -112c-55.333 38.667 -114.333 58 -177 58c-45.333 0 -86 -9.66699 -122 -29
s-64.167 -46.666 -84.5 -81.999s-30.5 -76.333 -30.5 -123s10.167 -87.667 30.5 -123s48.5 -62.666 84.5 -81.999s76.667 -29 122 -29c62.667 0 121.667 19.333 177 58l74 -112c-73.333 -51.333 -156.666 -77 -249.999 -77c-73.333 0 -138.666 15.167 -195.999 45.5z
M465 742.998h-123v115h123v-115z" />
    <glyph glyph-name="cdotaccent" unicode="&#x10b;" horiz-adv-x="457" 
d="M149 15.5c-38.667 20.333 -68.834 49.168 -90.501 86.501s-32.5 80.333 -32.5 129s10.833 91.667 32.5 129s51.834 66.166 90.501 86.499s82.667 30.5 132 30.5c58.667 0 112.667 -15.333 162 -46l-53 -101c-34 21.333 -69.667 32 -107 32
c-38 0 -69.333 -12.167 -94 -36.5s-37 -55.833 -37 -94.5s12.333 -70.167 37 -94.5s56 -36.5 94 -36.5c37.333 0 73 10.667 107 32l53 -101c-49.333 -30.667 -103.333 -46 -162 -46c-49.333 0 -93.333 10.167 -132 30.5zM343 559.002h-140v135h140v-135z" />
    <glyph glyph-name="Ccaron" unicode="&#x10c;" horiz-adv-x="675" 
d="M211 30.5c-57.333 30.333 -102 72.998 -134 127.998s-48 118.833 -48 191.5s16 136.5 48 191.5s76.667 97.667 134 128s122.666 45.5 195.999 45.5c93.333 0 176.666 -25.667 249.999 -77l-74 -112c-55.333 38.667 -114.333 58 -177 58c-45.333 0 -86 -9.66699 -122 -29
s-64.167 -46.666 -84.5 -81.999s-30.5 -76.333 -30.5 -123s10.167 -87.667 30.5 -123s48.5 -62.666 84.5 -81.999s76.667 -29 122 -29c62.667 0 121.667 19.333 177 58l74 -112c-73.333 -51.333 -156.666 -77 -249.999 -77c-73.333 0 -138.666 15.167 -195.999 45.5z
M344 742.998l-120 120h108l71 -69l72 69h108l-120 -120h-119z" />
    <glyph glyph-name="ccaron" unicode="&#x10d;" horiz-adv-x="457" 
d="M149 15.5c-38.667 20.333 -68.834 49.168 -90.501 86.501s-32.5 80.333 -32.5 129s10.833 91.667 32.5 129s51.834 66.166 90.501 86.499s82.667 30.5 132 30.5c58.667 0 112.667 -15.333 162 -46l-53 -101c-34 21.333 -69.667 32 -107 32
c-38 0 -69.333 -12.167 -94 -36.5s-37 -55.833 -37 -94.5s12.333 -70.167 37 -94.5s56 -36.5 94 -36.5c37.333 0 73 10.667 107 32l53 -101c-49.333 -30.667 -103.333 -46 -162 -46c-49.333 0 -93.333 10.167 -132 30.5zM332 546.002h-118l-123 154h109l73 -89l74 89h108z
" />
    <glyph glyph-name="Dcaron" unicode="&#x10e;" horiz-adv-x="683" 
d="M478.5 657.5c55 -28.333 98 -68.833 129 -121.5s46.5 -114.667 46.5 -186s-15.5 -133.333 -46.5 -186s-74 -93.167 -129 -121.5s-117.833 -42.5 -188.5 -42.5h-224v700h224c70.667 0 133.5 -14.167 188.5 -42.5zM194 582v-464h102c42.667 0 80.5 9 113.5 27
s59 44.333 78 79s28.5 76.667 28.5 126s-9.5 91.333 -28.5 126s-45 61 -78 79s-70.833 27 -113.5 27h-102zM222 743l-120 120h108l71 -69l72 69h108l-120 -120h-119z" />
    <glyph glyph-name="dcaron" unicode="&#x10f;" horiz-adv-x="698" 
d="M690 715v-121l-80 -96h-44l44 96h-41v121h121zM404 700h122v-700h-122v65h-2c-15.333 -25.333 -35.833 -45 -61.5 -59s-56.5 -21 -92.5 -21c-40.667 0 -78 9.66699 -112 29s-60.833 47.5 -80.5 84.5s-29.5 81.167 -29.5 132.5s9.83301 95.5 29.5 132.5
s46.5 65.167 80.5 84.5s71.333 29 112 29c36 0 66.833 -7 92.5 -21s46.167 -33.667 61.5 -59h2v303zM369.5 137c23 24 34.5 55.333 34.5 94s-11.5 70 -34.5 94s-53.167 36 -90.5 36s-67.5 -12 -90.5 -36s-34.5 -55.333 -34.5 -94s11.5 -70 34.5 -94s53.167 -36 90.5 -36
s67.5 12 90.5 36z" />
    <glyph glyph-name="Dcroat" unicode="&#x110;" horiz-adv-x="689" 
d="M484.5 657.5c55 -28.333 98 -68.833 129 -121.5s46.5 -114.667 46.5 -186s-15.5 -133.333 -46.5 -186s-74 -93.167 -129 -121.5s-117.833 -42.5 -188.5 -42.5h-224v304h-76v103h76v293h224c70.667 0 133.5 -14.167 188.5 -42.5zM415.5 145c33 18 59 44.333 78 79
s28.5 76.667 28.5 126s-9.5 91.333 -28.5 126s-45 61 -78 79s-70.833 27 -113.5 27h-102v-175h147v-103h-147v-186h102c42.667 0 80.5 9 113.5 27z" />
    <glyph glyph-name="dcroat" unicode="&#x111;" horiz-adv-x="592" 
d="M592 556h-66v-556h-122v65h-2c-15.333 -25.333 -35.833 -45 -61.5 -59s-56.5 -21 -92.5 -21c-40.667 0 -78 9.66699 -112 29s-60.833 47.5 -80.5 84.5s-29.5 81.167 -29.5 132.5s9.83301 95.5 29.5 132.5s46.5 65.167 80.5 84.5s71.333 29 112 29
c36 0 66.833 -7 92.5 -21s46.167 -33.667 61.5 -59h2v159h-133v73h133v71h122v-71h66v-73zM369.5 137c23 24 34.5 55.333 34.5 94s-11.5 70 -34.5 94s-53.167 36 -90.5 36s-67.5 -12 -90.5 -36s-34.5 -55.333 -34.5 -94s11.5 -70 34.5 -94s53.167 -36 90.5 -36
s67.5 12 90.5 36z" />
    <glyph glyph-name="Emacron" unicode="&#x112;" horiz-adv-x="525" 
d="M486 120v-120h-420v700h415v-120h-287v-140h262v-118h-262v-202h292zM443 755h-306v83h306v-83z" />
    <glyph glyph-name="emacron" unicode="&#x113;" horiz-adv-x="514" 
d="M431 412.5c39.333 -43 59 -103.833 59 -182.5v-24h-345c3.33301 -35.333 16.833 -62.833 40.5 -82.5s53.5 -29.5 89.5 -29.5c50 0 96 21 138 63l62 -89c-26 -24 -55 -43.833 -87 -59.5s-69.667 -23.5 -113 -23.5c-50 0 -93.667 10.167 -131 30.5s-66.333 49 -87 86
s-31 79.833 -31 128.5s10 91.667 30 129s48 66.333 84 87s78 31 126 31c70.667 0 125.667 -21.5 165 -64.5zM184.5 355c-19.667 -15.333 -31.832 -38.666 -36.499 -69.999h218c-2 29.333 -12.5 52.166 -31.5 68.499s-43.833 24.5 -74.5 24.5s-55.834 -7.66699 -75.501 -23z
M420.002 582h-306v85h306v-85z" />
    <glyph glyph-name="Ebreve" unicode="&#x114;" horiz-adv-x="525" 
d="M486 120v-120h-420v700h415v-120h-287v-140h262v-118h-262v-202h292zM395 772c-26.667 -22 -61.3291 -33 -103.996 -33s-77.167 11 -103.5 33s-41.5 52.333 -45.5 91h84c1.33301 -16 7.66602 -28.5 18.999 -37.5s26.666 -13.5 45.999 -13.5s34.666 4.5 45.999 13.5
s17.666 21.5 18.999 37.5h85c-4 -38.667 -19.333 -69 -46 -91z" />
    <glyph glyph-name="ebreve" unicode="&#x115;" horiz-adv-x="514" 
d="M431 412.5c39.333 -43 59 -103.833 59 -182.5v-24h-345c3.33301 -35.333 16.833 -62.833 40.5 -82.5s53.5 -29.5 89.5 -29.5c50 0 96 21 138 63l62 -89c-26 -24 -55 -43.833 -87 -59.5s-69.667 -23.5 -113 -23.5c-50 0 -93.667 10.167 -131 30.5s-66.333 49 -87 86
s-31 79.833 -31 128.5s10 91.667 30 129s48 66.333 84 87s78 31 126 31c70.667 0 125.667 -21.5 165 -64.5zM184.5 355c-19.667 -15.333 -31.832 -38.666 -36.499 -69.999h218c-2 29.333 -12.5 52.166 -31.5 68.499s-43.833 24.5 -74.5 24.5s-55.834 -7.66699 -75.501 -23z
M375.002 590.5c-28 -27 -63.998 -40.5 -107.998 -40.5s-79.833 13.5 -107.5 40.5s-41.5 63.5 -41.5 109.5h81c1.33301 -21.333 7.66602 -38.666 18.999 -51.999s27.666 -20 48.999 -20s37.833 6.66699 49.5 20s18.167 30.666 19.5 51.999h81c0 -46 -14 -82.5 -42 -109.5z
" />
    <glyph glyph-name="Edotaccent" unicode="&#x116;" horiz-adv-x="525" 
d="M486 120v-120h-420v700h415v-120h-287v-140h262v-118h-262v-202h292zM352 743h-123v115h123v-115z" />
    <glyph glyph-name="edotaccent" unicode="&#x117;" horiz-adv-x="514" 
d="M431 412.5c39.333 -43 59 -103.833 59 -182.5v-24h-345c3.33301 -35.333 16.833 -62.833 40.5 -82.5s53.5 -29.5 89.5 -29.5c50 0 96 21 138 63l62 -89c-26 -24 -55 -43.833 -87 -59.5s-69.667 -23.5 -113 -23.5c-50 0 -93.667 10.167 -131 30.5s-66.333 49 -87 86
s-31 79.833 -31 128.5s10 91.667 30 129s48 66.333 84 87s78 31 126 31c70.667 0 125.667 -21.5 165 -64.5zM184.5 355c-19.667 -15.333 -31.832 -38.666 -36.499 -69.999h218c-2 29.333 -12.5 52.166 -31.5 68.499s-43.833 24.5 -74.5 24.5s-55.834 -7.66699 -75.501 -23z
M337.002 559h-140v135h140v-135z" />
    <glyph glyph-name="Eogonek" unicode="&#x118;" horiz-adv-x="525" 
d="M486 120v-120h-420v700h415v-120h-287v-140h262v-118h-262v-202h292zM466 10c-50 -48.667 -75 -84 -75 -106c0 -6.66699 2.5 -12 7.5 -16s11.5 -6 19.5 -6c10.667 0 23.667 1.66699 39 5l12 -77c-26 -6 -49.333 -9 -70 -9c-30 0 -53.667 6.66699 -71 20
s-26 33.333 -26 60c0 22.667 8.66699 45.5 26 68.5s44.333 47.833 81 74.5z" />
    <glyph glyph-name="eogonek" unicode="&#x119;" horiz-adv-x="514" 
d="M431 412.5c39.333 -43 59 -103.833 59 -182.5v-24h-345c3.33301 -35.333 16.833 -62.833 40.5 -82.5s53.5 -29.5 89.5 -29.5c50 0 96 21 138 63l62 -89c-26 -24 -55 -43.833 -87 -59.5s-69.667 -23.5 -113 -23.5c-50 0 -93.667 10.167 -131 30.5s-66.333 49 -87 86
s-31 79.833 -31 128.5s10 91.667 30 129s48 66.333 84 87s78 31 126 31c70.667 0 125.667 -21.5 165 -64.5zM184.5 355c-19.667 -15.333 -31.832 -38.666 -36.499 -69.999h218c-2 29.333 -12.5 52.166 -31.5 68.499s-43.833 24.5 -74.5 24.5s-55.834 -7.66699 -75.501 -23z
M396.002 10c-50 -48.667 -75 -84 -75 -106c0 -6.66699 2.5 -12 7.5 -16s11.5 -6 19.5 -6c10.667 0 23.667 1.66699 39 5l12 -77c-26 -6 -49.333 -9 -70 -9c-30 0 -53.667 6.66699 -71 20s-26 33.333 -26 60c0 22.667 8.66699 45.5 26 68.5s44.333 47.833 81 74.5z" />
    <glyph glyph-name="Ecaron" unicode="&#x11a;" horiz-adv-x="525" 
d="M486 120v-120h-420v700h415v-120h-287v-140h262v-118h-262v-202h292zM231 743l-120 120h108l71 -69l72 69h108l-120 -120h-119z" />
    <glyph glyph-name="ecaron" unicode="&#x11b;" horiz-adv-x="514" 
d="M431 412.5c39.333 -43 59 -103.833 59 -182.5v-24h-345c3.33301 -35.333 16.833 -62.833 40.5 -82.5s53.5 -29.5 89.5 -29.5c50 0 96 21 138 63l62 -89c-26 -24 -55 -43.833 -87 -59.5s-69.667 -23.5 -113 -23.5c-50 0 -93.667 10.167 -131 30.5s-66.333 49 -87 86
s-31 79.833 -31 128.5s10 91.667 30 129s48 66.333 84 87s78 31 126 31c70.667 0 125.667 -21.5 165 -64.5zM184.5 355c-19.667 -15.333 -31.832 -38.666 -36.499 -69.999h218c-2 29.333 -12.5 52.166 -31.5 68.499s-43.833 24.5 -74.5 24.5s-55.834 -7.66699 -75.501 -23z
M326.002 546h-118l-123 154h109l73 -89l74 89h108z" />
    <glyph glyph-name="Gcircumflex" unicode="&#x11c;" horiz-adv-x="767" 
d="M747 356c0 -68.667 -13.002 -131.003 -39.002 -187.003s-65 -100.667 -117 -134s-116 -50 -192 -50c-71.333 0 -135 15 -191 45s-99.833 72.5 -131.5 127.5s-47.5 119.167 -47.5 192.5c0 71.333 15.5 134.666 46.5 189.999s74.833 98.333 131.5 129s122.667 46 198 46
c104.667 0 195.334 -31 272.001 -93l-85 -109c-56.667 47.333 -120.667 71 -192 71c-46.667 0 -87.5 -10.167 -122.5 -30.5s-61.833 -48.166 -80.5 -83.499s-28 -75.333 -28 -120c0 -45.333 9.66699 -85.666 29 -120.999s46.833 -63 82.5 -83s77.167 -30 124.5 -30
c42.667 0 78.834 7.83301 108.501 23.5s52.5 35.834 68.5 60.501s25.333 50.667 28 78h-201v118h337c0.666992 -9.33301 1 -22.666 1 -39.999zM569.998 742.997h-108l-72 69l-71 -69h-108l120 120h119z" />
    <glyph glyph-name="gcircumflex" unicode="&#x11d;" horiz-adv-x="578" 
d="M106 -193l22.0029 116.999c64 -15.333 117.667 -23 161 -23c42 0 71.667 8.83301 89 26.5s26 49.167 26 94.5v43h-2c-34.667 -51.333 -86.334 -77 -155.001 -77c-40.667 0 -77.834 9.5 -111.501 28.5s-60.334 46.833 -80.001 83.5s-29.5 80.334 -29.5 131.001
c0 51.333 9.83301 95.5 29.5 132.5s46.5 65.167 80.5 84.5s71.333 29 112 29c36 0 66.833 -7 92.5 -21s46.167 -33.667 61.5 -59h2v65h122v-462c-0.666992 -78 -21 -133.333 -61 -166s-97 -49 -171 -49c-50 0 -112.667 7.33301 -188 22zM369.503 136.999
c23 24 34.5 55.333 34.5 94s-11.5 70 -34.5 94s-53.167 36 -90.5 36s-67.5 -12 -90.5 -36s-34.5 -55.333 -34.5 -94s11.5 -70 34.5 -94s53.167 -36 90.5 -36s67.5 12 90.5 36zM469.003 552.999h-108l-74 89l-73 -89h-109l123 154h118z" />
    <glyph glyph-name="Gbreve" unicode="&#x11e;" horiz-adv-x="767" 
d="M747 356c0 -68.667 -13.002 -131.003 -39.002 -187.003s-65 -100.667 -117 -134s-116 -50 -192 -50c-71.333 0 -135 15 -191 45s-99.833 72.5 -131.5 127.5s-47.5 119.167 -47.5 192.5c0 71.333 15.5 134.666 46.5 189.999s74.833 98.333 131.5 129s122.667 46 198 46
c104.667 0 195.334 -31 272.001 -93l-85 -109c-56.667 47.333 -120.667 71 -192 71c-46.667 0 -87.5 -10.167 -122.5 -30.5s-61.833 -48.166 -80.5 -83.499s-28 -75.333 -28 -120c0 -45.333 9.66699 -85.666 29 -120.999s46.833 -63 82.5 -83s77.167 -30 124.5 -30
c42.667 0 78.834 7.83301 108.501 23.5s52.5 35.834 68.5 60.501s25.333 50.667 28 78h-201v118h337c0.666992 -9.33301 1 -22.666 1 -39.999zM494.998 771.997c-26.667 -22 -61.3291 -33 -103.996 -33s-77.167 11 -103.5 33s-41.5 52.333 -45.5 91h84
c1.33301 -16 7.66602 -28.5 18.999 -37.5s26.666 -13.5 45.999 -13.5s34.666 4.5 45.999 13.5s17.666 21.5 18.999 37.5h85c-4 -38.667 -19.333 -69 -46 -91z" />
    <glyph glyph-name="gbreve" unicode="&#x11f;" horiz-adv-x="578" 
d="M106 -193l22.0029 116.999c64 -15.333 117.667 -23 161 -23c42 0 71.667 8.83301 89 26.5s26 49.167 26 94.5v43h-2c-34.667 -51.333 -86.334 -77 -155.001 -77c-40.667 0 -77.834 9.5 -111.501 28.5s-60.334 46.833 -80.001 83.5s-29.5 80.334 -29.5 131.001
c0 51.333 9.83301 95.5 29.5 132.5s46.5 65.167 80.5 84.5s71.333 29 112 29c36 0 66.833 -7 92.5 -21s46.167 -33.667 61.5 -59h2v65h122v-462c-0.666992 -78 -21 -133.333 -61 -166s-97 -49 -171 -49c-50 0 -112.667 7.33301 -188 22zM369.503 136.999
c23 24 34.5 55.333 34.5 94s-11.5 70 -34.5 94s-53.167 36 -90.5 36s-67.5 -12 -90.5 -36s-34.5 -55.333 -34.5 -94s11.5 -70 34.5 -94s53.167 -36 90.5 -36s67.5 12 90.5 36zM395.003 590.499c-28 -27 -63.998 -40.5 -107.998 -40.5s-79.833 13.5 -107.5 40.5
s-41.5 63.5 -41.5 109.5h81c1.33301 -21.333 7.66602 -38.666 18.999 -51.999s27.666 -20 48.999 -20s37.833 6.66699 49.5 20s18.167 30.666 19.5 51.999h81c0 -46 -14 -82.5 -42 -109.5z" />
    <glyph glyph-name="Gdotaccent" unicode="&#x120;" horiz-adv-x="767" 
d="M747 356c0 -68.667 -13.002 -131.003 -39.002 -187.003s-65 -100.667 -117 -134s-116 -50 -192 -50c-71.333 0 -135 15 -191 45s-99.833 72.5 -131.5 127.5s-47.5 119.167 -47.5 192.5c0 71.333 15.5 134.666 46.5 189.999s74.833 98.333 131.5 129s122.667 46 198 46
c104.667 0 195.334 -31 272.001 -93l-85 -109c-56.667 47.333 -120.667 71 -192 71c-46.667 0 -87.5 -10.167 -122.5 -30.5s-61.833 -48.166 -80.5 -83.499s-28 -75.333 -28 -120c0 -45.333 9.66699 -85.666 29 -120.999s46.833 -63 82.5 -83s77.167 -30 124.5 -30
c42.667 0 78.834 7.83301 108.501 23.5s52.5 35.834 68.5 60.501s25.333 50.667 28 78h-201v118h337c0.666992 -9.33301 1 -22.666 1 -39.999zM451.998 742.997h-123v115h123v-115z" />
    <glyph glyph-name="gdotaccent" unicode="&#x121;" horiz-adv-x="578" 
d="M106 -193l22.0029 116.999c64 -15.333 117.667 -23 161 -23c42 0 71.667 8.83301 89 26.5s26 49.167 26 94.5v43h-2c-34.667 -51.333 -86.334 -77 -155.001 -77c-40.667 0 -77.834 9.5 -111.501 28.5s-60.334 46.833 -80.001 83.5s-29.5 80.334 -29.5 131.001
c0 51.333 9.83301 95.5 29.5 132.5s46.5 65.167 80.5 84.5s71.333 29 112 29c36 0 66.833 -7 92.5 -21s46.167 -33.667 61.5 -59h2v65h122v-462c-0.666992 -78 -21 -133.333 -61 -166s-97 -49 -171 -49c-50 0 -112.667 7.33301 -188 22zM369.503 136.999
c23 24 34.5 55.333 34.5 94s-11.5 70 -34.5 94s-53.167 36 -90.5 36s-67.5 -12 -90.5 -36s-34.5 -55.333 -34.5 -94s11.5 -70 34.5 -94s53.167 -36 90.5 -36s67.5 12 90.5 36zM357.003 558.999h-140v135h140v-135z" />
    <glyph glyph-name="Gcommaaccent" unicode="&#x122;" horiz-adv-x="767" 
d="M747 356c0 -68.667 -13.002 -131.003 -39.002 -187.003s-65 -100.667 -117 -134s-116 -50 -192 -50c-71.333 0 -135 15 -191 45s-99.833 72.5 -131.5 127.5s-47.5 119.167 -47.5 192.5c0 71.333 15.5 134.666 46.5 189.999s74.833 98.333 131.5 129s122.667 46 198 46
c104.667 0 195.334 -31 272.001 -93l-85 -109c-56.667 47.333 -120.667 71 -192 71c-46.667 0 -87.5 -10.167 -122.5 -30.5s-61.833 -48.166 -80.5 -83.499s-28 -75.333 -28 -120c0 -45.333 9.66699 -85.666 29 -120.999s46.833 -63 82.5 -83s77.167 -30 124.5 -30
c42.667 0 78.834 7.83301 108.501 23.5s52.5 35.834 68.5 60.501s25.333 50.667 28 78h-201v118h337c0.666992 -9.33301 1 -22.666 1 -39.999zM460.998 -47.0029v-95l-65 -68h-44l35 68h-43v95h117z" />
    <glyph glyph-name="gcommaaccent" unicode="&#x123;" horiz-adv-x="578" 
d="M106 -193l22.0029 116.999c64 -15.333 117.667 -23 161 -23c42 0 71.667 8.83301 89 26.5s26 49.167 26 94.5v43h-2c-34.667 -51.333 -86.334 -77 -155.001 -77c-40.667 0 -77.834 9.5 -111.501 28.5s-60.334 46.833 -80.001 83.5s-29.5 80.334 -29.5 131.001
c0 51.333 9.83301 95.5 29.5 132.5s46.5 65.167 80.5 84.5s71.333 29 112 29c36 0 66.833 -7 92.5 -21s46.167 -33.667 61.5 -59h2v65h122v-462c-0.666992 -78 -21 -133.333 -61 -166s-97 -49 -171 -49c-50 0 -112.667 7.33301 -188 22zM369.503 136.999
c23 24 34.5 55.333 34.5 94s-11.5 70 -34.5 94s-53.167 36 -90.5 36s-67.5 -12 -90.5 -36s-34.5 -55.333 -34.5 -94s11.5 -70 34.5 -94s53.167 -36 90.5 -36s67.5 12 90.5 36zM348.003 634.999v-95h-117v95l65 68h44l-35 -68h43z" />
    <glyph glyph-name="Hcircumflex" unicode="&#x124;" horiz-adv-x="720" 
d="M654 700v-700h-128v307h-332v-307h-128v700h128v-271h332v271h128zM539 743h-108l-72 69l-71 -69h-108l120 120h119z" />
    <glyph glyph-name="hcircumflex" unicode="&#x125;" horiz-adv-x="554" 
d="M179 396l2.00098 -0.000976562c34 54 84 81 150 81c53.333 0 95.666 -15.667 126.999 -47s47 -79.666 47 -144.999v-285h-123v256c0 71.333 -32 107 -96 107c-33.333 0 -59.5 -11 -78.5 -33s-28.5 -56.667 -28.5 -104v-226h-123v700h123v-304zM297.001 742.999h-108
l-72 69l-71 -69h-108l120 120h119z" />
    <glyph glyph-name="Hbar" unicode="&#x126;" horiz-adv-x="728" 
d="M728 505h-70v-505h-128v307h-332v-307h-128v505h-70v101h70v94h128v-94h332v94h128v-94h70v-101zM530 505h-332v-76h332v76z" />
    <glyph glyph-name="hbar" unicode="&#x127;" horiz-adv-x="554" 
d="M458 430c31.333 -31.333 47.001 -79.667 47.001 -145v-285h-123v256c0 71.333 -32 107 -96 107c-33.333 0 -59.5 -11 -78.5 -33s-28.5 -56.667 -28.5 -104v-226h-123v556h-65v73h65v71h123v-71h137v-73h-137v-160h2c34 54 84 81 150 81
c53.333 0 95.666 -15.667 126.999 -47z" />
    <glyph glyph-name="Itilde" unicode="&#x128;" horiz-adv-x="261" 
d="M195 0h-129v700h129v-700zM171 747c-15.333 4 -33.665 9.66699 -54.998 17c-13.333 4.66699 -26.666 8.83398 -39.999 12.501s-24.333 5.5 -33 5.5c-22.667 0 -40.667 -14 -54 -42l-42 13c20 76 56.333 114 109 114c13.333 0 27.166 -1.83301 41.499 -5.5
s33.166 -9.5 56.499 -17.5c13.333 -4.66699 26.666 -8.83398 39.999 -12.501s24 -5.5 32 -5.5c23.333 0 41.666 14 54.999 42l41 -14c-20 -75.333 -56 -113 -108 -113c-13.333 0 -27.666 2 -42.999 6z" />
    <glyph glyph-name="itilde" unicode="&#x129;" horiz-adv-x="236" 
d="M94.5 698c11 -4.66699 25.168 -11.666 42.501 -20.999c2 -1.33301 8.83301 -5 20.5 -11s21.167 -9 28.5 -9c8.66699 0 15.667 3.66699 21 11s10.333 18.666 15 33.999l46 -15c-6.66699 -37.333 -17.334 -66.833 -32.001 -88.5s-34 -32.5 -58 -32.5
c-11.333 0 -22.833 2.5 -34.5 7.5s-25.5 12.167 -41.5 21.5l-21 11c-11.333 6 -20.333 9 -27 9c-8.66699 0 -15.834 -3.66699 -21.501 -11s-10.5 -19 -14.5 -35l-46 15c6.66699 37.333 17.334 66.833 32.001 88.5s34 32.5 58 32.5c10.667 0 21.5 -2.33301 32.5 -7z
M56.001 462.001h123v-462h-123v462z" />
    <glyph glyph-name="Imacron" unicode="&#x12a;" horiz-adv-x="261" 
d="M195 0h-129v700h129v-700zM282 755h-306v83h306v-83z" />
    <glyph glyph-name="imacron" unicode="&#x12b;" horiz-adv-x="236" 
d="M221 582h-206v85h206v-85zM56 462h123v-462h-123v462z" />
    <glyph glyph-name="Ibreve" unicode="&#x12c;" horiz-adv-x="261" 
d="M195 0h-129v700h129v-700zM234 772c-26.667 -22 -61.3291 -33 -103.996 -33s-77.167 11 -103.5 33s-41.5 52.333 -45.5 91h84c1.33301 -16 7.66602 -28.5 18.999 -37.5s26.666 -13.5 45.999 -13.5s34.666 4.5 45.999 13.5s17.666 21.5 18.999 37.5h85
c-4 -38.667 -19.333 -69 -46 -91z" />
    <glyph glyph-name="ibreve" unicode="&#x12d;" horiz-adv-x="236" 
d="M209 587.5c-22 -25 -52.333 -37.5 -91 -37.5c-38 0 -68 12.5 -90 37.5s-33 62.5 -33 112.5h79c0 -24.667 3.5 -42.834 10.5 -54.501s18.167 -17.5 33.5 -17.5c16 0 27.333 5.83301 34 17.5s10 29.834 10 54.501h80c0 -50 -11 -87.5 -33 -112.5zM56 462h123v-462h-123v462
z" />
    <glyph glyph-name="Iogonek" unicode="&#x12e;" horiz-adv-x="261" 
d="M195 0h-129v700h129v-700zM174 10c-50 -48.667 -75 -84 -75 -106c0 -6.66699 2.5 -12 7.5 -16s11.5 -6 19.5 -6c10.667 0 23.667 1.66699 39 5l12 -77c-26 -6 -49.333 -9 -70 -9c-30 0 -53.667 6.66699 -71 20s-26 33.333 -26 60c0 22.667 8.66699 45.5 26 68.5
s44.333 47.833 81 74.5z" />
    <glyph glyph-name="iogonek" unicode="&#x12f;" horiz-adv-x="236" 
d="M56 462h123v-462h-123v462zM188 559h-140v135h140v-135zM149 10c-50 -48.667 -75 -84 -75 -106c0 -6.66699 2.5 -12 7.5 -16s11.5 -6 19.5 -6c10.667 0 23.667 1.66699 39 5l12 -77c-26 -6 -49.333 -9 -70 -9c-30 0 -53.667 6.66699 -71 20s-26 33.333 -26 60
c0 22.667 8.66699 45.5 26 68.5s44.333 47.833 81 74.5z" />
    <glyph glyph-name="Idotaccent" unicode="&#x130;" horiz-adv-x="261" 
d="M195 0h-129v700h129v-700zM191 743h-123v115h123v-115z" />
    <glyph glyph-name="dotlessi" unicode="&#x131;" horiz-adv-x="236" 
d="M56 462h123v-462h-123v462z" />
    <glyph glyph-name="IJ" unicode="&#x132;" horiz-adv-x="548" 
d="M195 0h-129v700h129v-700zM482 175c0 -61.333 -13.666 -106.501 -40.999 -135.501s-69 -43.5 -125 -43.5h-42v122h29c17.333 0 30.166 4.83301 38.499 14.5s12.5 25.834 12.5 48.501v519h128v-525z" />
    <glyph glyph-name="ij" unicode="&#x133;" horiz-adv-x="472" 
d="M56 462h123v-462h-123v462zM188 559h-140v135h140v-135zM236 -90c20 0 34.333 4.83301 43 14.5s13 25.167 13 46.5v491h123v-496c0 -55.333 -13.5 -97.333 -40.5 -126s-66.833 -43 -119.5 -43h-40v113h21zM424 559h-140v135h140v-135z" />
    <glyph glyph-name="Jcircumflex" unicode="&#x134;" horiz-adv-x="287" 
d="M221 175c0 -61.333 -13.666 -106.501 -40.999 -135.501s-69 -43.5 -125 -43.5h-42v122h29c17.333 0 30.166 4.83301 38.499 14.5s12.5 25.834 12.5 48.501v519h128v-525zM336.001 742.999h-108l-72 69l-71 -69h-108l120 120h119z" />
    <glyph glyph-name="jcircumflex" unicode="&#x135;" horiz-adv-x="236" 
d="M266 553h-102l-46 93l-46 -93h-102l89 154h118zM0 -90c20 0 34.333 4.83301 43 14.5s13 25.167 13 46.5v491h123v-496c0 -55.333 -13.5 -97.333 -40.5 -126s-66.833 -43 -119.5 -43h-40v113h21z" />
    <glyph glyph-name="Kcommaaccent" unicode="&#x136;" horiz-adv-x="685" 
d="M497 0l-303 343v-343h-128v700h128v-310l264 310h176l-297 -324l346 -376h-186zM391 -47v-95l-65 -68h-44l35 68h-43v95h117z" />
    <glyph glyph-name="kcommaaccent" unicode="&#x137;" horiz-adv-x="517" 
d="M352 0l-173 221v-221h-123v700h123v-429l152 191h156l-189 -210l214 -252h-160zM317 -47v-95l-65 -68h-44l35 68h-43v95h117z" />
    <glyph glyph-name="kgreenlandic" unicode="&#x138;" horiz-adv-x="514" 
d="M349 0l-173 221v-221h-122v462h122v-191l152 191h156l-189 -210l214 -252h-160z" />
    <glyph glyph-name="Lacute" unicode="&#x139;" horiz-adv-x="489" 
d="M194 121h292v-121h-420v700h128v-579zM194 743h-90l104 120h145z" />
    <glyph glyph-name="lacute" unicode="&#x13a;" horiz-adv-x="236" 
d="M179 0h-123v700h123v-700zM160 743h-90l104 120h145z" />
    <glyph glyph-name="Lcommaaccent" unicode="&#x13b;" horiz-adv-x="489" 
d="M194 121h292v-121h-420v700h128v-579zM338 -47v-95l-65 -68h-44l35 68h-43v95h117z" />
    <glyph glyph-name="lcommaaccent" unicode="&#x13c;" horiz-adv-x="236" 
d="M179 0h-123v700h123v-700zM177 -47v-95l-65 -68h-44l35 68h-43v95h117z" />
    <glyph glyph-name="Lcaron" unicode="&#x13d;" horiz-adv-x="489" 
d="M194 121h292v-121h-420v700h128v-579zM435 715v-121l-80 -152h-44l53 152h-50v121h121z" />
    <glyph glyph-name="lcaron" unicode="&#x13e;" horiz-adv-x="354" 
d="M347 715v-121l-81 -96h-44l45 96h-42v121h122zM56 700h123v-700h-123v700z" />
    <glyph glyph-name="Ldot" unicode="&#x13f;" horiz-adv-x="489" 
d="M194 121h292v-121h-420v700h128v-579zM420 323h-139v139h139v-139z" />
    <glyph glyph-name="ldot" unicode="&#x140;" horiz-adv-x="359" 
d="M179 0h-123v700h123v-700zM349 324h-139v139h139v-139z" />
    <glyph glyph-name="Lslash" unicode="&#x141;" horiz-adv-x="489" 
d="M486 121v-121h-420v282l-76 -39v83l76 39v335h128v-268l172 89v-83l-172 -89v-228h292z" />
    <glyph glyph-name="lslash" unicode="&#x142;" horiz-adv-x="294" 
d="M284 416l-76 -40v-376h-123v311l-75 -39v83l75 39v306h123v-242l76 40v-82z" />
    <glyph glyph-name="Nacute" unicode="&#x143;" horiz-adv-x="720" 
d="M654 0h-119l-340 480h-1v-480h-128v700h119l340 -481h1v481h128v-700zM401 743h-90l104 120h145z" />
    <glyph glyph-name="nacute" unicode="&#x144;" horiz-adv-x="551" 
d="M455 430c31.333 -31.333 47 -79.667 47 -145v-285h-123v256c0 71.333 -31.667 107 -95 107c-33.333 0 -59.666 -11 -78.999 -33s-29 -56.667 -29 -104v-226h-122v462h121v-70h2c16 27.333 36.833 48.333 62.5 63s55.167 22 88.5 22c53.333 0 95.666 -15.667 126.999 -47z
M334 552.999h-96l104 154h145z" />
    <glyph glyph-name="Ncommaaccent" unicode="&#x145;" horiz-adv-x="720" 
d="M654 0h-119l-340 480h-1v-480h-128v700h119l340 -481h1v481h128v-700zM418 -47v-95l-65 -68h-44l35 68h-43v95h117z" />
    <glyph glyph-name="ncommaaccent" unicode="&#x146;" horiz-adv-x="551" 
d="M455 430c31.333 -31.333 47 -79.667 47 -145v-285h-123v256c0 71.333 -31.667 107 -95 107c-33.333 0 -59.666 -11 -78.999 -33s-29 -56.667 -29 -104v-226h-122v462h121v-70h2c16 27.333 36.833 48.333 62.5 63s55.167 22 88.5 22c53.333 0 95.666 -15.667 126.999 -47z
M344 -47.001v-95l-65 -68h-44l35 68h-43v95h117z" />
    <glyph glyph-name="Ncaron" unicode="&#x147;" horiz-adv-x="720" 
d="M654 0h-119l-340 480h-1v-480h-128v700h119l340 -481h1v481h128v-700zM300 743l-120 120h108l71 -69l72 69h108l-120 -120h-119z" />
    <glyph glyph-name="ncaron" unicode="&#x148;" horiz-adv-x="551" 
d="M455 430c31.333 -31.333 47 -79.667 47 -145v-285h-123v256c0 71.333 -31.667 107 -95 107c-33.333 0 -59.666 -11 -78.999 -33s-29 -56.667 -29 -104v-226h-122v462h121v-70h2c16 27.333 36.833 48.333 62.5 63s55.167 22 88.5 22c53.333 0 95.666 -15.667 126.999 -47z
M347 545.999h-118l-123 154h109l73 -89l74 89h108z" />
    <glyph glyph-name="napostrophe" unicode="&#x149;" horiz-adv-x="619" 
d="M523 430c31.333 -31.333 47 -79.667 47 -145v-285h-123v256c0 71.333 -31.667 107 -95 107c-33.333 0 -59.666 -11 -78.999 -33s-29 -56.667 -29 -104v-226h-122v462h121v-70h2c16 27.333 36.833 48.333 62.5 63s55.167 22 88.5 22c53.333 0 95.666 -15.667 126.999 -47z
M135 714.999v-121l-80 -152h-44l53 152h-50v121h121z" />
    <glyph glyph-name="Eng" unicode="&#x14a;" horiz-adv-x="720" 
d="M654 700l-0.000976562 -733c0 -55.333 -13.833 -97 -41.5 -125s-68.5 -42 -122.5 -42h-66v121h42c20.667 0 35.834 4.33301 45.501 13s14.5 24 14.5 46v35l-331 464h-1v-479h-128v700h119l340 -477h1v477h128z" />
    <glyph glyph-name="eng" unicode="&#x14b;" horiz-adv-x="551" 
d="M455 430c31.333 -31.333 47 -79.667 47 -145v-329c0 -104 -49.333 -156 -148 -156h-64v112h42c31.333 0 47 16.667 47 50v294c0 71.333 -31.667 107 -95 107c-33.333 0 -59.666 -11 -78.999 -33s-29 -56.667 -29 -104v-226h-122v462h121v-70h2
c16 27.333 36.833 48.333 62.5 63s55.167 22 88.5 22c53.333 0 95.666 -15.667 126.999 -47z" />
    <glyph glyph-name="Omacron" unicode="&#x14c;" horiz-adv-x="791" 
d="M582 669c56 -30.667 100 -73.834 132 -129.501s48 -118.834 48 -189.501s-16 -133.834 -48 -189.501s-76 -98.834 -132 -129.501s-118.333 -46 -187 -46s-130.834 15.333 -186.501 46s-99.5 73.834 -131.5 129.501s-48 118.834 -48 189.501s16 133.834 48 189.501
s75.833 98.834 131.5 129.501s117.834 46 186.501 46s131 -15.333 187 -46zM278.5 554.5c-34.333 -19.667 -61.166 -47.332 -80.499 -82.999s-29 -76.167 -29 -121.5s9.66699 -85.833 29 -121.5s46.166 -63.334 80.499 -83.001s73.166 -29.5 116.499 -29.5
s82.166 9.83301 116.499 29.5s61.166 47.167 80.499 82.5s29 76 29 122s-9.66699 86.667 -29 122s-46.166 62.833 -80.499 82.5s-73.166 29.5 -116.499 29.5s-82.166 -9.83301 -116.499 -29.5zM548 755.002h-306v83h306v-83z" />
    <glyph glyph-name="omacron" unicode="&#x14d;" horiz-adv-x="563" 
d="M413.5 445.5c39 -21 69.5 -50.167 91.5 -87.5s33 -79.666 33 -126.999s-11 -89.666 -33 -126.999s-52.5 -66.5 -91.5 -87.5s-82.833 -31.5 -131.5 -31.5s-92.5 10.5 -131.5 31.5s-69.5 50.167 -91.5 87.5s-33 79.666 -33 126.999s11 89.666 33 126.999
s52.5 66.5 91.5 87.5s82.833 31.5 131.5 31.5s92.5 -10.5 131.5 -31.5zM188.5 325.5c-24.333 -23.667 -36.5 -55.167 -36.5 -94.5s12.167 -70.833 36.5 -94.5s55.5 -35.5 93.5 -35.5s69 11.833 93 35.5s36 55.167 36 94.5s-12 70.833 -36 94.5s-55 35.5 -93 35.5
s-69.167 -11.833 -93.5 -35.5zM435 582h-306v85h306v-85z" />
    <glyph glyph-name="Obreve" unicode="&#x14e;" horiz-adv-x="791" 
d="M582 669c56 -30.667 100 -73.834 132 -129.501s48 -118.834 48 -189.501s-16 -133.834 -48 -189.501s-76 -98.834 -132 -129.501s-118.333 -46 -187 -46s-130.834 15.333 -186.501 46s-99.5 73.834 -131.5 129.501s-48 118.834 -48 189.501s16 133.834 48 189.501
s75.833 98.834 131.5 129.501s117.834 46 186.501 46s131 -15.333 187 -46zM278.5 554.5c-34.333 -19.667 -61.166 -47.332 -80.499 -82.999s-29 -76.167 -29 -121.5s9.66699 -85.833 29 -121.5s46.166 -63.334 80.499 -83.001s73.166 -29.5 116.499 -29.5
s82.166 9.83301 116.499 29.5s61.166 47.167 80.499 82.5s29 76 29 122s-9.66699 86.667 -29 122s-46.166 62.833 -80.499 82.5s-73.166 29.5 -116.499 29.5s-82.166 -9.83301 -116.499 -29.5zM500 772.002c-26.667 -22 -61.3291 -33 -103.996 -33s-77.167 11 -103.5 33
s-41.5 52.333 -45.5 91h84c1.33301 -16 7.66602 -28.5 18.999 -37.5s26.666 -13.5 45.999 -13.5s34.666 4.5 45.999 13.5s17.666 21.5 18.999 37.5h85c-4 -38.667 -19.333 -69 -46 -91z" />
    <glyph glyph-name="obreve" unicode="&#x14f;" horiz-adv-x="563" 
d="M413.5 445.5c39 -21 69.5 -50.167 91.5 -87.5s33 -79.666 33 -126.999s-11 -89.666 -33 -126.999s-52.5 -66.5 -91.5 -87.5s-82.833 -31.5 -131.5 -31.5s-92.5 10.5 -131.5 31.5s-69.5 50.167 -91.5 87.5s-33 79.666 -33 126.999s11 89.666 33 126.999
s52.5 66.5 91.5 87.5s82.833 31.5 131.5 31.5s92.5 -10.5 131.5 -31.5zM188.5 325.5c-24.333 -23.667 -36.5 -55.167 -36.5 -94.5s12.167 -70.833 36.5 -94.5s55.5 -35.5 93.5 -35.5s69 11.833 93 35.5s36 55.167 36 94.5s-12 70.833 -36 94.5s-55 35.5 -93 35.5
s-69.167 -11.833 -93.5 -35.5zM390 590.5c-28 -27 -63.998 -40.5 -107.998 -40.5s-79.833 13.5 -107.5 40.5s-41.5 63.5 -41.5 109.5h81c1.33301 -21.333 7.66602 -38.666 18.999 -51.999s27.666 -20 48.999 -20s37.833 6.66699 49.5 20s18.167 30.666 19.5 51.999h81
c0 -46 -14 -82.5 -42 -109.5z" />
    <glyph glyph-name="Ohungarumlaut" unicode="&#x150;" horiz-adv-x="791" 
d="M582 669c56 -30.667 100 -73.834 132 -129.501s48 -118.834 48 -189.501s-16 -133.834 -48 -189.501s-76 -98.834 -132 -129.501s-118.333 -46 -187 -46s-130.834 15.333 -186.501 46s-99.5 73.834 -131.5 129.501s-48 118.834 -48 189.501s16 133.834 48 189.501
s75.833 98.834 131.5 129.501s117.834 46 186.501 46s131 -15.333 187 -46zM278.5 554.5c-34.333 -19.667 -61.166 -47.332 -80.499 -82.999s-29 -76.167 -29 -121.5s9.66699 -85.833 29 -121.5s46.166 -63.334 80.499 -83.001s73.166 -29.5 116.499 -29.5
s82.166 9.83301 116.499 29.5s61.166 47.167 80.499 82.5s29 76 29 122s-9.66699 86.667 -29 122s-46.166 62.833 -80.499 82.5s-73.166 29.5 -116.499 29.5s-82.166 -9.83301 -116.499 -29.5zM380 743.002h-84l90 120h102zM519 743.002h-84l90 120h101z" />
    <glyph glyph-name="ohungarumlaut" unicode="&#x151;" horiz-adv-x="563" 
d="M413.5 445.5c39 -21 69.5 -50.167 91.5 -87.5s33 -79.666 33 -126.999s-11 -89.666 -33 -126.999s-52.5 -66.5 -91.5 -87.5s-82.833 -31.5 -131.5 -31.5s-92.5 10.5 -131.5 31.5s-69.5 50.167 -91.5 87.5s-33 79.666 -33 126.999s11 89.666 33 126.999
s52.5 66.5 91.5 87.5s82.833 31.5 131.5 31.5s92.5 -10.5 131.5 -31.5zM188.5 325.5c-24.333 -23.667 -36.5 -55.167 -36.5 -94.5s12.167 -70.833 36.5 -94.5s55.5 -35.5 93.5 -35.5s69 11.833 93 35.5s36 55.167 36 94.5s-12 70.833 -36 94.5s-55 35.5 -93 35.5
s-69.167 -11.833 -93.5 -35.5zM254 553h-85l113 154h104zM397 553h-85l112 154h105z" />
    <glyph glyph-name="OE" unicode="&#x152;" horiz-adv-x="1080" 
d="M1041 118v-118.004h-421v69c-28.667 -27.333 -62.334 -48.166 -101.001 -62.499s-80.667 -21.5 -126 -21.5c-68 0 -129.833 15.333 -185.5 46s-99.334 73.834 -131.001 129.501s-47.5 118.834 -47.5 189.501s15.833 133.834 47.5 189.501s75.334 98.834 131.001 129.501
s117.5 46 185.5 46c45.333 0 87.333 -7.33301 126 -22s72.334 -35.334 101.001 -62.001v69h411v-118h-283v-142h262v-118h-262v-204h293zM511 145.496c34.667 20.333 61.834 48.3311 81.501 83.998s29.5 75.834 29.5 120.501s-9.83301 84.834 -29.5 120.501
s-46.834 63.667 -81.501 84s-74 30.5 -118 30.5c-42.667 0 -81.167 -10 -115.5 -30s-61.166 -47.833 -80.499 -83.5s-29 -76.167 -29 -121.5s9.66699 -85.833 29 -121.5s46.166 -63.5 80.499 -83.5s72.833 -30 115.5 -30c44 0 83.333 10.167 118 30.5z" />
    <glyph glyph-name="oe" unicode="&#x153;" horiz-adv-x="884" 
d="M801 411.5c40 -43.667 59.999 -103.498 59.999 -179.498v-27h-345c4 -34 17.667 -60.667 41 -80s52.666 -29 87.999 -29c50 0 96 20.333 138 61l62 -90c-27.333 -25.333 -56.666 -45.333 -87.999 -60s-69 -22 -113 -22c-84.667 0 -147 29.333 -187 88h-2
c-17.333 -28 -41.333 -49.667 -72 -65s-66 -23 -106 -23c-48 0 -91.167 10.5 -129.5 31.5s-68.166 50.167 -89.499 87.5s-32 79.666 -32 126.999s10.667 89.666 32 126.999s51.166 66.5 89.499 87.5s81.5 31.5 129.5 31.5c40 0 75.333 -7.66699 106 -23s55 -37 73 -65h2
c18.667 27.333 43.334 48.833 74.001 64.5s65.667 23.5 105 23.5c69.333 0 124 -21.833 164 -65.5zM555.499 352.502c-19.667 -15 -32.5 -37.501 -38.5 -67.501h217c-0.666992 28.667 -10.667 50.834 -30 66.501s-44 23.5 -74 23.5s-54.833 -7.5 -74.5 -22.5z
M183.499 326.501c-24.333 -23.667 -36.5 -55.5 -36.5 -95.5s12.167 -71.833 36.5 -95.5s55.166 -35.5 92.499 -35.5c36.667 0 67.167 12 91.5 36s36.5 55.667 36.5 95s-12.167 71 -36.5 95s-54.833 36 -91.5 36c-37.333 0 -68.166 -11.833 -92.499 -35.5z" />
    <glyph glyph-name="Racute" unicode="&#x154;" horiz-adv-x="598" 
d="M241 279h-47v-279h-128v700h258c46 0 86 -8.83301 120 -26.5s60.167 -42.5 78.5 -74.5s27.5 -69 27.5 -111c0 -52 -14.5 -96.167 -43.5 -132.5s-69.167 -59.833 -120.5 -70.5l207 -285h-161zM194 392l110 0.000976562c36 0 63.167 8.16699 81.5 24.5s27.5 39.5 27.5 69.5
c0 29.333 -9.16699 52.666 -27.5 69.999s-45.5 26 -81.5 26h-110v-190zM315 743.001h-90l104 120h145z" />
    <glyph glyph-name="racute" unicode="&#x155;" horiz-adv-x="345" 
d="M335 344h-14c-50 0 -86.667 -12 -110 -36s-35 -63.667 -35 -119v-189h-122v462h121v-98h2c12 36 31 63.667 57 83s58 29 96 29h5v-132zM239 553h-96l104 154h145z" />
    <glyph glyph-name="Rcommaaccent" unicode="&#x156;" horiz-adv-x="598" 
d="M241 279h-47v-279h-128v700h258c46 0 86 -8.83301 120 -26.5s60.167 -42.5 78.5 -74.5s27.5 -69 27.5 -111c0 -52 -14.5 -96.167 -43.5 -132.5s-69.167 -59.833 -120.5 -70.5l207 -285h-161zM194 392l110 0.000976562c36 0 63.167 8.16699 81.5 24.5s27.5 39.5 27.5 69.5
c0 29.333 -9.16699 52.666 -27.5 69.999s-45.5 26 -81.5 26h-110v-190zM368 -46.999v-95l-65 -68h-44l35 68h-43v95h117z" />
    <glyph glyph-name="rcommaaccent" unicode="&#x157;" horiz-adv-x="345" 
d="M335 344h-14c-50 0 -86.667 -12 -110 -36s-35 -63.667 -35 -119v-189h-122v462h121v-98h2c12 36 31 63.667 57 83s58 29 96 29h5v-132zM175 -47v-95l-65 -68h-44l35 68h-43v95h117z" />
    <glyph glyph-name="Rcaron" unicode="&#x158;" horiz-adv-x="598" 
d="M241 279h-47v-279h-128v700h258c46 0 86 -8.83301 120 -26.5s60.167 -42.5 78.5 -74.5s27.5 -69 27.5 -111c0 -52 -14.5 -96.167 -43.5 -132.5s-69.167 -59.833 -120.5 -70.5l207 -285h-161zM194 392l110 0.000976562c36 0 63.167 8.16699 81.5 24.5s27.5 39.5 27.5 69.5
c0 29.333 -9.16699 52.666 -27.5 69.999s-45.5 26 -81.5 26h-110v-190zM214 743.001l-120 120h108l71 -69l72 69h108l-120 -120h-119z" />
    <glyph glyph-name="rcaron" unicode="&#x159;" horiz-adv-x="345" 
d="M335 344h-14c-50 0 -86.667 -12 -110 -36s-35 -63.667 -35 -119v-189h-122v462h121v-98h2c12 36 31 63.667 57 83s58 29 96 29h5v-132zM252 546h-118l-123 154h109l73 -89l74 89h108z" />
    <glyph glyph-name="Sacute" unicode="&#x15a;" horiz-adv-x="521" 
d="M474 666l-55.002 -117.001c-56 28.667 -105.667 43 -149 43c-48.667 0 -73 -17 -73 -51c0 -13.333 4 -25.166 12 -35.499s22 -22.5 42 -36.5l121 -85c40.667 -28 70.834 -57.167 90.501 -87.5s29.5 -66.833 29.5 -109.5c0 -65.333 -21.167 -115.333 -63.5 -150
s-100.833 -52 -175.5 -52c-44 0 -86.833 6 -128.5 18s-79.5 28.667 -113.5 50l57 117c69.333 -40.667 132.333 -61 189 -61c32 0 56.5 6.5 73.5 19.5s25.5 30.167 25.5 51.5c0 16.667 -5.66699 31.667 -17 45s-29.333 29 -54 47l-113 81
c-37.333 26 -65.166 53.833 -83.499 83.5s-27.5 63.167 -27.5 100.5c0 55.333 18.167 98.833 54.5 130.5s87.5 47.5 153.5 47.5s134.333 -16.333 205 -49zM316.998 742.999h-90l104 120h145z" />
    <glyph glyph-name="sacute" unicode="&#x15b;" horiz-adv-x="418" 
d="M109 -3c-34.667 8 -66.668 20.332 -96.001 36.999l50 104c54.667 -32 106.334 -48 155.001 -48c38 0 57 11 57 33c0 8.66699 -3 15.667 -9 21s-16.333 11.666 -31 18.999l-83 36c-36 16 -62.333 35.333 -79 58s-25 49.334 -25 80.001c0 45.333 15.333 80 46 104
s75 36 133 36c52 0 106.667 -10.667 164 -32l-41 -103c-50 21.333 -93.333 32 -130 32c-17.333 0 -29.5 -2.33301 -36.5 -7s-10.5 -11.667 -10.5 -21c0 -8.66699 3.16699 -16 9.5 -22s17.833 -12.667 34.5 -20l83 -36c34 -14 59.5 -31.667 76.5 -53
s25.5 -48.666 25.5 -81.999c0 -49.333 -17 -86.333 -51 -111s-80.667 -37 -140 -37c-33.333 0 -67.333 4 -102 12zM267.999 552.999h-96l104 154h145z" />
    <glyph glyph-name="Scircumflex" unicode="&#x15c;" horiz-adv-x="521" 
d="M474 666l-55.002 -117.001c-56 28.667 -105.667 43 -149 43c-48.667 0 -73 -17 -73 -51c0 -13.333 4 -25.166 12 -35.499s22 -22.5 42 -36.5l121 -85c40.667 -28 70.834 -57.167 90.501 -87.5s29.5 -66.833 29.5 -109.5c0 -65.333 -21.167 -115.333 -63.5 -150
s-100.833 -52 -175.5 -52c-44 0 -86.833 6 -128.5 18s-79.5 28.667 -113.5 50l57 117c69.333 -40.667 132.333 -61 189 -61c32 0 56.5 6.5 73.5 19.5s25.5 30.167 25.5 51.5c0 16.667 -5.66699 31.667 -17 45s-29.333 29 -54 47l-113 81
c-37.333 26 -65.166 53.833 -83.499 83.5s-27.5 63.167 -27.5 100.5c0 55.333 18.167 98.833 54.5 130.5s87.5 47.5 153.5 47.5s134.333 -16.333 205 -49zM454.998 742.999h-108l-72 69l-71 -69h-108l120 120h119z" />
    <glyph glyph-name="scircumflex" unicode="&#x15d;" horiz-adv-x="418" 
d="M109 -3c-34.667 8 -66.668 20.332 -96.001 36.999l50 104c54.667 -32 106.334 -48 155.001 -48c38 0 57 11 57 33c0 8.66699 -3 15.667 -9 21s-16.333 11.666 -31 18.999l-83 36c-36 16 -62.333 35.333 -79 58s-25 49.334 -25 80.001c0 45.333 15.333 80 46 104
s75 36 133 36c52 0 106.667 -10.667 164 -32l-41 -103c-50 21.333 -93.333 32 -130 32c-17.333 0 -29.5 -2.33301 -36.5 -7s-10.5 -11.667 -10.5 -21c0 -8.66699 3.16699 -16 9.5 -22s17.833 -12.667 34.5 -20l83 -36c34 -14 59.5 -31.667 76.5 -53
s25.5 -48.666 25.5 -81.999c0 -49.333 -17 -86.333 -51 -111s-80.667 -37 -140 -37c-33.333 0 -67.333 4 -102 12zM403.999 552.999h-108l-74 89l-73 -89h-109l123 154h118z" />
    <glyph glyph-name="Scedilla" unicode="&#x15e;" horiz-adv-x="521" 
d="M474 666l-55.002 -117.001c-56 28.667 -105.667 43 -149 43c-48.667 0 -73 -17 -73 -51c0 -13.333 4 -25.166 12 -35.499s22 -22.5 42 -36.5l121 -85c40.667 -28 70.834 -57.167 90.501 -87.5s29.5 -66.833 29.5 -109.5c0 -65.333 -21.167 -115.333 -63.5 -150
s-100.833 -52 -175.5 -52c-44 0 -86.833 6 -128.5 18s-79.5 28.667 -113.5 50l57 117c69.333 -40.667 132.333 -61 189 -61c32 0 56.5 6.5 73.5 19.5s25.5 30.167 25.5 51.5c0 16.667 -5.66699 31.667 -17 45s-29.333 29 -54 47l-113 81
c-37.333 26 -65.166 53.833 -83.499 83.5s-27.5 63.167 -27.5 100.5c0 55.333 18.167 98.833 54.5 130.5s87.5 47.5 153.5 47.5s134.333 -16.333 205 -49zM270.998 -37.001c24.667 -5.33301 43.834 -13.001 57.501 -23.001s20.5 -24.667 20.5 -44
c0 -16 -6.16699 -30.167 -18.5 -42.5s-27.833 -22.833 -46.5 -31.5s-46.334 -20 -83.001 -34l-14 32c30.667 14 52 24.833 64 32.5s18 15.834 18 24.501c0 10 -4.5 17.333 -13.5 22s-24.833 9.66699 -47.5 15l44 119h46z" />
    <glyph glyph-name="scedilla" unicode="&#x15f;" horiz-adv-x="418" 
d="M109 -3c-34.667 8 -66.668 20.332 -96.001 36.999l50 104c54.667 -32 106.334 -48 155.001 -48c38 0 57 11 57 33c0 8.66699 -3 15.667 -9 21s-16.333 11.666 -31 18.999l-83 36c-36 16 -62.333 35.333 -79 58s-25 49.334 -25 80.001c0 45.333 15.333 80 46 104
s75 36 133 36c52 0 106.667 -10.667 164 -32l-41 -103c-50 21.333 -93.333 32 -130 32c-17.333 0 -29.5 -2.33301 -36.5 -7s-10.5 -11.667 -10.5 -21c0 -8.66699 3.16699 -16 9.5 -22s17.833 -12.667 34.5 -20l83 -36c34 -14 59.5 -31.667 76.5 -53
s25.5 -48.666 25.5 -81.999c0 -49.333 -17 -86.333 -51 -111s-80.667 -37 -140 -37c-33.333 0 -67.333 4 -102 12zM220.999 -37.001c24.667 -5.33301 43.834 -13.001 57.501 -23.001s20.5 -24.667 20.5 -44c0 -16 -6.16699 -30.167 -18.5 -42.5s-27.833 -22.833 -46.5 -31.5
s-46.334 -20 -83.001 -34l-14 32c30.667 14 52 24.833 64 32.5s18 15.834 18 24.501c0 10 -4.5 17.333 -13.5 22s-24.833 9.66699 -47.5 15l44 119h46z" />
    <glyph glyph-name="Scaron" unicode="&#x160;" horiz-adv-x="521" 
d="M474 666l-55.002 -117.001c-56 28.667 -105.667 43 -149 43c-48.667 0 -73 -17 -73 -51c0 -13.333 4 -25.166 12 -35.499s22 -22.5 42 -36.5l121 -85c40.667 -28 70.834 -57.167 90.501 -87.5s29.5 -66.833 29.5 -109.5c0 -65.333 -21.167 -115.333 -63.5 -150
s-100.833 -52 -175.5 -52c-44 0 -86.833 6 -128.5 18s-79.5 28.667 -113.5 50l57 117c69.333 -40.667 132.333 -61 189 -61c32 0 56.5 6.5 73.5 19.5s25.5 30.167 25.5 51.5c0 16.667 -5.66699 31.667 -17 45s-29.333 29 -54 47l-113 81
c-37.333 26 -65.166 53.833 -83.499 83.5s-27.5 63.167 -27.5 100.5c0 55.333 18.167 98.833 54.5 130.5s87.5 47.5 153.5 47.5s134.333 -16.333 205 -49zM215.998 742.999l-120 120h108l71 -69l72 69h108l-120 -120h-119z" />
    <glyph glyph-name="scaron" unicode="&#x161;" horiz-adv-x="418" 
d="M109 -3c-34.667 8 -66.668 20.332 -96.001 36.999l50 104c54.667 -32 106.334 -48 155.001 -48c38 0 57 11 57 33c0 8.66699 -3 15.667 -9 21s-16.333 11.666 -31 18.999l-83 36c-36 16 -62.333 35.333 -79 58s-25 49.334 -25 80.001c0 45.333 15.333 80 46 104
s75 36 133 36c52 0 106.667 -10.667 164 -32l-41 -103c-50 21.333 -93.333 32 -130 32c-17.333 0 -29.5 -2.33301 -36.5 -7s-10.5 -11.667 -10.5 -21c0 -8.66699 3.16699 -16 9.5 -22s17.833 -12.667 34.5 -20l83 -36c34 -14 59.5 -31.667 76.5 -53
s25.5 -48.666 25.5 -81.999c0 -49.333 -17 -86.333 -51 -111s-80.667 -37 -140 -37c-33.333 0 -67.333 4 -102 12zM280.999 545.999h-118l-123 154h109l73 -89l74 89h108z" />
    <glyph glyph-name="uni0162" unicode="&#x162;" horiz-adv-x="526" 
d="M518 580h-191v-580h-128v580h-191v120h510v-120zM269 -37c24.667 -5.33301 43.834 -13.001 57.501 -23.001s20.5 -24.667 20.5 -44c0 -16 -6.16699 -30.167 -18.5 -42.5s-27.833 -22.833 -46.5 -31.5s-46.334 -20 -83.001 -34l-14 32c30.667 14 52 24.833 64 32.5
s18 15.834 18 24.501c0 10 -4.5 17.333 -13.5 22s-24.833 9.66699 -47.5 15l44 119h46z" />
    <glyph glyph-name="uni0163" unicode="&#x163;" horiz-adv-x="334" 
d="M221 359v-194c0 -18.667 3.66699 -32 11 -40s20 -12 38 -12h21v-114h-54c-44.667 0 -79 11.5 -103 34.5s-36 57.167 -36 102.5v223h-85v103h85v185h123v-185h95v-103h-95zM219 -37c24.667 -5.33301 43.834 -13.001 57.501 -23.001s20.5 -24.667 20.5 -44
c0 -16 -6.16699 -30.167 -18.5 -42.5s-27.833 -22.833 -46.5 -31.5s-46.334 -20 -83.001 -34l-14 32c30.667 14 52 24.833 64 32.5s18 15.834 18 24.501c0 10 -4.5 17.333 -13.5 22s-24.833 9.66699 -47.5 15l44 119h46z" />
    <glyph glyph-name="Tcaron" unicode="&#x164;" horiz-adv-x="526" 
d="M518 580h-191v-580h-128v580h-191v120h510v-120zM203 743l-120 120h108l71 -69l72 69h108l-120 -120h-119z" />
    <glyph glyph-name="tcaron" unicode="&#x165;" horiz-adv-x="417" 
d="M407 715v-121l-81 -96h-44l45 96h-42v121h122zM221 462h95v-103h-95v-194c0 -18.667 3.66699 -32 11 -40s20 -12 38 -12h21v-114h-54c-44.667 0 -79 11.5 -103 34.5s-36 57.167 -36 102.5v223h-85v103h85v185h123v-185z" />
    <glyph glyph-name="Tbar" unicode="&#x166;" horiz-adv-x="526" 
d="M327 580v-118h126v-101h-126v-361h-128v361h-127v101h127v118h-191v120h510v-120h-191z" />
    <glyph glyph-name="tbar" unicode="&#x167;" horiz-adv-x="335" 
d="M221 359v-55h88v-72h-88v-67c0 -18.667 3.66699 -32 11 -40s20 -12 38 -12h21v-114h-54c-44.667 0 -79 11.5 -103 34.5s-36 57.167 -36 102.5v96h-77v72h77v55h-85v103h85v185h123v-185h95v-103h-95z" />
    <glyph glyph-name="Utilde" unicode="&#x168;" horiz-adv-x="693" 
d="M635 276c0 -58.667 -11.334 -109.832 -34.001 -153.499s-55.667 -77.334 -99 -101.001s-95 -35.5 -155 -35.5c-91.333 0 -162.333 26 -213 78s-76 122.667 -76 212v424h135v-416c0 -50.667 14 -91 42 -121s65.333 -45 112 -45s83.834 15 111.501 45s41.5 70.333 41.5 121
v416h135v-424zM387.999 747.002c-15.333 4 -33.665 9.66699 -54.998 17c-13.333 4.66699 -26.666 8.83398 -39.999 12.501s-24.333 5.5 -33 5.5c-22.667 0 -40.667 -14 -54 -42l-42 13c20 76 56.333 114 109 114c13.333 0 27.166 -1.83301 41.499 -5.5
s33.166 -9.5 56.499 -17.5c13.333 -4.66699 26.666 -8.83398 39.999 -12.501s24 -5.5 32 -5.5c23.333 0 41.666 14 54.999 42l41 -14c-20 -75.333 -56 -113 -108 -113c-13.333 0 -27.666 2 -42.999 6z" />
    <glyph glyph-name="utilde" unicode="&#x169;" horiz-adv-x="541" 
d="M96.5 33c-31.667 32 -47.498 80.667 -47.498 146v283h126v-261c0 -34.667 7.66699 -60.5 23 -77.5s36.666 -25.5 63.999 -25.5c32 0 57 11.5 75 34.5s27 58.833 27 107.5v222h123v-462h-121v71h-2c-32 -57.333 -80 -86 -144 -86c-50.667 0 -91.834 16 -123.501 48z
M239.502 698c14.333 -4.66699 31.5 -11.333 51.5 -20c16 -7.33301 29 -12.666 39 -15.999s19 -5 27 -5c21.333 0 39 15 53 45l48 -15c-18 -80.667 -53.667 -121 -107 -121c-14 0 -27.833 2.33301 -41.5 7s-31.5 11.667 -53.5 21c-16.667 7.33301 -29.667 12.666 -39 15.999
s-18 5 -26 5c-12 0 -22.333 -3.83301 -31 -11.5s-16.334 -19.167 -23.001 -34.5l-48 15c8 36.667 20.833 66 38.5 88s40.834 33 69.501 33c14 0 28.167 -2.33301 42.5 -7z" />
    <glyph glyph-name="Umacron" unicode="&#x16a;" horiz-adv-x="693" 
d="M635 276c0 -58.667 -11.334 -109.832 -34.001 -153.499s-55.667 -77.334 -99 -101.001s-95 -35.5 -155 -35.5c-91.333 0 -162.333 26 -213 78s-76 122.667 -76 212v424h135v-416c0 -50.667 14 -91 42 -121s65.333 -45 112 -45s83.834 15 111.501 45s41.5 70.333 41.5 121
v416h135v-424zM498.999 755.002h-306v83h306v-83z" />
    <glyph glyph-name="umacron" unicode="&#x16b;" horiz-adv-x="541" 
d="M96.5 33c-31.667 32 -47.498 80.667 -47.498 146v283h126v-261c0 -34.667 7.66699 -60.5 23 -77.5s36.666 -25.5 63.999 -25.5c32 0 57 11.5 75 34.5s27 58.833 27 107.5v222h123v-462h-121v71h-2c-32 -57.333 -80 -86 -144 -86c-50.667 0 -91.834 16 -123.501 48z
M424.002 582h-306v85h306v-85z" />
    <glyph glyph-name="Ubreve" unicode="&#x16c;" horiz-adv-x="693" 
d="M635 276c0 -58.667 -11.334 -109.832 -34.001 -153.499s-55.667 -77.334 -99 -101.001s-95 -35.5 -155 -35.5c-91.333 0 -162.333 26 -213 78s-76 122.667 -76 212v424h135v-416c0 -50.667 14 -91 42 -121s65.333 -45 112 -45s83.834 15 111.501 45s41.5 70.333 41.5 121
v416h135v-424zM450.999 772.002c-26.667 -22 -61.3291 -33 -103.996 -33s-77.167 11 -103.5 33s-41.5 52.333 -45.5 91h84c1.33301 -16 7.66602 -28.5 18.999 -37.5s26.666 -13.5 45.999 -13.5s34.666 4.5 45.999 13.5s17.666 21.5 18.999 37.5h85
c-4 -38.667 -19.333 -69 -46 -91z" />
    <glyph glyph-name="ubreve" unicode="&#x16d;" horiz-adv-x="541" 
d="M96.5 33c-31.667 32 -47.498 80.667 -47.498 146v283h126v-261c0 -34.667 7.66699 -60.5 23 -77.5s36.666 -25.5 63.999 -25.5c32 0 57 11.5 75 34.5s27 58.833 27 107.5v222h123v-462h-121v71h-2c-32 -57.333 -80 -86 -144 -86c-50.667 0 -91.834 16 -123.501 48z
M379.002 590.5c-28 -27 -63.998 -40.5 -107.998 -40.5s-79.833 13.5 -107.5 40.5s-41.5 63.5 -41.5 109.5h81c1.33301 -21.333 7.66602 -38.666 18.999 -51.999s27.666 -20 48.999 -20s37.833 6.66699 49.5 20s18.167 30.666 19.5 51.999h81c0 -46 -14 -82.5 -42 -109.5z
" />
    <glyph glyph-name="Uring" unicode="&#x16e;" horiz-adv-x="693" 
d="M635 276c0 -58.667 -11.334 -109.832 -34.001 -153.499s-55.667 -77.334 -99 -101.001s-95 -35.5 -155 -35.5c-91.333 0 -162.333 26 -213 78s-76 122.667 -76 212v424h135v-416c0 -50.667 14 -91 42 -121s65.333 -45 112 -45s83.834 15 111.501 45s41.5 70.333 41.5 121
v416h135v-424zM431.999 847.002c22 -22 33 -50 33 -84s-11 -62 -33 -84s-50.333 -33 -85 -33s-63.167 11 -85.5 33s-33.5 50 -33.5 84s11.167 62 33.5 84s50.833 33 85.5 33s63 -11 85 -33zM301.499 808.002c-11.667 -12 -17.5 -27 -17.5 -45s5.83301 -33 17.5 -45
s26.5 -18 44.5 -18c18.667 0 33.834 6 45.501 18s17.5 27 17.5 45s-5.83301 33 -17.5 45s-26.834 18 -45.501 18c-18 0 -32.833 -6 -44.5 -18z" />
    <glyph glyph-name="uring" unicode="&#x16f;" horiz-adv-x="541" 
d="M96.5 33c-31.667 32 -47.498 80.667 -47.498 146v283h126v-261c0 -34.667 7.66699 -60.5 23 -77.5s36.666 -25.5 63.999 -25.5c32 0 57 11.5 75 34.5s27 58.833 27 107.5v222h123v-462h-121v71h-2c-32 -57.333 -80 -86 -144 -86c-50.667 0 -91.834 16 -123.501 48z
M356.002 714c22.667 -22 34 -50 34 -84s-11.333 -62 -34 -84s-51.334 -33 -86.001 -33s-63.167 11 -85.5 33s-33.5 50 -33.5 84s11.167 62 33.5 84s50.833 33 85.5 33s63.334 -11 86.001 -33zM224.502 675c-11.667 -12 -17.5 -27 -17.5 -45s5.83301 -33 17.5 -45
s26.834 -18 45.501 -18c19.333 0 34.833 6 46.5 18s17.5 27 17.5 45s-5.83301 33 -17.5 45s-27.167 18 -46.5 18c-18.667 0 -33.834 -6 -45.501 -18z" />
    <glyph glyph-name="Uhungarumlaut" unicode="&#x170;" horiz-adv-x="693" 
d="M635 276c0 -58.667 -11.334 -109.832 -34.001 -153.499s-55.667 -77.334 -99 -101.001s-95 -35.5 -155 -35.5c-91.333 0 -162.333 26 -213 78s-76 122.667 -76 212v424h135v-416c0 -50.667 14 -91 42 -121s65.333 -45 112 -45s83.834 15 111.501 45s41.5 70.333 41.5 121
v416h135v-424zM330.999 743.002h-84l90 120h102zM469.999 743.002h-84l90 120h101z" />
    <glyph glyph-name="uhungarumlaut" unicode="&#x171;" horiz-adv-x="541" 
d="M96.5 33c-31.667 32 -47.498 80.667 -47.498 146v283h126v-261c0 -34.667 7.66699 -60.5 23 -77.5s36.666 -25.5 63.999 -25.5c32 0 57 11.5 75 34.5s27 58.833 27 107.5v222h123v-462h-121v71h-2c-32 -57.333 -80 -86 -144 -86c-50.667 0 -91.834 16 -123.501 48z
M243.002 553h-85l113 154h104zM386.002 553h-85l112 154h105z" />
    <glyph glyph-name="Uogonek" unicode="&#x172;" horiz-adv-x="693" 
d="M635 276c0 -58.667 -11.334 -109.832 -34.001 -153.499s-55.667 -77.334 -99 -101.001s-95 -35.5 -155 -35.5c-91.333 0 -162.333 26 -213 78s-76 122.667 -76 212v424h135v-416c0 -50.667 14 -91 42 -121s65.333 -45 112 -45s83.834 15 111.501 45s41.5 70.333 41.5 121
v416h135v-424zM428.999 10.002c-50 -48.667 -75 -84 -75 -106c0 -6.66699 2.5 -12 7.5 -16s11.5 -6 19.5 -6c10.667 0 23.667 1.66699 39 5l12 -77c-26 -6 -49.333 -9 -70 -9c-30 0 -53.667 6.66699 -71 20s-26 33.333 -26 60c0 22.667 8.66699 45.5 26 68.5
s44.333 47.833 81 74.5z" />
    <glyph glyph-name="uogonek" unicode="&#x173;" horiz-adv-x="541" 
d="M96.5 33c-31.667 32 -47.498 80.667 -47.498 146v283h126v-261c0 -34.667 7.66699 -60.5 23 -77.5s36.666 -25.5 63.999 -25.5c32 0 57 11.5 75 34.5s27 58.833 27 107.5v222h123v-462h-121v71h-2c-32 -57.333 -80 -86 -144 -86c-50.667 0 -91.834 16 -123.501 48z
M439.002 10c-50 -48.667 -75 -84 -75 -106c0 -6.66699 2.5 -12 7.5 -16s11.5 -6 19.5 -6c10.667 0 23.667 1.66699 39 5l12 -77c-26 -6 -49.333 -9 -70 -9c-30 0 -53.667 6.66699 -71 20s-26 33.333 -26 60c0 22.667 8.66699 45.5 26 68.5s44.333 47.833 81 74.5z" />
    <glyph glyph-name="Wcircumflex" unicode="&#x174;" horiz-adv-x="1023" 
d="M790 0h-118l-159 491h-3l-159 -491h-118l-222 700h147l135 -495h2l157 495h119l158 -495h2l135 495h146zM691 743h-108l-72 69l-71 -69h-108l120 120h119z" />
    <glyph glyph-name="wcircumflex" unicode="&#x175;" horiz-adv-x="762" 
d="M757 462l-161 -462h-109l-106 302l-106 -302h-109l-161 462h128l89 -303l101 303h116l101 -305l89 305h128zM563 553h-108l-74 89l-73 -89h-109l123 154h118z" />
    <glyph glyph-name="Ycircumflex" unicode="&#x176;" horiz-adv-x="597" 
d="M363 269v-269h-129v267l-234 433h151l146 -301h3l146 301h151zM478 743h-108l-72 69l-71 -69h-108l120 120h119z" />
    <glyph glyph-name="ycircumflex" unicode="&#x177;" horiz-adv-x="520" 
d="M515 462l-296 -662h-127l113 243l-200 419h144l117 -281l120 281h129zM448 553h-108l-74 89l-73 -89h-109l123 154h118z" />
    <glyph glyph-name="Ydieresis" unicode="&#x178;" horiz-adv-x="597" 
d="M363 269v-269h-129v267l-234 433h151l146 -301h3l146 301h151zM252 743h-119v109h119v-109zM465 743h-119v109h119v-109z" />
    <glyph glyph-name="Zacute" unicode="&#x179;" horiz-adv-x="554" 
d="M534 120v-120h-514v120l346 460h-317v120h473v-120l-345 -460h357zM321 743h-90l104 120h145z" />
    <glyph glyph-name="zacute" unicode="&#x17a;" horiz-adv-x="443" 
d="M423 108v-108h-402v99l235 255h-222v108h372v-98l-237 -256h254zM273 553h-96l104 154h145z" />
    <glyph glyph-name="Zdotaccent" unicode="&#x17b;" horiz-adv-x="554" 
d="M534 120v-120h-514v120l346 460h-317v120h473v-120l-345 -460h357zM341 743h-123v115h123v-115z" />
    <glyph glyph-name="zdotaccent" unicode="&#x17c;" horiz-adv-x="443" 
d="M423 108v-108h-402v99l235 255h-222v108h372v-98l-237 -256h254zM297 559h-140v135h140v-135z" />
    <glyph glyph-name="Zcaron" unicode="&#x17d;" horiz-adv-x="554" 
d="M534 120v-120h-514v120l346 460h-317v120h473v-120l-345 -460h357zM220 743l-120 120h108l71 -69l72 69h108l-120 -120h-119z" />
    <glyph glyph-name="zcaron" unicode="&#x17e;" horiz-adv-x="443" 
d="M423 108v-108h-402v99l235 255h-222v108h372v-98l-237 -256h254zM286 546h-118l-123 154h109l73 -89l74 89h108z" />
    <glyph glyph-name="uni018F" unicode="&#x18f;" horiz-adv-x="772" 
d="M565 671c57.333 -29.333 101.333 -71.501 132 -126.501s46 -120.167 46 -195.5c0 -72.667 -14.333 -136.334 -43 -191.001s-70 -97.167 -124 -127.5s-118 -45.5 -192 -45.5c-74.667 0 -138.667 15.333 -192 46s-93.833 73.334 -121.5 128.001
s-41.5 117.334 -41.5 188.001v57l11 -1v1h560c-10 58 -35.333 103 -76 135s-94.667 48 -162 48c-77.333 0 -152.333 -21.333 -225 -64l-63 121c93.333 47.333 189.333 71 288 71c78 0 145.667 -14.667 203 -44zM533.5 156.999c36.333 31.333 58.832 75.333 67.499 132h-429
c8 -57.333 29.833 -101.5 65.5 -132.5s84.834 -46.5 147.501 -46.5s112.167 15.667 148.5 47z" />
    <glyph glyph-name="florin" unicode="&#x192;" horiz-adv-x="403" 
d="M274 545c-14.667 -13.333 -21.999 -34 -21.999 -62v-21h125v-30h-125v-434c0 -63.333 -15.333 -112.166 -46 -146.499s-76 -51.5 -136 -51.5h-50v110h40c21.333 0 38.666 6.16699 51.999 18.5s20 32.166 20 59.499v444h-98v30h98v16c0 64 17 112.833 51 146.5
s84 50.5 150 50.5h44v-110h-37c-29.333 0 -51.333 -6.66699 -66 -20z" />
    <glyph glyph-name="uni01E5" unicode="&#x1e5;" horiz-adv-x="578" 
d="M578 -60h-57.9971c-10 -56 -34.167 -95.833 -72.5 -119.5s-89.5 -35.5 -153.5 -35.5c-50 0 -112.667 7.33301 -188 22l22 117c64 -15.333 117.667 -23 161 -23c25.333 0 46 3 62 9s28 16 36 30h-152v25h163c4 16 6 35 6 57v43h-2
c-34.667 -51.333 -86.334 -77 -155.001 -77c-40.667 0 -77.834 9.5 -111.501 28.5s-60.334 46.833 -80.001 83.5s-29.5 80.334 -29.5 131.001c0 51.333 9.83301 95.5 29.5 132.5s46.5 65.167 80.5 84.5s71.333 29 112 29c36 0 66.833 -7 92.5 -21s46.167 -33.667 61.5 -59h2
v65h122v-462c0 -8.66699 -0.666992 -20.334 -2 -35.001h54v-25zM369.503 137c23 24 34.5 55.333 34.5 94s-11.5 70 -34.5 94s-53.167 36 -90.5 36s-67.5 -12 -90.5 -36s-34.5 -55.333 -34.5 -94s11.5 -70 34.5 -94s53.167 -36 90.5 -36s67.5 12 90.5 36z" />
    <glyph glyph-name="uni01E9" unicode="&#x1e9;" horiz-adv-x="517" 
d="M352 0l-173 221v-221h-123v700h123v-429l152 191h156l-189 -210l214 -252h-160zM204 743l-120 120h108l71 -69l72 69h108l-120 -120h-119z" />
    <glyph glyph-name="AEacute" unicode="&#x1fc;" horiz-adv-x="964" 
d="M925 118v-118h-393v159h-266l-99 -159h-164l458 700h460v-118h-265v-142h239v-118h-239v-204h269zM532 275v312l-194 -312h194zM729 743h-90l104 120h145z" />
    <glyph glyph-name="aeacute" unicode="&#x1fd;" horiz-adv-x="820" 
d="M68 30c-34.667 30 -52.001 69.667 -52.001 119c0 48.667 16.667 87.667 50 117s77.666 44 132.999 44c29.333 0 56 -4.33301 80 -13s43.333 -20.667 58 -36h2v30c0 26.667 -8.66699 47.5 -26 62.5s-43.666 22.5 -78.999 22.5c-37.333 0 -85 -7.33301 -143 -22l-25 101
c64 14.667 121.333 22 172 22c40.667 0 74.5 -6.5 101.5 -19.5s47.5 -35.5 61.5 -67.5h2c16 26 39.167 47 69.5 63s65.5 24 105.5 24c67.333 0 120.666 -21.5 159.999 -64.5s59 -103.833 59 -182.5v-24h-342c4.66699 -34.667 17.667 -62 39 -82s50.666 -30 87.999 -30
c30.667 0 56.834 6 78.501 18s41.5 27 59.5 45l61 -87c-58 -56.667 -123.667 -85 -197 -85c-44.667 0 -83.5 9 -116.5 27s-57.833 42.333 -74.5 73h-2c-19.333 -33.333 -45.666 -58.333 -78.999 -75s-69.666 -25 -108.999 -25c-55.333 0 -100.333 15 -135 45zM670.999 285
c-0.666992 28 -10.5 50.501 -29.5 67.501s-43.5 25.5 -73.5 25.5c-28.667 0 -53 -7.83301 -73 -23.5s-32.333 -38.834 -37 -69.501h213zM311.499 102.001c19 12.667 28.5 29.335 28.5 50.002c0 21.333 -9.33301 38.166 -28 50.499s-42.334 18.5 -71.001 18.5
c-29.333 0 -51.833 -6.5 -67.5 -19.5s-23.5 -29.5 -23.5 -49.5c0 -20.667 7.83301 -37.334 23.5 -50.001s37.834 -19 66.501 -19s52.5 6.33301 71.5 19zM460.999 553.002h-96l104 154h145z" />
    <glyph glyph-name="Oslashacute" unicode="&#x1fe;" horiz-adv-x="791" 
d="M728.5 511c22.333 -48.667 33.499 -102.333 33.499 -161c0 -70.667 -16 -133.834 -48 -189.501s-76 -98.834 -132 -129.501s-118.333 -46 -187 -46c-75.333 0 -142.333 18 -201 54l-39 -53l-38 25l40 54c-40.667 33.333 -72.167 74.333 -94.5 123
s-33.5 102.667 -33.5 162c0 70.667 16 133.834 48 189.501s75.833 98.834 131.5 129.501s117.834 46 186.501 46c74.667 0 142 -18.333 202 -55l40 54l38 -25l-41 -55c40.667 -33.333 72.167 -74.333 94.5 -123zM186.999 251.501c12 -29.667 29.3311 -55.166 51.998 -76.499
l278 377c-37.333 21.333 -78 32 -122 32c-43.333 0 -82.166 -9.83301 -116.499 -29.5s-61.166 -47.334 -80.499 -83.001s-29 -76.167 -29 -121.5c0 -36 6 -68.833 18 -98.5zM511.497 145.502c34.333 19.667 61.168 47.167 80.501 82.5s29 76 29 122
c0 35.333 -5.83301 67.833 -17.5 97.5s-28.5 55.167 -50.5 76.5l-278 -376c34.667 -21.333 74.667 -32 120 -32c43.333 0 82.166 9.83301 116.499 29.5zM435.999 743.002h-90l104 120h145z" />
    <glyph glyph-name="oslashacute" unicode="&#x1ff;" horiz-adv-x="563" 
d="M518 332.5c13.333 -31 20.001 -64.833 20.001 -101.5c0 -47.333 -11 -89.666 -33 -126.999s-52.5 -66.5 -91.5 -87.5s-82.833 -31.5 -131.5 -31.5c-60 0 -112.333 15.667 -157 47l-40 -46l-27 23l40 45c-22.667 22.667 -40.334 49 -53.001 79s-19 62.667 -19 98
c0 47.333 11 89.666 33 126.999s52.5 66.5 91.5 87.5s82.833 31.5 131.5 31.5c58 0 108 -14.333 150 -43l38 43l27 -24l-36 -41c24.667 -22 43.667 -48.5 57 -79.5zM179.001 147l173 196c-20 12 -43.333 18 -70 18c-38 0 -69.167 -11.833 -93.5 -35.5
s-36.5 -55.167 -36.5 -94.5c0 -32.667 9 -60.667 27 -84zM375.001 136.5c24 23.667 36 55.166 36 94.499c0 36.667 -10.333 66.334 -31 89.001l-174 -197c22 -14.667 47.333 -22 76 -22c38 0 69 11.833 93 35.5zM327.001 552.999h-96l104 154h145z" />
    <glyph glyph-name="Scommaaccent" unicode="&#x218;" horiz-adv-x="521" 
d="M474 666l-55.002 -117.001c-56 28.667 -105.667 43 -149 43c-48.667 0 -73 -17 -73 -51c0 -13.333 4 -25.166 12 -35.499s22 -22.5 42 -36.5l121 -85c40.667 -28 70.834 -57.167 90.501 -87.5s29.5 -66.833 29.5 -109.5c0 -65.333 -21.167 -115.333 -63.5 -150
s-100.833 -52 -175.5 -52c-44 0 -86.833 6 -128.5 18s-79.5 28.667 -113.5 50l57 117c69.333 -40.667 132.333 -61 189 -61c32 0 56.5 6.5 73.5 19.5s25.5 30.167 25.5 51.5c0 16.667 -5.66699 31.667 -17 45s-29.333 29 -54 47l-113 81
c-37.333 26 -65.166 53.833 -83.499 83.5s-27.5 63.167 -27.5 100.5c0 55.333 18.167 98.833 54.5 130.5s87.5 47.5 153.5 47.5s134.333 -16.333 205 -49zM322.998 -47.001v-95l-65 -68h-44l35 68h-43v95h117z" />
    <glyph glyph-name="scommaaccent" unicode="&#x219;" horiz-adv-x="418" 
d="M109 -3c-34.667 8 -66.668 20.332 -96.001 36.999l50 104c54.667 -32 106.334 -48 155.001 -48c38 0 57 11 57 33c0 8.66699 -3 15.667 -9 21s-16.333 11.666 -31 18.999l-83 36c-36 16 -62.333 35.333 -79 58s-25 49.334 -25 80.001c0 45.333 15.333 80 46 104
s75 36 133 36c52 0 106.667 -10.667 164 -32l-41 -103c-50 21.333 -93.333 32 -130 32c-17.333 0 -29.5 -2.33301 -36.5 -7s-10.5 -11.667 -10.5 -21c0 -8.66699 3.16699 -16 9.5 -22s17.833 -12.667 34.5 -20l83 -36c34 -14 59.5 -31.667 76.5 -53
s25.5 -48.666 25.5 -81.999c0 -49.333 -17 -86.333 -51 -111s-80.667 -37 -140 -37c-33.333 0 -67.333 4 -102 12zM272.999 -47.001v-95l-65 -68h-44l35 68h-43v95h117z" />
    <glyph glyph-name="uni021A" unicode="&#x21a;" horiz-adv-x="526" 
d="M518 580h-191v-580h-128v580h-191v120h510v-120zM321 -47v-95l-65 -68h-44l35 68h-43v95h117z" />
    <glyph glyph-name="uni021B" unicode="&#x21b;" horiz-adv-x="334" 
d="M221 359v-194c0 -18.667 3.66699 -32 11 -40s20 -12 38 -12h21v-114h-54c-44.667 0 -79 11.5 -103 34.5s-36 57.167 -36 102.5v223h-85v103h85v185h123v-185h95v-103h-95zM271 -47v-95l-65 -68h-44l35 68h-43v95h117z" />
    <glyph glyph-name="uni0232" unicode="&#x232;" horiz-adv-x="597" 
d="M363 269v-269h-129v267l-234 433h151l146 -301h3l146 301h151zM451 755h-306v83h306v-83z" />
    <glyph glyph-name="uni0233" unicode="&#x233;" horiz-adv-x="520" 
d="M515 462l-296 -662h-127l113 243l-200 419h144l117 -281l120 281h129zM419 582h-306v85h306v-85z" />
    <glyph glyph-name="uni0237" unicode="&#x237;" horiz-adv-x="236" 
d="M0 -90c20 0 34.333 4.83301 43 14.5s13 25.167 13 46.5v491h123v-496c0 -55.333 -13.5 -97.333 -40.5 -126s-66.833 -43 -119.5 -43h-40v113h21z" />
    <glyph glyph-name="uni0259" unicode="&#x259;" horiz-adv-x="514" 
d="M83 49.5c-39.333 43 -59 103.833 -59 182.5v24h345c-3.33301 35.333 -16.833 62.833 -40.5 82.5s-53.5 29.5 -89.5 29.5c-50 0 -96 -21 -138 -63l-62 89c26 24 55 43.833 87 59.5s69.667 23.5 113 23.5c50 0 93.667 -10.167 131 -30.5s66.333 -49 87 -86
s31 -79.833 31 -128.5s-10 -91.667 -30 -129s-48 -66.333 -84 -87s-78 -31 -126 -31c-70.667 0 -125.667 21.5 -165 64.5zM329.5 107c19.667 15.333 31.832 38.666 36.499 69.999h-218c2 -29.333 12.5 -52.166 31.5 -68.499s43.833 -24.5 74.5 -24.5
s55.834 7.66699 75.501 23z" />
    <glyph glyph-name="uni0292" unicode="&#x292;" horiz-adv-x="487" 
d="M90.5 -202c-39 8.66699 -74.167 20.665 -105.5 35.998l47 109c28 -14.667 57.167 -25.834 87.5 -33.501s59.5 -11.5 87.5 -11.5c42 0 74.333 9.33301 97 28s34 44.334 34 77.001c0 66 -50.333 99 -151 99h-88v90l178 157h-251v113h404v-111l-201 -166
c14 2.66699 29.667 4 47 4c34.667 0 66 -7.33301 94 -22s50.333 -36.167 67 -64.5s25 -62.166 25 -101.499c0 -67.333 -21.5 -120.166 -64.5 -158.499s-106.833 -57.5 -191.5 -57.5c-38 0 -76.5 4.33301 -115.5 13z" />
    <glyph glyph-name="uni02BC" unicode="&#x2bc;" horiz-adv-x="182" 
d="M154 715v-121l-80 -152h-44l53 152h-50v121h121z" />
    <glyph glyph-name="circumflex" unicode="&#x2c6;" horiz-adv-x="464" 
d="M414 553h-108l-74 89l-73 -89h-109l123 154h118z" />
    <glyph glyph-name="caron" unicode="&#x2c7;" horiz-adv-x="464" 
d="M291 546h-118l-123 154h109l73 -89l74 89h108z" />
    <glyph glyph-name="breve" unicode="&#x2d8;" horiz-adv-x="399" 
d="M307 590.5c-28 -27 -63.998 -40.5 -107.998 -40.5s-79.833 13.5 -107.5 40.5s-41.5 63.5 -41.5 109.5h81c1.33301 -21.333 7.66602 -38.666 18.999 -51.999s27.666 -20 48.999 -20s37.833 6.66699 49.5 20s18.167 30.666 19.5 51.999h81c0 -46 -14 -82.5 -42 -109.5z" />
    <glyph glyph-name="dotaccent" unicode="&#x2d9;" horiz-adv-x="240" 
d="M190 559h-140v135h140v-135z" />
    <glyph glyph-name="ring" unicode="&#x2da;" horiz-adv-x="339" 
d="M255 714c22.667 -22 34 -50 34 -84s-11.333 -62 -34 -84s-51.334 -33 -86.001 -33s-63.167 11 -85.5 33s-33.5 50 -33.5 84s11.167 62 33.5 84s50.833 33 85.5 33s63.334 -11 86.001 -33zM123.5 675c-11.667 -12 -17.5 -27 -17.5 -45s5.83301 -33 17.5 -45
s26.834 -18 45.501 -18c19.333 0 34.833 6 46.5 18s17.5 27 17.5 45s-5.83301 33 -17.5 45s-27.167 18 -46.5 18c-18.667 0 -33.834 -6 -45.501 -18z" />
    <glyph glyph-name="ogonek" unicode="&#x2db;" horiz-adv-x="270" 
d="M214 10c-50 -48.667 -75 -84 -75 -106c0 -6.66699 2.5 -12 7.5 -16s11.5 -6 19.5 -6c10.667 0 23.667 1.66699 39 5l12 -77c-26 -6 -49.333 -9 -70 -9c-30 0 -53.667 6.66699 -71 20s-26 33.333 -26 60c0 22.667 8.66699 45.5 26 68.5s44.333 47.833 81 74.5z" />
    <glyph glyph-name="tilde" unicode="&#x2dc;" horiz-adv-x="469" 
d="M200.5 698c14.333 -4.66699 31.5 -11.333 51.5 -20c16 -7.33301 29 -12.666 39 -15.999s19 -5 27 -5c21.333 0 39 15 53 45l48 -15c-18 -80.667 -53.667 -121 -107 -121c-14 0 -27.833 2.33301 -41.5 7s-31.5 11.667 -53.5 21c-16.667 7.33301 -29.667 12.666 -39 15.999
s-18 5 -26 5c-12 0 -22.333 -3.83301 -31 -11.5s-16.334 -19.167 -23.001 -34.5l-48 15c8 36.667 20.833 66 38.5 88s40.834 33 69.501 33c14 0 28.167 -2.33301 42.5 -7z" />
    <glyph glyph-name="hungarumlaut" unicode="&#x2dd;" horiz-adv-x="460" 
d="M135 553h-85l113 154h104zM278 553h-85l112 154h105z" />
    <glyph glyph-name="gravecomb" unicode="&#x300;" horiz-adv-x="0" 
d="M-50 553h-96l-153 154h145z" />
    <glyph glyph-name="acutecomb" unicode="&#x301;" horiz-adv-x="0" 
d="M-203 553h-96l104 154h145z" />
    <glyph glyph-name="uni0302" unicode="&#x302;" horiz-adv-x="0" 
d="M-50 553h-108l-74 89l-73 -89h-109l123 154h118z" />
    <glyph glyph-name="tildecomb" unicode="&#x303;" horiz-adv-x="0" 
d="M-268.5 698c14.333 -4.66699 31.5 -11.333 51.5 -20c16 -7.33301 29 -12.666 39 -15.999s19 -5 27 -5c21.333 0 39 15 53 45l48 -15c-18 -80.667 -53.667 -121 -107 -121c-14 0 -27.833 2.33301 -41.5 7s-31.5 11.667 -53.5 21
c-16.667 7.33301 -29.667 12.666 -39 15.999s-18 5 -26 5c-12 0 -22.333 -3.83301 -31 -11.5s-16.334 -19.167 -23.001 -34.5l-48 15c8 36.667 20.833 66 38.5 88s40.834 33 69.501 33c14 0 28.167 -2.33301 42.5 -7z" />
    <glyph glyph-name="uni0304" unicode="&#x304;" horiz-adv-x="0" 
d="M-50 582h-306v85h306v-85z" />
    <glyph glyph-name="uni0306" unicode="&#x306;" horiz-adv-x="0" 
d="M-92 590.5c-28 -27 -63.998 -40.5 -107.998 -40.5s-79.833 13.5 -107.5 40.5s-41.5 63.5 -41.5 109.5h81c1.33301 -21.333 7.66602 -38.666 18.999 -51.999s27.666 -20 48.999 -20s37.833 6.66699 49.5 20s18.167 30.666 19.5 51.999h81c0 -46 -14 -82.5 -42 -109.5z" />
    <glyph glyph-name="uni0307" unicode="&#x307;" horiz-adv-x="0" 
d="M-50 559h-140v135h140v-135z" />
    <glyph glyph-name="uni0308" unicode="&#x308;" horiz-adv-x="0" 
d="M-238 563h-111v127h111v-127zM-50 563h-111v127h111v-127z" />
    <glyph glyph-name="uni030A" unicode="&#x30a;" horiz-adv-x="0" 
d="M-84 714c22.667 -22 34 -50 34 -84s-11.333 -62 -34 -84s-51.334 -33 -86.001 -33s-63.167 11 -85.5 33s-33.5 50 -33.5 84s11.167 62 33.5 84s50.833 33 85.5 33s63.334 -11 86.001 -33zM-215.5 675c-11.667 -12 -17.5 -27 -17.5 -45s5.83301 -33 17.5 -45
s26.834 -18 45.501 -18c19.333 0 34.833 6 46.5 18s17.5 27 17.5 45s-5.83301 33 -17.5 45s-27.167 18 -46.5 18c-18.667 0 -33.834 -6 -45.501 -18z" />
    <glyph glyph-name="uni030B" unicode="&#x30b;" horiz-adv-x="0" 
d="M-325 553h-85l113 154h104zM-182 553h-85l112 154h105z" />
    <glyph glyph-name="uni030C" unicode="&#x30c;" horiz-adv-x="0" 
d="M-173 546h-118l-123 154h109l73 -89l74 89h108z" />
    <glyph glyph-name="uni0312" unicode="&#x312;" horiz-adv-x="0" 
d="M-51 635v-95h-117v95l65 68h44l-35 -68h43z" />
    <glyph glyph-name="uni0326" unicode="&#x326;" horiz-adv-x="0" 
d="M-50 -47v-95l-65 -68h-44l35 68h-43v95h117z" />
    <glyph glyph-name="uni0327" unicode="&#x327;" horiz-adv-x="0" 
d="M-128 -37c24.667 -5.33301 43.834 -13.001 57.501 -23.001s20.5 -24.667 20.5 -44c0 -16 -6.16699 -30.167 -18.5 -42.5s-27.833 -22.833 -46.5 -31.5s-46.334 -20 -83.001 -34l-14 32c30.667 14 52 24.833 64 32.5s18 15.834 18 24.501c0 10 -4.5 17.333 -13.5 22
s-24.833 9.66699 -47.5 15l44 119h46z" />
    <glyph glyph-name="uni0328" unicode="&#x328;" horiz-adv-x="0" 
d="M-56 10c-50 -48.667 -75 -84 -75 -106c0 -6.66699 2.5 -12 7.5 -16s11.5 -6 19.5 -6c10.667 0 23.667 1.66699 39 5l12 -77c-26 -6 -49.333 -9 -70 -9c-30 0 -53.667 6.66699 -71 20s-26 33.333 -26 60c0 22.667 8.66699 45.5 26 68.5s44.333 47.833 81 74.5z" />
    <glyph glyph-name="uni0394" unicode="&#x394;" horiz-adv-x="628" 
d="M608 0h-588l250 700h88zM166 70h296l-148 453z" />
    <glyph glyph-name="uni03A9" unicode="&#x3a9;" horiz-adv-x="746" 
d="M553 674c51.333 -27.333 90.833 -65.3301 118.5 -113.997s41.5 -104.334 41.5 -167.001c0 -46.667 -9 -89.334 -27 -128.001s-42.333 -70.834 -73 -96.501s-64.667 -43.834 -102 -54.501v-3h191v-111h-289v178c54.667 10 98 34.167 130 72.5s48 84.5 48 138.5
c0 63.333 -19.333 114 -58 152s-92 57 -160 57s-121.333 -19 -160 -57s-58 -88.667 -58 -152c0 -54 16.167 -100.167 48.5 -138.5s75.5 -62.5 129.5 -72.5v-178h-288v111h191v3c-37.333 10.667 -71.5 28.834 -102.5 54.501s-55.5 57.667 -73.5 96s-27 81.166 -27 128.499
c0 62.667 13.833 118.334 41.5 167.001s67.167 86.667 118.5 114s111.333 41 180 41s128.667 -13.667 180 -41z" />
    <glyph glyph-name="uni03BC" unicode="&#x3bc;" horiz-adv-x="541" 
d="M487 462l0.000976562 -462h-121v71h-2c-32 -57.333 -80 -86 -144 -86c-20 0 -38 2.33301 -54 7v-192h-115v342c-1.33301 16 -2 28.333 -2 37v283h126v-261c0 -34.667 7.66699 -60.5 23 -77.5s36.666 -25.5 63.999 -25.5c32 0 57 11.5 75 34.5s27 58.833 27 107.5v222h123
z" />
    <glyph glyph-name="pi" unicode="&#x3c0;" horiz-adv-x="620" 
d="M590 365h-98.999v-365h-112v365h-115l-86 -365h-114l87 364c-40 -0.666992 -80.333 -7 -121 -19v112c20 6.66699 41.167 11.667 63.5 15s50.166 5 83.499 5h413v-112z" />
    <glyph glyph-name="uni0401" unicode="&#x401;" horiz-adv-x="525" 
d="M486 120v-120h-420v700h415v-120h-287v-140h262v-118h-262v-202h292zM244 743h-119v109h119v-109zM457 743h-119v109h119v-109z" />
    <glyph glyph-name="uni0402" unicode="&#x402;" horiz-adv-x="728" 
d="M659.5 384.5c33.667 -29 50.501 -74.5 50.501 -136.5v-57c0 -64 -16.833 -111.833 -50.5 -143.5s-82.167 -47.5 -145.5 -47.5h-77v118h53c31.333 0 54.5 6.16699 69.5 18.5s22.5 33.5 22.5 63.5v36c0 25.333 -7.83301 43.5 -23.5 54.5s-41.5 16.5 -77.5 16.5
c-50.667 0 -105.334 -2.66699 -164.001 -8v-299h-128v580h-181v120h555v-120h-246v-160c78.667 5.33301 142 8 190 8c68 0 118.833 -14.5 152.5 -43.5z" />
    <glyph glyph-name="uni0403" unicode="&#x403;" horiz-adv-x="484" 
d="M476 580h-282v-580h-128v700h410v-120zM309 743h-90l104 120h145z" />
    <glyph glyph-name="uni0404" unicode="&#x404;" horiz-adv-x="669" 
d="M200 672c-54 -28.667 -96 -70.5 -126 -125.5s-45 -120.5 -45 -196.5s15 -141.5 45 -196.5s72 -96.833 126 -125.5s116.333 -43 187 -43c96.667 0 184.334 26.667 263.001 80l-68 112c-27.333 -18 -57.5 -32.833 -90.5 -44.5s-67.167 -17.5 -102.5 -17.5
c-58.667 0 -107.5 16 -146.5 48s-62.833 78 -71.5 138h289v118h-285c11.333 53.333 36 94.333 74 123s84.667 43 140 43c35.333 0 69.5 -5.83301 102.5 -17.5s63.167 -26.5 90.5 -44.5l68 112c-78.667 53.333 -166.334 80 -263.001 80c-70.667 0 -133 -14.333 -187 -43z" />
    <glyph glyph-name="uni0405" unicode="&#x405;" horiz-adv-x="521" 
d="M474 666l-55.002 -117.001c-56 28.667 -105.667 43 -149 43c-48.667 0 -73 -17 -73 -51c0 -13.333 4 -25.166 12 -35.499s22 -22.5 42 -36.5l121 -85c40.667 -28 70.834 -57.167 90.501 -87.5s29.5 -66.833 29.5 -109.5c0 -65.333 -21.167 -115.333 -63.5 -150
s-100.833 -52 -175.5 -52c-44 0 -86.833 6 -128.5 18s-79.5 28.667 -113.5 50l57 117c69.333 -40.667 132.333 -61 189 -61c32 0 56.5 6.5 73.5 19.5s25.5 30.167 25.5 51.5c0 16.667 -5.66699 31.667 -17 45s-29.333 29 -54 47l-113 81
c-37.333 26 -65.166 53.833 -83.499 83.5s-27.5 63.167 -27.5 100.5c0 55.333 18.167 98.833 54.5 130.5s87.5 47.5 153.5 47.5s134.333 -16.333 205 -49z" />
    <glyph glyph-name="uni0406" unicode="&#x406;" horiz-adv-x="261" 
d="M195 0h-129v700h129v-700z" />
    <glyph glyph-name="uni0407" unicode="&#x407;" horiz-adv-x="261" 
d="M195 0h-129v700h129v-700zM83 743h-119v109h119v-109zM296 743h-119v109h119v-109z" />
    <glyph glyph-name="uni0408" unicode="&#x408;" horiz-adv-x="287" 
d="M221 175c0 -61.333 -13.666 -106.501 -40.999 -135.501s-69 -43.5 -125 -43.5h-42v122h29c17.333 0 30.166 4.83301 38.499 14.5s12.5 25.834 12.5 48.501v519h128v-525z" />
    <glyph glyph-name="uni0409" unicode="&#x409;" horiz-adv-x="1038" 
d="M957.5 380c43 -36.667 64.501 -91.001 64.501 -163.001c0 -71.333 -21.5 -125.333 -64.5 -162s-97.833 -55 -164.5 -55h-268v580h-284v-405c0 -61.333 -13.667 -106.5 -41 -135.5s-69 -43.5 -125 -43.5h-62v122h49c17.333 0 30.166 4.83301 38.499 14.5
s12.5 25.834 12.5 48.501v519h540v-265h140c66.667 0 121.5 -18.333 164.5 -55zM858.001 143.999c19.333 17.333 29 41.667 29 73c0 32 -9.5 56.667 -28.5 74s-45.833 26 -80.5 26h-125v-199h125c34 0 60.667 8.66699 80 26z" />
    <glyph glyph-name="uni040A" unicode="&#x40a;" horiz-adv-x="1026" 
d="M945.5 380c43 -36.667 64.5 -91 64.5 -163c0 -71.333 -21.5 -125.333 -64.5 -162s-97.833 -55 -164.5 -55h-267v317h-320v-317h-128v700h128v-265h320v265h128v-265h139c66.667 0 121.5 -18.333 164.5 -55zM846 144c19.333 17.333 29 41.667 29 73
c0 32 -9.5 56.667 -28.5 74s-45.833 26 -80.5 26h-124v-199h124c34 0 60.667 8.66699 80 26z" />
    <glyph glyph-name="uni040B" unicode="&#x40b;" horiz-adv-x="727" 
d="M709 229l0.000976562 -229h-128v221c0 28.667 -7.33301 50 -22 64s-37.334 21 -68.001 21h-175v-306h-128v580h-180v120h555v-120h-247v-153h192c134 0 201 -66 201 -198z" />
    <glyph glyph-name="uni040C" unicode="&#x40c;" horiz-adv-x="685" 
d="M497 0l-303 343v-343h-128v700h128v-310l264 310h176l-297 -324l346 -376h-186zM374 743h-90l104 120h145z" />
    <glyph glyph-name="uni040E" unicode="&#x40e;" horiz-adv-x="653" 
d="M653 700l-330 -700h-143l85 179l-265 521h160l175 -373l176 373h142zM443 760c-26 -24.667 -61.998 -37 -107.998 -37s-81.833 12.333 -107.5 37s-39.5 59 -41.5 103h84c0 -22.667 5.5 -40.334 16.5 -53.001s27.167 -19 48.5 -19s37.666 6.33301 48.999 19
s16.666 30.334 15.999 53.001h85c-2 -44 -16 -78.333 -42 -103z" />
    <glyph glyph-name="uni040F" unicode="&#x40f;" horiz-adv-x="714" 
d="M648 0h-232v-140h-119v140h-231v700h128v-580h326v580h128v-700z" />
    <glyph glyph-name="uni0410" unicode="&#x410;" horiz-adv-x="696" 
d="M492 159h-288l-59 -159h-142l281 700h128l281 -700h-142zM450 275l-102 275l-102 -275h204z" />
    <glyph glyph-name="uni0411" unicode="&#x411;" 
d="M507.5 380c43 -36.667 64.5 -91 64.5 -163c0 -71.333 -21.5 -125.333 -64.5 -162s-97.5 -55 -163.5 -55h-278v700h472v-120h-344v-145h150c66 0 120.5 -18.333 163.5 -55zM408 144c19.333 17.333 29 41.667 29 73c0 32 -9.5 56.667 -28.5 74s-45.833 26 -80.5 26h-134
v-199h134c34 0 60.667 8.66699 80 26z" />
    <glyph glyph-name="uni0412" unicode="&#x412;" horiz-adv-x="621" 
d="M549.5 317.5c25.667 -29 38.501 -68.832 38.501 -119.499c0 -64.667 -21.333 -113.834 -64 -147.501s-96.667 -50.5 -162 -50.5h-296v700h277c63.333 0 114.166 -15.167 152.499 -45.5s57.5 -73.833 57.5 -130.5c0 -38 -9.16699 -70 -27.5 -96s-44.833 -44.333 -79.5 -55
v-2c43.333 -6.66699 77.833 -24.5 103.5 -53.5zM194.001 582.001l-0.000976562 -168h124c32.667 0 57.667 7.33301 75 22s26 35.667 26 63c0 26.667 -8.66699 47.167 -26 61.5s-40.666 21.5 -69.999 21.5h-129zM422 142.501c20 16.333 30 39.168 30 68.501
s-10 52.166 -30 68.499s-49 24.5 -87 24.5h-141v-186h146c34.667 0 62 8.16699 82 24.5z" />
    <glyph glyph-name="uni0413" unicode="&#x413;" horiz-adv-x="484" 
d="M476 580h-282v-580h-128v700h410v-120z" />
    <glyph glyph-name="uni0414" unicode="&#x414;" horiz-adv-x="691" 
d="M672 105l0.000976562 -245.001h-120v125h-428v-125h-119v245h76c19.333 45.333 33.166 90.833 41.499 136.5s12.5 98.834 12.5 159.501v299h460v-595h77zM251.501 242.999c-7.66699 -46 -20.5 -92 -38.5 -138h254v475h-204v-177c0 -60.667 -3.83301 -114 -11.5 -160z" />
    <glyph glyph-name="uni0415" unicode="&#x415;" horiz-adv-x="525" 
d="M486 120v-120h-420v700h415v-120h-287v-140h262v-118h-262v-202h292z" />
    <glyph glyph-name="uni0416" unicode="&#x416;" horiz-adv-x="1057" 
d="M873 0l-283 352v-352h-123v352l-284 -352h-180l316 370l-266 330h171l243 -321v321h123v-321l241 321h173l-266 -330l316 -370h-181z" />
    <glyph glyph-name="uni0417" unicode="&#x417;" horiz-adv-x="588" 
d="M465 669.5c42 -30.333 63.001 -73.834 63.001 -130.501c0 -43.333 -12.833 -79.166 -38.5 -107.499s-62.834 -47.833 -111.501 -58.5v-2c54 -6.66699 96.833 -24.667 128.5 -54s47.5 -71.333 47.5 -126c0 -61.333 -22.333 -111 -67 -149s-114.334 -57 -209.001 -57
c-96.667 0 -183 21.667 -259 65l57 114c68.667 -38.667 136.334 -58 203.001 -58c46.667 0 82.667 8.33301 108 25s38 40.334 38 71.001c0 68.667 -64.667 103 -194 103h-67v118h67c53.333 0 94.333 8 123 24s43 39 43 69c0 25.333 -10.333 44.666 -31 57.999
s-50.667 20 -90 20c-62 0 -127 -17.333 -195 -52l-51 115c84 38.667 169 58 255 58c78 0 138 -15.167 180 -45.5z" />
    <glyph glyph-name="uni0418" unicode="&#x418;" horiz-adv-x="720" 
d="M194 700v-488h1l340 488h119v-700h-128v487h-1l-340 -487h-119v700h128z" />
    <glyph glyph-name="uni0419" unicode="&#x419;" horiz-adv-x="720" 
d="M194 700v-488h1l340 488h119v-700h-128v487h-1l-340 -487h-119v700h128zM472 760c-26 -24.667 -61.998 -37 -107.998 -37s-81.833 12.333 -107.5 37s-39.5 59 -41.5 103h84c0 -22.667 5.5 -40.334 16.5 -53.001s27.167 -19 48.5 -19s37.666 6.33301 48.999 19
s16.666 30.334 15.999 53.001h85c-2 -44 -16 -78.333 -42 -103z" />
    <glyph glyph-name="uni041A" unicode="&#x41a;" horiz-adv-x="685" 
d="M497 0l-303 343v-343h-128v700h128v-310l264 310h176l-297 -324l346 -376h-186z" />
    <glyph glyph-name="uni041B" unicode="&#x41b;" horiz-adv-x="707" 
d="M641 0l-127.999 -0.000976562v580h-282v-405c0 -61.333 -13.667 -106.5 -41 -135.5s-69 -43.5 -125 -43.5h-52v122h39c17.333 0 30.166 4.83301 38.499 14.5s12.5 25.834 12.5 48.501v519h538v-700z" />
    <glyph glyph-name="uni041C" unicode="&#x41c;" horiz-adv-x="873" 
d="M870 0h-135l-106 455h-2l-144 -351h-93l-144 351h-2l-107 -455h-134l174 700h100l158 -398h2l159 398h100z" />
    <glyph glyph-name="uni041D" unicode="&#x41d;" horiz-adv-x="720" 
d="M654 700v-700h-128v307h-332v-307h-128v700h128v-271h332v271h128z" />
    <glyph glyph-name="uni041E" unicode="&#x41e;" horiz-adv-x="791" 
d="M582 669c56 -30.667 100 -73.834 132 -129.501s48 -118.834 48 -189.501s-16 -133.834 -48 -189.501s-76 -98.834 -132 -129.501s-118.333 -46 -187 -46s-130.834 15.333 -186.501 46s-99.5 73.834 -131.5 129.501s-48 118.834 -48 189.501s16 133.834 48 189.501
s75.833 98.834 131.5 129.501s117.834 46 186.501 46s131 -15.333 187 -46zM278.5 554.5c-34.333 -19.667 -61.166 -47.332 -80.499 -82.999s-29 -76.167 -29 -121.5s9.66699 -85.833 29 -121.5s46.166 -63.334 80.499 -83.001s73.166 -29.5 116.499 -29.5
s82.166 9.83301 116.499 29.5s61.166 47.167 80.499 82.5s29 76 29 122s-9.66699 86.667 -29 122s-46.166 62.833 -80.499 82.5s-73.166 29.5 -116.499 29.5s-82.166 -9.83301 -116.499 -29.5z" />
    <glyph glyph-name="uni041F" unicode="&#x41f;" horiz-adv-x="714" 
d="M649 0h-128v580h-327v-580h-128v700h583v-700z" />
    <glyph glyph-name="uni0420" unicode="&#x420;" horiz-adv-x="557" 
d="M485 639.5c40.667 -40.333 61 -92.833 61 -157.5c0 -66.667 -20.333 -120.5 -61 -161.5s-99 -61.5 -175 -61.5h-116v-259h-128v700h244c76 0 134.333 -20.167 175 -60.5zM379 403.5c20 17.667 30 43.5 30 77.5c0 33.333 -10 58.5 -30 75.5s-47.667 25.5 -83 25.5h-102
v-205h102c35.333 0 63 8.83301 83 26.5z" />
    <glyph glyph-name="uni0421" unicode="&#x421;" horiz-adv-x="675" 
d="M211 30.5c-57.333 30.333 -102 72.998 -134 127.998s-48 118.833 -48 191.5s16 136.5 48 191.5s76.667 97.667 134 128s122.666 45.5 195.999 45.5c93.333 0 176.666 -25.667 249.999 -77l-74 -112c-55.333 38.667 -114.333 58 -177 58c-45.333 0 -86 -9.66699 -122 -29
s-64.167 -46.666 -84.5 -81.999s-30.5 -76.333 -30.5 -123s10.167 -87.667 30.5 -123s48.5 -62.666 84.5 -81.999s76.667 -29 122 -29c62.667 0 121.667 19.333 177 58l74 -112c-73.333 -51.333 -156.666 -77 -249.999 -77c-73.333 0 -138.666 15.167 -195.999 45.5z" />
    <glyph glyph-name="uni0422" unicode="&#x422;" horiz-adv-x="526" 
d="M518 580h-191v-580h-128v580h-191v120h510v-120z" />
    <glyph glyph-name="uni0423" unicode="&#x423;" horiz-adv-x="653" 
d="M653 700l-330 -700h-143l85 179l-265 521h160l175 -373l176 373h142z" />
    <glyph glyph-name="uni0424" unicode="&#x424;" horiz-adv-x="838" 
d="M769.5 182.5c-26.333 -47 -64.333 -83.167 -114 -108.5s-108.167 -38.333 -175.5 -39v-65h-122v65c-67.333 0.666992 -125.833 13.667 -175.5 39s-87.667 61.5 -114 108.5s-39.5 102.833 -39.5 167.5s13.167 120.334 39.5 167.001s64.333 82.667 114 108
s108.167 38.333 175.5 39v65h122v-65c67.333 -0.666992 125.833 -13.667 175.5 -39s87.667 -61.333 114 -108s39.5 -102.334 39.5 -167.001s-13.167 -120.5 -39.5 -167.5zM214.5 205.5c33.667 -33 82.834 -49.5 147.501 -49.5v388c-64.667 0 -113.834 -16.333 -147.501 -49
s-50.5 -81 -50.5 -145c0 -63.333 16.833 -111.5 50.5 -144.5zM623.5 205.5c33.667 33 50.5 81.167 50.5 144.5c0 64 -16.833 112.333 -50.5 145s-82.834 49 -147.501 49v-388c64.667 0 113.834 16.5 147.501 49.5z" />
    <glyph glyph-name="uni0425" unicode="&#x425;" horiz-adv-x="668" 
d="M504 0l-170 267l-170 -267h-158l247 371l-220 329h159l142 -224l143 224h158l-220 -329l247 -371h-158z" />
    <glyph glyph-name="uni0426" unicode="&#x426;" horiz-adv-x="717" 
d="M698 120v-260h-120v140h-512v700h128v-580h295v580h128v-580h81z" />
    <glyph glyph-name="uni0427" unicode="&#x427;" horiz-adv-x="604" 
d="M539 700l-0.000976562 -700h-128v273h-192c-134 0 -201 66 -201 198v229h128v-221c0 -28.667 7.33301 -50 22 -64s37.334 -21 68.001 -21h175v306h128z" />
    <glyph glyph-name="uni0428" unicode="&#x428;" horiz-adv-x="1030" 
d="M66 700h128v-580h257v580h128v-580h258v580h128v-700h-899v700z" />
    <glyph glyph-name="uni0429" unicode="&#x429;" horiz-adv-x="1065" 
d="M1045 120v-260h-119v140h-860v700h128v-580h257v580h128v-580h258v580h128v-580h80z" />
    <glyph glyph-name="uni042A" unicode="&#x42a;" horiz-adv-x="716" 
d="M635.5 380c43 -36.667 64.5 -91 64.5 -163c0 -71.333 -21.5 -125.333 -64.5 -162s-97.5 -55 -163.5 -55h-278v580h-186v120h314v-265h150c66 0 120.5 -18.333 163.5 -55zM536 144c19.333 17.333 29 41.667 29 73c0 32 -9.5 56.667 -28.5 74s-45.833 26 -80.5 26h-134
v-199h134c34 0 60.667 8.66699 80 26z" />
    <glyph glyph-name="uni042B" unicode="&#x42b;" horiz-adv-x="843" 
d="M507.5 380c43 -36.667 64.5 -91 64.5 -163c0 -71.333 -21.5 -125.333 -64.5 -162s-97.5 -55 -163.5 -55h-278v700h128v-265h150c66 0 120.5 -18.333 163.5 -55zM408 144c19.333 17.333 29 41.667 29 73c0 32 -9.5 56.667 -28.5 74s-45.833 26 -80.5 26h-134v-199h134
c34 0 60.667 8.66699 80 26zM777 0.000976562h-129v700h129v-700z" />
    <glyph glyph-name="uni042C" unicode="&#x42c;" horiz-adv-x="588" 
d="M507.5 380c43 -36.667 64.5 -91 64.5 -163c0 -71.333 -21.5 -125.333 -64.5 -162s-97.5 -55 -163.5 -55h-278v700h128v-265h150c66 0 120.5 -18.333 163.5 -55zM408 144c19.333 17.333 29 41.667 29 73c0 32 -9.5 56.667 -28.5 74s-45.833 26 -80.5 26h-134v-199h134
c34 0 60.667 8.66699 80 26z" />
    <glyph glyph-name="uni042D" unicode="&#x42d;" horiz-adv-x="669" 
d="M469 672c54 -28.667 96 -70.5 126 -125.5s45 -120.5 45 -196.5s-15 -141.5 -45 -196.5s-72 -96.833 -126 -125.5s-116.333 -43 -187 -43c-96.667 0 -184.334 26.667 -263.001 80l68 112c27.333 -18 57.5 -32.833 90.5 -44.5s67.167 -17.5 102.5 -17.5
c58.667 0 107.5 16 146.5 48s62.833 78 71.5 138h-289v118h285c-11.333 53.333 -36 94.333 -74 123s-84.667 43 -140 43c-35.333 0 -69.5 -5.83301 -102.5 -17.5s-63.167 -26.5 -90.5 -44.5l-68 112c78.667 53.333 166.334 80 263.001 80c70.667 0 133 -14.333 187 -43z" />
    <glyph glyph-name="uni042E" unicode="&#x42e;" horiz-adv-x="1038" 
d="M829 669c56 -30.667 100 -73.8281 132 -129.495s48 -118.834 48 -189.501s-16 -133.834 -48 -189.501s-76 -98.834 -132 -129.501s-118.333 -46 -187 -46c-62.667 0 -119.834 12.667 -171.501 38s-94.167 61.166 -127.5 107.499s-54.333 99.833 -63 160.5h-86v-291h-128
v700h128v-291h86c8.66699 60.667 29.667 114.167 63 160.5s75.833 82.166 127.5 107.499s108.834 38 171.501 38c68.667 0 131 -15.333 187 -46zM758.5 145.506c34.333 19.667 61.166 47.1689 80.499 82.502s29 76 29 122s-9.66699 86.667 -29 122
s-46.166 62.833 -80.499 82.5s-73.166 29.5 -116.499 29.5s-82.166 -9.83301 -116.499 -29.5s-61.166 -47.334 -80.499 -83.001s-29 -76.167 -29 -121.5s9.66699 -85.833 29 -121.5s46.166 -63.334 80.499 -83.001s73.166 -29.5 116.499 -29.5s82.166 9.83301 116.499 29.5z
" />
    <glyph glyph-name="uni042F" unicode="&#x42f;" horiz-adv-x="618" 
d="M553 700l-0.000976562 -700h-128v278h-64l-187 -278h-158l199 286c-49.333 11.333 -87.666 35 -114.999 71s-41 79.667 -41 131c0 42 9.16699 79 27.5 111s44.5 56.833 78.5 74.5s73.667 26.5 119 26.5h269zM424.999 392l-0.000976562 189.999h-121
c-35.333 0 -62.166 -8.66699 -80.499 -26s-27.5 -40.666 -27.5 -69.999c0 -30 9 -53.167 27 -69.5s45 -24.5 81 -24.5h121z" />
    <glyph glyph-name="uni0430" unicode="&#x430;" horiz-adv-x="578" 
d="M136 14c-34 19.333 -60.833 47.5 -80.5 84.5s-29.5 81.167 -29.5 132.5s9.83301 95.5 29.5 132.5s46.5 65.167 80.5 84.5s71.333 29 112 29c36 0 66.833 -7 92.5 -21s46.167 -33.667 61.5 -59h2v65h122v-462h-122v65h-2c-15.333 -25.333 -35.833 -45 -61.5 -59
s-56.5 -21 -92.5 -21c-40.667 0 -78 9.66699 -112 29zM369.5 137c23 24 34.5 55.333 34.5 94s-11.5 70 -34.5 94s-53.167 36 -90.5 36s-67.5 -12 -90.5 -36s-34.5 -55.333 -34.5 -94s11.5 -70 34.5 -94s53.167 -36 90.5 -36s67.5 12 90.5 36z" />
    <glyph glyph-name="uni0431" unicode="&#x431;" horiz-adv-x="572" 
d="M99 59.5c-48.667 49.667 -73 128.167 -73 235.5c0 68 10 129 30 183s51.333 94 94 120c28.667 16.667 80.334 34.667 155.001 54l37 10c30.667 9.33301 46.334 23.333 47.001 42h123c0 -35.333 -7 -63.333 -21 -84s-36.667 -36 -68 -46
c-22.667 -7.33301 -47.334 -13.666 -74.001 -18.999c-34 -8.66699 -61.167 -15.834 -81.5 -21.501s-37.5 -12.167 -51.5 -19.5c-26 -14 -45.167 -34.5 -57.5 -61.5s-20.833 -60.5 -25.5 -100.5h3c16 38 40.333 67 73 87s70.667 30 114 30c44 0 82.833 -9.66699 116.5 -29
s59.834 -46.833 78.501 -82.5s28 -77.167 28 -124.5c0 -48.667 -10.333 -91.667 -31 -129s-50.334 -66.5 -89.001 -87.5s-84.334 -31.5 -137.001 -31.5c-78 0 -141.333 24.833 -190 74.5zM381 136.5c24.667 23.667 37 55.167 37 94.5s-12.333 70.833 -37 94.5
s-55.667 35.5 -93 35.5c-36.667 0 -67.334 -11.833 -92.001 -35.5s-37 -55.167 -37 -94.5s12.333 -70.833 37 -94.5s55.334 -35.5 92.001 -35.5c37.333 0 68.333 11.833 93 35.5z" />
    <glyph glyph-name="uni0432" unicode="&#x432;" horiz-adv-x="513" 
d="M484 132c0 -44 -15.167 -77.001 -45.5 -99.001s-67.5 -33 -111.5 -33h-273v462h273c44 0 78.833 -10.167 104.5 -30.5s38.5 -48.166 38.5 -83.499c0 -26.667 -7 -49.167 -21 -67.5s-35.667 -30.5 -65 -36.5v-1c66.667 -8.66699 100 -45.667 100 -111zM176 370.999v-89
h112c17.333 0 30.833 4 40.5 12s14.5 19.333 14.5 34c0 14 -4.83301 24.667 -14.5 32s-23.5 11 -41.5 11h-111zM340 104.499c11.333 9 17.001 21.832 17.001 38.499s-5 29.334 -15 38.001s-24.333 13 -43 13h-123v-103h118c19.333 0 34.666 4.5 45.999 13.5z" />
    <glyph glyph-name="uni0433" unicode="&#x433;" horiz-adv-x="374" 
d="M369 349h-193v-349h-122v462h315v-113z" />
    <glyph glyph-name="uni0434" unicode="&#x434;" horiz-adv-x="551" 
d="M538 92v-222.002h-105v117h-326v-117h-105v222h60c12 20.667 20.833 41.834 26.5 63.501s8.5 46.834 8.5 75.501v231h379v-370h62zM211.5 153.998c-5 -21.333 -12.833 -42 -23.5 -62h166v261h-135v-127c0 -26.667 -2.5 -50.667 -7.5 -72z" />
    <glyph glyph-name="uni0435" unicode="&#x435;" horiz-adv-x="514" 
d="M431 412.5c39.333 -43 59 -103.833 59 -182.5v-24h-345c3.33301 -35.333 16.833 -62.833 40.5 -82.5s53.5 -29.5 89.5 -29.5c50 0 96 21 138 63l62 -89c-26 -24 -55 -43.833 -87 -59.5s-69.667 -23.5 -113 -23.5c-50 0 -93.667 10.167 -131 30.5s-66.333 49 -87 86
s-31 79.833 -31 128.5s10 91.667 30 129s48 66.333 84 87s78 31 126 31c70.667 0 125.667 -21.5 165 -64.5zM184.5 355c-19.667 -15.333 -31.832 -38.666 -36.499 -69.999h218c-2 29.333 -12.5 52.166 -31.5 68.499s-43.833 24.5 -74.5 24.5s-55.834 -7.66699 -75.501 -23z
" />
    <glyph glyph-name="uni0436" unicode="&#x436;" horiz-adv-x="793" 
d="M628 0l-173 223v-223h-117v224l-173 -224h-160l207 251l-182 211h156l152 -195v195h117v-193l151 193h157l-182 -211l207 -251h-160z" />
    <glyph glyph-name="uni0437" unicode="&#x437;" horiz-adv-x="452" 
d="M104.5 -4.5c-34.333 7 -64.5 16.834 -90.5 29.501l41 97c53.333 -23.333 105 -35 155 -35c62.667 0 94 17.333 94 52c0 36 -28 54 -84 54h-94v92h91c46.667 0 70 15.333 70 46c0 30 -26.333 45 -79 45c-39.333 0 -88.333 -9.33301 -147 -28l-33 98
c69.333 20.667 133 31 191 31c129.333 0 194 -41 194 -123c0 -28.667 -9 -52.334 -27 -71.001s-43.333 -30.334 -76 -35.001v-3c36 -3.33301 64.333 -15.166 85 -35.499s31 -47.5 31 -81.5c0 -46 -17.667 -81.333 -53 -106s-89.333 -37 -162 -37
c-36.667 0 -72.167 3.5 -106.5 10.5z" />
    <glyph glyph-name="uni0438" unicode="&#x438;" horiz-adv-x="556" 
d="M54 462h122v-280h2l214 280h111v-462h-123v280h-2l-214 -280h-110v462z" />
    <glyph glyph-name="uni0439" unicode="&#x439;" horiz-adv-x="556" 
d="M54 462h122v-280h2l214 280h111v-462h-123v280h-2l-214 -280h-110v462zM390 536.5c-28 -27 -63.998 -40.5 -107.998 -40.5s-79.833 13.5 -107.5 40.5s-41.5 63.5 -41.5 109.5h81c1.33301 -21.333 7.66602 -38.666 18.999 -51.999s27.666 -20 48.999 -20
s37.833 6.66699 49.5 20s18.167 30.666 19.5 51.999h81c0 -46 -14 -82.5 -42 -109.5z" />
    <glyph glyph-name="uni043A" unicode="&#x43a;" horiz-adv-x="514" 
d="M349 0l-173 221v-221h-122v462h122v-191l152 191h156l-189 -210l214 -252h-160z" />
    <glyph glyph-name="uni043B" unicode="&#x43b;" horiz-adv-x="546" 
d="M493 0l-122.999 -0.000976562v349h-165v-203c0 -49.333 -12.833 -86.666 -38.5 -111.999s-60.834 -38 -105.501 -38h-51v113h32c14 0 24.333 4 31 12s10 21 10 39v302h410v-462z" />
    <glyph glyph-name="uni043C" unicode="&#x43c;" horiz-adv-x="680" 
d="M148 462h98l93 -225h2l93 225h98l135 -462h-121l-75 283h-2l-89 -216h-80l-89 216h-2l-75 -283h-121z" />
    <glyph glyph-name="uni043D" unicode="&#x43d;" horiz-adv-x="556" 
d="M502 462v-462h-123v184h-203v-184h-122v462h122v-166h203v166h123z" />
    <glyph glyph-name="uni043E" unicode="&#x43e;" horiz-adv-x="563" 
d="M413.5 445.5c39 -21 69.5 -50.167 91.5 -87.5s33 -79.666 33 -126.999s-11 -89.666 -33 -126.999s-52.5 -66.5 -91.5 -87.5s-82.833 -31.5 -131.5 -31.5s-92.5 10.5 -131.5 31.5s-69.5 50.167 -91.5 87.5s-33 79.666 -33 126.999s11 89.666 33 126.999
s52.5 66.5 91.5 87.5s82.833 31.5 131.5 31.5s92.5 -10.5 131.5 -31.5zM188.5 325.5c-24.333 -23.667 -36.5 -55.167 -36.5 -94.5s12.167 -70.833 36.5 -94.5s55.5 -35.5 93.5 -35.5s69 11.833 93 35.5s36 55.167 36 94.5s-12 70.833 -36 94.5s-55 35.5 -93 35.5
s-69.167 -11.833 -93.5 -35.5z" />
    <glyph glyph-name="uni043F" unicode="&#x43f;" horiz-adv-x="546" 
d="M493 0h-123v349h-194v-349h-122v462h439v-462z" />
    <glyph glyph-name="uni0440" unicode="&#x440;" horiz-adv-x="580" 
d="M54 462h122v-65h2c15.333 25.333 35.833 45 61.5 59s56.5 21 92.5 21c40.667 0 78 -9.66699 112 -29s60.833 -47.5 80.5 -84.5s29.5 -81.167 29.5 -132.5s-9.83301 -95.5 -29.5 -132.5s-46.5 -65.167 -80.5 -84.5s-71.333 -29 -112 -29c-36 0 -66.833 7 -92.5 21
s-46.167 33.667 -61.5 59h-2v-265h-122v662zM391.5 137c23 24 34.5 55.333 34.5 94s-11.5 70 -34.5 94s-53.167 36 -90.5 36s-67.5 -12 -90.5 -36s-34.5 -55.333 -34.5 -94s11.5 -70 34.5 -94s53.167 -36 90.5 -36s67.5 12 90.5 36z" />
    <glyph glyph-name="uni0441" unicode="&#x441;" horiz-adv-x="457" 
d="M149 15.5c-38.667 20.333 -68.834 49.168 -90.501 86.501s-32.5 80.333 -32.5 129s10.833 91.667 32.5 129s51.834 66.166 90.501 86.499s82.667 30.5 132 30.5c58.667 0 112.667 -15.333 162 -46l-53 -101c-34 21.333 -69.667 32 -107 32
c-38 0 -69.333 -12.167 -94 -36.5s-37 -55.833 -37 -94.5s12.333 -70.167 37 -94.5s56 -36.5 94 -36.5c37.333 0 73 10.667 107 32l53 -101c-49.333 -30.667 -103.333 -46 -162 -46c-49.333 0 -93.333 10.167 -132 30.5z" />
    <glyph glyph-name="uni0442" unicode="&#x442;" horiz-adv-x="441" 
d="M436 351h-154v-351h-123v351h-154v111h431v-111z" />
    <glyph glyph-name="uni0443" unicode="&#x443;" horiz-adv-x="520" 
d="M515 462l-296 -662h-127l113 243l-200 419h144l117 -281l120 281h129z" />
    <glyph glyph-name="uni0444" unicode="&#x444;" horiz-adv-x="867" 
d="M374 65h-2c-14.667 -26 -33.167 -45.833 -55.5 -59.5s-51.166 -20.5 -86.499 -20.5c-39.333 0 -74 9.66699 -104 29s-53.333 47.5 -70 84.5s-25 81.167 -25 132.5s8.33301 95.5 25 132.5s40 65.167 70 84.5s64.667 29 104 29c35.333 0 64.166 -6.83301 86.499 -20.5
s40.833 -33.5 55.5 -59.5h2v278h118v-278h2c14.667 25.333 33.334 45 56.001 59s51.667 21 87 21c39.333 0 74 -9.66699 104 -29s53.333 -47.5 70 -84.5s25 -81.167 25 -132.5s-8.33301 -95.5 -25 -132.5s-40 -65.167 -70 -84.5s-64.667 -29 -104 -29
c-35.333 0 -64.333 7 -87 21s-41.334 33.667 -56.001 59h-2v-265h-118v265zM350 131c19.333 24.667 29 58 29 100s-9.66699 75.333 -29 100s-46.666 37 -81.999 37s-62 -12.167 -80 -36.5s-27 -57.833 -27 -100.5s9 -76.167 27 -100.5s44.667 -36.5 80 -36.5
s62.666 12.333 81.999 37zM678.5 130.5c18.333 24.333 27.5 57.833 27.5 100.5s-9.16699 76.167 -27.5 100.5s-44.833 36.5 -79.5 36.5c-35.333 0 -62.833 -12.333 -82.5 -37s-29.5 -58 -29.5 -100s9.83301 -75.333 29.5 -100s47.167 -37 82.5 -37
c34.667 0 61.167 12.167 79.5 36.5z" />
    <glyph glyph-name="uni0445" unicode="&#x445;" horiz-adv-x="527" 
d="M263 156l-110 -156h-148l184 243l-162 219h149l87 -134l88 134h149l-162 -219l184 -243h-149z" />
    <glyph glyph-name="uni0446" unicode="&#x446;" horiz-adv-x="557" 
d="M544 113v-243h-113v130h-377v462h122v-349h185v349h123v-349h60z" />
    <glyph glyph-name="uni0447" unicode="&#x447;" horiz-adv-x="482" 
d="M428 462v-462h-122v163h-137c-104 0 -156 49.667 -156 149v150h123v-138c0 -18.667 4.33301 -32.167 13 -40.5s23 -12.5 43 -12.5h114v191h122z" />
    <glyph glyph-name="uni0448" unicode="&#x448;" horiz-adv-x="819" 
d="M766 462v-462h-712v462h122v-349h172v349h123v-349h172v349h123z" />
    <glyph glyph-name="uni0449" unicode="&#x449;" horiz-adv-x="838" 
d="M825 113v-243h-113v130h-658v462h122v-349h172v349h123v-349h172v349h123v-349h59z" />
    <glyph glyph-name="uni044A" unicode="&#x44a;" horiz-adv-x="579" 
d="M517 274c30.667 -27.333 46 -66 46 -116c0 -48.667 -15.5 -87.167 -46.5 -115.5s-72.833 -42.5 -125.5 -42.5h-234v349h-152v113h274v-147h112c53.333 0 95.333 -13.667 126 -41zM420 115.5c11.333 9.66699 17 23.499 17 41.499c0 18.667 -5.66699 32.834 -17 42.501
s-27.666 14.5 -48.999 14.5h-92v-113h92c21.333 0 37.666 4.83301 48.999 14.5z" />
    <glyph glyph-name="uni044B" unicode="&#x44b;" horiz-adv-x="680" 
d="M414 274c30.667 -27.333 46 -66 46 -116c0 -48.667 -15.5 -87.167 -46.5 -115.5s-72.833 -42.5 -125.5 -42.5h-234v462h122v-147h112c53.333 0 95.333 -13.667 126 -41zM317 115.5c11.333 9.66699 17 23.499 17 41.499c0 18.667 -5.66699 32.834 -17 42.501
s-27.666 14.5 -48.999 14.5h-92v-113h92c21.333 0 37.666 4.83301 48.999 14.5zM503 461.999h123v-462h-123v462z" />
    <glyph glyph-name="uni044C" unicode="&#x44c;" horiz-adv-x="476" 
d="M414 274c30.667 -27.333 46 -66 46 -116c0 -48.667 -15.5 -87.167 -46.5 -115.5s-72.833 -42.5 -125.5 -42.5h-234v462h122v-147h112c53.333 0 95.333 -13.667 126 -41zM317 115.5c11.333 9.66699 17 23.499 17 41.499c0 18.667 -5.66699 32.834 -17 42.501
s-27.666 14.5 -48.999 14.5h-92v-113h92c21.333 0 37.666 4.83301 48.999 14.5z" />
    <glyph glyph-name="uni044D" unicode="&#x44d;" horiz-adv-x="456" 
d="M360.5 413c43 -42.667 64.5 -103.332 64.5 -181.999s-21.5 -139.334 -64.5 -182.001s-101.5 -64 -175.5 -64c-62.667 0 -119.667 15 -171 45l52 103c38 -21.333 76 -32 114 -32c30.667 0 56.334 7 77.001 21s34.334 36 41.001 66h-156v86h156
c-6.66699 30 -20.334 52 -41.001 66s-46.334 21 -77.001 21c-38 0 -76 -10.667 -114 -32l-52 103c52.667 30 109.667 45 171 45c74 0 132.5 -21.333 175.5 -64z" />
    <glyph glyph-name="uni044E" unicode="&#x44e;" horiz-adv-x="776" 
d="M625.5 445.5c39 -21 69.5 -50.1699 91.5 -87.5029s33 -79.666 33 -126.999s-11 -89.666 -33 -126.999s-52.5 -66.5 -91.5 -87.5s-82.833 -31.5 -131.5 -31.5c-64.667 0 -119.834 17.833 -165.501 53.5s-74.167 82.834 -85.5 141.501h-67v-180h-123v462h123v-179h67
c11.333 58.667 39.833 105.667 85.5 141s100.834 53 165.501 53c48.667 0 92.5 -10.5 131.5 -31.5zM587 136.497c24 23.667 36 55.167 36 94.5s-12 70.833 -36 94.5s-55 35.5 -93 35.5s-69.167 -11.833 -93.5 -35.5s-36.5 -55.167 -36.5 -94.5s12.167 -70.833 36.5 -94.5
s55.5 -35.5 93.5 -35.5s69 11.833 93 35.5z" />
    <glyph glyph-name="uni044F" unicode="&#x44f;" horiz-adv-x="516" 
d="M462 462v-462h-123v158h-48l-125 -158h-151l135 164c-36 8.66699 -64 26 -84 52s-30 57 -30 93c0 46 15 83 45 111s70.333 42 121 42h260zM339 252v108h-100c-22.667 0 -39.667 -4.66699 -51 -14s-17 -22.666 -17 -39.999c0 -16.667 5.66699 -29.834 17 -39.501
s28.333 -14.5 51 -14.5h100z" />
    <glyph glyph-name="uni0451" unicode="&#x451;" horiz-adv-x="514" 
d="M431 412.5c39.333 -43 59 -103.833 59 -182.5v-24h-345c3.33301 -35.333 16.833 -62.833 40.5 -82.5s53.5 -29.5 89.5 -29.5c50 0 96 21 138 63l62 -89c-26 -24 -55 -43.833 -87 -59.5s-69.667 -23.5 -113 -23.5c-50 0 -93.667 10.167 -131 30.5s-66.333 49 -87 86
s-31 79.833 -31 128.5s10 91.667 30 129s48 66.333 84 87s78 31 126 31c70.667 0 125.667 -21.5 165 -64.5zM184.5 355c-19.667 -15.333 -31.832 -38.666 -36.499 -69.999h218c-2 29.333 -12.5 52.166 -31.5 68.499s-43.833 24.5 -74.5 24.5s-55.834 -7.66699 -75.501 -23z
M234.002 517h-104v127h104v-127zM403.002 517h-104v127h104v-127z" />
    <glyph glyph-name="uni0452" unicode="&#x452;" horiz-adv-x="554" 
d="M458 430c31.333 -31.333 47.001 -79.667 47.001 -145v-329c0 -104 -49.333 -156 -148 -156h-64v112h42c31.333 0 47 16.667 47 50v294c0 71.333 -32 107 -96 107c-33.333 0 -59.5 -11 -78.5 -33s-28.5 -56.667 -28.5 -104v-226h-123v556h-65v73h65v71h123v-71h137v-73
h-137v-160h2c34 54 84 81 150 81c53.333 0 95.666 -15.667 126.999 -47z" />
    <glyph glyph-name="uni0453" unicode="&#x453;" horiz-adv-x="374" 
d="M369 349h-193v-349h-122v462h315v-113zM268 503h-96l104 154h145z" />
    <glyph glyph-name="uni0454" unicode="&#x454;" horiz-adv-x="456" 
d="M95.5 413c-43 -42.667 -64.5 -103.332 -64.5 -181.999s21.5 -139.334 64.5 -182.001s101.5 -64 175.5 -64c62.667 0 119.667 15 171 45l-52 103c-38 -21.333 -76 -32 -114 -32c-30.667 0 -56.334 7 -77.001 21s-34.334 36 -41.001 66h156v86h-156
c6.66699 30 20.334 52 41.001 66s46.334 21 77.001 21c38 0 76 -10.667 114 -32l52 103c-52.667 30 -109.667 45 -171 45c-74 0 -132.5 -21.333 -175.5 -64z" />
    <glyph glyph-name="uni0455" unicode="&#x455;" horiz-adv-x="418" 
d="M109 -3c-34.667 8 -66.668 20.332 -96.001 36.999l50 104c54.667 -32 106.334 -48 155.001 -48c38 0 57 11 57 33c0 8.66699 -3 15.667 -9 21s-16.333 11.666 -31 18.999l-83 36c-36 16 -62.333 35.333 -79 58s-25 49.334 -25 80.001c0 45.333 15.333 80 46 104
s75 36 133 36c52 0 106.667 -10.667 164 -32l-41 -103c-50 21.333 -93.333 32 -130 32c-17.333 0 -29.5 -2.33301 -36.5 -7s-10.5 -11.667 -10.5 -21c0 -8.66699 3.16699 -16 9.5 -22s17.833 -12.667 34.5 -20l83 -36c34 -14 59.5 -31.667 76.5 -53
s25.5 -48.666 25.5 -81.999c0 -49.333 -17 -86.333 -51 -111s-80.667 -37 -140 -37c-33.333 0 -67.333 4 -102 12z" />
    <glyph glyph-name="uni0456" unicode="&#x456;" horiz-adv-x="236" 
d="M56 462h123v-462h-123v462zM188 559h-140v135h140v-135z" />
    <glyph glyph-name="uni0457" unicode="&#x457;" horiz-adv-x="236" 
d="M102 517h-104v127h104v-127zM237 517h-104v127h104v-127zM56 462h123v-462h-123v462z" />
    <glyph glyph-name="uni0458" unicode="&#x458;" horiz-adv-x="236" 
d="M0 -90c20 0 34.333 4.83301 43 14.5s13 25.167 13 46.5v491h123v-496c0 -55.333 -13.5 -97.333 -40.5 -126s-66.833 -43 -119.5 -43h-40v113h21zM188 559h-140v135h140v-135z" />
    <glyph glyph-name="uni0459" unicode="&#x459;" horiz-adv-x="764" 
d="M702 274c30.667 -27.333 46 -66 46 -116c0 -48.667 -15.5 -87.167 -46.5 -115.5s-73.167 -42.5 -126.5 -42.5h-228v349h-154v-204c0 -48.667 -13 -85.667 -39 -111s-61 -38 -105 -38h-39v113h19c14 0 24.333 4 31 12s10 21 10 39v302h400v-147h106
c53.333 0 95.333 -13.667 126 -41zM605 114.5c11.333 9.66699 17 23.832 17 42.499s-5.66699 32.834 -17 42.501s-27.666 14.5 -48.999 14.5h-86v-114h86c21.333 0 37.666 4.83301 48.999 14.5z" />
    <glyph glyph-name="uni045A" unicode="&#x45a;" horiz-adv-x="786" 
d="M724 271.5c30.667 -27 46 -65.5 46 -115.5c0 -48 -15.5 -86 -46.5 -114s-72.833 -42 -125.5 -42h-229v208h-193v-208h-122v462h122v-150h193v150h123v-150h106c53.333 0 95.333 -13.5 126 -40.5zM628 114.5c11.333 9 17 22.5 17 40.5c0 35.333 -22.333 53 -67 53h-86
v-107h86c22 0 38.667 4.5 50 13.5z" />
    <glyph glyph-name="uni045B" unicode="&#x45b;" horiz-adv-x="554" 
d="M458 430c31.333 -31.333 47.001 -79.667 47.001 -145v-285h-123v256c0 71.333 -32 107 -96 107c-33.333 0 -59.5 -11 -78.5 -33s-28.5 -56.667 -28.5 -104v-226h-123v556h-65v73h65v71h123v-71h137v-73h-137v-160h2c34 54 84 81 150 81
c53.333 0 95.666 -15.667 126.999 -47z" />
    <glyph glyph-name="uni045C" unicode="&#x45c;" horiz-adv-x="514" 
d="M349 0l-173 221v-221h-122v462h122v-191l152 191h156l-189 -210l214 -252h-160zM298 503h-96l104 154h145z" />
    <glyph glyph-name="uni045E" unicode="&#x45e;" horiz-adv-x="520" 
d="M515 462l-296 -662h-127l113 243l-200 419h144l117 -281l120 281h129zM374 536.5c-28 -27 -63.998 -40.5 -107.998 -40.5s-79.833 13.5 -107.5 40.5s-41.5 63.5 -41.5 109.5h81c1.33301 -21.333 7.66602 -38.666 18.999 -51.999s27.666 -20 48.999 -20
s37.833 6.66699 49.5 20s18.167 30.666 19.5 51.999h81c0 -46 -14 -82.5 -42 -109.5z" />
    <glyph glyph-name="uni045F" unicode="&#x45f;" horiz-adv-x="544" 
d="M491 462v-462h-164v-130h-110v130h-163v462h122v-352h192v352h123z" />
    <glyph glyph-name="uni0462" unicode="&#x462;" horiz-adv-x="644" 
d="M563.5 380c43 -36.667 64.5 -91 64.5 -163c0 -71.333 -21.5 -125.333 -64.5 -162s-97.5 -55 -163.5 -55h-278v514h-114v104h114v82h128v-82h206v-104h-206v-79h150c66 0 120.5 -18.333 163.5 -55zM464 144c19.333 17.333 29 41.667 29 73c0 32 -9.5 56.667 -28.5 74
s-45.833 26 -80.5 26h-134v-199h134c34 0 60.667 8.66699 80 26z" />
    <glyph glyph-name="uni0463" unicode="&#x463;" horiz-adv-x="509" 
d="M445.5 274c31.667 -27.333 47.5 -66 47.5 -116c0 -48.667 -16 -87.167 -48 -115.5s-75 -42.5 -129 -42.5h-234v384h-91v78h91v238h123v-238h141v-78h-141v-69h112c54 0 96.833 -13.667 128.5 -41zM345 117.5c11.333 9 17 22.167 17 39.5c0 18 -5.66699 31.5 -17 40.5
s-27.333 13.5 -48 13.5h-92v-107h92c20.667 0 36.667 4.5 48 13.5z" />
    <glyph glyph-name="uni0472" unicode="&#x472;" horiz-adv-x="791" 
d="M582 669c56 -30.667 100 -73.834 132 -129.501s48 -118.834 48 -189.501s-16 -133.834 -48 -189.501s-76 -98.834 -132 -129.501s-118.333 -46 -187 -46s-130.834 15.333 -186.501 46s-99.5 73.834 -131.5 129.501s-48 118.834 -48 189.501s16 133.834 48 189.501
s75.833 98.834 131.5 129.501s117.834 46 186.501 46s131 -15.333 187 -46zM239 531c-42.667 -36.667 -67.667 -85.334 -75 -146.001h463c-7.33301 60.667 -32.333 109.334 -75 146.001s-95 55 -157 55c-61.333 0 -113.333 -18.333 -156 -55zM552 169
c42.667 36.667 67.667 85.334 75 146.001h-463c7.33301 -60.667 32.333 -109.334 75 -146.001s94.667 -55 156 -55c62 0 114.333 18.333 157 55z" />
    <glyph glyph-name="uni0473" unicode="&#x473;" horiz-adv-x="563" 
d="M413.5 445.5c39 -21 69.5 -50.167 91.5 -87.5s33 -79.666 33 -126.999s-11 -89.666 -33 -126.999s-52.5 -66.5 -91.5 -87.5s-82.833 -31.5 -131.5 -31.5s-92.5 10.5 -131.5 31.5s-69.5 50.167 -91.5 87.5s-33 79.666 -33 126.999s11 89.666 33 126.999
s52.5 66.5 91.5 87.5s82.833 31.5 131.5 31.5s92.5 -10.5 131.5 -31.5zM193 339c-24 -19.333 -39 -45.333 -45 -78h268c-6 32.667 -21.167 58.667 -45.5 78s-53.833 29 -88.5 29c-35.333 0 -65 -9.66699 -89 -29zM370.5 123c24.333 19.333 39.5 45.333 45.5 78h-268
c6 -32.667 21 -58.667 45 -78s53.667 -29 89 -29c34.667 0 64.167 9.66699 88.5 29z" />
    <glyph glyph-name="uni0474" unicode="&#x474;" horiz-adv-x="691" 
d="M387 0l-128.999 -0.000976562l-255 700h150l168 -522h2l132 399c16 48 36.833 82.667 62.5 104s64.167 32 115.5 32c8.66699 0 27 -1.33301 55 -4v-118c-10 1.33301 -23 2 -39 2c-16.667 0 -30.334 -4.16699 -41.001 -12.5s-19.667 -23.166 -27 -44.499z" />
    <glyph glyph-name="uni0475" unicode="&#x475;" horiz-adv-x="506" 
d="M501 471v-116h-8c-14 0 -25.333 -3.5 -34 -10.5s-15.667 -17.833 -21 -32.5l-125 -312h-120l-188 462h137l111 -321l81 233c12 36 30.167 61.167 54.5 75.5s58.5 21.5 102.5 21.5h10z" />
    <glyph glyph-name="uni048A" unicode="&#x48a;" horiz-adv-x="734" 
d="M256.5 760c-25.667 24.667 -39.498 59 -41.498 103h84c0 -22.667 5.5 -40.334 16.5 -53.001s27.167 -19 48.5 -19s37.666 6.33301 48.999 19s16.666 30.334 15.999 53.001h85c-2 -44 -16 -78.333 -42 -103s-62 -37 -108 -37s-81.833 12.333 -107.5 37zM729.002 79
l-94 -209h-101l53 130h-61v487h-1l-340 -487h-119v700h128v-488h1l340 488h119v-621h75z" />
    <glyph glyph-name="uni048B" unicode="&#x48b;" horiz-adv-x="568" 
d="M174.5 536.5c-27.667 27 -41.498 63.5 -41.498 109.5h81c1.33301 -21.333 7.66602 -38.666 18.999 -51.999s27.666 -20 48.999 -20s37.833 6.66699 49.5 20s18.167 30.666 19.5 51.999h81c0 -46 -14 -82.5 -42 -109.5s-64 -40.5 -108 -40.5s-79.833 13.5 -107.5 40.5z
M578.002 79l-94 -209h-101l53 130h-56v280h-2l-214 -280h-110v462h122v-280h2l214 280h111v-383h75z" />
    <glyph glyph-name="uni048E" unicode="&#x48e;" horiz-adv-x="557" 
d="M522.5 372.5c-15.667 -32.333 -38.833 -58.167 -69.5 -77.5l54 -77l-44 -31l-60 85c-29.333 -8.66699 -60.333 -13 -93 -13h-116v-259h-128v700h244c76 0 134.333 -20.167 175 -60.5s61 -92.833 61 -157.5c0 -40.667 -7.83301 -77.167 -23.5 -109.5zM327.001 379.999
l-51.999 74l44 31l58 -83c21.333 18 32 44.333 32 79c0 33.333 -10 58.5 -30 75.5s-47.667 25.5 -83 25.5h-102v-205h102c11.333 0 21.666 1 30.999 3z" />
    <glyph glyph-name="uni048F" unicode="&#x48f;" horiz-adv-x="580" 
d="M531.5 114c-15 -34 -35.833 -61.667 -62.5 -83l51 -63l-38 -32l-56 69c-30 -13.333 -61.333 -20 -94 -20c-36 0 -66.833 7 -92.5 21s-46.167 33.667 -61.5 59h-2v-265h-122v662h122v-65h2c15.333 25.333 35.833 45 61.5 59s56.5 21 92.5 21c40.667 0 78 -9.66699 112 -29
s60.833 -47.5 80.5 -84.5s29.5 -81.167 29.5 -132.5c0 -44 -7.5 -83 -22.5 -117zM342 107l-49.001 60l38 32l55 -67c26.667 24.667 40 57.667 40 99c0 38.667 -11.5 70 -34.5 94s-53.167 36 -90.5 36s-67.5 -12 -90.5 -36s-34.5 -55.333 -34.5 -94s11.5 -70 34.5 -94
s53.167 -36 90.5 -36c14.667 0 28.334 2 41.001 6z" />
    <glyph glyph-name="uni0490" unicode="&#x490;" horiz-adv-x="503" 
d="M495 840v-261h-301v-579h-128v700h301v140h128z" />
    <glyph glyph-name="uni0491" unicode="&#x491;" horiz-adv-x="398" 
d="M393 557v-205h-217v-352h-122v462h230v95h109z" />
    <glyph glyph-name="uni0492" unicode="&#x492;" horiz-adv-x="508" 
d="M218 580v-181h193v-112h-193v-287h-128v287h-82v112h82v301h410v-120h-282z" />
    <glyph glyph-name="uni0493" unicode="&#x493;" horiz-adv-x="410" 
d="M212 349v-87h136v-100h-136v-162h-122v162h-77v100h77v200h315v-113h-193z" />
    <glyph glyph-name="uni0494" unicode="&#x494;" horiz-adv-x="609" 
d="M541 360.5c33.333 -29 49.999 -74.499 49.999 -136.499v-228c0 -64.667 -16.667 -113.5 -50 -146.5s-80.666 -49.5 -141.999 -49.5h-73v120h61c24.667 0 43.5 6.66699 56.5 20s19.5 36.666 19.5 69.999v202c0 24.667 -7.83301 42.667 -23.5 54s-41.167 17 -76.5 17
c-52 0 -108.333 -2.66699 -169 -8v-275h-128v700h410v-120h-282v-185c72 6 136.667 9 194 9c68.667 0 119.667 -14.5 153 -43.5z" />
    <glyph glyph-name="uni0495" unicode="&#x495;" horiz-adv-x="507" 
d="M438.5 215.5c28.333 -25.667 42.5 -65.5 42.5 -119.5v-111c0 -62 -15.333 -108.333 -46 -139s-75 -46 -133 -46h-60v113h49c22 0 38.667 5.83301 50 17.5s17 30.5 17 56.5v97c0 22 -5.66699 38.167 -17 48.5s-29.333 15.5 -54 15.5c-28 0 -65 -2.66699 -111 -8v-140h-122
v462h355v-113h-233v-103c46 5.33301 90.333 8 133 8c58 0 101.167 -12.833 129.5 -38.5z" />
    <glyph glyph-name="uni0496" unicode="&#x496;" horiz-adv-x="1059" 
d="M873 0l-283 352v-352h-123v352l-284 -352h-180l316 370l-266 330h171l243 -321v321h123v-321l241 321h173l-266 -330l316 -370h-181zM1054 -140h-119v229h119v-229z" />
    <glyph glyph-name="uni0497" unicode="&#x497;" horiz-adv-x="808" 
d="M628 0l-173 223v-223h-117v224l-173 -224h-160l207 251l-182 211h156l152 -195v195h117v-193l151 193h157l-182 -211l207 -251h-160zM691 67h105v-197h-105v197z" />
    <glyph glyph-name="uni0498" unicode="&#x498;" horiz-adv-x="588" 
d="M465 669.5c42 -30.333 63.001 -73.834 63.001 -130.501c0 -43.333 -12.833 -79.166 -38.5 -107.499s-62.834 -47.833 -111.501 -58.5v-2c54 -6.66699 96.833 -24.667 128.5 -54s47.5 -71.333 47.5 -126c0 -61.333 -22.333 -111 -67 -149s-114.334 -57 -209.001 -57
c-96.667 0 -183 21.667 -259 65l57 114c68.667 -38.667 136.334 -58 203.001 -58c46.667 0 82.667 8.33301 108 25s38 40.334 38 71.001c0 68.667 -64.667 103 -194 103h-67v118h67c53.333 0 94.333 8 123 24s43 39 43 69c0 25.333 -10.333 44.666 -31 57.999
s-50.667 20 -90 20c-62 0 -127 -17.333 -195 -52l-51 115c84 38.667 169 58 255 58c78 0 138 -15.167 180 -45.5zM312.001 -37.001c24.667 -5.33301 43.834 -13.001 57.501 -23.001s20.5 -24.667 20.5 -44c0 -16 -6.16699 -30.167 -18.5 -42.5s-27.833 -22.833 -46.5 -31.5
s-46.334 -20 -83.001 -34l-14 32c30.667 14 52 24.833 64 32.5s18 15.834 18 24.501c0 10 -4.5 17.333 -13.5 22s-24.833 9.66699 -47.5 15l44 119h46z" />
    <glyph glyph-name="uni0499" unicode="&#x499;" horiz-adv-x="452" 
d="M104.5 -4.5c-34.333 7 -64.5 16.834 -90.5 29.501l41 97c53.333 -23.333 105 -35 155 -35c62.667 0 94 17.333 94 52c0 36 -28 54 -84 54h-94v92h91c46.667 0 70 15.333 70 46c0 30 -26.333 45 -79 45c-39.333 0 -88.333 -9.33301 -147 -28l-33 98
c69.333 20.667 133 31 191 31c129.333 0 194 -41 194 -123c0 -28.667 -9 -52.334 -27 -71.001s-43.333 -30.334 -76 -35.001v-3c36 -3.33301 64.333 -15.166 85 -35.499s31 -47.5 31 -81.5c0 -46 -17.667 -81.333 -53 -106s-89.333 -37 -162 -37
c-36.667 0 -72.167 3.5 -106.5 10.5zM229 -36.999c24.667 -5.33301 43.834 -13.001 57.501 -23.001s20.5 -24.667 20.5 -44c0 -16 -6.16699 -30.167 -18.5 -42.5s-27.833 -22.833 -46.5 -31.5s-46.334 -20 -83.001 -34l-14 32c30.667 14 52 24.833 64 32.5
s18 15.834 18 24.501c0 10 -4.5 17.333 -13.5 22s-24.833 9.66699 -47.5 15l44 119h46z" />
    <glyph glyph-name="uni049A" unicode="&#x49a;" horiz-adv-x="688" 
d="M497 0l-303 343v-343h-128v700h128v-310l264 310h176l-297 -324l346 -376h-186zM682 -140h-119v229h119v-229z" />
    <glyph glyph-name="uni049B" unicode="&#x49b;" horiz-adv-x="529" 
d="M349 0l-173 221v-221h-122v462h122v-191l152 191h156l-189 -210l214 -252h-160zM412 67h105v-197h-105v197z" />
    <glyph glyph-name="uni049C" unicode="&#x49c;" horiz-adv-x="765" 
d="M329 314h-35v-126h-46v126h-54v-314h-128v700h128v-267h54v138h46v-138h43l194 267h170l-258 -324l320 -376h-184z" />
    <glyph glyph-name="uni049D" unicode="&#x49d;" horiz-adv-x="547" 
d="M250 204h-16v-106h-28v106h-30v-204h-122v462h122v-170h30v105h28v-105h16l125 170h152l-174 -210l189 -252h-155z" />
    <glyph glyph-name="uni049E" unicode="&#x49e;" horiz-adv-x="725" 
d="M537 0l-303 343v-343h-128v553h-98v84h98v63h128v-63h111v-84h-111v-163l264 310h176l-297 -324l346 -376h-186z" />
    <glyph glyph-name="uni049F" unicode="&#x49f;" horiz-adv-x="517" 
d="M352 0l-173 221v-221h-123v556h-65v73h65v71h123v-71h137v-73h-137v-285l152 191h156l-189 -210l214 -252h-160z" />
    <glyph glyph-name="uni04A0" unicode="&#x4a0;" horiz-adv-x="817" 
d="M629 0l-303 343v-343h-128v580h-190v120h318v-310l264 310h176l-297 -324l346 -376h-186z" />
    <glyph glyph-name="uni04A1" unicode="&#x4a1;" horiz-adv-x="617" 
d="M452 0l-173 221v-221h-122v349h-152v113h274v-191l152 191h156l-189 -210l214 -252h-160z" />
    <glyph glyph-name="uni04A2" unicode="&#x4a2;" horiz-adv-x="711" 
d="M654 700v-700h-128v307h-332v-307h-128v700h128v-271h332v271h128zM706 -140h-119v229h119v-229z" />
    <glyph glyph-name="uni04A3" unicode="&#x4a3;" horiz-adv-x="574" 
d="M502 462v-462h-123v184h-203v-184h-122v462h122v-166h203v166h123zM457 67h105v-197h-105v197z" />
    <glyph glyph-name="uni04A4" unicode="&#x4a4;" horiz-adv-x="924" 
d="M916 580h-282v-580h-128v307h-312v-307h-128v700h128v-271h312v271h410v-120z" />
    <glyph glyph-name="uni04A5" unicode="&#x4a5;" horiz-adv-x="680" 
d="M675 349h-189v-349h-122v184h-188v-184h-122v462h122v-166h188v166h311v-113z" />
    <glyph glyph-name="uni04A6" unicode="&#x4a6;" horiz-adv-x="1059" 
d="M991.5 392c33.667 -28.667 50.5 -74 50.5 -136v-65c0 -64 -16.833 -111.833 -50.5 -143.5s-82.5 -47.5 -146.5 -47.5h-70v118h56c28 0 48.833 6.16699 62.5 18.5s20.5 33.5 20.5 63.5v44c0 25.333 -8.16699 43.833 -24.5 55.5s-41.833 17.5 -76.5 17.5
c-50.667 0 -105.334 -2.66699 -164.001 -8v-309h-128v580h-327v-580h-128v700h583v-273c62.667 5.33301 125.667 8 189 8c68.667 0 119.834 -14.333 153.501 -43z" />
    <glyph glyph-name="uni04A7" unicode="&#x4a7;" horiz-adv-x="824" 
d="M756.5 254.5c28.333 -25.667 42.502 -65.833 42.502 -120.5v-147c0 -62.667 -14.333 -109.5 -43 -140.5s-70.334 -46.5 -125.001 -46.5h-59v113h48c18.667 0 32.667 6 42 18s14 31.333 14 58v133c0 22.667 -5.66699 39 -17 49s-29.333 15 -54 15
c-36.667 0 -74 -2.66699 -112 -8v-178h-123v349h-194v-349h-122v462h439v-178c51.333 6 95.666 9 132.999 9c58.667 0 102.167 -12.833 130.5 -38.5z" />
    <glyph glyph-name="uni04A8" unicode="&#x4a8;" horiz-adv-x="811" 
d="M651 -15c-52 0 -96.665 9.33203 -133.998 27.999c-35.333 -18.667 -80.333 -28 -135 -28c-70 0 -130.833 15.333 -182.5 46s-91.334 73.667 -119.001 129s-41.5 119 -41.5 191c0 76 15.5 141.333 46.5 196s75 96.334 132 125.001s123.833 43 200.5 43
c33.333 0 69 -4.33301 107 -13l-32 -118c-21.333 5.33301 -45.666 8 -72.999 8c-73.333 0 -131.833 -21.333 -175.5 -64s-65.5 -103.667 -65.5 -183c0 -49.333 8.66699 -93 26 -131s42.5 -67.833 75.5 -89.5s72.167 -32.5 117.5 -32.5h5c-25.333 26 -45 57 -59 93
s-21 75 -21 117c0 47.333 9 87.666 27 120.999s42.667 58.666 74 75.999s66.666 26 105.999 26c59.333 0 107 -19 143 -57s54 -89.667 54 -155c0 -44 -8 -85.167 -24 -123.5s-38.333 -71.166 -67 -98.499c4 -0.666992 10.333 -1 19 -1c20.667 0 39.5 2.33301 56.5 7
s34.833 11.334 53.5 20.001l38 -98c-52.667 -22.667 -103.334 -34 -152.001 -34zM470.502 197.499c13 -27.667 31.167 -50.167 54.5 -67.5c26 18.667 46 42.5 60 71.5s21 61.5 21 97.5c0 34 -6.5 59.833 -19.5 77.5s-31.833 26.5 -56.5 26.5
c-25.333 0 -44.833 -9.16699 -58.5 -27.5s-20.5 -45.833 -20.5 -82.5c0 -36 6.5 -67.833 19.5 -95.5z" />
    <glyph glyph-name="uni04A9" unicode="&#x4a9;" horiz-adv-x="585" 
d="M580 7c-33.333 -14.667 -66.334 -22 -99.001 -22c-38.667 0 -70.667 8.33301 -96 25c-25.333 -16.667 -60.666 -25 -105.999 -25c-78 0 -139.667 22 -185 66s-68 105 -68 183c0 81.333 24.667 142.166 74 182.499s115.333 60.5 198 60.5c34 0 66.667 -3 98 -9l-23 -101
c-20 4 -41.333 6 -64 6c-48 0 -86.333 -11.333 -115 -34s-43 -58.667 -43 -108c0 -40.667 9.83301 -74.5 29.5 -101.5s47.5 -43.833 83.5 -50.5c-22.667 29.333 -34 65.333 -34 108c0 48.667 15 85.834 45 111.501s68 38.5 114 38.5c45.333 0 81.5 -12 108.5 -36
s40.5 -59.333 40.5 -106c0 -48.667 -17.333 -91 -52 -127c22 2 44 8 66 18zM349.499 228.5c-9.66699 -11.667 -14.499 -28.5029 -14.499 -50.5029c0 -37.333 13.667 -66 41 -86c19.333 8.66699 34.666 20.834 45.999 36.501s17 33.834 17 54.501
c0 18.667 -4.5 33.834 -13.5 45.501s-21.5 17.5 -37.5 17.5s-28.833 -5.83301 -38.5 -17.5z" />
    <glyph glyph-name="uni04AA" unicode="&#x4aa;" horiz-adv-x="675" 
d="M211 30.5c-57.333 30.333 -102 72.998 -134 127.998s-48 118.833 -48 191.5s16 136.5 48 191.5s76.667 97.667 134 128s122.666 45.5 195.999 45.5c93.333 0 176.666 -25.667 249.999 -77l-74 -112c-55.333 38.667 -114.333 58 -177 58c-45.333 0 -86 -9.66699 -122 -29
s-64.167 -46.666 -84.5 -81.999s-30.5 -76.333 -30.5 -123s10.167 -87.667 30.5 -123s48.5 -62.666 84.5 -81.999s76.667 -29 122 -29c62.667 0 121.667 19.333 177 58l74 -112c-73.333 -51.333 -156.666 -77 -249.999 -77c-73.333 0 -138.666 15.167 -195.999 45.5z
M410 -37.002c24.667 -5.33301 43.834 -13.001 57.501 -23.001s20.5 -24.667 20.5 -44c0 -16 -6.16699 -30.167 -18.5 -42.5s-27.833 -22.833 -46.5 -31.5s-46.334 -20 -83.001 -34l-14 32c30.667 14 52 24.833 64 32.5s18 15.834 18 24.501c0 10 -4.5 17.333 -13.5 22
s-24.833 9.66699 -47.5 15l44 119h46z" />
    <glyph glyph-name="uni04AB" unicode="&#x4ab;" horiz-adv-x="457" 
d="M149 15.5c-38.667 20.333 -68.834 49.168 -90.501 86.501s-32.5 80.333 -32.5 129s10.833 91.667 32.5 129s51.834 66.166 90.501 86.499s82.667 30.5 132 30.5c58.667 0 112.667 -15.333 162 -46l-53 -101c-34 21.333 -69.667 32 -107 32
c-38 0 -69.333 -12.167 -94 -36.5s-37 -55.833 -37 -94.5s12.333 -70.167 37 -94.5s56 -36.5 94 -36.5c37.333 0 73 10.667 107 32l53 -101c-49.333 -30.667 -103.333 -46 -162 -46c-49.333 0 -93.333 10.167 -132 30.5zM281 -36.998
c24.667 -5.33301 43.834 -13.001 57.501 -23.001s20.5 -24.667 20.5 -44c0 -16 -6.16699 -30.167 -18.5 -42.5s-27.833 -22.833 -46.5 -31.5s-46.334 -20 -83.001 -34l-14 32c30.667 14 52 24.833 64 32.5s18 15.834 18 24.501c0 10 -4.5 17.333 -13.5 22
s-24.833 9.66699 -47.5 15l44 119h46z" />
    <glyph glyph-name="uni04AC" unicode="&#x4ac;" horiz-adv-x="526" 
d="M518 580h-191v-580h-128v580h-191v120h510v-120zM406 -140h-119v229h119v-229z" />
    <glyph glyph-name="uni04AD" unicode="&#x4ad;" horiz-adv-x="441" 
d="M436 351h-154v-351h-123v351h-154v111h431v-111zM237 67h105v-197h-105v197z" />
    <glyph glyph-name="uni04AE" unicode="&#x4ae;" horiz-adv-x="597" 
d="M363 269v-269h-129v267l-234 433h151l146 -301h3l146 301h151z" />
    <glyph glyph-name="uni04AF" unicode="&#x4af;" horiz-adv-x="506" 
d="M315 5v-205h-123v202l-187 460h137l112 -320l111 320h136z" />
    <glyph glyph-name="uni04B0" unicode="&#x4b0;" horiz-adv-x="597" 
d="M371 284h120v-101h-128v-183h-129v183h-128v100h119l-225 417h151l146 -301h3l146 301h151z" />
    <glyph glyph-name="uni04B1" unicode="&#x4b1;" horiz-adv-x="506" 
d="M315 5h119v-94h-119v-111h-123v111h-120v94h119l-186 457h137l112 -320l111 320h136z" />
    <glyph glyph-name="uni04B2" unicode="&#x4b2;" horiz-adv-x="700" 
d="M504 0l-170 267l-170 -267h-158l247 371l-220 329h159l142 -224l143 224h158l-220 -329l247 -371h-158zM696 -140h-119v229h119v-229z" />
    <glyph glyph-name="uni04B3" unicode="&#x4b3;" horiz-adv-x="540" 
d="M263 156l-110 -156h-148l184 243l-162 219h149l87 -134l88 134h149l-162 -219l184 -243h-149zM436 67h105v-197h-105v197z" />
    <glyph glyph-name="uni04B4" unicode="&#x4b4;" horiz-adv-x="856" 
d="M837 120v-260h-120v140h-512v580h-197v120h493v-120h-168v-460h295v580h128v-580h81z" />
    <glyph glyph-name="uni04B5" unicode="&#x4b5;" horiz-adv-x="664" 
d="M651 113v-243h-113v130h-377v349h-156v113h397v-113h-119v-236h185v349h123v-349h60z" />
    <glyph glyph-name="uni04B6" unicode="&#x4b6;" horiz-adv-x="623" 
d="M539 700l-0.000976562 -700h-128v273h-192c-134 0 -201 66 -201 198v229h128v-221c0 -28.667 7.33301 -50 22 -64s37.334 -21 68.001 -21h175v306h128zM617.999 -140h-119v229h119v-229z" />
    <glyph glyph-name="uni04B7" unicode="&#x4b7;" horiz-adv-x="505" 
d="M428 462v-462h-122v163h-137c-104 0 -156 49.667 -156 149v150h123v-138c0 -18.667 4.33301 -32.167 13 -40.5s23 -12.5 43 -12.5h114v191h122zM387 67h105v-197h-105v197z" />
    <glyph glyph-name="uni04B8" unicode="&#x4b8;" horiz-adv-x="604" 
d="M539 700l-0.000976562 -700h-128v273h-95v-131h-54v131h-43c-134 0 -201 66 -201 198v229h128v-221c0 -28.667 7.33301 -50 22 -64s37.334 -21 68.001 -21h26v132h54v-132h95v306h128z" />
    </font>
</defs>
</svg>
