<svg xmlns="http://www.w3.org/2000/svg">
<defs>
<font id="GTEestiProDisplay-Bold" horiz-adv-x="600" >
  <font-face 
    font-family="GT Eesti Pro Display Bold"
    font-weight="700"
    font-stretch="normal"
    units-per-em="1000"
    panose-1="0 0 8 0 0 0 0 0 0 0"
    ascent="750"
    descent="-250"
    x-height="462"
    cap-height="700"
    bbox="-453 -252 1202 900.002"
    underline-thickness="50"
    underline-position="-50"
    unicode-range="U+0020-U+FB02"
  />
<missing-glyph horiz-adv-x="770" 
d="M197.5 32c-55.667 31.333 -99.167 74.833 -130.5 130.5s-47 118.167 -47 187.5c0 70 15.667 132.667 47 188s74.833 98.666 130.5 129.999s118.167 47 187.5 47c70 0 132.667 -15.667 188 -47s98.666 -74.666 129.999 -129.999s47 -118 47 -188
c0 -69.333 -15.667 -131.833 -47 -187.5s-74.666 -99.167 -129.999 -130.5s-118 -47 -188 -47c-69.333 0 -131.833 15.667 -187.5 47zM560 54.5c52 29.667 92.833 70.834 122.5 123.501s44.5 111.667 44.5 177l-51 65l-70 -30l-68 90l-79 -44l-74 118l-74 -118l-79 44
l-68 -90l-70 30l-51 -65c0 -65.333 14.833 -124.333 44.5 -177s70.5 -93.834 122.5 -123.501s110.333 -44.5 175 -44.5s123 14.833 175 44.5zM257 328c-6.66699 6.66699 -10 15 -10 25s3.33301 18.333 10 25s15 10 25 10s18.333 -3.33301 25 -10s10 -15 10 -25
s-3.33301 -18.333 -10 -25s-15 -10 -25 -10s-18.333 3.33301 -25 10zM462 328c-6.66699 6.66699 -10 15 -10 25s3.33301 18.333 10 25s15 10 25 10s18.333 -3.33301 25 -10s10 -15 10 -25s-3.33301 -18.333 -10 -25s-15 -10 -25 -10s-18.333 3.33301 -25 10zM379 356
c0.666992 2.66699 2 4.50098 4 5.50098s4.33301 0.833008 7 -0.5c2 -0.666992 3.5 -2 4.5 -4s1.16699 -4.33301 0.5 -7l-28 -78h34c2.66699 0 4.83398 -0.833008 6.50098 -2.5s2.5 -3.83398 2.5 -6.50098c0 -2 -0.833008 -3.83301 -2.5 -5.5s-3.83398 -2.5 -6.50098 -2.5
h-58zM138.5 190.501c-13 13 -19.5 29.5 -19.5 49.5s6.5 36.5 19.5 49.5s29.5 19.5 49.5 19.5s36.5 -6.5 49.5 -19.5s19.5 -29.5 19.5 -49.5s-6.5 -36.5 -19.5 -49.5s-29.5 -19.5 -49.5 -19.5s-36.5 6.5 -49.5 19.5zM531.5 190.501c-13 13 -19.5 29.5 -19.5 49.5

<glyph glyph-name="fi" unicode="fi" horiz-adv-x="599" 
d="M262.5 552c-13 -12 -19.499 -34.667 -19.499 -68v-22h98v-126h-98v-336h-151v336h-81v126h81v27c0 76 18.167 131.833 54.5 167.5s92.166 53.5 167.499 53.5h31v-140h-13c-33.333 0 -56.5 -6 -69.5 -18zM402.001 462h151v-462h-151v462zM558.001 547h-162v152h162v-152z
" />
    <glyph glyph-name="fl" unicode="fl" horiz-adv-x="599" 
d="M262.5 552c-13 -12 -19.499 -34.667 -19.499 -68v-22h98v-126h-98v-336h-151v336h-81v126h81v27c0 76 18.167 131.833 54.5 167.5s92.166 53.5 167.499 53.5h31v-140h-13c-33.333 0 -56.5 -6 -69.5 -18zM553.001 0h-151v700h151v-700z" />
    <glyph glyph-name="f_f" unicode="ff" horiz-adv-x="715" 
d="M262.5 552c-13 -12 -19.499 -34.667 -19.499 -68v-22h98v-126h-98v-336h-151v336h-81v126h81v27c0 76 18.167 131.833 54.5 167.5s92.166 53.5 167.499 53.5h31v-140h-13c-33.333 0 -56.5 -6 -69.5 -18zM622.501 552c-13 -12 -19.499 -34.667 -19.499 -68v-22h98v-126
h-98v-336h-151v336h-81v126h81v27c0 76 18.167 131.833 54.5 167.5s92.166 53.5 167.499 53.5h31v-140h-13c-33.333 0 -56.5 -6 -69.5 -18z" />
    <glyph glyph-name="f_f_i" unicode="ffi" horiz-adv-x="959" 
d="M262.5 552c-13 -12 -19.499 -34.667 -19.499 -68v-22h98v-126h-98v-336h-151v336h-81v126h81v27c0 76 18.167 131.833 54.5 167.5s92.166 53.5 167.499 53.5h31v-140h-13c-33.333 0 -56.5 -6 -69.5 -18zM622.501 552c-13 -12 -19.499 -34.667 -19.499 -68v-22h98v-126
h-98v-336h-151v336h-81v126h81v27c0 76 18.167 131.833 54.5 167.5s92.166 53.5 167.499 53.5h31v-140h-13c-33.333 0 -56.5 -6 -69.5 -18zM762.002 462h151v-462h-151v462zM918.002 547h-162v152h162v-152z" />
    <glyph glyph-name="f_f_l" unicode="ffl" horiz-adv-x="959" 
d="M262.5 552c-13 -12 -19.499 -34.667 -19.499 -68v-22h98v-126h-98v-336h-151v336h-81v126h81v27c0 76 18.167 131.833 54.5 167.5s92.166 53.5 167.499 53.5h31v-140h-13c-33.333 0 -56.5 -6 -69.5 -18zM622.501 552c-13 -12 -19.499 -34.667 -19.499 -68v-22h98v-126
h-98v-336h-151v336h-81v126h81v27c0 76 18.167 131.833 54.5 167.5s92.166 53.5 167.499 53.5h31v-140h-13c-33.333 0 -56.5 -6 -69.5 -18zM913.002 0h-151v700h151v-700z" />
    <glyph glyph-name=".notdef" horiz-adv-x="770" 
d="M197.5 32c-55.667 31.333 -99.167 74.833 -130.5 130.5s-47 118.167 -47 187.5c0 70 15.667 132.667 47 188s74.833 98.666 130.5 129.999s118.167 47 187.5 47c70 0 132.667 -15.667 188 -47s98.666 -74.666 129.999 -129.999s47 -118 47 -188
c0 -69.333 -15.667 -131.833 -47 -187.5s-74.666 -99.167 -129.999 -130.5s-118 -47 -188 -47c-69.333 0 -131.833 15.667 -187.5 47zM560 54.5c52 29.667 92.833 70.834 122.5 123.501s44.5 111.667 44.5 177l-51 65l-70 -30l-68 90l-79 -44l-74 118l-74 -118l-79 44
l-68 -90l-70 30l-51 -65c0 -65.333 14.833 -124.333 44.5 -177s70.5 -93.834 122.5 -123.501s110.333 -44.5 175 -44.5s123 14.833 175 44.5zM257 328c-6.66699 6.66699 -10 15 -10 25s3.33301 18.333 10 25s15 10 25 10s18.333 -3.33301 25 -10s10 -15 10 -25
s-3.33301 -18.333 -10 -25s-15 -10 -25 -10s-18.333 3.33301 -25 10zM462 328c-6.66699 6.66699 -10 15 -10 25s3.33301 18.333 10 25s15 10 25 10s18.333 -3.33301 25 -10s10 -15 10 -25s-3.33301 -18.333 -10 -25s-15 -10 -25 -10s-18.333 3.33301 -25 10zM379 356
c0.666992 2.66699 2 4.50098 4 5.50098s4.33301 0.833008 7 -0.5c2 -0.666992 3.5 -2 4.5 -4s1.16699 -4.33301 0.5 -7l-28 -78h34c2.66699 0 4.83398 -0.833008 6.50098 -2.5s2.5 -3.83398 2.5 -6.50098c0 -2 -0.833008 -3.83301 -2.5 -5.5s-3.83398 -2.5 -6.50098 -2.5
h-58zM138.5 190.501c-13 13 -19.5 29.5 -19.5 49.5s6.5 36.5 19.5 49.5s29.5 19.5 49.5 19.5s36.5 -6.5 49.5 -19.5s19.5 -29.5 19.5 -49.5s-6.5 -36.5 -19.5 -49.5s-29.5 -19.5 -49.5 -19.5s-36.5 6.5 -49.5 19.5zM531.5 190.501c-13 13 -19.5 29.5 -19.5 49.5
s6.5 36.5 19.5 49.5s29.5 19.5 49.5 19.5s36.5 -6.5 49.5 -19.5s19.5 -29.5 19.5 -49.5s-6.5 -36.5 -19.5 -49.5s-29.5 -19.5 -49.5 -19.5s-36.5 6.5 -49.5 19.5zM346.5 185.001c-11 -5.33301 -18.833 -12.666 -23.5 -21.999c-2 -4 -5 -6 -9 -6c-5.33301 0 -8 3 -8 9
c0 11.333 8.16699 21.666 24.5 30.999s34.5 14 54.5 14s38.167 -4.66699 54.5 -14s24.5 -19.666 24.5 -30.999c0 -6 -2.66699 -9 -8 -9c-4 0 -7 2 -9 6c-4.66699 9.33301 -12.5 16.666 -23.5 21.999s-23.833 8 -38.5 8s-27.5 -2.66699 -38.5 -8z" />
    <glyph glyph-name="space" unicode=" " horiz-adv-x="263" 
 />
    <glyph glyph-name="exclam" unicode="!" horiz-adv-x="327" 
d="M77 700h173l-32 -471h-108zM244 0h-160v161h160v-161z" />
    <glyph glyph-name="quotedbl" unicode="&#x22;" horiz-adv-x="354" 
d="M50 715h111l-23 -253h-65zM193 715h111l-23 -253h-65z" />
    <glyph glyph-name="numbersign" unicode="#" horiz-adv-x="644" 
d="M476 441l-30 -164h107v-68h-119l-38 -209h-73l38 209h-131l-38 -209h-73l38 209h-107v68h119l30 164h-108v68h120l35 191h73l-35 -191h131l35 191h73l-35 -191h106v-68h-118zM403 441h-131l-30 -164h131z" />
    <glyph glyph-name="dollar" unicode="$" horiz-adv-x="561" 
d="M469.5 45.5c-41 -37 -96.8359 -57.167 -167.503 -60.5v-62h-28v62c-50.667 1.33301 -94.334 11.833 -131.001 31.5s-64.667 46.5 -84 80.5s-29 73 -29 117h155c2.66699 -30 11.334 -52.5 26.001 -67.5s35.667 -23.5 63 -25.5v158
c-47.333 18.667 -84.166 35.167 -110.499 49.5s-49.833 35.833 -70.5 64.5s-31 65.667 -31 111c0 57.333 19.333 102.166 58 134.499s90 49.5 154 51.5v72h28v-72c66.667 -3.33301 119.834 -23.333 159.501 -60s59.5 -89.667 59.5 -159h-154
c-0.666992 26 -6.5 45.333 -17.5 58s-26.833 20.334 -47.5 23.001v-127c8 -3.33301 15.333 -6 22 -8c42.667 -16 77.834 -31.667 105.501 -47s51.5 -37.333 71.5 -66s30 -65 30 -109c0 -62.667 -20.5 -112.5 -61.5 -149.5zM226.997 465c10.667 -10 26.333 -19.667 47 -29
v117c-42 -2.66699 -63 -20 -63 -52c0 -14 5.33301 -26 16 -36zM361.496 140c13 11.333 19.5 25.999 19.5 43.999c0 18.667 -6.66699 34.334 -20 47.001s-33 24.667 -59 36v-147c26.667 2 46.5 8.66699 59.5 20z" />
    <glyph glyph-name="percent" unicode="%" horiz-adv-x="793" 
d="M333 645c30.667 -30 46 -70 46 -120c0 -49.333 -15.333 -89 -46 -119s-70 -45 -118 -45s-87.5 15 -118.5 45s-46.5 69.667 -46.5 119c0 50 15.5 90 46.5 120s70.5 45 118.5 45s87.333 -15 118 -45zM553 675h78l-396 -675h-78zM150 593.5
c-16.667 -17 -24.999 -39.833 -24.999 -68.5c0 -28 8.5 -50.667 25.5 -68s38.5 -26 64.5 -26s47.333 8.66699 64 26s25 40 25 68c0 28.667 -8.33301 51.5 -25 68.5s-38 25.5 -64 25.5c-26.667 0 -48.334 -8.5 -65.001 -25.5zM697.001 279c30.667 -30 46 -69.667 46 -119
c0 -50 -15.333 -90 -46 -120s-70 -45 -118 -45s-87.5 15 -118.5 45s-46.5 70 -46.5 120c0 49.333 15.5 89 46.5 119s70.5 45 118.5 45s87.333 -15 118 -45zM515.001 228c-16.667 -17.333 -25 -40 -25 -68c0 -28.667 8.33301 -51.5 25 -68.5s38 -25.5 64 -25.5
s47.333 8.5 64 25.5s25 39.833 25 68.5c0 28 -8.33301 50.667 -25 68s-38 26 -64 26s-47.333 -8.66699 -64 -26z" />
    <glyph glyph-name="ampersand" unicode="&#x26;" horiz-adv-x="729" 
d="M591 140l104.001 -139.998h-178l-30 41c-54.667 -37.333 -116.667 -56 -186 -56c-78.667 0 -142.5 20.667 -191.5 62s-73.5 101.666 -73.5 180.999c0 51.333 13.333 96.166 40 134.499s64.667 64.833 114 79.5c-18 33.333 -27 67 -27 101c0 46 15.5 82 46.5 108
s76.5 39 136.5 39c50.667 0 106.334 -9.66699 167.001 -29l-39 -131c-48.667 15.333 -84.334 23 -107.001 23c-28.667 0 -43 -11.333 -43 -34c0 -12.667 7 -28.667 21 -48l155 -208c21.333 30 46.666 70.333 75.999 121l127 -75c-42 -72 -79.333 -128.333 -112 -169z
M396.001 162.002l-125 167.001c-24.667 -6 -44.334 -17.5 -59.001 -34.5s-22 -37.5 -22 -61.5c0 -30.667 9.83301 -54.834 29.5 -72.501s45.834 -26.5 78.501 -26.5c34 0 66.667 9.33301 98 28z" />
    <glyph glyph-name="quotesingle" unicode="'" horiz-adv-x="221" 
d="M148 462h-75l-23 253h121z" />
    <glyph glyph-name="parenleft" unicode="(" horiz-adv-x="334" 
d="M309 723c-40.667 -62.667 -73 -126.502 -97 -191.502s-36 -140.5 -36 -226.5c0 -90.667 12.5 -173.167 37.5 -247.5s56.833 -143.833 95.5 -208.5l-107 -64c-48 82 -85.5 162.833 -112.5 242.5s-40.5 172.167 -40.5 277.5c0 70 6.83301 133.333 20.5 190
s31.167 106.834 52.5 150.501s48.333 90.834 81 141.501z" />
    <glyph glyph-name="parenright" unicode=")" horiz-adv-x="334" 
d="M24 -151c38.667 64 70.5 133.331 95.5 207.998s37.5 157.334 37.5 248.001c0 86.667 -12 162.5 -36 227.5s-56.333 128.5 -97 190.5l107 64c32.667 -51.333 59.5 -98.666 80.5 -141.999s38.333 -93.333 52 -150s20.5 -120 20.5 -190
c0 -105.333 -13.5 -197.833 -40.5 -277.5s-64.5 -160.5 -112.5 -242.5z" />
    <glyph glyph-name="asterisk" unicode="*" horiz-adv-x="435" 
d="M282 514l83 -94l-83 -61l-64 109l-65 -110l-83 62l83 94l-123 28l32 97l116 -50l-12 126h103l-12 -126l116 50l32 -97z" />
    <glyph glyph-name="plus" unicode="+" 
d="M334 329h211v-63h-211v-212h-68v212h-211v63h211v212h68v-212z" />
    <glyph glyph-name="comma" unicode="," horiz-adv-x="243" 
d="M201 0l-91 -164h-64l57 164h-62v161h160v-161z" />
    <glyph glyph-name="hyphen" unicode="-" horiz-adv-x="366" 
d="M326 198h-286v135h286v-135z" />
    <glyph glyph-name="period" unicode="." horiz-adv-x="243" 
d="M201 0h-160v161h160v-161z" />
    <glyph glyph-name="slash" unicode="/" horiz-adv-x="638" 
d="M608 734l-472 -859l-106 58l472 858z" />
    <glyph glyph-name="zero" unicode="0" horiz-adv-x="621" 
d="M516.5 598.5c48.333 -61 72.5039 -147.833 72.5039 -260.5s-24.333 -199.667 -73 -261s-117.334 -92 -206.001 -92s-157.334 30.667 -206.001 92s-73 148.333 -73 261s24.167 199.5 72.5 260.5s117.166 91.5 206.499 91.5s158.166 -30.5 206.499 -91.5zM220.004 492.5
c-21.333 -36.333 -32.002 -87.833 -32.002 -154.5s10.667 -118.334 32 -155.001s51.333 -55 90 -55s68.834 18.333 90.501 55s32.5 88.334 32.5 155.001s-10.667 118.167 -32 154.5s-51.666 54.5 -90.999 54.5c-38.667 0 -68.667 -18.167 -90 -54.5z" />
    <glyph glyph-name="one" unicode="1" horiz-adv-x="339" 
d="M239 0h-153v530h-38v145h191v-675z" />
    <glyph glyph-name="two" unicode="2" horiz-adv-x="534" 
d="M37 119l226.999 225c30.667 30.667 52.334 56.167 65.001 76.5s19 40.166 19 59.499c0 22.667 -6.66699 40.167 -20 52.5s-32.333 18.5 -57 18.5c-28.667 0 -50.5 -7.5 -65.5 -22.5s-22.5 -37.167 -22.5 -66.5h-153c0 72 21.5 128 64.5 168s103.167 60 180.5 60
c72 0 128.333 -17.667 169 -53s61 -84 61 -146c0 -38.667 -9.16699 -74.667 -27.5 -108s-49.5 -70.666 -93.5 -111.999l-146 -139l269 2v-134h-470v119z" />
    <glyph glyph-name="three" unicode="3" horiz-adv-x="544" 
d="M436.5 644c40.333 -30.667 60.4971 -74.6689 60.4971 -132.002c0 -39.333 -10.5 -72.166 -31.5 -98.499s-50.5 -43.833 -88.5 -52.5v-2c45.333 -7.33301 80.166 -25.166 104.499 -53.499s36.5 -65.833 36.5 -112.5c0 -65.333 -22 -116.333 -66 -153
s-105.333 -55 -184 -55c-82.667 0 -146 19 -190 57s-66 92.667 -66 164h158c2 -26.667 11.333 -47 28 -61s40.334 -21 71.001 -21c61.333 0 92 28.333 92 85c0 30 -10.167 51 -30.5 63s-55.166 18 -104.499 18h-23v114h23c37.333 0 64.5 6.33301 81.5 19
s25.5 32.667 25.5 60c0 22 -6.5 38.833 -19.5 50.5s-31.5 17.5 -55.5 17.5c-24.667 0 -44 -6 -58 -18s-21.333 -28.333 -22 -49h-155c0.666992 65.333 21.834 116 63.501 152s100.834 54 177.501 54c74.667 0 132.167 -15.333 172.5 -46z" />
    <glyph glyph-name="four" unicode="4" horiz-adv-x="581" 
d="M551 113h-61v-113h-142v113h-333v115l318 447h157v-431h61v-131zM348 244v247h-4l-175 -247h179z" />
    <glyph glyph-name="five" unicode="5" horiz-adv-x="547" 
d="M418 419.5c33.333 -18.333 58.999 -44.168 76.999 -77.501s27 -72 27 -116c0 -74.667 -23.833 -133.5 -71.5 -176.5s-113.167 -64.5 -196.5 -64.5c-92.667 0 -172 28.333 -238 85l89 121c44.667 -44.667 94 -67 148 -67c34.667 0 61.834 9.5 81.501 28.5
s29.5 45.167 29.5 78.5c0 30.667 -8.5 54.834 -25.5 72.501s-40.833 26.5 -71.5 26.5c-38.667 0 -68.667 -16.667 -90 -50h-119l35 395h362v-134h-255l-13 -127h3c28 22 65.333 33 112 33c44 0 82.667 -9.16699 116 -27.5z" />
    <glyph glyph-name="six" unicode="6" horiz-adv-x="572" 
d="M148 16.5c-40.667 21 -72 51.166 -94 90.499s-33 85.333 -33 138c0 46 9.66699 91.5 29 136.5s49 91.167 89 138.5l132 159h182l-236 -268l3 -2c19.333 17.333 37.5 29.5 54.5 36.5s37.167 10.5 60.5 10.5c42.667 0 80.5 -9.5 113.5 -28.5s58.5 -45.5 76.5 -79.5
s27 -73.333 27 -118c0 -47.333 -11 -89.666 -33 -126.999s-52.667 -66.333 -92 -87s-84.333 -31 -135 -31c-55.333 0 -103.333 10.5 -144 31.5zM365.5 152.999c20.333 19.333 30.5 44.333 30.5 75c0 31.333 -10 56.5 -30 75.5s-46.333 28.5 -79 28.5s-59 -9.66699 -79 -29
s-30 -44.333 -30 -75s10.167 -55.667 30.5 -75s46.5 -29 78.5 -29s58.167 9.66699 78.5 29z" />
    <glyph glyph-name="seven" unicode="7" horiz-adv-x="489" 
d="M473 540l-263 -540h-160l265 534h-291v141h449v-135z" />
    <glyph glyph-name="eight" unicode="8" horiz-adv-x="586" 
d="M103 37.5c-45.333 35 -68.001 83.833 -68.001 146.5c0 44 11.667 81.333 35 112s54.666 50.667 93.999 60v3c-34 9.33301 -60.667 27.333 -80 54s-29 58.334 -29 95.001c0 56.667 21.333 101.167 64 133.5s100.667 48.5 174 48.5c74 0 132.333 -16.167 175 -48.5
s64 -76.833 64 -133.5c0 -36.667 -9.83301 -68.334 -29.5 -95.001s-46.5 -44.667 -80.5 -54v-3c40 -8.66699 71.5 -28.5 94.5 -59.5s34.5 -68.5 34.5 -112.5c0 -62.667 -22.667 -111.5 -68 -146.5s-108.666 -52.5 -189.999 -52.5s-144.666 17.5 -189.999 52.5zM349.499 438
c14.333 13.333 21.5 30.333 21.5 51c0 21.333 -7.16699 38.666 -21.5 51.999s-33.166 20 -56.499 20s-42.166 -6.66699 -56.499 -20s-21.5 -30.666 -21.5 -51.999c0 -20.667 7.16699 -37.667 21.5 -51s33.166 -20 56.499 -20s42.166 6.66699 56.499 20zM362.499 145.5
c17.667 17 26.498 39.167 26.498 66.5s-9 49.666 -27 66.999s-41 26 -69 26s-51 -8.66699 -69 -26s-27 -39.666 -27 -66.999s8.83301 -49.5 26.5 -66.5s40.834 -25.5 69.501 -25.5s51.834 8.5 69.501 25.5z" />
    <glyph glyph-name="nine" unicode="9" horiz-adv-x="556" 
d="M335 251l-2 1.99805c-36.667 -23.333 -73 -35 -109 -35c-38.667 0 -74.334 10.333 -107.001 31s-58.5 48.667 -77.5 84s-28.5 74 -28.5 116c0 46.667 11.167 88.334 33.5 125.001s53.5 65.167 93.5 85.5s85.667 30.5 137 30.5c54 0 100.833 -10.5 140.5 -31.5
s70.334 -50.833 92.001 -89.5s32.5 -84 32.5 -136c0 -51.333 -11.5 -101.666 -34.5 -150.999s-59.167 -101.333 -108.5 -156l-114 -126h-183zM354.5 369.998c20.333 19.333 30.5 44.333 30.5 75s-10.333 55.834 -31 75.501s-46.667 29.5 -78 29.5
s-57.166 -9.83301 -77.499 -29.5s-30.5 -44.834 -30.5 -75.501s10.167 -55.667 30.5 -75s46.166 -29 77.499 -29c32 0 58.167 9.66699 78.5 29z" />
    <glyph glyph-name="colon" unicode=":" horiz-adv-x="243" 
d="M201 0h-160v161h160v-161zM201 301h-160v161h160v-161z" />
    <glyph glyph-name="semicolon" unicode=";" horiz-adv-x="243" 
d="M201 0l-91 -164h-64l57 164h-62v161h160v-161zM201 301h-160v161h160v-161z" />
    <glyph glyph-name="less" unicode="&#x3c;" 
d="M534 467l-391 -168l391 -167v-76l-468 208v71l468 208v-76z" />
    <glyph glyph-name="equal" unicode="=" 
d="M553 374h-506v66h506v-66zM553 161h-506v66h506v-66z" />
    <glyph glyph-name="greater" unicode="&#x3e;" 
d="M534 335v-71l-468 -208v76l391 167l-391 168v76z" />
    <glyph glyph-name="question" unicode="?" horiz-adv-x="491" 
d="M402.5 661.5c35 -35.667 52.499 -80.8359 52.499 -135.503c0 -31.333 -6 -58.166 -18 -80.499s-28.667 -45.166 -50 -68.499c-19.333 -19.333 -33.5 -34.166 -42.5 -44.499s-17 -23.166 -24 -38.499s-10.5 -32.333 -10.5 -51v-14h-149v29c0 38 7.5 69.667 22.5 95
s36.167 51.666 63.5 78.999c20.667 20 35.334 35.667 44.001 47s13 23.666 13 36.999c0 18 -5 31.833 -15 41.5s-25 14.5 -45 14.5c-23.333 0 -41.333 -6.66699 -54 -20s-19 -30.666 -19 -51.999h-146c0 66.667 19.167 119.167 57.5 157.5s93.833 57.5 166.5 57.5
c67.333 0 118.5 -17.833 153.5 -53.5zM314.999 -0.00195312h-160v161h160v-161z" />
    <glyph glyph-name="at" unicode="@" horiz-adv-x="934" 
d="M696 643c62.667 -31.333 111.168 -75.666 145.501 -132.999s51.5 -124 51.5 -200c0 -46.667 -6.83301 -90 -20.5 -130s-34.834 -72.333 -63.501 -97s-64.667 -37 -108 -37c-31.333 0 -57.666 7.5 -78.999 22.5s-37 34.833 -47 59.5h-2
c-30.667 -51.333 -76.667 -77 -138 -77c-35.333 0 -67.5 8.33301 -96.5 25s-52.167 41.334 -69.5 74.001s-26 72 -26 118s8.66699 85.5 26 118.5s40.666 58 69.999 75s61.666 25.5 96.999 25.5c56 0 98.333 -23.333 127 -70h2v55h115v-278c0 -17.333 3.5 -30 10.5 -38
s15.833 -12 26.5 -12c12 0 23.667 5.33301 35 16s20.666 27.167 27.999 49.5s11 50.166 11 83.499c0 68 -13.833 124.667 -41.5 170s-64.667 78.666 -111 99.999s-98.833 32 -157.5 32c-65.333 0 -123.5 -12.5 -174.5 -37.5s-91.167 -62.333 -120.5 -112
s-44 -110.5 -44 -182.5c0 -70 15.667 -128.833 47 -176.5s72.666 -83.167 123.999 -106.5s107.333 -35 168 -35c55.333 0 112 10.667 170 32l33 -90c-68.667 -24.667 -137 -37 -205 -37c-74 0 -144.5 15 -211.5 45s-121.5 76 -163.5 138s-63 138.333 -63 229
c0 88.667 18.333 165.167 55 229.5s87.834 113.5 153.501 147.5s141.834 51 228.501 51c82.667 0 155.334 -15.667 218.001 -47zM402.501 338.5c-17.667 -17.667 -26.5 -40.834 -26.5 -69.501s8.83301 -51.834 26.5 -69.501s39.834 -26.5 66.501 -26.5
s48.834 8.83301 66.501 26.5s26.5 40.834 26.5 69.501s-8.83301 51.834 -26.5 69.501s-39.834 26.5 -66.501 26.5s-48.834 -8.83301 -66.501 -26.5z" />
    <glyph glyph-name="A" unicode="A" horiz-adv-x="716" 
d="M493 142h-269l-50 -142h-174l276 700h164l276 -700h-173zM445 280l-87 248l-86 -248h173z" />
    <glyph glyph-name="B" unicode="B" horiz-adv-x="625" 
d="M599 197c0 -67.333 -22.332 -117 -66.999 -149s-101.667 -48 -171 -48h-300v700h290c65.333 0 117.666 -14.5 156.999 -43.5s59 -72.5 59 -130.5c0 -79.333 -37 -131 -111 -155v-2c95.333 -16 143 -73.333 143 -172zM216.001 559l-0.000976562 -137h116
c24 0 43.167 6.16699 57.5 18.5s21.5 29.5 21.5 51.5c0 20.667 -7.16699 37 -21.5 49s-33.166 18 -56.499 18h-117zM411 160.5c18 13 27 31.833 27 56.5c0 25.333 -8.83301 44.333 -26.5 57s-42.5 19 -74.5 19h-121v-152h122c30.667 0 55 6.5 73 19.5z" />
    <glyph glyph-name="C" unicode="C" horiz-adv-x="667" 
d="M207.5 30c-58.333 30 -104 72.667 -137 128s-49.5 119.333 -49.5 192s16.5 136.667 49.5 192s78.667 98 137 128s124.166 45 197.499 45c93.333 0 177 -26 251 -78l-84 -136c-54 36 -109.667 54 -167 54c-40.667 0 -77.167 -8.33301 -109.5 -25
s-57.666 -40.5 -75.999 -71.5s-27.5 -67.167 -27.5 -108.5s9.16699 -77.5 27.5 -108.5s43.666 -54.833 75.999 -71.5s68.833 -25 109.5 -25c57.333 0 113 18 167 54l84 -136c-74 -52 -157.667 -78 -251 -78c-73.333 0 -139.166 15 -197.499 45z" />
    <glyph glyph-name="D" unicode="D" horiz-adv-x="683" 
d="M480 657.5c57.333 -28.333 102 -68.833 134 -121.5s48 -114.667 48 -186s-16 -133.333 -48 -186s-76.667 -93.167 -134 -121.5s-122.666 -42.5 -195.999 -42.5h-223v700h223c73.333 0 138.666 -14.167 195.999 -42.5zM216 559v-418h81
c58.667 0 106.334 18.5 143.001 55.5s55 88.167 55 153.5c0 66 -18.333 117.333 -55 154s-84.334 55 -143.001 55h-81z" />
    <glyph glyph-name="E" unicode="E" horiz-adv-x="530" 
d="M499 145v-145h-438v700h433v-145h-278v-110h250v-141h-250v-159h283z" />
    <glyph glyph-name="F" unicode="F" horiz-adv-x="515" 
d="M216 555v-143h253v-141h-253v-271h-155v700h447v-145h-292z" />
    <glyph glyph-name="G" unicode="G" horiz-adv-x="751" 
d="M735 369c0 -75.333 -12.502 -141.831 -37.502 -199.498s-63.167 -102.834 -114.5 -135.501s-115 -49 -191 -49c-72 0 -136 14.833 -192 44.5s-99.833 72.167 -131.5 127.5s-47.5 120.333 -47.5 195c0 72 15.333 135.5 46 190.5s74.834 97.5 132.501 127.5
s125.5 45 203.5 45c104.667 0 196.667 -30.667 276 -92l-101 -133c-28 21.333 -56.5 37.5 -85.5 48.5s-60.167 16.5 -93.5 16.5c-43.333 0 -80.5 -8.83301 -111.5 -26.5s-54.667 -41.834 -71 -72.501s-24.5 -65.667 -24.5 -105c0 -61.333 18.667 -111 56 -149
s89 -57 155 -57c52 0 91.833 12 119.5 36s43.834 52.333 48.501 85h-180v139h343c0.666992 -8 1 -20 1 -36z" />
    <glyph glyph-name="H" unicode="H" horiz-adv-x="723" 
d="M662 700v-700h-155v294h-291v-294h-155v700h155v-260h291v260h155z" />
    <glyph glyph-name="I" unicode="I" horiz-adv-x="277" 
d="M216 0h-155v700h155v-700z" />
    <glyph glyph-name="J" unicode="J" horiz-adv-x="301" 
d="M240 177c0 -62 -14.668 -107.5 -44.001 -136.5s-74.666 -43.5 -135.999 -43.5h-50v145h34c12.667 0 22.667 4.16699 30 12.5s11 20.5 11 36.5v509h155v-523z" />
    <glyph glyph-name="K" unicode="K" horiz-adv-x="726" 
d="M505 0l-289 335v-335h-155v700h155v-309l249 309h211l-289 -328l339 -372h-221z" />
    <glyph glyph-name="L" unicode="L" horiz-adv-x="496" 
d="M216 146h279v-146h-434v700h155v-554z" />
    <glyph glyph-name="M" unicode="M" horiz-adv-x="887" 
d="M887 0h-161l-95 403h-2l-130 -303h-111l-129 303h-2l-95 -403h-162l179 700h117l147 -362h2l147 362h117z" />
    <glyph glyph-name="N" unicode="N" horiz-adv-x="744" 
d="M683 0h-132l-334 431h-1v-431h-155v700h131l335 -433h1v433h155v-700z" />
    <glyph glyph-name="O" unicode="O" horiz-adv-x="780" 
d="M578 669c56 -30.667 100.167 -73.667 132.5 -129s48.5 -118.666 48.5 -189.999s-16.167 -134.666 -48.5 -189.999s-76.5 -98.333 -132.5 -129s-118.667 -46 -188 -46s-132 15.333 -188 46s-100.167 73.667 -132.5 129s-48.5 118.666 -48.5 189.999
s16.167 134.666 48.5 189.999s76.5 98.333 132.5 129s118.667 46 188 46s132 -15.333 188 -46zM289 530c-30 -16.667 -53.667 -40.5 -71 -71.5s-26 -67.167 -26 -108.5s8.66699 -77.5 26 -108.5s41 -54.833 71 -71.5s63.667 -25 101 -25s71 8.33301 101 25
s53.667 40.5 71 71.5s26 67.167 26 108.5s-8.66699 77.5 -26 108.5s-41 54.833 -71 71.5s-63.667 25 -101 25s-71 -8.33301 -101 -25z" />
    <glyph glyph-name="P" unicode="P" horiz-adv-x="575" 
d="M503.5 638c43.667 -41.333 65.498 -95.333 65.498 -162c0 -71.333 -21.667 -128.5 -65 -171.5s-107.666 -64.5 -192.999 -64.5h-95v-240h-155v700h250c84.667 0 148.834 -20.667 192.501 -62zM375.498 404c19 16 28.5 39 28.5 69c0 29.333 -9.33301 51 -28 65
s-44.667 21 -78 21h-82v-179h82c32.667 0 58.5 8 77.5 24z" />
    <glyph glyph-name="Q" unicode="Q" horiz-adv-x="794" 
d="M623 0l-35.999 36.001c-58.667 -34 -124.334 -51 -197.001 -51c-69.333 0 -132 15.333 -188 46s-100.167 73.667 -132.5 129s-48.5 118.666 -48.5 189.999s16.167 134.666 48.5 189.999s76.5 98.333 132.5 129s118.667 46 188 46s132 -15.333 188 -46
s100.167 -73.667 132.5 -129s48.5 -118.666 48.5 -189.999c0 -90.667 -25.667 -168 -77 -232l119 -118h-178zM464.001 158.001l-154 153h177l73 -73c18.667 32 28 69.333 28 112c0 41.333 -8.66699 77.5 -26 108.5s-41 54.833 -71 71.5s-63.667 25 -101 25
s-71 -8.33301 -101 -25s-53.667 -40.5 -71 -71.5s-26 -67.167 -26 -108.5s8.66699 -77.5 26 -108.5s41 -54.833 71 -71.5s63.667 -25 101 -25c27.333 0 52 4.33301 74 13z" />
    <glyph glyph-name="R" unicode="R" horiz-adv-x="617" 
d="M246 265h-30.001v-265h-155v700h280c50.667 0 93.834 -9.66699 129.501 -29s62.667 -45.5 81 -78.5s27.5 -70.167 27.5 -111.5c0 -52.667 -14 -97.5 -42 -134.5s-68.333 -61.5 -121 -73.5l200 -273h-194zM215.999 395h102c64.667 0 97 27.333 97 82
c0 26 -8.5 46.167 -25.5 60.5s-40.833 21.5 -71.5 21.5h-102v-164z" />
    <glyph glyph-name="S" unicode="S" horiz-adv-x="544" 
d="M507 664l-65 -137.002c-32.667 15.333 -61.5 26.5 -86.5 33.5s-48.833 10.5 -71.5 10.5c-42.667 0 -64 -13.667 -64 -41c0 -10.667 3.83301 -20.167 11.5 -28.5s21.5 -18.5 41.5 -30.5l116 -73c44.667 -27.333 78 -56.666 100 -87.999s33 -70.333 33 -117
c0 -67.333 -22 -118.833 -66 -154.5s-107 -53.5 -189 -53.5c-94 0 -181 23.333 -261 70l70 139c70 -42.667 135.667 -64 197 -64c28 0 49.333 4.66699 64 14s22 23.333 22 42c0 14.667 -5.33301 27.334 -16 38.001s-27.334 23 -50.001 37l-107 67
c-86 51.333 -129 118 -129 200c0 58 19 103.667 57 137s93.333 50 166 50s148.334 -17 227.001 -51z" />
    <glyph glyph-name="T" unicode="T" horiz-adv-x="534" 
d="M529 555h-184v-555h-155v555h-185v145h524v-145z" />
    <glyph glyph-name="U" unicode="U" horiz-adv-x="706" 
d="M650 283c0 -92.667 -25.332 -165.167 -75.999 -217.5s-124.334 -78.5 -221.001 -78.5c-97.333 0 -171.333 26.167 -222 78.5s-76 124.833 -76 217.5v417h165v-403c0 -45.333 11.5 -81.666 34.5 -108.999s55.833 -41 98.5 -41s75.5 13.667 98.5 41
s34.5 63.666 34.5 108.999v403h164v-417z" />
    <glyph glyph-name="V" unicode="V" horiz-adv-x="696" 
d="M431 0h-166l-265 700h185l162 -500h2l162 500h185z" />
    <glyph glyph-name="W" unicode="W" horiz-adv-x="1066" 
d="M825 0h-137l-154 454h-2l-154 -454h-137l-235 700h181l125 -450h2l151 450h136l151 -450h2l125 450h181z" />
    <glyph glyph-name="X" unicode="X" horiz-adv-x="722" 
d="M523 0l-162 244l-162 -244h-198l261 369l-237 331h197l139 -207l139 207h197l-237 -331l261 -369h-198z" />
    <glyph glyph-name="Y" unicode="Y" horiz-adv-x="659" 
d="M407 253v-253h-155v251l-252 449h186l142 -293h2l143 293h186z" />
    <glyph glyph-name="Z" unicode="Z" horiz-adv-x="568" 
d="M548 145v-145h-528v145l329 410h-303v145h492v-145l-326 -410h336z" />
    <glyph glyph-name="bracketleft" unicode="[" horiz-adv-x="341" 
d="M331 656h-130v-763h130v-108h-257v979h257v-108z" />
    <glyph glyph-name="backslash" unicode="\" horiz-adv-x="638" 
d="M30 734l106 57l472 -858l-106 -58z" />
    <glyph glyph-name="bracketright" unicode="]" horiz-adv-x="341" 
d="M10 -107h130v763h-130v108h257v-979h-257v108z" />
    <glyph glyph-name="asciicircum" unicode="^" 
d="M516 393h-105l-111 254l-111 -254h-105l144 322h144z" />
    <glyph glyph-name="underscore" unicode="_" horiz-adv-x="533" 
d="M523 -127h-513v112h513v-112z" />
    <glyph glyph-name="grave" unicode="`" horiz-adv-x="380" 
d="M330 553h-118l-162 154h165z" />
    <glyph glyph-name="a" unicode="a" horiz-adv-x="586" 
d="M129 13.5c-33.333 19 -59.666 47 -78.999 84s-29 81.5 -29 133.5s9.66699 96.5 29 133.5s45.666 65 78.999 84s70.333 28.5 111 28.5c68.667 0 119 -26 151 -78h2v63h151v-462h-151v63h-2c-32 -52 -82.333 -78 -151 -78c-40.667 0 -77.667 9.5 -111 28.5zM359 152.5
c20 19.667 30 45.834 30 78.501s-10 58.834 -30 78.501s-45.667 29.5 -77 29.5c-30.667 0 -56 -9.83301 -76 -29.5s-30 -45.834 -30 -78.501s10 -58.834 30 -78.501s45.333 -29.5 76 -29.5c31.333 0 57 9.83301 77 29.5z" />
    <glyph glyph-name="b" unicode="b" horiz-adv-x="591" 
d="M200 63h-2v-63h-151v700h151v-301h2c32 52 82 78 150 78c40.667 0 77.667 -9.5 111 -28.5s59.833 -47 79.5 -84s29.5 -81.5 29.5 -133.5s-9.83301 -96.5 -29.5 -133.5s-46.167 -65 -79.5 -84s-70.333 -28.5 -111 -28.5c-68 0 -118 26 -150 78zM385 152.5
c20 19.667 30 45.834 30 78.501s-10 58.834 -30 78.501s-45.667 29.5 -77 29.5c-30.667 0 -56 -9.83301 -76 -29.5s-30 -45.834 -30 -78.501s10 -58.834 30 -78.501s45.333 -29.5 76 -29.5c31.333 0 57 9.83301 77 29.5z" />
    <glyph glyph-name="c" unicode="c" horiz-adv-x="451" 
d="M145.5 15.5c-39 20.333 -69.5 49.166 -91.5 86.499s-33 80.333 -33 129s11 91.667 33 129s52.5 66.166 91.5 86.499s83.167 30.5 132.5 30.5c59.333 0 115 -15 167 -45l-62 -121c-29.333 18.667 -62 28 -98 28c-31.333 0 -58 -9.66699 -80 -29s-33 -45.666 -33 -78.999
s11 -59.666 33 -78.999s48.667 -29 80 -29c36 0 68.667 9.33301 98 28l62 -121c-52 -30 -107.667 -45 -167 -45c-49.333 0 -93.5 10.167 -132.5 30.5z" />
    <glyph glyph-name="d" unicode="d" horiz-adv-x="591" 
d="M129 13.5c-33.333 19 -59.666 47 -78.999 84s-29 81.5 -29 133.5s9.66699 96.5 29 133.5s45.666 65 78.999 84s70.333 28.5 111 28.5c68.667 0 119 -26 151 -78h2v301h151v-700h-151v63h-2c-32 -52 -82.333 -78 -151 -78c-40.667 0 -77.667 9.5 -111 28.5zM359 152.5
c20 19.667 30 45.834 30 78.501s-10 58.834 -30 78.501s-45.667 29.5 -77 29.5c-30.667 0 -56 -9.83301 -76 -29.5s-30 -45.834 -30 -78.501s10 -58.834 30 -78.501s45.333 -29.5 76 -29.5c31.333 0 57 9.83301 77 29.5z" />
    <glyph glyph-name="e" unicode="e" horiz-adv-x="511" 
d="M433 413.5c40.667 -41.667 61.0029 -103.167 61.0029 -184.5v-34h-331c4.66699 -28 17.5 -49 38.5 -63s47.5 -21 79.5 -21c25.333 0 49.666 4.16699 72.999 12.5s43.666 18.166 60.999 29.499l55 -114c-58.667 -36 -122.334 -54 -191.001 -54
c-51.333 0 -96.5 10.167 -135.5 30.5s-69.167 48.833 -90.5 85.5s-32 79.334 -32 128.001c0 50.667 10.333 94.667 31 132s49.5 65.833 86.5 85.5s79.167 29.5 126.5 29.5c71.333 0 127.333 -20.833 168 -62.5zM194.503 348c-17 -14 -27.168 -35.333 -30.501 -64h184
c-0.666992 26.667 -9.16699 47.5 -25.5 62.5s-37.166 22.5 -62.499 22.5c-26.667 0 -48.5 -7 -65.5 -21z" />
    <glyph glyph-name="f" unicode="f" horiz-adv-x="355" 
d="M262.5 552c-13 -12 -19.499 -34.667 -19.499 -68v-22h98v-126h-98v-336h-151v336h-81v126h81v27c0 76 18.167 131.833 54.5 167.5s92.166 53.5 167.499 53.5h31v-140h-13c-33.333 0 -56.5 -6 -69.5 -18z" />
    <glyph glyph-name="g" unicode="g" horiz-adv-x="586" 
d="M97 -192l25.002 141.001c64.667 -15.333 118.667 -23 162 -23c38.667 0 66.5 7.83301 83.5 23.5s25.5 43.167 25.5 82.5v30h-2c-34.667 -46.667 -85.334 -70 -152.001 -70c-41.333 0 -78.5 9 -111.5 27s-59 45.167 -78 81.5s-28.5 80.166 -28.5 131.499
c0 52 9.66699 96.5 29 133.5s45.666 64.833 78.999 83.5s70.333 28 111 28c68.667 0 119 -26 151 -78h2v63h151v-462c-0.666992 -72 -22.167 -125.833 -64.5 -161.5s-103.833 -53.5 -184.5 -53.5c-57.333 0 -123.333 7.66699 -198 23zM359.002 152.501
c20 19.667 30 45.834 30 78.501s-10 58.834 -30 78.501s-45.667 29.5 -77 29.5c-30.667 0 -56 -9.83301 -76 -29.5s-30 -45.834 -30 -78.501s10 -58.834 30 -78.501s45.333 -29.5 76 -29.5c31.333 0 57 9.83301 77 29.5z" />
    <glyph glyph-name="h" unicode="h" horiz-adv-x="563" 
d="M198 401h2.00195c33.333 50.667 82.666 76 147.999 76c53.333 0 95.666 -16 126.999 -48s47 -79.667 47 -143v-286h-151v244c0 66.667 -28 100 -84 100c-27.333 0 -49 -9 -65 -27s-24 -46.333 -24 -85v-232h-151v700h151v-299z" />
    <glyph glyph-name="i" unicode="i" horiz-adv-x="244" 
d="M47 462h151v-462h-151v462zM203 547h-162v152h162v-152z" />
    <glyph glyph-name="j" unicode="j" horiz-adv-x="244" 
d="M-14 -63c20.667 0 36 5.33105 46 15.998s15 27.334 15 50.001v459h151v-458c0 -69.333 -15.5 -121.166 -46.5 -155.499s-77.833 -51.5 -140.5 -51.5h-50v140h25zM203 546.998h-162v152h162v-152z" />
    <glyph glyph-name="k" unicode="k" horiz-adv-x="555" 
d="M355 0l-157 212v-212h-151v700h151v-420l135 182h187l-183 -210l213 -252h-195z" />
    <glyph glyph-name="l" unicode="l" horiz-adv-x="244" 
d="M198 0h-151v700h151v-700z" />
    <glyph glyph-name="m" unicode="m" horiz-adv-x="848" 
d="M46 462h148.001v-68h2c13.333 26 32.333 46.333 57 61s53.667 22 87 22c34.667 0 64.5 -7.83301 89.5 -23.5s43.5 -37.834 55.5 -66.501h2c16 28.667 37.333 50.834 64 66.501s57 23.5 91 23.5c49.333 0 89.166 -15.667 119.499 -47s45.5 -74.333 45.5 -129v-301h-151
v251c0 62 -25 93 -75 93c-54.667 0 -82 -38.333 -82 -115v-229h-145v251c0 62 -25 93 -75 93c-54.667 0 -82 -38.333 -82 -115v-229h-151v462z" />
    <glyph glyph-name="n" unicode="n" horiz-adv-x="563" 
d="M474 429c31.333 -32 47.001 -79.667 47.001 -143v-286h-150v244c0 34 -7 59.167 -21 75.5s-35.333 24.5 -64 24.5c-27.333 0 -49 -9 -65 -27s-24 -46.333 -24 -85v-232h-151v462h148v-70h2c16 27.333 37 48.333 63 63s55.333 22 88 22c53.333 0 95.666 -16 126.999 -48z
" />
    <glyph glyph-name="o" unicode="o" horiz-adv-x="561" 
d="M414 446.5c39.333 -20.333 70.166 -49.166 92.499 -86.499s33.5 -80.333 33.5 -129s-11.167 -91.667 -33.5 -129s-53.166 -66.166 -92.499 -86.499s-84 -30.5 -134 -30.5c-49.333 0 -93.666 10.167 -132.999 30.5s-70.166 49.166 -92.499 86.499s-33.5 80.333 -33.5 129
s11.167 91.667 33.5 129s53.166 66.166 92.499 86.499s83.666 30.5 132.999 30.5c50 0 94.667 -10.167 134 -30.5zM203 309c-20.667 -20 -31 -46.002 -31 -78.002s10.333 -58 31 -78s46.334 -30 77.001 -30c31.333 0 57.166 9.83301 77.499 29.5s30.5 45.834 30.5 78.501
s-10.167 58.834 -30.5 78.501s-46.166 29.5 -77.499 29.5c-30.667 0 -56.334 -10 -77.001 -30z" />
    <glyph glyph-name="p" unicode="p" horiz-adv-x="590" 
d="M46 462h151v-63h2c32 52 82.333 78 151 78c40.667 0 77.667 -9.5 111 -28.5s59.666 -47 78.999 -84s29 -81.5 29 -133.5s-9.66699 -96.5 -29 -133.5s-45.666 -65 -78.999 -84s-70.333 -28.5 -111 -28.5c-68.667 0 -119 26 -151 78h-2v-263h-151v662zM384 152.5
c20 19.667 30 45.834 30 78.501s-10 58.834 -30 78.501s-45.333 29.5 -76 29.5c-31.333 0 -57 -9.83301 -77 -29.5s-30 -45.834 -30 -78.501s10 -58.834 30 -78.501s45.667 -29.5 77 -29.5c30.667 0 56 9.83301 76 29.5z" />
    <glyph glyph-name="q" unicode="q" horiz-adv-x="586" 
d="M393 63h-2c-32 -52 -82.333 -78 -151 -78c-40.667 0 -77.667 9.5 -111 28.5s-59.666 47 -78.999 84s-29 81.5 -29 133.5s9.66699 96.5 29 133.5s45.666 65 78.999 84s70.333 28.5 111 28.5c68.667 0 119 -26 151 -78h2v63h151v-662h-151v263zM359 152.5
c20 19.667 30 45.834 30 78.501s-10 58.834 -30 78.501s-45.667 29.5 -77 29.5c-30.667 0 -56 -9.83301 -76 -29.5s-30 -45.834 -30 -78.501s10 -58.834 30 -78.501s45.333 -29.5 76 -29.5c31.333 0 57 9.83301 77 29.5z" />
    <glyph glyph-name="r" unicode="r" horiz-adv-x="362" 
d="M352 325l-13 -0.000976562c-34.667 0 -62.167 -4.83301 -82.5 -14.5s-35.333 -25.667 -45 -48s-14.5 -53.166 -14.5 -92.499v-170h-151v462h148v-94h2c25.333 72 76.333 108 153 108h3v-151z" />
    <glyph glyph-name="s" unicode="s" horiz-adv-x="434" 
d="M114 -3.5c-36.667 7.66699 -71.333 19.832 -104 36.499l57 124c60.667 -35.333 115.334 -53 164.001 -53c28 0 42 7 42 21c0 6.66699 -2 11.667 -6 15s-8.66699 5.83301 -14 7.5s-9.33301 3.16699 -12 4.5l-81 32c-38 14.667 -66.333 33.667 -85 57s-28 52 -28 86
c0 48 16.667 85 50 111s82.666 39 147.999 39c53.333 0 109 -9.33301 167 -28l-42 -122c-55.333 22.667 -101 34 -137 34c-14 0 -23.667 -1.66699 -29 -5s-8 -8.33301 -8 -15s2.66699 -11.834 8 -15.501s14.333 -8.16699 27 -13.5l80 -30c37.333 -14 65.333 -31.667 84 -53
s28 -50.666 28 -87.999c0 -53.333 -18 -92.666 -54 -117.999s-86 -38 -150 -38c-33.333 0 -68.333 3.83301 -105 11.5z" />
    <glyph glyph-name="t" unicode="t" horiz-adv-x="362" 
d="M251 336v-138.999c0 -22 3.5 -37 10.5 -45s20.167 -12 39.5 -12h17v-140h-63c-49.333 0 -87.5 12.667 -114.5 38s-40.5 64.666 -40.5 117.999v180h-90v126h90v185h151v-185h95v-126h-95z" />
    <glyph glyph-name="u" unicode="u" horiz-adv-x="557" 
d="M89.5 33.5c-32.333 32.333 -48.5 80.167 -48.5 143.5v285h156v-252c0 -32 6.66699 -55.5 20 -70.5s32 -22.5 56 -22.5c27.333 0 48.666 10 63.999 30s23 50.667 23 92v223h151v-462h-148v72h-2c-17.333 -28 -37.666 -49.5 -60.999 -64.5s-51.333 -22.5 -84 -22.5
c-52 0 -94.167 16.167 -126.5 48.5z" />
    <glyph glyph-name="v" unicode="v" horiz-adv-x="545" 
d="M540 462l-192 -462h-151l-192 462h167l100 -292l101 292h167z" />
    <glyph glyph-name="w" unicode="w" horiz-adv-x="808" 
d="M803 462l-168 -462h-129l-102 270l-101 -270h-129l-169 462h150l86 -271l94 271h139l93 -271l87 271h149z" />
    <glyph glyph-name="x" unicode="x" horiz-adv-x="563" 
d="M282 144l-103 -144h-174l185 242l-168 220h175l85 -122l84 122h175l-168 -220l185 -242h-174z" />
    <glyph glyph-name="y" unicode="y" horiz-adv-x="560" 
d="M555 462l-307 -662h-152l116 244l-207 418h174l108 -255l115 255h153z" />
    <glyph glyph-name="z" unicode="z" horiz-adv-x="451" 
d="M436 127v-127h-420v114l216 221h-200v127h389v-111l-221 -224h236z" />
    <glyph glyph-name="braceleft" unicode="{" horiz-adv-x="416" 
d="M406 639l-30 -0.00195312c-29.333 0 -51.666 -6.16699 -66.999 -18.5s-23 -35.166 -23 -68.499v-114c0 -44.667 -9.83301 -80.334 -29.5 -107.001s-50.834 -45 -93.501 -55v-2c42.667 -10 73.834 -28.333 93.501 -55s29.5 -62.334 29.5 -107.001v-116
c0 -33.333 7.66699 -56.166 23 -68.499s37.666 -18.5 66.999 -18.5h30v-124h-39c-58 0 -106.5 16.667 -145.5 50s-58.5 85 -58.5 155v118c0 32.667 -11.167 57.334 -33.5 74.001s-53.833 26 -94.5 28v130c40.667 2 72.167 11.333 94.5 28s33.5 41.334 33.5 74.001v116
c0 70 19.5 121.667 58.5 155s87.5 50 145.5 50h39v-124z" />
    <glyph glyph-name="bar" unicode="|" horiz-adv-x="328" 
d="M218 -215h-108v942h108v-942z" />
    <glyph glyph-name="braceright" unicode="}" horiz-adv-x="416" 
d="M10 -91l31.001 0.00195312c29.333 0 51.666 6.16699 66.999 18.5s23 35.166 23 68.499v116c0 44.667 9.83301 80.334 29.5 107.001s50.5 45 92.5 55v2c-42 10 -72.833 28.333 -92.5 55s-29.5 62.334 -29.5 107.001v114c0 33.333 -7.83301 56.166 -23.5 68.499
s-38.167 18.5 -67.5 18.5h-30v124h40c58 0 106.333 -16.5 145 -49.5s58 -84.833 58 -155.5v-116c0 -32.667 11.167 -57.334 33.5 -74.001s53.833 -26 94.5 -28v-130c-40.667 -2 -72.167 -11.333 -94.5 -28s-33.5 -41.334 -33.5 -74.001v-118
c0 -70.667 -19.333 -122.5 -58 -155.5s-87 -49.5 -145 -49.5h-40v124z" />
    <glyph glyph-name="asciitilde" unicode="~" 
d="M258.5 394.5c17.667 -5.66699 38.834 -14.167 63.501 -25.5c19.333 -9.33301 35.166 -16.166 47.499 -20.499s25.5 -6.5 39.5 -6.5c21.333 0 39.333 4 54 12s34.667 21.667 60 41l64 -99c-32 -26 -62.667 -45.667 -92 -59s-59.333 -20 -90 -20
c-22.667 0 -42.667 2.83301 -60 8.5s-37.666 13.834 -60.999 24.501c-20 9.33301 -36.333 16.166 -49 20.499s-26.667 6.5 -42 6.5c-22 0 -40.333 -3.83301 -55 -11.5s-35.334 -21.5 -62.001 -41.5l-63 98c32.667 27.333 63.5 47.666 92.5 60.999s59.5 20 91.5 20
c23.333 0 43.833 -2.83301 61.5 -8.5z" />
    <glyph glyph-name="exclamdown" unicode="&#xa1;" horiz-adv-x="327" 
d="M84 500h160v-161h-160v161zM110 271h108l32 -471h-173z" />
    <glyph glyph-name="cent" unicode="&#xa2;" horiz-adv-x="441" 
d="M341.5 328.5c-17.667 4.33301 -35.8311 6.49805 -54.498 6.49805v-208c18 0 35.833 2.33301 53.5 7s41.167 12.667 70.5 24v-143c-38 -18 -79.333 -28 -124 -30v-49h-28v49c-46.667 2 -88.167 13.5 -124.5 34.5s-64.666 49.833 -84.999 86.5s-30.5 78.334 -30.5 125.001
s10.167 88.334 30.5 125.001s48.666 65.5 84.999 86.5s77.833 32.5 124.5 34.5v55h28v-55c43.333 -1.33301 84.666 -11 123.999 -29v-144c-28.667 12 -51.834 20.167 -69.501 24.5zM198.003 163.998c15.333 -18 35.666 -29.667 60.999 -35v204
c-25.333 -5.33301 -45.666 -17 -60.999 -35s-23 -40.333 -23 -67s7.66699 -49 23 -67z" />
    <glyph glyph-name="sterling" unicode="&#xa3;" horiz-adv-x="558" 
d="M220 132l286.001 -0.000976562v-132h-446v111c34 18.667 61.167 39.5 81.5 62.5s30.5 47.5 30.5 73.5c0 16 -3.5 30.833 -10.5 44.5s-18.167 31.5 -33.5 53.5h-88v30h68c-23.333 38 -35 76.333 -35 115c0 63.333 20.667 112.5 62 147.5s100.333 52.5 177 52.5
c70 0 125.833 -18 167.5 -54s62.5 -91.333 62.5 -166h-155c-1.33301 24.667 -9 44 -23 58s-33.333 21 -58 21c-23.333 0 -41.833 -6.16699 -55.5 -18.5s-20.5 -28.5 -20.5 -48.5c0 -16 4 -31.667 12 -47s20.667 -35.333 38 -60h154v-30h-134c19.333 -32.667 29 -61 29 -85
c0 -27.333 -9.83301 -50.666 -29.5 -69.999s-46.834 -37 -81.501 -53z" />
    <glyph glyph-name="currency" unicode="&#xa4;" 
d="M522.5 236.5c-10.333 -27 -25.167 -50.833 -44.5 -71.5l55 -55l-20 -20l-56 56c-20.667 -17.333 -44.5 -30.833 -71.5 -40.5s-55.5 -14.5 -85.5 -14.5c-61.333 0 -114 18.333 -158 55l-56 -56l-19 20l55 55c-19.333 20.667 -34.166 44.5 -44.499 71.5
s-15.5 55.833 -15.5 86.5s5.33301 59.5 16 86.5s25.667 50.833 45 71.5l-56 56l20 19l56 -56c20.667 17.333 44.5 30.833 71.5 40.5s55.5 14.5 85.5 14.5s58.5 -4.83301 85.5 -14.5s50.833 -23.167 71.5 -40.5l56 56l20 -20l-55 -55
c19.333 -20.667 34.166 -44.5 44.499 -71.5s15.5 -55.833 15.5 -86.5s-5.16699 -59.5 -15.5 -86.5zM373.499 250c19 19.333 28.5 43.666 28.5 72.999s-9.5 53.666 -28.5 72.999s-43.5 29 -73.5 29s-54.5 -9.66699 -73.5 -29s-28.5 -43.666 -28.5 -72.999
s9.5 -53.666 28.5 -72.999s43.5 -29 73.5 -29s54.5 9.66699 73.5 29z" />
    <glyph glyph-name="yen" unicode="&#xa5;" horiz-adv-x="652" 
d="M446 319h117v-30h-133l-29 -56h162v-30h-164v-203h-146v203h-164v30h162l-29 56h-133v30h117l-186 356h181l125 -284l125 284h181z" />
    <glyph glyph-name="brokenbar" unicode="&#xa6;" horiz-adv-x="328" 
d="M218 339h-108v388h108v-388zM218 -215h-108v396h108v-396z" />
    <glyph glyph-name="section" unicode="&#xa7;" horiz-adv-x="584" 
d="M510.5 179c-15.667 -27.333 -37.167 -51 -64.5 -71c24 -28.667 36 -61.334 36 -98.001c0 -52 -17.667 -93.167 -53 -123.5s-85 -45.5 -149 -45.5c-71.333 0 -134.666 19 -189.999 57l68 113c20 -13.333 42 -23.833 66 -31.5s46.667 -11.5 68 -11.5
c18 0 31.5 3.33301 40.5 10s13.5 15.334 13.5 26.001c0 13.333 -7.66699 25 -23 35s-40.333 22.667 -75 38c-40.667 18 -74.167 34.833 -100.5 50.5s-49.166 36.667 -68.499 63s-29 58.166 -29 95.499c0 33.333 7.66699 63.666 23 90.999s36.666 51 63.999 71
c-24 28.667 -36 61.334 -36 98.001c0 52 17.833 93.167 53.5 123.5s85.5 45.5 149.5 45.5c70 0 133 -17.667 189 -53l-68 -117c-20 13.333 -42 23.833 -66 31.5s-46.667 11.5 -68 11.5c-17.333 0 -30.5 -3.33301 -39.5 -10s-13.5 -15.334 -13.5 -26.001
c0 -13.333 7.66699 -25 23 -35s40.333 -22.667 75 -38c40.667 -18 74.167 -34.833 100.5 -50.5s49.166 -36.667 68.499 -63s29 -58.166 29 -95.499c0 -33.333 -7.83301 -63.666 -23.5 -90.999zM214.5 247c18.333 -13.333 47.167 -29.002 86.5 -47.002l36 -17
c39.333 23.333 59 49.333 59 78c0 19.333 -9 35.333 -27 48s-47 28.334 -87 47.001l-36 17c-17.333 -10 -31.5 -21.667 -42.5 -35s-16.5 -27.333 -16.5 -42c0 -19.333 9.16699 -35.666 27.5 -48.999z" />
    <glyph glyph-name="dieresis" unicode="&#xa8;" horiz-adv-x="412" 
d="M174 555h-124v135h124v-135zM362 555h-124v135h124v-135z" />
    <glyph glyph-name="copyright" unicode="&#xa9;" horiz-adv-x="828" 
d="M228.5 31.5c-55.667 31 -99.334 74.167 -131.001 129.5s-47.5 118.333 -47.5 189s15.833 133.667 47.5 189s75.334 98.5 131.001 129.5s117.5 46.5 185.5 46.5s129.833 -15.5 185.5 -46.5s99.334 -74.167 131.001 -129.5s47.5 -118.333 47.5 -189
s-15.833 -133.667 -47.5 -189s-75.334 -98.5 -131.001 -129.5s-117.5 -46.5 -185.5 -46.5s-129.833 15.5 -185.5 46.5zM559.5 95.5c43.667 24.333 78 58.5 103 102.5s37.5 94.667 37.5 152s-12.5 108 -37.5 152s-59.333 78.167 -103 102.5s-92.167 36.5 -145.5 36.5
s-101.833 -12.167 -145.5 -36.5s-78 -58.5 -103 -102.5s-37.5 -94.667 -37.5 -152s12.5 -108 37.5 -152s59.333 -78.167 103 -102.5s92.167 -36.5 145.5 -36.5s101.833 12.167 145.5 36.5zM301.5 156.5c-35.667 19.667 -63.501 46.8301 -83.501 81.4971
s-30 73.334 -30 116.001s10 81.334 30 116.001s47.833 61.834 83.5 81.501s75.834 29.5 120.501 29.5c30 0 57.167 -4.16699 81.5 -12.5s47.833 -20.166 70.5 -35.499l-50 -83c-16 10 -32.333 18 -49 24s-35 9 -55 9c-37.333 0 -67.666 -11.833 -90.999 -35.5
s-35 -54.834 -35 -93.501s11.667 -69.834 35 -93.501s53.666 -35.5 90.999 -35.5c34.667 0 69.334 11.333 104.001 34l50 -84c-22.667 -15.333 -46.167 -27.166 -70.5 -35.499s-51.5 -12.5 -81.5 -12.5c-44.667 0 -84.834 9.83301 -120.501 29.5z" />
    <glyph glyph-name="ordfeminine" unicode="&#xaa;" horiz-adv-x="444" 
d="M118.5 357c-22.333 12.667 -40 31.3301 -53 55.9971s-19.5 54 -19.5 88s6.5 63.333 19.5 88s30.667 43.334 53 56.001s46.5 19 72.5 19c22.667 0 42.167 -4.66699 58.5 -14s28.833 -22.666 37.5 -39.999h2v44h110v-306h-110v44h-2
c-8.66699 -17.333 -21.167 -30.666 -37.5 -39.999s-35.833 -14 -58.5 -14c-26 0 -50.167 6.33301 -72.5 19zM271 455.996c12 11.333 18 26.333 18 45s-6 33.667 -18 45s-27.333 17 -46 17c-19.333 0 -35 -5.66699 -47 -17s-18 -26.333 -18 -45s6 -33.667 18 -45
s27.667 -17 47 -17c18.667 0 34 5.66699 46 17z" />
    <glyph glyph-name="guillemotleft" unicode="&#xab;" horiz-adv-x="578" 
d="M177 238l164 -176h-162l-164 176l164 175h162zM404 238l164 -176h-162l-164 176l164 175h162z" />
    <glyph glyph-name="logicalnot" unicode="&#xac;" 
d="M529 432v-265h-68v199h-390v66h458z" />
    <glyph glyph-name="uni00AD" unicode="&#xad;" horiz-adv-x="366" 
d="M326 198h-286v135h286v-135z" />
    <glyph glyph-name="registered" unicode="&#xae;" horiz-adv-x="560" 
d="M402.5 684c36.333 -20.667 64.833 -49.334 85.5 -86.001s31 -78 31 -124s-10.333 -87.333 -31 -124s-49.167 -65.334 -85.5 -86.001s-77.166 -31 -122.499 -31s-86.166 10.333 -122.499 31s-64.833 49.334 -85.5 86.001s-31 78 -31 124s10.333 87.333 31 124
s49.167 65.334 85.5 86.001s77.166 31 122.499 31s86.166 -10.333 122.499 -31zM372.5 314.5c27 15.667 48 37.334 63 65.001s22.5 59.167 22.5 94.5s-7.5 66.833 -22.5 94.5s-36 49.334 -63 65.001s-57.833 23.5 -92.5 23.5s-65.5 -7.83301 -92.5 -23.5
s-48 -37.334 -63 -65.001s-22.5 -59.167 -22.5 -94.5s7.5 -66.833 22.5 -94.5s36 -49.334 63 -65.001s57.833 -23.5 92.5 -23.5s65.5 7.83301 92.5 23.5zM370.5 482c-9.66699 -14 -23.5 -23.667 -41.5 -29l62 -101h-62l-54 96h-24v-96h-53v260h98
c27.333 0 49 -7.33301 65 -22s24 -34 24 -58c0 -19.333 -4.83301 -36 -14.5 -50zM251 498h41c11.333 0 20.166 2.83301 26.499 8.5s9.5 13.5 9.5 23.5s-3.16699 17.833 -9.5 23.5s-15.166 8.5 -26.499 8.5h-41v-64z" />
    <glyph glyph-name="macron" unicode="&#xaf;" horiz-adv-x="425" 
d="M375 574h-325v99h325v-99z" />
    <glyph glyph-name="degree" unicode="&#xb0;" horiz-adv-x="370" 
d="M289 649.5c27.333 -27 41 -61.833 41 -104.5c0 -43.333 -13.5 -78.333 -40.5 -105s-61.833 -40 -104.5 -40c-42 0 -76.667 13.333 -104 40s-41 61.667 -41 105c0 42.667 13.667 77.5 41 104.5s62 40.5 104 40.5s76.667 -13.5 104 -40.5zM129.5 602
c-15 -14.667 -22.502 -33.667 -22.502 -57s7.33301 -42.333 22 -57s33.334 -22 56.001 -22s41.334 7.33301 56.001 22s22 33.667 22 57s-7.5 42.333 -22.5 57s-33.5 22 -55.5 22s-40.5 -7.33301 -55.5 -22z" />
    <glyph glyph-name="plusminus" unicode="&#xb1;" 
d="M334 391h205v-63h-205v-128h-68v128h-205v63h205v128h68v-128zM539 90h-478v66h478v-66z" />
    <glyph glyph-name="acute" unicode="&#xb4;" horiz-adv-x="380" 
d="M168 553h-118l115 154h165z" />
    <glyph glyph-name="uni00B5" unicode="&#xb5;" 
d="M535 462l-0.000976562 -461.999h-148v72h-2c-17.333 -28 -37.666 -49.5 -60.999 -64.5s-51.333 -22.5 -84 -22.5c-11.333 0 -19.666 0.333008 -24.999 1v-186h-146v328c-2.66699 13.333 -4 29.666 -4 48.999v285h156v-252c0 -32 6.66699 -55.5 20 -70.5
s32 -22.5 56 -22.5c27.333 0 48.666 10 63.999 30s23 50.667 23 92v223h151z" />
    <glyph glyph-name="paragraph" unicode="&#xb6;" horiz-adv-x="663" 
d="M613 589h-65v-695h-107v695h-90v-695h-107v416c-36.667 0 -69.667 8.33301 -99 25s-52.5 40.167 -69.5 70.5s-25.5 64.833 -25.5 103.5c0 37.333 8.83301 70.5 26.5 99.5s42 51.5 73 67.5s65.833 24 104.5 24h359v-111z" />
    <glyph glyph-name="periodcentered" unicode="&#xb7;" horiz-adv-x="243" 
d="M201 301h-160v161h160v-161z" />
    <glyph glyph-name="cedilla" unicode="&#xb8;" horiz-adv-x="284" 
d="M145 -38c30 -5.33301 52.334 -12.332 67.001 -20.999s22 -22.334 22 -41.001c0 -16.667 -6.83301 -31.167 -20.5 -43.5s-31 -23 -52 -32s-52.833 -21.167 -95.5 -36.5l-16 37c29.333 12.667 50.166 22.667 62.499 30s18.5 15 18.5 23c0 8.66699 -4 15.167 -12 19.5
s-22.667 8.83301 -44 13.5l48 128h54z" />
    <glyph glyph-name="ordmasculine" unicode="&#xba;" horiz-adv-x="437" 
d="M343.5 618.5c32.333 -30.333 48.5 -69.5 48.5 -117.5s-16.167 -87.167 -48.5 -117.5s-73.833 -45.5 -124.5 -45.5s-92.167 15.167 -124.5 45.5s-48.5 69.5 -48.5 117.5s16.167 87.167 48.5 117.5s73.833 45.5 124.5 45.5s92.167 -15.167 124.5 -45.5zM174.5 545.5
c-11.667 -11 -17.5 -25.833 -17.5 -44.5s5.83301 -33.5 17.5 -44.5s26.5 -16.5 44.5 -16.5s32.833 5.5 44.5 16.5s17.5 25.833 17.5 44.5s-5.83301 33.5 -17.5 44.5s-26.5 16.5 -44.5 16.5s-32.833 -5.5 -44.5 -16.5z" />
    <glyph glyph-name="guillemotright" unicode="&#xbb;" horiz-adv-x="578" 
d="M401 238l-164 -176h162l164 176l-164 175h-162zM174 238l-164 -176h162l164 176l-164 175h-162z" />
    <glyph glyph-name="onequarter" unicode="&#xbc;" horiz-adv-x="682" 
d="M152 289h-80v305h-27v81h107v-386zM459 675h78l-396 -675h-78zM657 65h-37v-65h-77v65h-200v65l199 256h78v-251h37v-70zM543 135v144h-2l-114 -144h116z" />
    <glyph glyph-name="onehalf" unicode="&#xbd;" horiz-adv-x="696" 
d="M152 289h-80v305h-27v81h107v-386zM459 675h78l-396 -675h-78zM633 364.5c23.333 -20.333 35.001 -47.833 35.001 -82.5c0 -23.333 -5.5 -44.833 -16.5 -64.5s-27.5 -39.834 -49.5 -60.501l-82 -79h154v-78h-277l-1 64l138 132c16.667 16.667 29 30.834 37 42.501
s12 23.5 12 35.5c0 14 -4.5 25.167 -13.5 33.5s-21.5 12.5 -37.5 12.5c-16.667 0 -30.5 -4.66699 -41.5 -14s-16.833 -23.333 -17.5 -42h-80c0.666992 38 13 69.333 37 94s59.333 37 106 37c41.333 0 73.666 -10.167 96.999 -30.5z" />
    <glyph glyph-name="threequarters" unicode="&#xbe;" horiz-adv-x="801" 
d="M271 656c23.333 -18.667 35.001 -42.6699 35.001 -72.0029c0 -23.333 -6.5 -42.833 -19.5 -58.5s-31.167 -26.167 -54.5 -31.5v-1c27.333 -4.66699 48.833 -14.5 64.5 -29.5s23.5 -37.5 23.5 -67.5c0 -34 -12 -61.833 -36 -83.5s-59.333 -32.5 -106 -32.5
c-46 0 -81.667 10.833 -107 32.5s-39 52.834 -41 93.501h81c1.33301 -16 7.5 -28.833 18.5 -38.5s26.833 -14.5 47.5 -14.5c18.667 0 33.167 4.16699 43.5 12.5s15.5 20.5 15.5 36.5c0 18 -7.16699 30.667 -21.5 38s-37.5 11 -69.5 11v71c52 -1.33301 78 14.334 78 47.001
c0 29.333 -17.667 44 -53 44c-16 0 -29.167 -4.16699 -39.5 -12.5s-15.833 -20.166 -16.5 -35.499h-77c1.33301 36 13.666 64.833 36.999 86.5s57 32.5 101 32.5c40.667 0 72.667 -9.33301 96 -28zM578.001 674.997h78l-396 -675h-78zM776.001 64.9971h-37v-65h-77v65h-200
v65l199 256h78v-251h37v-70zM662.001 134.997v144h-2l-114 -144h116z" />
    <glyph glyph-name="questiondown" unicode="&#xbf;" horiz-adv-x="440" 
d="M151 500h160v-161h-160v161zM63.5 -161.5c-35 35.667 -52.5029 80.8359 -52.5029 135.503c0 31.333 6 58.166 18 80.499s29 45.166 51 68.499l29 29.5c16 16.333 28 33.166 36 50.499s12 35.333 12 54v14h149v-29c0 -38 -7.66699 -69.667 -23 -95
s-36.666 -51.666 -63.999 -78.999c-21.333 -21.333 -36.166 -37.333 -44.499 -48s-12.5 -22.667 -12.5 -36c0 -18 5.16699 -31.833 15.5 -41.5s25.5 -14.5 45.5 -14.5c22.667 0 40.334 6.66699 53.001 20s19 30.666 19 51.999h146c0 -66.667 -19 -119.167 -57 -157.5
s-93.667 -57.5 -167 -57.5c-67.333 0 -118.5 17.833 -153.5 53.5z" />
    <glyph glyph-name="Agrave" unicode="&#xc0;" horiz-adv-x="716" 
d="M493 142h-269l-50 -142h-174l276 700h164l276 -700h-173zM445 280l-87 248l-86 -248h173zM416 743h-108l-172 120h165z" />
    <glyph glyph-name="Aacute" unicode="&#xc1;" horiz-adv-x="716" 
d="M493 142h-269l-50 -142h-174l276 700h164l276 -700h-173zM445 280l-87 248l-86 -248h173zM409 743h-109l115 120h165z" />
    <glyph glyph-name="Acircumflex" unicode="&#xc2;" horiz-adv-x="716" 
d="M493 142h-269l-50 -142h-174l276 700h164l276 -700h-173zM445 280l-87 248l-86 -248h173zM549 743h-125l-67 62l-67 -62h-125l120 120h144z" />
    <glyph glyph-name="Atilde" unicode="&#xc3;" horiz-adv-x="716" 
d="M493 142h-269l-50 -142h-174l276 700h164l276 -700h-173zM445 280l-87 248l-86 -248h173zM394.5 743.5c-16.333 3.66699 -36.166 8.83398 -59.499 15.501c-36 10 -60 15 -72 15c-11.333 0 -21.333 -3.16699 -30 -9.5s-16.667 -15.833 -24 -28.5l-47 15
c10.667 38.667 24.834 68.334 42.501 89.001s42.167 31 73.5 31c14 0 29.167 -1.83301 45.5 -5.5s36.166 -8.83398 59.499 -15.501c35.333 -10 59.333 -15 72 -15c20.667 0 38.667 13 54 39l47 -16c-11.333 -38.667 -25.833 -68.334 -43.5 -89.001s-41.834 -31 -72.501 -31
c-14 0 -29.167 1.83301 -45.5 5.5z" />
    <glyph glyph-name="Adieresis" unicode="&#xc4;" horiz-adv-x="716" 
d="M493 142h-269l-50 -142h-174l276 700h164l276 -700h-173zM445 280l-87 248l-86 -248h173zM316 743h-133v114h133v-114zM534 743h-134v114h134v-114z" />
    <glyph glyph-name="Aring" unicode="&#xc5;" horiz-adv-x="716" 
d="M493 142h-269l-50 -142h-174l276 700h164l276 -700h-173zM445 280l-87 248l-86 -248h173zM444 839c22.667 -22 34 -50 34 -84s-11.333 -62 -34 -84s-51.334 -33 -86.001 -33c-35.333 0 -64.333 11 -87 33s-34 50 -34 84s11.333 62 34 84s51.667 33 87 33
c34.667 0 63.334 -11 86.001 -33zM316.5 795c-10.333 -10.667 -15.5 -24 -15.5 -40s5.16699 -29.167 15.5 -39.5s24.166 -15.5 41.499 -15.5c16.667 0 30.334 5.16699 41.001 15.5s16 23.5 16 39.5s-5.33301 29.333 -16 40s-24.334 16 -41.001 16
c-17.333 0 -31.166 -5.33301 -41.499 -16z" />
    <glyph glyph-name="AE" unicode="&#xc6;" horiz-adv-x="999" 
d="M967 141v-141h-412v142h-267l-86 -142h-202l463 700h500v-141h-258v-114h231v-141h-231v-163h262zM555 280v303l-183 -303h183z" />
    <glyph glyph-name="Ccedilla" unicode="&#xc7;" horiz-adv-x="667" 
d="M207.5 30c-58.333 30 -104 72.667 -137 128s-49.5 119.333 -49.5 192s16.5 136.667 49.5 192s78.667 98 137 128s124.166 45 197.499 45c93.333 0 177 -26 251 -78l-84 -136c-54 36 -109.667 54 -167 54c-40.667 0 -77.167 -8.33301 -109.5 -25
s-57.666 -40.5 -75.999 -71.5s-27.5 -67.167 -27.5 -108.5s9.16699 -77.5 27.5 -108.5s43.666 -54.833 75.999 -71.5s68.833 -25 109.5 -25c57.333 0 113 18 167 54l84 -136c-74 -52 -157.667 -78 -251 -78c-73.333 0 -139.166 15 -197.499 45zM408 -38
c30 -5.33301 52.334 -12.332 67.001 -20.999s22 -22.334 22 -41.001c0 -16.667 -6.83301 -31.167 -20.5 -43.5s-31 -23 -52 -32s-52.833 -21.167 -95.5 -36.5l-16 37c29.333 12.667 50.166 22.667 62.499 30s18.5 15 18.5 23c0 8.66699 -4 15.167 -12 19.5
s-22.667 8.83301 -44 13.5l48 128h54z" />
    <glyph glyph-name="Egrave" unicode="&#xc8;" horiz-adv-x="530" 
d="M499 145v-145h-438v700h433v-145h-278v-110h250v-141h-250v-159h283zM350 743h-108l-172 120h165z" />
    <glyph glyph-name="Eacute" unicode="&#xc9;" horiz-adv-x="530" 
d="M499 145v-145h-438v700h433v-145h-278v-110h250v-141h-250v-159h283zM343 743h-109l115 120h165z" />
    <glyph glyph-name="Ecircumflex" unicode="&#xca;" horiz-adv-x="530" 
d="M499 145v-145h-438v700h433v-145h-278v-110h250v-141h-250v-159h283zM483 743h-125l-67 62l-67 -62h-125l120 120h144z" />
    <glyph glyph-name="Edieresis" unicode="&#xcb;" horiz-adv-x="530" 
d="M499 145v-145h-438v700h433v-145h-278v-110h250v-141h-250v-159h283zM250 743h-133v114h133v-114zM468 743h-134v114h134v-114z" />
    <glyph glyph-name="Igrave" unicode="&#xcc;" horiz-adv-x="277" 
d="M216 0h-155v700h155v-700zM196 743h-108l-172 120h165z" />
    <glyph glyph-name="Iacute" unicode="&#xcd;" horiz-adv-x="277" 
d="M216 0h-155v700h155v-700zM189 743h-109l115 120h165z" />
    <glyph glyph-name="Icircumflex" unicode="&#xce;" horiz-adv-x="277" 
d="M216 0h-155v700h155v-700zM329 743h-125l-67 62l-67 -62h-125l120 120h144z" />
    <glyph glyph-name="Idieresis" unicode="&#xcf;" horiz-adv-x="277" 
d="M216 0h-155v700h155v-700zM96 743h-133v114h133v-114zM314 743h-134v114h134v-114z" />
    <glyph glyph-name="Eth" unicode="&#xd0;" horiz-adv-x="684" 
d="M481 657.5c57.333 -28.333 102 -68.833 134 -121.5s48 -114.667 48 -186s-16 -133.333 -48 -186s-76.667 -93.167 -134 -121.5s-122.666 -42.5 -195.999 -42.5h-223v293h-71v126h71v281h223c73.333 0 138.666 -14.167 195.999 -42.5zM441 196.5
c36.667 37 55 88.167 55 153.5c0 66 -18.333 117.333 -55 154s-84.334 55 -143.001 55h-81v-140h131v-126h-131v-152h81c58.667 0 106.334 18.5 143.001 55.5z" />
    <glyph glyph-name="Ntilde" unicode="&#xd1;" horiz-adv-x="744" 
d="M683 0h-132l-334 431h-1v-431h-155v700h131l335 -433h1v433h155v-700zM408.5 743.5c-16.333 3.66699 -36.166 8.83398 -59.499 15.501c-36 10 -60 15 -72 15c-11.333 0 -21.333 -3.16699 -30 -9.5s-16.667 -15.833 -24 -28.5l-47 15
c10.667 38.667 24.834 68.334 42.501 89.001s42.167 31 73.5 31c14 0 29.167 -1.83301 45.5 -5.5s36.166 -8.83398 59.499 -15.501c35.333 -10 59.333 -15 72 -15c20.667 0 38.667 13 54 39l47 -16c-11.333 -38.667 -25.833 -68.334 -43.5 -89.001s-41.834 -31 -72.501 -31
c-14 0 -29.167 1.83301 -45.5 5.5z" />
    <glyph glyph-name="Ograve" unicode="&#xd2;" horiz-adv-x="780" 
d="M578 669c56 -30.667 100.167 -73.667 132.5 -129s48.5 -118.666 48.5 -189.999s-16.167 -134.666 -48.5 -189.999s-76.5 -98.333 -132.5 -129s-118.667 -46 -188 -46s-132 15.333 -188 46s-100.167 73.667 -132.5 129s-48.5 118.666 -48.5 189.999
s16.167 134.666 48.5 189.999s76.5 98.333 132.5 129s118.667 46 188 46s132 -15.333 188 -46zM289 530c-30 -16.667 -53.667 -40.5 -71 -71.5s-26 -67.167 -26 -108.5s8.66699 -77.5 26 -108.5s41 -54.833 71 -71.5s63.667 -25 101 -25s71 8.33301 101 25
s53.667 40.5 71 71.5s26 67.167 26 108.5s-8.66699 77.5 -26 108.5s-41 54.833 -71 71.5s-63.667 25 -101 25s-71 -8.33301 -101 -25zM448 743h-108l-172 120h165z" />
    <glyph glyph-name="Oacute" unicode="&#xd3;" horiz-adv-x="780" 
d="M578 669c56 -30.667 100.167 -73.667 132.5 -129s48.5 -118.666 48.5 -189.999s-16.167 -134.666 -48.5 -189.999s-76.5 -98.333 -132.5 -129s-118.667 -46 -188 -46s-132 15.333 -188 46s-100.167 73.667 -132.5 129s-48.5 118.666 -48.5 189.999
s16.167 134.666 48.5 189.999s76.5 98.333 132.5 129s118.667 46 188 46s132 -15.333 188 -46zM289 530c-30 -16.667 -53.667 -40.5 -71 -71.5s-26 -67.167 -26 -108.5s8.66699 -77.5 26 -108.5s41 -54.833 71 -71.5s63.667 -25 101 -25s71 8.33301 101 25
s53.667 40.5 71 71.5s26 67.167 26 108.5s-8.66699 77.5 -26 108.5s-41 54.833 -71 71.5s-63.667 25 -101 25s-71 -8.33301 -101 -25zM441 743h-109l115 120h165z" />
    <glyph glyph-name="Ocircumflex" unicode="&#xd4;" horiz-adv-x="780" 
d="M578 669c56 -30.667 100.167 -73.667 132.5 -129s48.5 -118.666 48.5 -189.999s-16.167 -134.666 -48.5 -189.999s-76.5 -98.333 -132.5 -129s-118.667 -46 -188 -46s-132 15.333 -188 46s-100.167 73.667 -132.5 129s-48.5 118.666 -48.5 189.999
s16.167 134.666 48.5 189.999s76.5 98.333 132.5 129s118.667 46 188 46s132 -15.333 188 -46zM289 530c-30 -16.667 -53.667 -40.5 -71 -71.5s-26 -67.167 -26 -108.5s8.66699 -77.5 26 -108.5s41 -54.833 71 -71.5s63.667 -25 101 -25s71 8.33301 101 25
s53.667 40.5 71 71.5s26 67.167 26 108.5s-8.66699 77.5 -26 108.5s-41 54.833 -71 71.5s-63.667 25 -101 25s-71 -8.33301 -101 -25zM581 743h-125l-67 62l-67 -62h-125l120 120h144z" />
    <glyph glyph-name="Otilde" unicode="&#xd5;" horiz-adv-x="780" 
d="M578 669c56 -30.667 100.167 -73.667 132.5 -129s48.5 -118.666 48.5 -189.999s-16.167 -134.666 -48.5 -189.999s-76.5 -98.333 -132.5 -129s-118.667 -46 -188 -46s-132 15.333 -188 46s-100.167 73.667 -132.5 129s-48.5 118.666 -48.5 189.999
s16.167 134.666 48.5 189.999s76.5 98.333 132.5 129s118.667 46 188 46s132 -15.333 188 -46zM289 530c-30 -16.667 -53.667 -40.5 -71 -71.5s-26 -67.167 -26 -108.5s8.66699 -77.5 26 -108.5s41 -54.833 71 -71.5s63.667 -25 101 -25s71 8.33301 101 25
s53.667 40.5 71 71.5s26 67.167 26 108.5s-8.66699 77.5 -26 108.5s-41 54.833 -71 71.5s-63.667 25 -101 25s-71 -8.33301 -101 -25zM426.5 743.5c-16.333 3.66699 -36.166 8.83398 -59.499 15.501c-36 10 -60 15 -72 15c-11.333 0 -21.333 -3.16699 -30 -9.5
s-16.667 -15.833 -24 -28.5l-47 15c10.667 38.667 24.834 68.334 42.501 89.001s42.167 31 73.5 31c14 0 29.167 -1.83301 45.5 -5.5s36.166 -8.83398 59.499 -15.501c35.333 -10 59.333 -15 72 -15c20.667 0 38.667 13 54 39l47 -16
c-11.333 -38.667 -25.833 -68.334 -43.5 -89.001s-41.834 -31 -72.501 -31c-14 0 -29.167 1.83301 -45.5 5.5z" />
    <glyph glyph-name="Odieresis" unicode="&#xd6;" horiz-adv-x="780" 
d="M578 669c56 -30.667 100.167 -73.667 132.5 -129s48.5 -118.666 48.5 -189.999s-16.167 -134.666 -48.5 -189.999s-76.5 -98.333 -132.5 -129s-118.667 -46 -188 -46s-132 15.333 -188 46s-100.167 73.667 -132.5 129s-48.5 118.666 -48.5 189.999
s16.167 134.666 48.5 189.999s76.5 98.333 132.5 129s118.667 46 188 46s132 -15.333 188 -46zM289 530c-30 -16.667 -53.667 -40.5 -71 -71.5s-26 -67.167 -26 -108.5s8.66699 -77.5 26 -108.5s41 -54.833 71 -71.5s63.667 -25 101 -25s71 8.33301 101 25
s53.667 40.5 71 71.5s26 67.167 26 108.5s-8.66699 77.5 -26 108.5s-41 54.833 -71 71.5s-63.667 25 -101 25s-71 -8.33301 -101 -25zM348 743h-133v114h133v-114zM566 743h-134v114h134v-114z" />
    <glyph glyph-name="multiply" unicode="&#xd7;" 
d="M522 473l-174 -175l174 -175l-47 -47l-175 174l-175 -174l-47 47l174 175l-174 175l47 47l175 -174l175 174z" />
    <glyph glyph-name="Oslash" unicode="&#xd8;" horiz-adv-x="780" 
d="M726 509.5c22 -48.333 33 -101.5 33 -159.5c0 -71.333 -16.167 -134.666 -48.5 -189.999s-76.5 -98.333 -132.5 -129s-118.667 -46 -188 -46c-75.333 0 -142.333 18 -201 54l-40 -53l-43 30l40 53c-39.333 32.667 -70 73.167 -92 121.5s-33 101.5 -33 159.5
c0 71.333 16.167 134.666 48.5 189.999s76.5 98.333 132.5 129s118.667 46 188 46c75.333 0 142.333 -18 201 -54l40 53l43 -30l-40 -53c39.333 -32.667 70 -73.167 92 -121.5zM247 203l245 326c-29.333 17.333 -63.333 26 -102 26c-37.333 0 -71 -8.33301 -101 -25
s-53.667 -40.5 -71 -71.5s-26 -67.167 -26 -108.5c0 -61.333 18.333 -110.333 55 -147zM491 170c30 16.667 53.667 40.5 71 71.5s26 67.167 26 108.5c0 61.333 -18.333 110.333 -55 147l-245 -326c29.333 -17.333 63.333 -26 102 -26c37.333 0 71 8.33301 101 25z" />
    <glyph glyph-name="Ugrave" unicode="&#xd9;" horiz-adv-x="706" 
d="M650 283c0 -92.667 -25.332 -165.167 -75.999 -217.5s-124.334 -78.5 -221.001 -78.5c-97.333 0 -171.333 26.167 -222 78.5s-76 124.833 -76 217.5v417h165v-403c0 -45.333 11.5 -81.666 34.5 -108.999s55.833 -41 98.5 -41s75.5 13.667 98.5 41
s34.5 63.666 34.5 108.999v403h164v-417zM411.001 743h-108l-172 120h165z" />
    <glyph glyph-name="Uacute" unicode="&#xda;" horiz-adv-x="706" 
d="M650 283c0 -92.667 -25.332 -165.167 -75.999 -217.5s-124.334 -78.5 -221.001 -78.5c-97.333 0 -171.333 26.167 -222 78.5s-76 124.833 -76 217.5v417h165v-403c0 -45.333 11.5 -81.666 34.5 -108.999s55.833 -41 98.5 -41s75.5 13.667 98.5 41
s34.5 63.666 34.5 108.999v403h164v-417zM404.001 743h-109l115 120h165z" />
    <glyph glyph-name="Ucircumflex" unicode="&#xdb;" horiz-adv-x="706" 
d="M650 283c0 -92.667 -25.332 -165.167 -75.999 -217.5s-124.334 -78.5 -221.001 -78.5c-97.333 0 -171.333 26.167 -222 78.5s-76 124.833 -76 217.5v417h165v-403c0 -45.333 11.5 -81.666 34.5 -108.999s55.833 -41 98.5 -41s75.5 13.667 98.5 41
s34.5 63.666 34.5 108.999v403h164v-417zM544.001 743h-125l-67 62l-67 -62h-125l120 120h144z" />
    <glyph glyph-name="Udieresis" unicode="&#xdc;" horiz-adv-x="706" 
d="M650 283c0 -92.667 -25.332 -165.167 -75.999 -217.5s-124.334 -78.5 -221.001 -78.5c-97.333 0 -171.333 26.167 -222 78.5s-76 124.833 -76 217.5v417h165v-403c0 -45.333 11.5 -81.666 34.5 -108.999s55.833 -41 98.5 -41s75.5 13.667 98.5 41
s34.5 63.666 34.5 108.999v403h164v-417zM311.001 743h-133v114h133v-114zM529.001 743h-134v114h134v-114z" />
    <glyph glyph-name="Yacute" unicode="&#xdd;" horiz-adv-x="659" 
d="M407 253v-253h-155v251l-252 449h186l142 -293h2l143 293h186zM380 743h-109l115 120h165z" />
    <glyph glyph-name="Thorn" unicode="&#xde;" horiz-adv-x="603" 
d="M217 587l101 0.000976562c86.667 0 152.334 -21.667 197.001 -65s67 -100 67 -170c0 -70.667 -22.333 -127.834 -67 -171.501s-110.334 -65.5 -197.001 -65.5h-101v-115h-156v700h156v-113zM217 449.001v-196.001h101c34 0 60.833 8.33301 80.5 25
s29.5 41.334 29.5 74.001c0 32 -9.83301 56.167 -29.5 72.5s-46.5 24.5 -80.5 24.5h-101z" />
    <glyph glyph-name="germandbls" unicode="&#xdf;" horiz-adv-x="594" 
d="M524.5 344.5c32.333 -32.333 48.499 -76.499 48.499 -132.499c0 -70 -24.833 -123.667 -74.5 -161s-119.5 -56 -209.5 -56h-49v130h40c50.667 0 86.834 8 108.501 24s32.5 41.333 32.5 76c0 40.667 -13.667 69.5 -41 86.5s-68.333 25.5 -123 25.5v112c70 0 105 24 105 72
c0 22 -7 38.5 -21 49.5s-32.333 16.5 -55 16.5c-28 0 -49.667 -7.83301 -65 -23.5s-23 -39.167 -23 -70.5v-623h-151v610c0 72.667 20.333 130 61 172s102.334 63 185.001 63c70 0 124 -15 162 -45s57 -70.667 57 -122c0 -38 -10.833 -69.833 -32.5 -95.5
s-54.834 -42.834 -99.501 -51.501v-2c64 -4 112.167 -22.167 144.5 -54.5z" />
    <glyph glyph-name="agrave" unicode="&#xe0;" horiz-adv-x="586" 
d="M129 13.5c-33.333 19 -59.666 47 -78.999 84s-29 81.5 -29 133.5s9.66699 96.5 29 133.5s45.666 65 78.999 84s70.333 28.5 111 28.5c68.667 0 119 -26 151 -78h2v63h151v-462h-151v63h-2c-32 -52 -82.333 -78 -151 -78c-40.667 0 -77.667 9.5 -111 28.5zM359 152.5
c20 19.667 30 45.834 30 78.501s-10 58.834 -30 78.501s-45.667 29.5 -77 29.5c-30.667 0 -56 -9.83301 -76 -29.5s-30 -45.834 -30 -78.501s10 -58.834 30 -78.501s45.333 -29.5 76 -29.5c31.333 0 57 9.83301 77 29.5zM336 553h-118l-162 154h165z" />
    <glyph glyph-name="aacute" unicode="&#xe1;" horiz-adv-x="586" 
d="M129 13.5c-33.333 19 -59.666 47 -78.999 84s-29 81.5 -29 133.5s9.66699 96.5 29 133.5s45.666 65 78.999 84s70.333 28.5 111 28.5c68.667 0 119 -26 151 -78h2v63h151v-462h-151v63h-2c-32 -52 -82.333 -78 -151 -78c-40.667 0 -77.667 9.5 -111 28.5zM359 152.5
c20 19.667 30 45.834 30 78.501s-10 58.834 -30 78.501s-45.667 29.5 -77 29.5c-30.667 0 -56 -9.83301 -76 -29.5s-30 -45.834 -30 -78.501s10 -58.834 30 -78.501s45.333 -29.5 76 -29.5c31.333 0 57 9.83301 77 29.5zM333 553h-118l115 154h165z" />
    <glyph glyph-name="acircumflex" unicode="&#xe2;" horiz-adv-x="586" 
d="M129 13.5c-33.333 19 -59.666 47 -78.999 84s-29 81.5 -29 133.5s9.66699 96.5 29 133.5s45.666 65 78.999 84s70.333 28.5 111 28.5c68.667 0 119 -26 151 -78h2v63h151v-462h-151v63h-2c-32 -52 -82.333 -78 -151 -78c-40.667 0 -77.667 9.5 -111 28.5zM359 152.5
c20 19.667 30 45.834 30 78.501s-10 58.834 -30 78.501s-45.667 29.5 -77 29.5c-30.667 0 -56 -9.83301 -76 -29.5s-30 -45.834 -30 -78.501s10 -58.834 30 -78.501s45.333 -29.5 76 -29.5c31.333 0 57 9.83301 77 29.5zM471 553h-125l-68 82l-67 -82h-125l122 154h141z" />
    <glyph glyph-name="atilde" unicode="&#xe3;" horiz-adv-x="586" 
d="M129 13.5c-33.333 19 -59.666 47 -78.999 84s-29 81.5 -29 133.5s9.66699 96.5 29 133.5s45.666 65 78.999 84s70.333 28.5 111 28.5c68.667 0 119 -26 151 -78h2v63h151v-462h-151v63h-2c-32 -52 -82.333 -78 -151 -78c-40.667 0 -77.667 9.5 -111 28.5zM359 152.5
c20 19.667 30 45.834 30 78.501s-10 58.834 -30 78.501s-45.667 29.5 -77 29.5c-30.667 0 -56 -9.83301 -76 -29.5s-30 -45.834 -30 -78.501s10 -58.834 30 -78.501s45.333 -29.5 76 -29.5c31.333 0 57 9.83301 77 29.5zM243.5 700
c15.667 -4.66699 34.166 -11.334 55.499 -20.001c12.667 -4.66699 25 -9 37 -13s21.667 -6 29 -6c21.333 0 39.333 15.333 54 46l57 -19c-11.333 -42 -26 -74.667 -44 -98s-42 -35 -72 -35c-14.667 0 -29.667 2.33301 -45 7s-33.666 11.334 -54.999 20.001
c-32.667 12.667 -55 19 -67 19c-11.333 0 -21.333 -4 -30 -12s-16.667 -19.333 -24 -34l-56 19c10.667 42 25 74.667 43 98s42.333 35 73 35c14 0 28.833 -2.33301 44.5 -7z" />
    <glyph glyph-name="adieresis" unicode="&#xe4;" horiz-adv-x="586" 
d="M129 13.5c-33.333 19 -59.666 47 -78.999 84s-29 81.5 -29 133.5s9.66699 96.5 29 133.5s45.666 65 78.999 84s70.333 28.5 111 28.5c68.667 0 119 -26 151 -78h2v63h151v-462h-151v63h-2c-32 -52 -82.333 -78 -151 -78c-40.667 0 -77.667 9.5 -111 28.5zM359 152.5
c20 19.667 30 45.834 30 78.501s-10 58.834 -30 78.501s-45.667 29.5 -77 29.5c-30.667 0 -56 -9.83301 -76 -29.5s-30 -45.834 -30 -78.501s10 -58.834 30 -78.501s45.333 -29.5 76 -29.5c31.333 0 57 9.83301 77 29.5zM247 555h-124v135h124v-135zM435 555h-124v135h124
v-135z" />
    <glyph glyph-name="aring" unicode="&#xe5;" horiz-adv-x="586" 
d="M129 13.5c-33.333 19 -59.666 47 -78.999 84s-29 81.5 -29 133.5s9.66699 96.5 29 133.5s45.666 65 78.999 84s70.333 28.5 111 28.5c68.667 0 119 -26 151 -78h2v63h151v-462h-151v63h-2c-32 -52 -82.333 -78 -151 -78c-40.667 0 -77.667 9.5 -111 28.5zM359 152.5
c20 19.667 30 45.834 30 78.501s-10 58.834 -30 78.501s-45.667 29.5 -77 29.5c-30.667 0 -56 -9.83301 -76 -29.5s-30 -45.834 -30 -78.501s10 -58.834 30 -78.501s45.333 -29.5 76 -29.5c31.333 0 57 9.83301 77 29.5zM364 714c22.667 -22 34 -50 34 -84
s-11.333 -62 -34 -84s-51.334 -33 -86.001 -33s-63.334 11 -86.001 33s-34 50 -34 84s11.333 62 34 84s51.334 33 86.001 33s63.334 -11 86.001 -33zM237.5 669.5c-10.333 -10.333 -15.5 -23.5 -15.5 -39.5s5.16699 -29.167 15.5 -39.5s23.833 -15.5 40.5 -15.5
s30.167 5.16699 40.5 15.5s15.5 23.5 15.5 39.5s-5.16699 29.167 -15.5 39.5s-23.833 15.5 -40.5 15.5s-30.167 -5.16699 -40.5 -15.5z" />
    <glyph glyph-name="ae" unicode="&#xe6;" horiz-adv-x="828" 
d="M74 29.5c-33.333 29.667 -49.9971 69.8369 -49.9971 120.504c0 50 16.333 89.5 49 118.5s77.334 43.5 134.001 43.5c28 0 54 -3.83301 78 -11.5s43.333 -17.834 58 -30.501h2v20c0 19.333 -8.16699 36.166 -24.5 50.499s-42.5 21.5 -78.5 21.5
c-32 0 -76 -6.66699 -132 -20l-30 115c63.333 13.333 117.666 20 162.999 20c42.667 0 77.667 -6.16699 105 -18.5s48.666 -34.5 63.999 -66.5h2c18 26 41.833 46.5 71.5 61.5s64.167 22.5 103.5 22.5c68 0 122 -20.833 162 -62.5s60 -103.167 60 -184.5v-34h-328
c6.66699 -28.667 20.167 -49.834 40.5 -63.501s45.5 -20.5 75.5 -20.5c25.333 0 49.666 4 72.999 12s43.333 18 60 30l55 -114c-58.667 -36 -121.334 -54 -188.001 -54c-44.667 0 -83.167 8 -115.5 24s-57.833 39 -76.5 69h-2c-24 -32.667 -52.667 -56.334 -86 -71.001
s-69.333 -22 -108 -22c-58 0 -103.667 14.833 -137 44.5zM665.003 284.003c-0.666992 26.667 -9.16699 47.5 -25.5 62.5s-36.833 22.5 -61.5 22.5c-24 0 -44.833 -7.16699 -62.5 -21.5s-28.167 -35.5 -31.5 -63.5h181zM325.003 113.503
c15.333 10.333 22.999 24.5 22.999 42.5s-7.66699 32.333 -23 43s-34.666 16 -57.999 16s-42 -5.33301 -56 -16s-21 -25 -21 -43s6.83301 -32.167 20.5 -42.5s32.167 -15.5 55.5 -15.5c24 0 43.667 5.16699 59 15.5z" />
    <glyph glyph-name="ccedilla" unicode="&#xe7;" horiz-adv-x="451" 
d="M145.5 15.5c-39 20.333 -69.5 49.166 -91.5 86.499s-33 80.333 -33 129s11 91.667 33 129s52.5 66.166 91.5 86.499s83.167 30.5 132.5 30.5c59.333 0 115 -15 167 -45l-62 -121c-29.333 18.667 -62 28 -98 28c-31.333 0 -58 -9.66699 -80 -29s-33 -45.666 -33 -78.999
s11 -59.666 33 -78.999s48.667 -29 80 -29c36 0 68.667 9.33301 98 28l62 -121c-52 -30 -107.667 -45 -167 -45c-49.333 0 -93.5 10.167 -132.5 30.5zM290 -38c30 -5.33301 52.334 -12.332 67.001 -20.999s22 -22.334 22 -41.001c0 -16.667 -6.83301 -31.167 -20.5 -43.5
s-31 -23 -52 -32s-52.833 -21.167 -95.5 -36.5l-16 37c29.333 12.667 50.166 22.667 62.499 30s18.5 15 18.5 23c0 8.66699 -4 15.167 -12 19.5s-22.667 8.83301 -44 13.5l48 128h54z" />
    <glyph glyph-name="egrave" unicode="&#xe8;" horiz-adv-x="511" 
d="M433 413.5c40.667 -41.667 61.0029 -103.167 61.0029 -184.5v-34h-331c4.66699 -28 17.5 -49 38.5 -63s47.5 -21 79.5 -21c25.333 0 49.666 4.16699 72.999 12.5s43.666 18.166 60.999 29.499l55 -114c-58.667 -36 -122.334 -54 -191.001 -54
c-51.333 0 -96.5 10.167 -135.5 30.5s-69.167 48.833 -90.5 85.5s-32 79.334 -32 128.001c0 50.667 10.333 94.667 31 132s49.5 65.833 86.5 85.5s79.167 29.5 126.5 29.5c71.333 0 127.333 -20.833 168 -62.5zM194.503 348c-17 -14 -27.168 -35.333 -30.501 -64h184
c-0.666992 26.667 -9.16699 47.5 -25.5 62.5s-37.166 22.5 -62.499 22.5c-26.667 0 -48.5 -7 -65.5 -21zM322.002 553h-118l-162 154h165z" />
    <glyph glyph-name="eacute" unicode="&#xe9;" horiz-adv-x="511" 
d="M433 413.5c40.667 -41.667 61.0029 -103.167 61.0029 -184.5v-34h-331c4.66699 -28 17.5 -49 38.5 -63s47.5 -21 79.5 -21c25.333 0 49.666 4.16699 72.999 12.5s43.666 18.166 60.999 29.499l55 -114c-58.667 -36 -122.334 -54 -191.001 -54
c-51.333 0 -96.5 10.167 -135.5 30.5s-69.167 48.833 -90.5 85.5s-32 79.334 -32 128.001c0 50.667 10.333 94.667 31 132s49.5 65.833 86.5 85.5s79.167 29.5 126.5 29.5c71.333 0 127.333 -20.833 168 -62.5zM194.503 348c-17 -14 -27.168 -35.333 -30.501 -64h184
c-0.666992 26.667 -9.16699 47.5 -25.5 62.5s-37.166 22.5 -62.499 22.5c-26.667 0 -48.5 -7 -65.5 -21zM319.002 553h-118l115 154h165z" />
    <glyph glyph-name="ecircumflex" unicode="&#xea;" horiz-adv-x="511" 
d="M433 413.5c40.667 -41.667 61.0029 -103.167 61.0029 -184.5v-34h-331c4.66699 -28 17.5 -49 38.5 -63s47.5 -21 79.5 -21c25.333 0 49.666 4.16699 72.999 12.5s43.666 18.166 60.999 29.499l55 -114c-58.667 -36 -122.334 -54 -191.001 -54
c-51.333 0 -96.5 10.167 -135.5 30.5s-69.167 48.833 -90.5 85.5s-32 79.334 -32 128.001c0 50.667 10.333 94.667 31 132s49.5 65.833 86.5 85.5s79.167 29.5 126.5 29.5c71.333 0 127.333 -20.833 168 -62.5zM194.503 348c-17 -14 -27.168 -35.333 -30.501 -64h184
c-0.666992 26.667 -9.16699 47.5 -25.5 62.5s-37.166 22.5 -62.499 22.5c-26.667 0 -48.5 -7 -65.5 -21zM457.002 553h-125l-68 82l-67 -82h-125l122 154h141z" />
    <glyph glyph-name="edieresis" unicode="&#xeb;" horiz-adv-x="511" 
d="M433 413.5c40.667 -41.667 61.0029 -103.167 61.0029 -184.5v-34h-331c4.66699 -28 17.5 -49 38.5 -63s47.5 -21 79.5 -21c25.333 0 49.666 4.16699 72.999 12.5s43.666 18.166 60.999 29.499l55 -114c-58.667 -36 -122.334 -54 -191.001 -54
c-51.333 0 -96.5 10.167 -135.5 30.5s-69.167 48.833 -90.5 85.5s-32 79.334 -32 128.001c0 50.667 10.333 94.667 31 132s49.5 65.833 86.5 85.5s79.167 29.5 126.5 29.5c71.333 0 127.333 -20.833 168 -62.5zM194.503 348c-17 -14 -27.168 -35.333 -30.501 -64h184
c-0.666992 26.667 -9.16699 47.5 -25.5 62.5s-37.166 22.5 -62.499 22.5c-26.667 0 -48.5 -7 -65.5 -21zM233.002 555h-124v135h124v-135zM421.002 555h-124v135h124v-135z" />
    <glyph glyph-name="igrave" unicode="&#xec;" horiz-adv-x="244" 
d="M181 553h-118l-93 154h136zM47 462h151v-462h-151v462z" />
    <glyph glyph-name="iacute" unicode="&#xed;" horiz-adv-x="244" 
d="M138 707h136l-93 -154h-118zM47 462h151v-462h-151v462z" />
    <glyph glyph-name="icircumflex" unicode="&#xee;" horiz-adv-x="244" 
d="M280 553h-116l-42 91l-42 -91h-116l87 154h142zM47 462h151v-462h-151v462z" />
    <glyph glyph-name="idieresis" unicode="&#xef;" horiz-adv-x="244" 
d="M105 555h-105v135h105v-135zM244 555h-105v135h105v-135zM47 462h151v-462h-151v462z" />
    <glyph glyph-name="eth" unicode="&#xf0;" horiz-adv-x="567" 
d="M536 309c0 -76 -12.5 -138.166 -37.5 -186.499s-57.5 -83.333 -97.5 -105s-83.667 -32.5 -131 -32.5c-51.333 0 -95.666 10.833 -132.999 32.5s-66 51.167 -86 88.5s-30 79.333 -30 126c0 50 10.5 93.667 31.5 131s48.667 65.666 83 84.999s71.166 29 110.499 29
c34 0 64.5 -6.83301 91.5 -20.5s48.833 -35.167 65.5 -64.5h2c-9.33301 83.333 -44 146.333 -104 189l-91 -81l-61 65l66 58c-27.333 10 -61.333 17.667 -102 23l24 115c67.333 -8 127.333 -24 180 -48l77 68l60 -66l-58 -51c93.333 -74.667 140 -193 140 -355zM354 152.001
c21.333 20.667 31.999 47.3311 31.999 79.998c0 34 -10.5 61 -31.5 81s-48.167 30 -81.5 30s-60.166 -10.167 -80.499 -30.5s-30.5 -47.166 -30.5 -80.499s10.5 -60.166 31.5 -80.499s47.833 -30.5 80.5 -30.5c32 0 58.667 10.333 80 31z" />
    <glyph glyph-name="ntilde" unicode="&#xf1;" horiz-adv-x="563" 
d="M474 429c31.333 -32 47.001 -79.667 47.001 -143v-286h-150v244c0 34 -7 59.167 -21 75.5s-35.333 24.5 -64 24.5c-27.333 0 -49 -9 -65 -27s-24 -46.333 -24 -85v-232h-151v462h148v-70h2c16 27.333 37 48.333 63 63s55.333 22 88 22c53.333 0 95.666 -16 126.999 -48z
M253.501 700c15.667 -4.66699 34.166 -11.334 55.499 -20.001c12.667 -4.66699 25 -9 37 -13s21.667 -6 29 -6c21.333 0 39.333 15.333 54 46l57 -19c-11.333 -42 -26 -74.667 -44 -98s-42 -35 -72 -35c-14.667 0 -29.667 2.33301 -45 7s-33.666 11.334 -54.999 20.001
c-32.667 12.667 -55 19 -67 19c-11.333 0 -21.333 -4 -30 -12s-16.667 -19.333 -24 -34l-56 19c10.667 42 25 74.667 43 98s42.333 35 73 35c14 0 28.833 -2.33301 44.5 -7z" />
    <glyph glyph-name="ograve" unicode="&#xf2;" horiz-adv-x="561" 
d="M414 446.5c39.333 -20.333 70.166 -49.166 92.499 -86.499s33.5 -80.333 33.5 -129s-11.167 -91.667 -33.5 -129s-53.166 -66.166 -92.499 -86.499s-84 -30.5 -134 -30.5c-49.333 0 -93.666 10.167 -132.999 30.5s-70.166 49.166 -92.499 86.499s-33.5 80.333 -33.5 129
s11.167 91.667 33.5 129s53.166 66.166 92.499 86.499s83.666 30.5 132.999 30.5c50 0 94.667 -10.167 134 -30.5zM203 309c-20.667 -20 -31 -46.002 -31 -78.002s10.333 -58 31 -78s46.334 -30 77.001 -30c31.333 0 57.166 9.83301 77.499 29.5s30.5 45.834 30.5 78.501
s-10.167 58.834 -30.5 78.501s-46.166 29.5 -77.499 29.5c-30.667 0 -56.334 -10 -77.001 -30zM337 552.998h-118l-162 154h165z" />
    <glyph glyph-name="oacute" unicode="&#xf3;" horiz-adv-x="561" 
d="M414 446.5c39.333 -20.333 70.166 -49.166 92.499 -86.499s33.5 -80.333 33.5 -129s-11.167 -91.667 -33.5 -129s-53.166 -66.166 -92.499 -86.499s-84 -30.5 -134 -30.5c-49.333 0 -93.666 10.167 -132.999 30.5s-70.166 49.166 -92.499 86.499s-33.5 80.333 -33.5 129
s11.167 91.667 33.5 129s53.166 66.166 92.499 86.499s83.666 30.5 132.999 30.5c50 0 94.667 -10.167 134 -30.5zM203 309c-20.667 -20 -31 -46.002 -31 -78.002s10.333 -58 31 -78s46.334 -30 77.001 -30c31.333 0 57.166 9.83301 77.499 29.5s30.5 45.834 30.5 78.501
s-10.167 58.834 -30.5 78.501s-46.166 29.5 -77.499 29.5c-30.667 0 -56.334 -10 -77.001 -30zM334 552.998h-118l115 154h165z" />
    <glyph glyph-name="ocircumflex" unicode="&#xf4;" horiz-adv-x="561" 
d="M414 446.5c39.333 -20.333 70.166 -49.166 92.499 -86.499s33.5 -80.333 33.5 -129s-11.167 -91.667 -33.5 -129s-53.166 -66.166 -92.499 -86.499s-84 -30.5 -134 -30.5c-49.333 0 -93.666 10.167 -132.999 30.5s-70.166 49.166 -92.499 86.499s-33.5 80.333 -33.5 129
s11.167 91.667 33.5 129s53.166 66.166 92.499 86.499s83.666 30.5 132.999 30.5c50 0 94.667 -10.167 134 -30.5zM203 309c-20.667 -20 -31 -46.002 -31 -78.002s10.333 -58 31 -78s46.334 -30 77.001 -30c31.333 0 57.166 9.83301 77.499 29.5s30.5 45.834 30.5 78.501
s-10.167 58.834 -30.5 78.501s-46.166 29.5 -77.499 29.5c-30.667 0 -56.334 -10 -77.001 -30zM472 552.998h-125l-68 82l-67 -82h-125l122 154h141z" />
    <glyph glyph-name="otilde" unicode="&#xf5;" horiz-adv-x="561" 
d="M414 446.5c39.333 -20.333 70.166 -49.166 92.499 -86.499s33.5 -80.333 33.5 -129s-11.167 -91.667 -33.5 -129s-53.166 -66.166 -92.499 -86.499s-84 -30.5 -134 -30.5c-49.333 0 -93.666 10.167 -132.999 30.5s-70.166 49.166 -92.499 86.499s-33.5 80.333 -33.5 129
s11.167 91.667 33.5 129s53.166 66.166 92.499 86.499s83.666 30.5 132.999 30.5c50 0 94.667 -10.167 134 -30.5zM203 309c-20.667 -20 -31 -46.002 -31 -78.002s10.333 -58 31 -78s46.334 -30 77.001 -30c31.333 0 57.166 9.83301 77.499 29.5s30.5 45.834 30.5 78.501
s-10.167 58.834 -30.5 78.501s-46.166 29.5 -77.499 29.5c-30.667 0 -56.334 -10 -77.001 -30zM244.5 699.998c15.667 -4.66699 34.166 -11.334 55.499 -20.001c12.667 -4.66699 25 -9 37 -13s21.667 -6 29 -6c21.333 0 39.333 15.333 54 46l57 -19
c-11.333 -42 -26 -74.667 -44 -98s-42 -35 -72 -35c-14.667 0 -29.667 2.33301 -45 7s-33.666 11.334 -54.999 20.001c-32.667 12.667 -55 19 -67 19c-11.333 0 -21.333 -4 -30 -12s-16.667 -19.333 -24 -34l-56 19c10.667 42 25 74.667 43 98s42.333 35 73 35
c14 0 28.833 -2.33301 44.5 -7z" />
    <glyph glyph-name="odieresis" unicode="&#xf6;" horiz-adv-x="561" 
d="M414 446.5c39.333 -20.333 70.166 -49.166 92.499 -86.499s33.5 -80.333 33.5 -129s-11.167 -91.667 -33.5 -129s-53.166 -66.166 -92.499 -86.499s-84 -30.5 -134 -30.5c-49.333 0 -93.666 10.167 -132.999 30.5s-70.166 49.166 -92.499 86.499s-33.5 80.333 -33.5 129
s11.167 91.667 33.5 129s53.166 66.166 92.499 86.499s83.666 30.5 132.999 30.5c50 0 94.667 -10.167 134 -30.5zM203 309c-20.667 -20 -31 -46.002 -31 -78.002s10.333 -58 31 -78s46.334 -30 77.001 -30c31.333 0 57.166 9.83301 77.499 29.5s30.5 45.834 30.5 78.501
s-10.167 58.834 -30.5 78.501s-46.166 29.5 -77.499 29.5c-30.667 0 -56.334 -10 -77.001 -30zM248 554.998h-124v135h124v-135zM436 554.998h-124v135h124v-135z" />
    <glyph glyph-name="divide" unicode="&#xf7;" 
d="M348 415h-96v98h96v-98zM559 267h-518v63h518v-63zM348 84h-96v98h96v-98z" />
    <glyph glyph-name="oslash" unicode="&#xf8;" horiz-adv-x="561" 
d="M520 333.5c13.333 -31 20.001 -65.168 20.001 -102.501c0 -48.667 -11.167 -91.667 -33.5 -129s-53.166 -66.166 -92.499 -86.499s-84 -30.5 -134 -30.5c-58.667 0 -110.667 14.667 -156 44l-38 -43l-27 23l37 42c-24 22 -42.5 48.333 -55.5 79
s-19.5 64.334 -19.5 101.001c0 48.667 11.167 91.667 33.5 129s53.166 66.166 92.499 86.499s83.666 30.5 132.999 30.5c58 0 109.333 -14 154 -42l37 42l27 -24l-35 -40c24.667 -22 43.667 -48.5 57 -79.5zM194.001 162.999l143.001 162c-16.667 9.33301 -35.667 14 -57 14
c-30.667 0 -56.334 -10 -77.001 -30s-31 -46 -31 -78c0 -27.333 7.33301 -50 22 -68zM357.502 152.499c20.333 19.667 30.501 45.833 30.501 78.5c0 27.333 -8 51 -24 71l-143 -163c18 -10.667 37.667 -16 59 -16c31.333 0 57.166 9.83301 77.499 29.5z" />
    <glyph glyph-name="ugrave" unicode="&#xf9;" horiz-adv-x="557" 
d="M89.5 33.5c-32.333 32.333 -48.5 80.167 -48.5 143.5v285h156v-252c0 -32 6.66699 -55.5 20 -70.5s32 -22.5 56 -22.5c27.333 0 48.666 10 63.999 30s23 50.667 23 92v223h151v-462h-148v72h-2c-17.333 -28 -37.666 -49.5 -60.999 -64.5s-51.333 -22.5 -84 -22.5
c-52 0 -94.167 16.167 -126.5 48.5zM338 553.001h-118l-162 154h165z" />
    <glyph glyph-name="uacute" unicode="&#xfa;" horiz-adv-x="557" 
d="M89.5 33.5c-32.333 32.333 -48.5 80.167 -48.5 143.5v285h156v-252c0 -32 6.66699 -55.5 20 -70.5s32 -22.5 56 -22.5c27.333 0 48.666 10 63.999 30s23 50.667 23 92v223h151v-462h-148v72h-2c-17.333 -28 -37.666 -49.5 -60.999 -64.5s-51.333 -22.5 -84 -22.5
c-52 0 -94.167 16.167 -126.5 48.5zM335 553.001h-118l115 154h165z" />
    <glyph glyph-name="ucircumflex" unicode="&#xfb;" horiz-adv-x="557" 
d="M89.5 33.5c-32.333 32.333 -48.5 80.167 -48.5 143.5v285h156v-252c0 -32 6.66699 -55.5 20 -70.5s32 -22.5 56 -22.5c27.333 0 48.666 10 63.999 30s23 50.667 23 92v223h151v-462h-148v72h-2c-17.333 -28 -37.666 -49.5 -60.999 -64.5s-51.333 -22.5 -84 -22.5
c-52 0 -94.167 16.167 -126.5 48.5zM473 553.001h-125l-68 82l-67 -82h-125l122 154h141z" />
    <glyph glyph-name="udieresis" unicode="&#xfc;" horiz-adv-x="557" 
d="M89.5 33.5c-32.333 32.333 -48.5 80.167 -48.5 143.5v285h156v-252c0 -32 6.66699 -55.5 20 -70.5s32 -22.5 56 -22.5c27.333 0 48.666 10 63.999 30s23 50.667 23 92v223h151v-462h-148v72h-2c-17.333 -28 -37.666 -49.5 -60.999 -64.5s-51.333 -22.5 -84 -22.5
c-52 0 -94.167 16.167 -126.5 48.5zM249 555.001h-124v135h124v-135zM437 555.001h-124v135h124v-135z" />
    <glyph glyph-name="yacute" unicode="&#xfd;" horiz-adv-x="560" 
d="M555 462l-307 -662h-152l116 244l-207 418h174l108 -255l115 255h153zM342 553h-118l115 154h165z" />
    <glyph glyph-name="thorn" unicode="&#xfe;" horiz-adv-x="590" 
d="M47 700h151v-301h2c32 52 82 78 150 78c40.667 0 77.667 -9.5 111 -28.5s59.833 -47 79.5 -84s29.5 -81.5 29.5 -133.5s-9.83301 -96.5 -29.5 -133.5s-46.167 -65 -79.5 -84s-70.333 -28.5 -111 -28.5c-68 0 -118 26 -150 78h-2v-263h-151v900zM385 152.5
c20 19.667 30 45.834 30 78.501s-10 58.834 -30 78.501s-45.667 29.5 -77 29.5c-30.667 0 -56 -9.83301 -76 -29.5s-30 -45.834 -30 -78.501s10 -58.834 30 -78.501s45.333 -29.5 76 -29.5c31.333 0 57 9.83301 77 29.5z" />
    <glyph glyph-name="ydieresis" unicode="&#xff;" horiz-adv-x="560" 
d="M555 462l-307 -662h-152l116 244l-207 418h174l108 -255l115 255h153zM256 555h-124v135h124v-135zM444 555h-124v135h124v-135z" />
    <glyph glyph-name="Amacron" unicode="&#x100;" horiz-adv-x="716" 
d="M493 142h-269l-50 -142h-174l276 700h164l276 -700h-173zM445 280l-87 248l-86 -248h173zM520 749h-324v95h324v-95z" />
    <glyph glyph-name="amacron" unicode="&#x101;" horiz-adv-x="586" 
d="M129 13.5c-33.333 19 -59.666 47 -78.999 84s-29 81.5 -29 133.5s9.66699 96.5 29 133.5s45.666 65 78.999 84s70.333 28.5 111 28.5c68.667 0 119 -26 151 -78h2v63h151v-462h-151v63h-2c-32 -52 -82.333 -78 -151 -78c-40.667 0 -77.667 9.5 -111 28.5zM359 152.5
c20 19.667 30 45.834 30 78.501s-10 58.834 -30 78.501s-45.667 29.5 -77 29.5c-30.667 0 -56 -9.83301 -76 -29.5s-30 -45.834 -30 -78.501s10 -58.834 30 -78.501s45.333 -29.5 76 -29.5c31.333 0 57 9.83301 77 29.5zM442 574h-325v99h325v-99z" />
    <glyph glyph-name="Abreve" unicode="&#x102;" horiz-adv-x="716" 
d="M493 142h-269l-50 -142h-174l276 700h164l276 -700h-173zM445 280l-87 248l-86 -248h173zM471.5 769.5c-29 -23 -66.832 -34.5 -113.499 -34.5s-84.334 11.5 -113.001 34.5s-45.667 54.5 -51 94.5h103c1.33301 -12.667 7.5 -23.167 18.5 -31.5s25.167 -12.5 42.5 -12.5
c18 0 32.333 4 43 12s16.667 18.667 18 32h103c-4.66699 -40 -21.5 -71.5 -50.5 -94.5z" />
    <glyph glyph-name="abreve" unicode="&#x103;" horiz-adv-x="586" 
d="M129 13.5c-33.333 19 -59.666 47 -78.999 84s-29 81.5 -29 133.5s9.66699 96.5 29 133.5s45.666 65 78.999 84s70.333 28.5 111 28.5c68.667 0 119 -26 151 -78h2v63h151v-462h-151v63h-2c-32 -52 -82.333 -78 -151 -78c-40.667 0 -77.667 9.5 -111 28.5zM359 152.5
c20 19.667 30 45.834 30 78.501s-10 58.834 -30 78.501s-45.667 29.5 -77 29.5c-30.667 0 -56 -9.83301 -76 -29.5s-30 -45.834 -30 -78.501s10 -58.834 30 -78.501s45.333 -29.5 76 -29.5c31.333 0 57 9.83301 77 29.5zM396.5 583c-31 -30 -70.167 -45 -117.5 -45
c-30.667 0 -58.5 6.83301 -83.5 20.5s-44.667 32.667 -59 57s-21.5 52.5 -21.5 84.5h95c1.33301 -20 7.33301 -36.667 18 -50s27.667 -20 51 -20s40.333 6.66699 51 20s16.667 30 18 50h95c0 -48 -15.5 -87 -46.5 -117z" />
    <glyph glyph-name="Aogonek" unicode="&#x104;" horiz-adv-x="716" 
d="M493 142h-269l-50 -142h-174l276 700h164l276 -700h-173zM445 280l-87 248l-86 -248h173zM629 10c-54.667 -50.667 -82.001 -85.333 -82.001 -104c0 -6.66699 2.5 -12 7.5 -16s11.167 -6 18.5 -6s20.333 2 39 6l12 -94c-34.667 -6 -58 -9 -70 -9
c-35.333 0 -62.666 7 -81.999 21s-29 35.667 -29 65c0 22.667 8.83301 45.5 26.5 68.5s45.167 50.5 82.5 82.5z" />
    <glyph glyph-name="aogonek" unicode="&#x105;" horiz-adv-x="586" 
d="M129 13.5c-33.333 19 -59.666 47 -78.999 84s-29 81.5 -29 133.5s9.66699 96.5 29 133.5s45.666 65 78.999 84s70.333 28.5 111 28.5c68.667 0 119 -26 151 -78h2v63h151v-462h-151v63h-2c-32 -52 -82.333 -78 -151 -78c-40.667 0 -77.667 9.5 -111 28.5zM359 152.5
c20 19.667 30 45.834 30 78.501s-10 58.834 -30 78.501s-45.667 29.5 -77 29.5c-30.667 0 -56 -9.83301 -76 -29.5s-30 -45.834 -30 -78.501s10 -58.834 30 -78.501s45.333 -29.5 76 -29.5c31.333 0 57 9.83301 77 29.5zM485 10
c-54.667 -50.667 -82.001 -85.333 -82.001 -104c0 -6.66699 2.5 -12 7.5 -16s11.167 -6 18.5 -6s20.333 2 39 6l12 -94c-34.667 -6 -58 -9 -70 -9c-35.333 0 -62.666 7 -81.999 21s-29 35.667 -29 65c0 22.667 8.83301 45.5 26.5 68.5s45.167 50.5 82.5 82.5z" />
    <glyph glyph-name="Cacute" unicode="&#x106;" horiz-adv-x="667" 
d="M207.5 30c-58.333 30 -104 72.667 -137 128s-49.5 119.333 -49.5 192s16.5 136.667 49.5 192s78.667 98 137 128s124.166 45 197.499 45c93.333 0 177 -26 251 -78l-84 -136c-54 36 -109.667 54 -167 54c-40.667 0 -77.167 -8.33301 -109.5 -25
s-57.666 -40.5 -75.999 -71.5s-27.5 -67.167 -27.5 -108.5s9.16699 -77.5 27.5 -108.5s43.666 -54.833 75.999 -71.5s68.833 -25 109.5 -25c57.333 0 113 18 167 54l84 -136c-74 -52 -157.667 -78 -251 -78c-73.333 0 -139.166 15 -197.499 45zM452 743h-109l115 120h165z
" />
    <glyph glyph-name="cacute" unicode="&#x107;" horiz-adv-x="451" 
d="M145.5 15.5c-39 20.333 -69.5 49.166 -91.5 86.499s-33 80.333 -33 129s11 91.667 33 129s52.5 66.166 91.5 86.499s83.167 30.5 132.5 30.5c59.333 0 115 -15 167 -45l-62 -121c-29.333 18.667 -62 28 -98 28c-31.333 0 -58 -9.66699 -80 -29s-33 -45.666 -33 -78.999
s11 -59.666 33 -78.999s48.667 -29 80 -29c36 0 68.667 9.33301 98 28l62 -121c-52 -30 -107.667 -45 -167 -45c-49.333 0 -93.5 10.167 -132.5 30.5zM324 553h-118l115 154h165z" />
    <glyph glyph-name="Ccircumflex" unicode="&#x108;" horiz-adv-x="667" 
d="M207.5 30c-58.333 30 -104 72.667 -137 128s-49.5 119.333 -49.5 192s16.5 136.667 49.5 192s78.667 98 137 128s124.166 45 197.499 45c93.333 0 177 -26 251 -78l-84 -136c-54 36 -109.667 54 -167 54c-40.667 0 -77.167 -8.33301 -109.5 -25
s-57.666 -40.5 -75.999 -71.5s-27.5 -67.167 -27.5 -108.5s9.16699 -77.5 27.5 -108.5s43.666 -54.833 75.999 -71.5s68.833 -25 109.5 -25c57.333 0 113 18 167 54l84 -136c-74 -52 -157.667 -78 -251 -78c-73.333 0 -139.166 15 -197.499 45zM592 743h-125l-67 62l-67 -62
h-125l120 120h144z" />
    <glyph glyph-name="ccircumflex" unicode="&#x109;" horiz-adv-x="451" 
d="M145.5 15.5c-39 20.333 -69.5 49.166 -91.5 86.499s-33 80.333 -33 129s11 91.667 33 129s52.5 66.166 91.5 86.499s83.167 30.5 132.5 30.5c59.333 0 115 -15 167 -45l-62 -121c-29.333 18.667 -62 28 -98 28c-31.333 0 -58 -9.66699 -80 -29s-33 -45.666 -33 -78.999
s11 -59.666 33 -78.999s48.667 -29 80 -29c36 0 68.667 9.33301 98 28l62 -121c-52 -30 -107.667 -45 -167 -45c-49.333 0 -93.5 10.167 -132.5 30.5zM462 553h-125l-68 82l-67 -82h-125l122 154h141z" />
    <glyph glyph-name="Cdotaccent" unicode="&#x10a;" horiz-adv-x="667" 
d="M207.5 30c-58.333 30 -104 72.667 -137 128s-49.5 119.333 -49.5 192s16.5 136.667 49.5 192s78.667 98 137 128s124.166 45 197.499 45c93.333 0 177 -26 251 -78l-84 -136c-54 36 -109.667 54 -167 54c-40.667 0 -77.167 -8.33301 -109.5 -25
s-57.666 -40.5 -75.999 -71.5s-27.5 -67.167 -27.5 -108.5s9.16699 -77.5 27.5 -108.5s43.666 -54.833 75.999 -71.5s68.833 -25 109.5 -25c57.333 0 113 18 167 54l84 -136c-74 -52 -157.667 -78 -251 -78c-73.333 0 -139.166 15 -197.499 45zM472 743h-142v128h142v-128z
" />
    <glyph glyph-name="cdotaccent" unicode="&#x10b;" horiz-adv-x="451" 
d="M145.5 15.5c-39 20.333 -69.5 49.166 -91.5 86.499s-33 80.333 -33 129s11 91.667 33 129s52.5 66.166 91.5 86.499s83.167 30.5 132.5 30.5c59.333 0 115 -15 167 -45l-62 -121c-29.333 18.667 -62 28 -98 28c-31.333 0 -58 -9.66699 -80 -29s-33 -45.666 -33 -78.999
s11 -59.666 33 -78.999s48.667 -29 80 -29c36 0 68.667 9.33301 98 28l62 -121c-52 -30 -107.667 -45 -167 -45c-49.333 0 -93.5 10.167 -132.5 30.5zM351 547h-162v152h162v-152z" />
    <glyph glyph-name="Ccaron" unicode="&#x10c;" horiz-adv-x="667" 
d="M207.5 30c-58.333 30 -104 72.667 -137 128s-49.5 119.333 -49.5 192s16.5 136.667 49.5 192s78.667 98 137 128s124.166 45 197.499 45c93.333 0 177 -26 251 -78l-84 -136c-54 36 -109.667 54 -167 54c-40.667 0 -77.167 -8.33301 -109.5 -25
s-57.666 -40.5 -75.999 -71.5s-27.5 -67.167 -27.5 -108.5s9.16699 -77.5 27.5 -108.5s43.666 -54.833 75.999 -71.5s68.833 -25 109.5 -25c57.333 0 113 18 167 54l84 -136c-74 -52 -157.667 -78 -251 -78c-73.333 0 -139.166 15 -197.499 45zM328 743l-120 120h125l67 -62
l67 62h125l-120 -120h-144z" />
    <glyph glyph-name="ccaron" unicode="&#x10d;" horiz-adv-x="451" 
d="M145.5 15.5c-39 20.333 -69.5 49.166 -91.5 86.499s-33 80.333 -33 129s11 91.667 33 129s52.5 66.166 91.5 86.499s83.167 30.5 132.5 30.5c59.333 0 115 -15 167 -45l-62 -121c-29.333 18.667 -62 28 -98 28c-31.333 0 -58 -9.66699 -80 -29s-33 -45.666 -33 -78.999
s11 -59.666 33 -78.999s48.667 -29 80 -29c36 0 68.667 9.33301 98 28l62 -121c-52 -30 -107.667 -45 -167 -45c-49.333 0 -93.5 10.167 -132.5 30.5zM340 546h-141l-122 154h125l67 -82l68 82h125z" />
    <glyph glyph-name="Dcaron" unicode="&#x10e;" horiz-adv-x="683" 
d="M480 657.5c57.333 -28.333 102 -68.833 134 -121.5s48 -114.667 48 -186s-16 -133.333 -48 -186s-76.667 -93.167 -134 -121.5s-122.666 -42.5 -195.999 -42.5h-223v700h223c73.333 0 138.666 -14.167 195.999 -42.5zM216 559v-418h81
c58.667 0 106.334 18.5 143.001 55.5s55 88.167 55 153.5c0 66 -18.333 117.333 -55 154s-84.334 55 -143.001 55h-81zM210 743l-120 120h125l67 -62l67 62h125l-120 -120h-144z" />
    <glyph glyph-name="dcaron" unicode="&#x10f;" horiz-adv-x="727" 
d="M721 715v-140l-82 -82h-54l45 82h-48v140h139zM393 700h151v-700h-151v63h-2c-32 -52 -82.333 -78 -151 -78c-40.667 0 -77.667 9.5 -111 28.5s-59.666 47 -78.999 84s-29 81.5 -29 133.5s9.66699 96.5 29 133.5s45.666 65 78.999 84s70.333 28.5 111 28.5
c68.667 0 119 -26 151 -78h2v301zM359 152.5c20 19.667 30 45.834 30 78.501s-10 58.834 -30 78.501s-45.667 29.5 -77 29.5c-30.667 0 -56 -9.83301 -76 -29.5s-30 -45.834 -30 -78.501s10 -58.834 30 -78.501s45.333 -29.5 76 -29.5c31.333 0 57 9.83301 77 29.5z" />
    <glyph glyph-name="Dcroat" unicode="&#x110;" horiz-adv-x="684" 
d="M481 657.5c57.333 -28.333 102 -68.833 134 -121.5s48 -114.667 48 -186s-16 -133.333 -48 -186s-76.667 -93.167 -134 -121.5s-122.666 -42.5 -195.999 -42.5h-223v293h-71v126h71v281h223c73.333 0 138.666 -14.167 195.999 -42.5zM441 196.5
c36.667 37 55 88.167 55 153.5c0 66 -18.333 117.333 -55 154s-84.334 55 -143.001 55h-81v-140h131v-126h-131v-152h81c58.667 0 106.334 18.5 143.001 55.5z" />
    <glyph glyph-name="dcroat" unicode="&#x111;" horiz-adv-x="613" 
d="M613 546h-69v-546h-151v63h-2c-32 -52 -82.333 -78 -151 -78c-40.667 0 -77.667 9.5 -111 28.5s-59.666 47 -78.999 84s-29 81.5 -29 133.5s9.66699 96.5 29 133.5s45.666 65 78.999 84s70.333 28.5 111 28.5c68.667 0 119 -26 151 -78h2v147h-135v87h135v67h151v-67h69
v-87zM359 152.5c20 19.667 30 45.834 30 78.501s-10 58.834 -30 78.501s-45.667 29.5 -77 29.5c-30.667 0 -56 -9.83301 -76 -29.5s-30 -45.834 -30 -78.501s10 -58.834 30 -78.501s45.333 -29.5 76 -29.5c31.333 0 57 9.83301 77 29.5z" />
    <glyph glyph-name="Emacron" unicode="&#x112;" horiz-adv-x="530" 
d="M499 145v-145h-438v700h433v-145h-278v-110h250v-141h-250v-159h283zM454 749h-324v95h324v-95z" />
    <glyph glyph-name="emacron" unicode="&#x113;" horiz-adv-x="511" 
d="M433 413.5c40.667 -41.667 61.0029 -103.167 61.0029 -184.5v-34h-331c4.66699 -28 17.5 -49 38.5 -63s47.5 -21 79.5 -21c25.333 0 49.666 4.16699 72.999 12.5s43.666 18.166 60.999 29.499l55 -114c-58.667 -36 -122.334 -54 -191.001 -54
c-51.333 0 -96.5 10.167 -135.5 30.5s-69.167 48.833 -90.5 85.5s-32 79.334 -32 128.001c0 50.667 10.333 94.667 31 132s49.5 65.833 86.5 85.5s79.167 29.5 126.5 29.5c71.333 0 127.333 -20.833 168 -62.5zM194.503 348c-17 -14 -27.168 -35.333 -30.501 -64h184
c-0.666992 26.667 -9.16699 47.5 -25.5 62.5s-37.166 22.5 -62.499 22.5c-26.667 0 -48.5 -7 -65.5 -21zM428.002 574h-325v99h325v-99z" />
    <glyph glyph-name="Ebreve" unicode="&#x114;" horiz-adv-x="530" 
d="M499 145v-145h-438v700h433v-145h-278v-110h250v-141h-250v-159h283zM405.5 769.5c-29 -23 -66.832 -34.5 -113.499 -34.5s-84.334 11.5 -113.001 34.5s-45.667 54.5 -51 94.5h103c1.33301 -12.667 7.5 -23.167 18.5 -31.5s25.167 -12.5 42.5 -12.5c18 0 32.333 4 43 12
s16.667 18.667 18 32h103c-4.66699 -40 -21.5 -71.5 -50.5 -94.5z" />
    <glyph glyph-name="ebreve" unicode="&#x115;" horiz-adv-x="511" 
d="M433 413.5c40.667 -41.667 61.0029 -103.167 61.0029 -184.5v-34h-331c4.66699 -28 17.5 -49 38.5 -63s47.5 -21 79.5 -21c25.333 0 49.666 4.16699 72.999 12.5s43.666 18.166 60.999 29.499l55 -114c-58.667 -36 -122.334 -54 -191.001 -54
c-51.333 0 -96.5 10.167 -135.5 30.5s-69.167 48.833 -90.5 85.5s-32 79.334 -32 128.001c0 50.667 10.333 94.667 31 132s49.5 65.833 86.5 85.5s79.167 29.5 126.5 29.5c71.333 0 127.333 -20.833 168 -62.5zM194.503 348c-17 -14 -27.168 -35.333 -30.501 -64h184
c-0.666992 26.667 -9.16699 47.5 -25.5 62.5s-37.166 22.5 -62.499 22.5c-26.667 0 -48.5 -7 -65.5 -21zM382.502 583c-31 -30 -70.167 -45 -117.5 -45c-30.667 0 -58.5 6.83301 -83.5 20.5s-44.667 32.667 -59 57s-21.5 52.5 -21.5 84.5h95
c1.33301 -20 7.33301 -36.667 18 -50s27.667 -20 51 -20s40.333 6.66699 51 20s16.667 30 18 50h95c0 -48 -15.5 -87 -46.5 -117z" />
    <glyph glyph-name="Edotaccent" unicode="&#x116;" horiz-adv-x="530" 
d="M499 145v-145h-438v700h433v-145h-278v-110h250v-141h-250v-159h283zM363 743h-142v128h142v-128z" />
    <glyph glyph-name="edotaccent" unicode="&#x117;" horiz-adv-x="511" 
d="M433 413.5c40.667 -41.667 61.0029 -103.167 61.0029 -184.5v-34h-331c4.66699 -28 17.5 -49 38.5 -63s47.5 -21 79.5 -21c25.333 0 49.666 4.16699 72.999 12.5s43.666 18.166 60.999 29.499l55 -114c-58.667 -36 -122.334 -54 -191.001 -54
c-51.333 0 -96.5 10.167 -135.5 30.5s-69.167 48.833 -90.5 85.5s-32 79.334 -32 128.001c0 50.667 10.333 94.667 31 132s49.5 65.833 86.5 85.5s79.167 29.5 126.5 29.5c71.333 0 127.333 -20.833 168 -62.5zM194.503 348c-17 -14 -27.168 -35.333 -30.501 -64h184
c-0.666992 26.667 -9.16699 47.5 -25.5 62.5s-37.166 22.5 -62.499 22.5c-26.667 0 -48.5 -7 -65.5 -21zM346.002 547h-162v152h162v-152z" />
    <glyph glyph-name="Eogonek" unicode="&#x118;" horiz-adv-x="530" 
d="M499 145v-145h-438v700h433v-145h-278v-110h250v-141h-250v-159h283zM484 10c-54.667 -50.667 -82.001 -85.333 -82.001 -104c0 -6.66699 2.5 -12 7.5 -16s11.167 -6 18.5 -6s20.333 2 39 6l12 -94c-34.667 -6 -58 -9 -70 -9c-35.333 0 -62.666 7 -81.999 21
s-29 35.667 -29 65c0 22.667 8.83301 45.5 26.5 68.5s45.167 50.5 82.5 82.5z" />
    <glyph glyph-name="eogonek" unicode="&#x119;" horiz-adv-x="511" 
d="M433 413.5c40.667 -41.667 61.0029 -103.167 61.0029 -184.5v-34h-331c4.66699 -28 17.5 -49 38.5 -63s47.5 -21 79.5 -21c25.333 0 49.666 4.16699 72.999 12.5s43.666 18.166 60.999 29.499l55 -114c-58.667 -36 -122.334 -54 -191.001 -54
c-51.333 0 -96.5 10.167 -135.5 30.5s-69.167 48.833 -90.5 85.5s-32 79.334 -32 128.001c0 50.667 10.333 94.667 31 132s49.5 65.833 86.5 85.5s79.167 29.5 126.5 29.5c71.333 0 127.333 -20.833 168 -62.5zM194.503 348c-17 -14 -27.168 -35.333 -30.501 -64h184
c-0.666992 26.667 -9.16699 47.5 -25.5 62.5s-37.166 22.5 -62.499 22.5c-26.667 0 -48.5 -7 -65.5 -21zM415.002 10c-54.667 -50.667 -82.001 -85.333 -82.001 -104c0 -6.66699 2.5 -12 7.5 -16s11.167 -6 18.5 -6s20.333 2 39 6l12 -94c-34.667 -6 -58 -9 -70 -9
c-35.333 0 -62.666 7 -81.999 21s-29 35.667 -29 65c0 22.667 8.83301 45.5 26.5 68.5s45.167 50.5 82.5 82.5z" />
    <glyph glyph-name="Ecaron" unicode="&#x11a;" horiz-adv-x="530" 
d="M499 145v-145h-438v700h433v-145h-278v-110h250v-141h-250v-159h283zM219 743l-120 120h125l67 -62l67 62h125l-120 -120h-144z" />
    <glyph glyph-name="ecaron" unicode="&#x11b;" horiz-adv-x="511" 
d="M433 413.5c40.667 -41.667 61.0029 -103.167 61.0029 -184.5v-34h-331c4.66699 -28 17.5 -49 38.5 -63s47.5 -21 79.5 -21c25.333 0 49.666 4.16699 72.999 12.5s43.666 18.166 60.999 29.499l55 -114c-58.667 -36 -122.334 -54 -191.001 -54
c-51.333 0 -96.5 10.167 -135.5 30.5s-69.167 48.833 -90.5 85.5s-32 79.334 -32 128.001c0 50.667 10.333 94.667 31 132s49.5 65.833 86.5 85.5s79.167 29.5 126.5 29.5c71.333 0 127.333 -20.833 168 -62.5zM194.503 348c-17 -14 -27.168 -35.333 -30.501 -64h184
c-0.666992 26.667 -9.16699 47.5 -25.5 62.5s-37.166 22.5 -62.499 22.5c-26.667 0 -48.5 -7 -65.5 -21zM335.002 546h-141l-122 154h125l67 -82l68 82h125z" />
    <glyph glyph-name="Gcircumflex" unicode="&#x11c;" horiz-adv-x="751" 
d="M735 369c0 -75.333 -12.502 -141.831 -37.502 -199.498s-63.167 -102.834 -114.5 -135.501s-115 -49 -191 -49c-72 0 -136 14.833 -192 44.5s-99.833 72.167 -131.5 127.5s-47.5 120.333 -47.5 195c0 72 15.333 135.5 46 190.5s74.834 97.5 132.501 127.5
s125.5 45 203.5 45c104.667 0 196.667 -30.667 276 -92l-101 -133c-28 21.333 -56.5 37.5 -85.5 48.5s-60.167 16.5 -93.5 16.5c-43.333 0 -80.5 -8.83301 -111.5 -26.5s-54.667 -41.834 -71 -72.501s-24.5 -65.667 -24.5 -105c0 -61.333 18.667 -111 56 -149
s89 -57 155 -57c52 0 91.833 12 119.5 36s43.834 52.333 48.501 85h-180v139h343c0.666992 -8 1 -20 1 -36zM579.998 743.002h-125l-67 62l-67 -62h-125l120 120h144z" />
    <glyph glyph-name="gcircumflex" unicode="&#x11d;" horiz-adv-x="586" 
d="M97 -192l25.002 141.001c64.667 -15.333 118.667 -23 162 -23c38.667 0 66.5 7.83301 83.5 23.5s25.5 43.167 25.5 82.5v30h-2c-34.667 -46.667 -85.334 -70 -152.001 -70c-41.333 0 -78.5 9 -111.5 27s-59 45.167 -78 81.5s-28.5 80.166 -28.5 131.499
c0 52 9.66699 96.5 29 133.5s45.666 64.833 78.999 83.5s70.333 28 111 28c68.667 0 119 -26 151 -78h2v63h151v-462c-0.666992 -72 -22.167 -125.833 -64.5 -161.5s-103.833 -53.5 -184.5 -53.5c-57.333 0 -123.333 7.66699 -198 23zM359.002 152.501
c20 19.667 30 45.834 30 78.501s-10 58.834 -30 78.501s-45.667 29.5 -77 29.5c-30.667 0 -56 -9.83301 -76 -29.5s-30 -45.834 -30 -78.501s10 -58.834 30 -78.501s45.333 -29.5 76 -29.5c31.333 0 57 9.83301 77 29.5zM480.002 553.001h-125l-68 82l-67 -82h-125l122 154
h141z" />
    <glyph glyph-name="Gbreve" unicode="&#x11e;" horiz-adv-x="751" 
d="M735 369c0 -75.333 -12.502 -141.831 -37.502 -199.498s-63.167 -102.834 -114.5 -135.501s-115 -49 -191 -49c-72 0 -136 14.833 -192 44.5s-99.833 72.167 -131.5 127.5s-47.5 120.333 -47.5 195c0 72 15.333 135.5 46 190.5s74.834 97.5 132.501 127.5
s125.5 45 203.5 45c104.667 0 196.667 -30.667 276 -92l-101 -133c-28 21.333 -56.5 37.5 -85.5 48.5s-60.167 16.5 -93.5 16.5c-43.333 0 -80.5 -8.83301 -111.5 -26.5s-54.667 -41.834 -71 -72.501s-24.5 -65.667 -24.5 -105c0 -61.333 18.667 -111 56 -149
s89 -57 155 -57c52 0 91.833 12 119.5 36s43.834 52.333 48.501 85h-180v139h343c0.666992 -8 1 -20 1 -36zM502.498 769.502c-29 -23 -66.832 -34.5 -113.499 -34.5s-84.334 11.5 -113.001 34.5s-45.667 54.5 -51 94.5h103c1.33301 -12.667 7.5 -23.167 18.5 -31.5
s25.167 -12.5 42.5 -12.5c18 0 32.333 4 43 12s16.667 18.667 18 32h103c-4.66699 -40 -21.5 -71.5 -50.5 -94.5z" />
    <glyph glyph-name="gbreve" unicode="&#x11f;" horiz-adv-x="586" 
d="M97 -192l25.002 141.001c64.667 -15.333 118.667 -23 162 -23c38.667 0 66.5 7.83301 83.5 23.5s25.5 43.167 25.5 82.5v30h-2c-34.667 -46.667 -85.334 -70 -152.001 -70c-41.333 0 -78.5 9 -111.5 27s-59 45.167 -78 81.5s-28.5 80.166 -28.5 131.499
c0 52 9.66699 96.5 29 133.5s45.666 64.833 78.999 83.5s70.333 28 111 28c68.667 0 119 -26 151 -78h2v63h151v-462c-0.666992 -72 -22.167 -125.833 -64.5 -161.5s-103.833 -53.5 -184.5 -53.5c-57.333 0 -123.333 7.66699 -198 23zM359.002 152.501
c20 19.667 30 45.834 30 78.501s-10 58.834 -30 78.501s-45.667 29.5 -77 29.5c-30.667 0 -56 -9.83301 -76 -29.5s-30 -45.834 -30 -78.501s10 -58.834 30 -78.501s45.333 -29.5 76 -29.5c31.333 0 57 9.83301 77 29.5zM405.502 583.001c-31 -30 -70.167 -45 -117.5 -45
c-30.667 0 -58.5 6.83301 -83.5 20.5s-44.667 32.667 -59 57s-21.5 52.5 -21.5 84.5h95c1.33301 -20 7.33301 -36.667 18 -50s27.667 -20 51 -20s40.333 6.66699 51 20s16.667 30 18 50h95c0 -48 -15.5 -87 -46.5 -117z" />
    <glyph glyph-name="Gdotaccent" unicode="&#x120;" horiz-adv-x="751" 
d="M735 369c0 -75.333 -12.502 -141.831 -37.502 -199.498s-63.167 -102.834 -114.5 -135.501s-115 -49 -191 -49c-72 0 -136 14.833 -192 44.5s-99.833 72.167 -131.5 127.5s-47.5 120.333 -47.5 195c0 72 15.333 135.5 46 190.5s74.834 97.5 132.501 127.5
s125.5 45 203.5 45c104.667 0 196.667 -30.667 276 -92l-101 -133c-28 21.333 -56.5 37.5 -85.5 48.5s-60.167 16.5 -93.5 16.5c-43.333 0 -80.5 -8.83301 -111.5 -26.5s-54.667 -41.834 -71 -72.501s-24.5 -65.667 -24.5 -105c0 -61.333 18.667 -111 56 -149
s89 -57 155 -57c52 0 91.833 12 119.5 36s43.834 52.333 48.501 85h-180v139h343c0.666992 -8 1 -20 1 -36zM459.998 743.002h-142v128h142v-128z" />
    <glyph glyph-name="gdotaccent" unicode="&#x121;" horiz-adv-x="586" 
d="M97 -192l25.002 141.001c64.667 -15.333 118.667 -23 162 -23c38.667 0 66.5 7.83301 83.5 23.5s25.5 43.167 25.5 82.5v30h-2c-34.667 -46.667 -85.334 -70 -152.001 -70c-41.333 0 -78.5 9 -111.5 27s-59 45.167 -78 81.5s-28.5 80.166 -28.5 131.499
c0 52 9.66699 96.5 29 133.5s45.666 64.833 78.999 83.5s70.333 28 111 28c68.667 0 119 -26 151 -78h2v63h151v-462c-0.666992 -72 -22.167 -125.833 -64.5 -161.5s-103.833 -53.5 -184.5 -53.5c-57.333 0 -123.333 7.66699 -198 23zM359.002 152.501
c20 19.667 30 45.834 30 78.501s-10 58.834 -30 78.501s-45.667 29.5 -77 29.5c-30.667 0 -56 -9.83301 -76 -29.5s-30 -45.834 -30 -78.501s10 -58.834 30 -78.501s45.333 -29.5 76 -29.5c31.333 0 57 9.83301 77 29.5zM369.002 547.001h-162v152h162v-152z" />
    <glyph glyph-name="Gcommaaccent" unicode="&#x122;" horiz-adv-x="751" 
d="M735 369c0 -75.333 -12.502 -141.831 -37.502 -199.498s-63.167 -102.834 -114.5 -135.501s-115 -49 -191 -49c-72 0 -136 14.833 -192 44.5s-99.833 72.167 -131.5 127.5s-47.5 120.333 -47.5 195c0 72 15.333 135.5 46 190.5s74.834 97.5 132.501 127.5
s125.5 45 203.5 45c104.667 0 196.667 -30.667 276 -92l-101 -133c-28 21.333 -56.5 37.5 -85.5 48.5s-60.167 16.5 -93.5 16.5c-43.333 0 -80.5 -8.83301 -111.5 -26.5s-54.667 -41.834 -71 -72.501s-24.5 -65.667 -24.5 -105c0 -61.333 18.667 -111 56 -149
s89 -57 155 -57c52 0 91.833 12 119.5 36s43.834 52.333 48.501 85h-180v139h343c0.666992 -8 1 -20 1 -36zM469.998 -46.998v-101l-65 -62h-52l33 62h-53v101h137z" />
    <glyph glyph-name="gcommaaccent" unicode="&#x123;" horiz-adv-x="586" 
d="M97 -192l25.002 141.001c64.667 -15.333 118.667 -23 162 -23c38.667 0 66.5 7.83301 83.5 23.5s25.5 43.167 25.5 82.5v30h-2c-34.667 -46.667 -85.334 -70 -152.001 -70c-41.333 0 -78.5 9 -111.5 27s-59 45.167 -78 81.5s-28.5 80.166 -28.5 131.499
c0 52 9.66699 96.5 29 133.5s45.666 64.833 78.999 83.5s70.333 28 111 28c68.667 0 119 -26 151 -78h2v63h151v-462c-0.666992 -72 -22.167 -125.833 -64.5 -161.5s-103.833 -53.5 -184.5 -53.5c-57.333 0 -123.333 7.66699 -198 23zM359.002 152.501
c20 19.667 30 45.834 30 78.501s-10 58.834 -30 78.501s-45.667 29.5 -77 29.5c-30.667 0 -56 -9.83301 -76 -29.5s-30 -45.834 -30 -78.501s10 -58.834 30 -78.501s45.333 -29.5 76 -29.5c31.333 0 57 9.83301 77 29.5zM360.002 641.001v-101h-137v101l65 62h52l-33 -62h53
z" />
    <glyph glyph-name="Hcircumflex" unicode="&#x124;" horiz-adv-x="723" 
d="M662 700v-700h-155v294h-291v-294h-155v700h155v-260h291v260h155zM553 743h-125l-67 62l-67 -62h-125l120 120h144z" />
    <glyph glyph-name="hcircumflex" unicode="&#x125;" horiz-adv-x="563" 
d="M198 401h2.00195c33.333 50.667 82.666 76 147.999 76c53.333 0 95.666 -16 126.999 -48s47 -79.667 47 -143v-286h-151v244c0 66.667 -28 100 -84 100c-27.333 0 -49 -9 -65 -27s-24 -46.333 -24 -85v-232h-151v700h151v-299zM313.002 743h-125l-67 62l-67 -62h-125
l120 120h144z" />
    <glyph glyph-name="Hbar" unicode="&#x126;" horiz-adv-x="741" 
d="M741 508h-70v-508h-155v294h-291v-294h-155v508h-70v117h70v75h155v-75h291v75h155v-75h70v-117zM516 508h-291v-68h291v68z" />
    <glyph glyph-name="hbar" unicode="&#x127;" horiz-adv-x="563" 
d="M475 429c31.333 -32 47.002 -79.667 47.002 -143v-286h-151v244c0 66.667 -28 100 -84 100c-27.333 0 -49 -9 -65 -27s-24 -46.333 -24 -85v-232h-151v546h-65v87h65v67h151v-67h132v-87h-132v-145h2c33.333 50.667 82.666 76 147.999 76
c53.333 0 95.666 -16 126.999 -48z" />
    <glyph glyph-name="Itilde" unicode="&#x128;" horiz-adv-x="277" 
d="M216 0h-155v700h155v-700zM173.5 743.5c-16.333 3.66699 -36.166 8.83398 -59.499 15.501c-36 10 -60 15 -72 15c-11.333 0 -21.333 -3.16699 -30 -9.5s-16.667 -15.833 -24 -28.5l-47 15c10.667 38.667 24.834 68.334 42.501 89.001s42.167 31 73.5 31
c14 0 29.167 -1.83301 45.5 -5.5s36.166 -8.83398 59.499 -15.501c35.333 -10 59.333 -15 72 -15c20.667 0 38.667 13 54 39l47 -16c-11.333 -38.667 -25.833 -68.334 -43.5 -89.001s-41.834 -31 -72.501 -31c-14 0 -29.167 1.83301 -45.5 5.5z" />
    <glyph glyph-name="itilde" unicode="&#x129;" horiz-adv-x="244" 
d="M96 700.5c11.333 -4.33301 25.6689 -10.834 43.002 -19.501c24 -13.333 41.667 -20 53 -20c9.33301 0 16.833 4 22.5 12s10.167 19.333 13.5 34l53 -19c-7.33301 -41.333 -19.333 -73.833 -36 -97.5s-37.334 -35.5 -62.001 -35.5c-11.333 0 -23 2.33301 -35 7
s-26 11.334 -42 20.001c-9.33301 4.66699 -18.833 9 -28.5 13s-17.5 6 -23.5 6c-10 0 -17.833 -4 -23.5 -12s-10.167 -19.333 -13.5 -34l-53 19c8 41.333 20.167 73.833 36.5 97.5s36.833 35.5 61.5 35.5c11.333 0 22.666 -2.16699 33.999 -6.5zM47.0029 461.999h151v-462
h-151v462z" />
    <glyph glyph-name="Imacron" unicode="&#x12a;" horiz-adv-x="277" 
d="M216 0h-155v700h155v-700zM300 749h-324v95h324v-95z" />
    <glyph glyph-name="imacron" unicode="&#x12b;" horiz-adv-x="244" 
d="M235 574h-225v99h225v-99zM47 462h151v-462h-151v462z" />
    <glyph glyph-name="Ibreve" unicode="&#x12c;" horiz-adv-x="277" 
d="M216 0h-155v700h155v-700zM251.5 769.5c-29 -23 -66.832 -34.5 -113.499 -34.5s-84.334 11.5 -113.001 34.5s-45.667 54.5 -51 94.5h103c1.33301 -12.667 7.5 -23.167 18.5 -31.5s25.167 -12.5 42.5 -12.5c18 0 32.333 4 43 12s16.667 18.667 18 32h103
c-4.66699 -40 -21.5 -71.5 -50.5 -94.5z" />
    <glyph glyph-name="ibreve" unicode="&#x12d;" horiz-adv-x="244" 
d="M220.5 577.5c-24.333 -26.333 -57.168 -39.5 -98.501 -39.5s-74.166 13.167 -98.499 39.5s-36.5 67.166 -36.5 122.499h92c0 -24.667 3.16699 -42.5 9.5 -53.5s17.5 -16.5 33.5 -16.5s27.167 5.5 33.5 16.5s9.5 28.833 9.5 53.5h92
c0 -55.333 -12.167 -96.166 -36.5 -122.499zM46.998 462h151v-462h-151v462z" />
    <glyph glyph-name="Iogonek" unicode="&#x12e;" horiz-adv-x="277" 
d="M216 0h-155v700h155v-700zM190 10c-54.667 -50.667 -82.001 -85.333 -82.001 -104c0 -6.66699 2.5 -12 7.5 -16s11.167 -6 18.5 -6s20.333 2 39 6l12 -94c-34.667 -6 -58 -9 -70 -9c-35.333 0 -62.666 7 -81.999 21s-29 35.667 -29 65c0 22.667 8.83301 45.5 26.5 68.5
s45.167 50.5 82.5 82.5z" />
    <glyph glyph-name="iogonek" unicode="&#x12f;" horiz-adv-x="244" 
d="M47 462h151v-462h-151v462zM203 547h-162v152h162v-152zM165 10c-54.667 -50.667 -82.001 -85.333 -82.001 -104c0 -6.66699 2.5 -12 7.5 -16s11.167 -6 18.5 -6s20.333 2 39 6l12 -94c-34.667 -6 -58 -9 -70 -9c-35.333 0 -62.666 7 -81.999 21s-29 35.667 -29 65
c0 22.667 8.83301 45.5 26.5 68.5s45.167 50.5 82.5 82.5z" />
    <glyph glyph-name="Idotaccent" unicode="&#x130;" horiz-adv-x="277" 
d="M216 0h-155v700h155v-700zM209 743h-142v128h142v-128z" />
    <glyph glyph-name="dotlessi" unicode="&#x131;" horiz-adv-x="244" 
d="M47 462h151v-462h-151v462z" />
    <glyph glyph-name="IJ" unicode="&#x132;" horiz-adv-x="578" 
d="M216 0h-155v700h155v-700zM517 177c0 -62 -14.668 -107.5 -44.001 -136.5s-74.666 -43.5 -135.999 -43.5h-50v145h34c12.667 0 22.667 4.16699 30 12.5s11 20.5 11 36.5v509h155v-523z" />
    <glyph glyph-name="ij" unicode="&#x133;" horiz-adv-x="488" 
d="M47 462h151v-462h-151v462zM203 547h-162v152h162v-152zM230 -63c20.667 0 36 5.33105 46 15.998s15 27.334 15 50.001v459h151v-458c0 -69.333 -15.5 -121.166 -46.5 -155.499s-77.833 -51.5 -140.5 -51.5h-50v140h25zM447 546.998h-162v152h162v-152z" />
    <glyph glyph-name="Jcircumflex" unicode="&#x134;" horiz-adv-x="301" 
d="M240 177c0 -62 -14.668 -107.5 -44.001 -136.5s-74.666 -43.5 -135.999 -43.5h-50v145h34c12.667 0 22.667 4.16699 30 12.5s11 20.5 11 36.5v509h155v-523zM353.999 743h-125l-67 62l-67 -62h-125l120 120h144z" />
    <glyph glyph-name="jcircumflex" unicode="&#x135;" horiz-adv-x="244" 
d="M280 553h-116l-42 91l-42 -91h-116l87 154h142zM-14 -63c20.667 0 36 5.33105 46 15.998s15 27.334 15 50.001v459h151v-458c0 -69.333 -15.5 -121.166 -46.5 -155.499s-77.833 -51.5 -140.5 -51.5h-50v140h25z" />
    <glyph glyph-name="Kcommaaccent" unicode="&#x136;" horiz-adv-x="726" 
d="M505 0l-289 335v-335h-155v700h155v-309l249 309h211l-289 -328l339 -372h-221zM417 -47v-101l-65 -62h-52l33 62h-53v101h137z" />
    <glyph glyph-name="kcommaaccent" unicode="&#x137;" horiz-adv-x="555" 
d="M355 0l-157 212v-212h-151v700h151v-420l135 182h187l-183 -210l213 -252h-195zM347 -47v-101l-65 -62h-52l33 62h-53v101h137z" />
    <glyph glyph-name="kgreenlandic" unicode="&#x138;" horiz-adv-x="555" 
d="M355 0l-158 212v-212h-151v462h151v-182l136 182h186l-183 -210l214 -252h-195z" />
    <glyph glyph-name="Lacute" unicode="&#x139;" horiz-adv-x="496" 
d="M216 146h279v-146h-434v700h155v-554zM193 743h-109l115 120h165z" />
    <glyph glyph-name="lacute" unicode="&#x13a;" horiz-adv-x="244" 
d="M198 0h-151v700h151v-700zM176 743h-109l115 120h165z" />
    <glyph glyph-name="Lcommaaccent" unicode="&#x13b;" horiz-adv-x="496" 
d="M216 146h279v-146h-434v700h155v-554zM348 -47v-101l-65 -62h-52l33 62h-53v101h137z" />
    <glyph glyph-name="lcommaaccent" unicode="&#x13c;" horiz-adv-x="244" 
d="M198 0h-151v700h151v-700zM194 -47v-101l-65 -62h-52l33 62h-53v101h137z" />
    <glyph glyph-name="Lcaron" unicode="&#x13d;" horiz-adv-x="496" 
d="M216 146h279v-146h-434v700h155v-554zM459 715v-140l-83 -156h-54l53 156h-56v140h140z" />
    <glyph glyph-name="lcaron" unicode="&#x13e;" horiz-adv-x="389" 
d="M383 715v-140l-82 -82h-54l45 82h-48v140h139zM47 700h151v-700h-151v700z" />
    <glyph glyph-name="Ldot" unicode="&#x13f;" horiz-adv-x="496" 
d="M216 146h279v-146h-434v700h155v-554zM447 301h-160v161h160v-161z" />
    <glyph glyph-name="ldot" unicode="&#x140;" horiz-adv-x="398" 
d="M198 0h-151v700h151v-700zM388 302h-160v161h160v-161z" />
    <glyph glyph-name="Lslash" unicode="&#x141;" horiz-adv-x="496" 
d="M495 146v-146h-434v277l-71 -37v91l71 37v332h155v-252l172 89v-91l-172 -89v-211h279z" />
    <glyph glyph-name="lslash" unicode="&#x142;" horiz-adv-x="313" 
d="M303 418l-71 -37v-381h-151v304l-71 -37v91l71 37v305h151v-227l71 37v-92z" />
    <glyph glyph-name="Nacute" unicode="&#x143;" horiz-adv-x="744" 
d="M683 0h-132l-334 431h-1v-431h-155v700h131l335 -433h1v433h155v-700zM423 743h-109l115 120h165z" />
    <glyph glyph-name="nacute" unicode="&#x144;" horiz-adv-x="563" 
d="M474 429c31.333 -32 47.001 -79.667 47.001 -143v-286h-150v244c0 34 -7 59.167 -21 75.5s-35.333 24.5 -64 24.5c-27.333 0 -49 -9 -65 -27s-24 -46.333 -24 -85v-232h-151v462h148v-70h2c16 27.333 37 48.333 63 63s55.333 22 88 22c53.333 0 95.666 -16 126.999 -48z
M343.001 553h-118l115 154h165z" />
    <glyph glyph-name="Ncommaaccent" unicode="&#x145;" horiz-adv-x="744" 
d="M683 0h-132l-334 431h-1v-431h-155v700h131l335 -433h1v433h155v-700zM441 -47v-101l-65 -62h-52l33 62h-53v101h137z" />
    <glyph glyph-name="ncommaaccent" unicode="&#x146;" horiz-adv-x="563" 
d="M474 429c31.333 -32 47.001 -79.667 47.001 -143v-286h-150v244c0 34 -7 59.167 -21 75.5s-35.333 24.5 -64 24.5c-27.333 0 -49 -9 -65 -27s-24 -46.333 -24 -85v-232h-151v462h148v-70h2c16 27.333 37 48.333 63 63s55.333 22 88 22c53.333 0 95.666 -16 126.999 -48z
M357.001 -47v-101l-65 -62h-52l33 62h-53v101h137z" />
    <glyph glyph-name="Ncaron" unicode="&#x147;" horiz-adv-x="744" 
d="M683 0h-132l-334 431h-1v-431h-155v700h131l335 -433h1v433h155v-700zM299 743l-120 120h125l67 -62l67 62h125l-120 -120h-144z" />
    <glyph glyph-name="ncaron" unicode="&#x148;" horiz-adv-x="563" 
d="M474 429c31.333 -32 47.001 -79.667 47.001 -143v-286h-150v244c0 34 -7 59.167 -21 75.5s-35.333 24.5 -64 24.5c-27.333 0 -49 -9 -65 -27s-24 -46.333 -24 -85v-232h-151v462h148v-70h2c16 27.333 37 48.333 63 63s55.333 22 88 22c53.333 0 95.666 -16 126.999 -48z
M359.001 546h-141l-122 154h125l67 -82l68 82h125z" />
    <glyph glyph-name="napostrophe" unicode="&#x149;" horiz-adv-x="663" 
d="M574 429c31.333 -32 47.001 -79.667 47.001 -143v-286h-150v244c0 34 -7 59.167 -21 75.5s-35.333 24.5 -64 24.5c-27.333 0 -49 -9 -65 -27s-24 -46.333 -24 -85v-232h-151v462h148v-70h2c16 27.333 37 48.333 63 63s55.333 22 88 22c53.333 0 95.666 -16 126.999 -48z
M151.001 715v-140l-83 -156h-54l53 156h-56v140h140z" />
    <glyph glyph-name="Eng" unicode="&#x14a;" horiz-adv-x="744" 
d="M683 700l0.000976562 -720.999c0 -63.333 -16 -109 -48 -137s-78.333 -42 -139 -42h-71v146h43c21.333 0 36.666 4.16699 45.999 12.5s14 23.166 14 44.499v27l-311 401h-1v-431h-155v700h131l335 -432h1v432h155z" />
    <glyph glyph-name="eng" unicode="&#x14b;" horiz-adv-x="563" 
d="M474 429c31.333 -32 47.001 -79.667 47.001 -143v-309c0 -62 -14.667 -107 -44 -135s-71.333 -42 -126 -42h-68v135h40c16 0 27.833 3.16699 35.5 9.5s11.5 19.833 11.5 40.5v16h1v243c0 34 -7 59.167 -21 75.5s-35.333 24.5 -64 24.5c-27.333 0 -49 -9 -65 -27
s-24 -46.333 -24 -85v-232h-151v462h148v-70h2c16 27.333 37 48.333 63 63s55.333 22 88 22c53.333 0 95.666 -16 126.999 -48z" />
    <glyph glyph-name="Omacron" unicode="&#x14c;" horiz-adv-x="780" 
d="M578 669c56 -30.667 100.167 -73.667 132.5 -129s48.5 -118.666 48.5 -189.999s-16.167 -134.666 -48.5 -189.999s-76.5 -98.333 -132.5 -129s-118.667 -46 -188 -46s-132 15.333 -188 46s-100.167 73.667 -132.5 129s-48.5 118.666 -48.5 189.999
s16.167 134.666 48.5 189.999s76.5 98.333 132.5 129s118.667 46 188 46s132 -15.333 188 -46zM289 530c-30 -16.667 -53.667 -40.5 -71 -71.5s-26 -67.167 -26 -108.5s8.66699 -77.5 26 -108.5s41 -54.833 71 -71.5s63.667 -25 101 -25s71 8.33301 101 25
s53.667 40.5 71 71.5s26 67.167 26 108.5s-8.66699 77.5 -26 108.5s-41 54.833 -71 71.5s-63.667 25 -101 25s-71 -8.33301 -101 -25zM552 749h-324v95h324v-95z" />
    <glyph glyph-name="omacron" unicode="&#x14d;" horiz-adv-x="561" 
d="M414 446.5c39.333 -20.333 70.166 -49.166 92.499 -86.499s33.5 -80.333 33.5 -129s-11.167 -91.667 -33.5 -129s-53.166 -66.166 -92.499 -86.499s-84 -30.5 -134 -30.5c-49.333 0 -93.666 10.167 -132.999 30.5s-70.166 49.166 -92.499 86.499s-33.5 80.333 -33.5 129
s11.167 91.667 33.5 129s53.166 66.166 92.499 86.499s83.666 30.5 132.999 30.5c50 0 94.667 -10.167 134 -30.5zM203 309c-20.667 -20 -31 -46.002 -31 -78.002s10.333 -58 31 -78s46.334 -30 77.001 -30c31.333 0 57.166 9.83301 77.499 29.5s30.5 45.834 30.5 78.501
s-10.167 58.834 -30.5 78.501s-46.166 29.5 -77.499 29.5c-30.667 0 -56.334 -10 -77.001 -30zM443 573.998h-325v99h325v-99z" />
    <glyph glyph-name="Obreve" unicode="&#x14e;" horiz-adv-x="780" 
d="M578 669c56 -30.667 100.167 -73.667 132.5 -129s48.5 -118.666 48.5 -189.999s-16.167 -134.666 -48.5 -189.999s-76.5 -98.333 -132.5 -129s-118.667 -46 -188 -46s-132 15.333 -188 46s-100.167 73.667 -132.5 129s-48.5 118.666 -48.5 189.999
s16.167 134.666 48.5 189.999s76.5 98.333 132.5 129s118.667 46 188 46s132 -15.333 188 -46zM289 530c-30 -16.667 -53.667 -40.5 -71 -71.5s-26 -67.167 -26 -108.5s8.66699 -77.5 26 -108.5s41 -54.833 71 -71.5s63.667 -25 101 -25s71 8.33301 101 25
s53.667 40.5 71 71.5s26 67.167 26 108.5s-8.66699 77.5 -26 108.5s-41 54.833 -71 71.5s-63.667 25 -101 25s-71 -8.33301 -101 -25zM503.5 769.5c-29 -23 -66.832 -34.5 -113.499 -34.5s-84.334 11.5 -113.001 34.5s-45.667 54.5 -51 94.5h103
c1.33301 -12.667 7.5 -23.167 18.5 -31.5s25.167 -12.5 42.5 -12.5c18 0 32.333 4 43 12s16.667 18.667 18 32h103c-4.66699 -40 -21.5 -71.5 -50.5 -94.5z" />
    <glyph glyph-name="obreve" unicode="&#x14f;" horiz-adv-x="561" 
d="M414 446.5c39.333 -20.333 70.166 -49.166 92.499 -86.499s33.5 -80.333 33.5 -129s-11.167 -91.667 -33.5 -129s-53.166 -66.166 -92.499 -86.499s-84 -30.5 -134 -30.5c-49.333 0 -93.666 10.167 -132.999 30.5s-70.166 49.166 -92.499 86.499s-33.5 80.333 -33.5 129
s11.167 91.667 33.5 129s53.166 66.166 92.499 86.499s83.666 30.5 132.999 30.5c50 0 94.667 -10.167 134 -30.5zM203 309c-20.667 -20 -31 -46.002 -31 -78.002s10.333 -58 31 -78s46.334 -30 77.001 -30c31.333 0 57.166 9.83301 77.499 29.5s30.5 45.834 30.5 78.501
s-10.167 58.834 -30.5 78.501s-46.166 29.5 -77.499 29.5c-30.667 0 -56.334 -10 -77.001 -30zM397.5 582.998c-31 -30 -70.167 -45 -117.5 -45c-30.667 0 -58.5 6.83301 -83.5 20.5s-44.667 32.667 -59 57s-21.5 52.5 -21.5 84.5h95c1.33301 -20 7.33301 -36.667 18 -50
s27.667 -20 51 -20s40.333 6.66699 51 20s16.667 30 18 50h95c0 -48 -15.5 -87 -46.5 -117z" />
    <glyph glyph-name="Ohungarumlaut" unicode="&#x150;" horiz-adv-x="780" 
d="M578 669c56 -30.667 100.167 -73.667 132.5 -129s48.5 -118.666 48.5 -189.999s-16.167 -134.666 -48.5 -189.999s-76.5 -98.333 -132.5 -129s-118.667 -46 -188 -46s-132 15.333 -188 46s-100.167 73.667 -132.5 129s-48.5 118.666 -48.5 189.999
s16.167 134.666 48.5 189.999s76.5 98.333 132.5 129s118.667 46 188 46s132 -15.333 188 -46zM289 530c-30 -16.667 -53.667 -40.5 -71 -71.5s-26 -67.167 -26 -108.5s8.66699 -77.5 26 -108.5s41 -54.833 71 -71.5s63.667 -25 101 -25s71 8.33301 101 25
s53.667 40.5 71 71.5s26 67.167 26 108.5s-8.66699 77.5 -26 108.5s-41 54.833 -71 71.5s-63.667 25 -101 25s-71 -8.33301 -101 -25zM380 743h-102l98 120h117zM538 743h-102l98 120h117z" />
    <glyph glyph-name="ohungarumlaut" unicode="&#x151;" horiz-adv-x="561" 
d="M414 446.5c39.333 -20.333 70.166 -49.166 92.499 -86.499s33.5 -80.333 33.5 -129s-11.167 -91.667 -33.5 -129s-53.166 -66.166 -92.499 -86.499s-84 -30.5 -134 -30.5c-49.333 0 -93.666 10.167 -132.999 30.5s-70.166 49.166 -92.499 86.499s-33.5 80.333 -33.5 129
s11.167 91.667 33.5 129s53.166 66.166 92.499 86.499s83.666 30.5 132.999 30.5c50 0 94.667 -10.167 134 -30.5zM203 309c-20.667 -20 -31 -46.002 -31 -78.002s10.333 -58 31 -78s46.334 -30 77.001 -30c31.333 0 57.166 9.83301 77.499 29.5s30.5 45.834 30.5 78.501
s-10.167 58.834 -30.5 78.501s-46.166 29.5 -77.499 29.5c-30.667 0 -56.334 -10 -77.001 -30zM251 552.998h-102l122 154h122zM410 552.998h-102l122 154h122z" />
    <glyph glyph-name="OE" unicode="&#x152;" horiz-adv-x="1057" 
d="M1026 141v-140.998h-438v48c-50 -42 -116 -63 -198 -63c-69.333 0 -132 15.333 -188 46s-100.167 73.667 -132.5 129s-48.5 118.666 -48.5 189.999s16.167 134.666 48.5 189.999s76.5 98.333 132.5 129s118.667 46 188 46c82 0 148 -21 198 -63v48h432v-141h-277v-114
h250v-141h-250v-163h283zM493 170.002c30.667 16.667 54.834 40.5 72.501 71.5s26.5 67.167 26.5 108.5s-8.83301 77.5 -26.5 108.5s-41.834 54.833 -72.501 71.5s-65 25 -103 25c-37.333 0 -71 -8.33301 -101 -25s-53.667 -40.5 -71 -71.5s-26 -67.167 -26 -108.5
s8.66699 -77.5 26 -108.5s41 -54.833 71 -71.5s63.667 -25 101 -25c38 0 72.333 8.33301 103 25z" />
    <glyph glyph-name="oe" unicode="&#x153;" horiz-adv-x="861" 
d="M783.5 412c41 -42.667 61.5029 -102.331 61.5029 -178.998v-40h-331c6.66699 -26 20.167 -45.5 40.5 -58.5s45.833 -19.5 76.5 -19.5c25.333 0 49.666 3.83301 72.999 11.5s43.666 16.834 60.999 27.501l54 -118c-29.333 -16.667 -58.833 -29.334 -88.5 -38.001
s-63.167 -13 -100.5 -13c-84 0 -146.333 26.333 -187 79h-2c-40.667 -52.667 -98.334 -79 -173.001 -79c-47.333 0 -89.666 10.5 -126.999 31.5s-66.666 50.167 -87.999 87.5s-32 79.666 -32 126.999s10.667 89.666 32 126.999s50.666 66.5 87.999 87.5
s79.666 31.5 126.999 31.5c74.667 0 132.334 -26 173.001 -78h2c19.333 24.667 43.666 43.667 72.999 57s62.333 20 99 20c71.333 0 127.5 -21.333 168.5 -64zM512.003 284.003h183.001c-0.666992 24.667 -8.83398 43.667 -24.501 57s-35.5 20 -59.5 20
c-54.667 0 -87.667 -25.667 -99 -77zM192.504 311.003c-20.333 -20 -30.5 -46.667 -30.5 -80s10.167 -60 30.5 -80s45.5 -30 75.5 -30s55 10 75 30s30 46.667 30 80s-10 60 -30 80s-45 30 -75 30s-55.167 -10 -75.5 -30z" />
    <glyph glyph-name="Racute" unicode="&#x154;" horiz-adv-x="617" 
d="M246 265h-30.001v-265h-155v700h280c50.667 0 93.834 -9.66699 129.501 -29s62.667 -45.5 81 -78.5s27.5 -70.167 27.5 -111.5c0 -52.667 -14 -97.5 -42 -134.5s-68.333 -61.5 -121 -73.5l200 -273h-194zM215.999 395h102c64.667 0 97 27.333 97 82
c0 26 -8.5 46.167 -25.5 60.5s-40.833 21.5 -71.5 21.5h-102v-164zM326.999 743h-109l115 120h165z" />
    <glyph glyph-name="racute" unicode="&#x155;" horiz-adv-x="362" 
d="M352 325l-13 -0.000976562c-34.667 0 -62.167 -4.83301 -82.5 -14.5s-35.333 -25.667 -45 -48s-14.5 -53.166 -14.5 -92.499v-170h-151v462h148v-94h2c25.333 72 76.333 108 153 108h3v-151zM239 552.999h-118l115 154h165z" />
    <glyph glyph-name="Rcommaaccent" unicode="&#x156;" horiz-adv-x="617" 
d="M246 265h-30.001v-265h-155v700h280c50.667 0 93.834 -9.66699 129.501 -29s62.667 -45.5 81 -78.5s27.5 -70.167 27.5 -111.5c0 -52.667 -14 -97.5 -42 -134.5s-68.333 -61.5 -121 -73.5l200 -273h-194zM215.999 395h102c64.667 0 97 27.333 97 82
c0 26 -8.5 46.167 -25.5 60.5s-40.833 21.5 -71.5 21.5h-102v-164zM392.999 -47v-101l-65 -62h-52l33 62h-53v101h137z" />
    <glyph glyph-name="rcommaaccent" unicode="&#x157;" horiz-adv-x="362" 
d="M352 325l-13 -0.000976562c-34.667 0 -62.167 -4.83301 -82.5 -14.5s-35.333 -25.667 -45 -48s-14.5 -53.166 -14.5 -92.499v-170h-151v462h148v-94h2c25.333 72 76.333 108 153 108h3v-151zM193 -47.001v-101l-65 -62h-52l33 62h-53v101h137z" />
    <glyph glyph-name="Rcaron" unicode="&#x158;" horiz-adv-x="617" 
d="M246 265h-30.001v-265h-155v700h280c50.667 0 93.834 -9.66699 129.501 -29s62.667 -45.5 81 -78.5s27.5 -70.167 27.5 -111.5c0 -52.667 -14 -97.5 -42 -134.5s-68.333 -61.5 -121 -73.5l200 -273h-194zM215.999 395h102c64.667 0 97 27.333 97 82
c0 26 -8.5 46.167 -25.5 60.5s-40.833 21.5 -71.5 21.5h-102v-164zM202.999 743l-120 120h125l67 -62l67 62h125l-120 -120h-144z" />
    <glyph glyph-name="rcaron" unicode="&#x159;" horiz-adv-x="362" 
d="M352 325l-13 -0.000976562c-34.667 0 -62.167 -4.83301 -82.5 -14.5s-35.333 -25.667 -45 -48s-14.5 -53.166 -14.5 -92.499v-170h-151v462h148v-94h2c25.333 72 76.333 108 153 108h3v-151zM255 545.999h-141l-122 154h125l67 -82l68 82h125z" />
    <glyph glyph-name="Sacute" unicode="&#x15a;" horiz-adv-x="544" 
d="M507 664l-65 -137.002c-32.667 15.333 -61.5 26.5 -86.5 33.5s-48.833 10.5 -71.5 10.5c-42.667 0 -64 -13.667 -64 -41c0 -10.667 3.83301 -20.167 11.5 -28.5s21.5 -18.5 41.5 -30.5l116 -73c44.667 -27.333 78 -56.666 100 -87.999s33 -70.333 33 -117
c0 -67.333 -22 -118.833 -66 -154.5s-107 -53.5 -189 -53.5c-94 0 -181 23.333 -261 70l70 139c70 -42.667 135.667 -64 197 -64c28 0 49.333 4.66699 64 14s22 23.333 22 42c0 14.667 -5.33301 27.334 -16 38.001s-27.334 23 -50.001 37l-107 67
c-86 51.333 -129 118 -129 200c0 58 19 103.667 57 137s93.333 50 166 50s148.334 -17 227.001 -51zM341 742.998h-109l115 120h165z" />
    <glyph glyph-name="sacute" unicode="&#x15b;" horiz-adv-x="434" 
d="M114 -3.5c-36.667 7.66699 -71.333 19.832 -104 36.499l57 124c60.667 -35.333 115.334 -53 164.001 -53c28 0 42 7 42 21c0 6.66699 -2 11.667 -6 15s-8.66699 5.83301 -14 7.5s-9.33301 3.16699 -12 4.5l-81 32c-38 14.667 -66.333 33.667 -85 57s-28 52 -28 86
c0 48 16.667 85 50 111s82.666 39 147.999 39c53.333 0 109 -9.33301 167 -28l-42 -122c-55.333 22.667 -101 34 -137 34c-14 0 -23.667 -1.66699 -29 -5s-8 -8.33301 -8 -15s2.66699 -11.834 8 -15.501s14.333 -8.16699 27 -13.5l80 -30c37.333 -14 65.333 -31.667 84 -53
s28 -50.666 28 -87.999c0 -53.333 -18 -92.666 -54 -117.999s-86 -38 -150 -38c-33.333 0 -68.333 3.83301 -105 11.5zM293.001 552.998h-118l115 154h165z" />
    <glyph glyph-name="Scircumflex" unicode="&#x15c;" horiz-adv-x="544" 
d="M507 664l-65 -137.002c-32.667 15.333 -61.5 26.5 -86.5 33.5s-48.833 10.5 -71.5 10.5c-42.667 0 -64 -13.667 -64 -41c0 -10.667 3.83301 -20.167 11.5 -28.5s21.5 -18.5 41.5 -30.5l116 -73c44.667 -27.333 78 -56.666 100 -87.999s33 -70.333 33 -117
c0 -67.333 -22 -118.833 -66 -154.5s-107 -53.5 -189 -53.5c-94 0 -181 23.333 -261 70l70 139c70 -42.667 135.667 -64 197 -64c28 0 49.333 4.66699 64 14s22 23.333 22 42c0 14.667 -5.33301 27.334 -16 38.001s-27.334 23 -50.001 37l-107 67
c-86 51.333 -129 118 -129 200c0 58 19 103.667 57 137s93.333 50 166 50s148.334 -17 227.001 -51zM481 742.998h-125l-67 62l-67 -62h-125l120 120h144z" />
    <glyph glyph-name="scircumflex" unicode="&#x15d;" horiz-adv-x="434" 
d="M114 -3.5c-36.667 7.66699 -71.333 19.832 -104 36.499l57 124c60.667 -35.333 115.334 -53 164.001 -53c28 0 42 7 42 21c0 6.66699 -2 11.667 -6 15s-8.66699 5.83301 -14 7.5s-9.33301 3.16699 -12 4.5l-81 32c-38 14.667 -66.333 33.667 -85 57s-28 52 -28 86
c0 48 16.667 85 50 111s82.666 39 147.999 39c53.333 0 109 -9.33301 167 -28l-42 -122c-55.333 22.667 -101 34 -137 34c-14 0 -23.667 -1.66699 -29 -5s-8 -8.33301 -8 -15s2.66699 -11.834 8 -15.501s14.333 -8.16699 27 -13.5l80 -30c37.333 -14 65.333 -31.667 84 -53
s28 -50.666 28 -87.999c0 -53.333 -18 -92.666 -54 -117.999s-86 -38 -150 -38c-33.333 0 -68.333 3.83301 -105 11.5zM431.001 552.998h-125l-68 82l-67 -82h-125l122 154h141z" />
    <glyph glyph-name="Scedilla" unicode="&#x15e;" horiz-adv-x="544" 
d="M507 664l-65 -137.002c-32.667 15.333 -61.5 26.5 -86.5 33.5s-48.833 10.5 -71.5 10.5c-42.667 0 -64 -13.667 -64 -41c0 -10.667 3.83301 -20.167 11.5 -28.5s21.5 -18.5 41.5 -30.5l116 -73c44.667 -27.333 78 -56.666 100 -87.999s33 -70.333 33 -117
c0 -67.333 -22 -118.833 -66 -154.5s-107 -53.5 -189 -53.5c-94 0 -181 23.333 -261 70l70 139c70 -42.667 135.667 -64 197 -64c28 0 49.333 4.66699 64 14s22 23.333 22 42c0 14.667 -5.33301 27.334 -16 38.001s-27.334 23 -50.001 37l-107 67
c-86 51.333 -129 118 -129 200c0 58 19 103.667 57 137s93.333 50 166 50s148.334 -17 227.001 -51zM289 -38.002c30 -5.33301 52.334 -12.332 67.001 -20.999s22 -22.334 22 -41.001c0 -16.667 -6.83301 -31.167 -20.5 -43.5s-31 -23 -52 -32s-52.833 -21.167 -95.5 -36.5
l-16 37c29.333 12.667 50.166 22.667 62.499 30s18.5 15 18.5 23c0 8.66699 -4 15.167 -12 19.5s-22.667 8.83301 -44 13.5l48 128h54z" />
    <glyph glyph-name="scedilla" unicode="&#x15f;" horiz-adv-x="434" 
d="M114 -3.5c-36.667 7.66699 -71.333 19.832 -104 36.499l57 124c60.667 -35.333 115.334 -53 164.001 -53c28 0 42 7 42 21c0 6.66699 -2 11.667 -6 15s-8.66699 5.83301 -14 7.5s-9.33301 3.16699 -12 4.5l-81 32c-38 14.667 -66.333 33.667 -85 57s-28 52 -28 86
c0 48 16.667 85 50 111s82.666 39 147.999 39c53.333 0 109 -9.33301 167 -28l-42 -122c-55.333 22.667 -101 34 -137 34c-14 0 -23.667 -1.66699 -29 -5s-8 -8.33301 -8 -15s2.66699 -11.834 8 -15.501s14.333 -8.16699 27 -13.5l80 -30c37.333 -14 65.333 -31.667 84 -53
s28 -50.666 28 -87.999c0 -53.333 -18 -92.666 -54 -117.999s-86 -38 -150 -38c-33.333 0 -68.333 3.83301 -105 11.5zM236.001 -38.002c30 -5.33301 52.334 -12.332 67.001 -20.999s22 -22.334 22 -41.001c0 -16.667 -6.83301 -31.167 -20.5 -43.5s-31 -23 -52 -32
s-52.833 -21.167 -95.5 -36.5l-16 37c29.333 12.667 50.166 22.667 62.499 30s18.5 15 18.5 23c0 8.66699 -4 15.167 -12 19.5s-22.667 8.83301 -44 13.5l48 128h54z" />
    <glyph glyph-name="Scaron" unicode="&#x160;" horiz-adv-x="544" 
d="M507 664l-65 -137.002c-32.667 15.333 -61.5 26.5 -86.5 33.5s-48.833 10.5 -71.5 10.5c-42.667 0 -64 -13.667 -64 -41c0 -10.667 3.83301 -20.167 11.5 -28.5s21.5 -18.5 41.5 -30.5l116 -73c44.667 -27.333 78 -56.666 100 -87.999s33 -70.333 33 -117
c0 -67.333 -22 -118.833 -66 -154.5s-107 -53.5 -189 -53.5c-94 0 -181 23.333 -261 70l70 139c70 -42.667 135.667 -64 197 -64c28 0 49.333 4.66699 64 14s22 23.333 22 42c0 14.667 -5.33301 27.334 -16 38.001s-27.334 23 -50.001 37l-107 67
c-86 51.333 -129 118 -129 200c0 58 19 103.667 57 137s93.333 50 166 50s148.334 -17 227.001 -51zM217 742.998l-120 120h125l67 -62l67 62h125l-120 -120h-144z" />
    <glyph glyph-name="scaron" unicode="&#x161;" horiz-adv-x="434" 
d="M114 -3.5c-36.667 7.66699 -71.333 19.832 -104 36.499l57 124c60.667 -35.333 115.334 -53 164.001 -53c28 0 42 7 42 21c0 6.66699 -2 11.667 -6 15s-8.66699 5.83301 -14 7.5s-9.33301 3.16699 -12 4.5l-81 32c-38 14.667 -66.333 33.667 -85 57s-28 52 -28 86
c0 48 16.667 85 50 111s82.666 39 147.999 39c53.333 0 109 -9.33301 167 -28l-42 -122c-55.333 22.667 -101 34 -137 34c-14 0 -23.667 -1.66699 -29 -5s-8 -8.33301 -8 -15s2.66699 -11.834 8 -15.501s14.333 -8.16699 27 -13.5l80 -30c37.333 -14 65.333 -31.667 84 -53
s28 -50.666 28 -87.999c0 -53.333 -18 -92.666 -54 -117.999s-86 -38 -150 -38c-33.333 0 -68.333 3.83301 -105 11.5zM309.001 545.998h-141l-122 154h125l67 -82l68 82h125z" />
    <glyph glyph-name="uni0162" unicode="&#x162;" horiz-adv-x="534" 
d="M529 555h-184v-555h-155v555h-185v145h524v-145zM270 -38c30 -5.33301 52.334 -12.332 67.001 -20.999s22 -22.334 22 -41.001c0 -16.667 -6.83301 -31.167 -20.5 -43.5s-31 -23 -52 -32s-52.833 -21.167 -95.5 -36.5l-16 37c29.333 12.667 50.166 22.667 62.499 30
s18.5 15 18.5 23c0 8.66699 -4 15.167 -12 19.5s-22.667 8.83301 -44 13.5l48 128h54z" />
    <glyph glyph-name="uni0163" unicode="&#x163;" horiz-adv-x="362" 
d="M251 336v-138.999c0 -22 3.5 -37 10.5 -45s20.167 -12 39.5 -12h17v-140h-63c-49.333 0 -87.5 12.667 -114.5 38s-40.5 64.666 -40.5 117.999v180h-90v126h90v185h151v-185h95v-126h-95zM235 -37.999c30 -5.33301 52.334 -12.332 67.001 -20.999s22 -22.334 22 -41.001
c0 -16.667 -6.83301 -31.167 -20.5 -43.5s-31 -23 -52 -32s-52.833 -21.167 -95.5 -36.5l-16 37c29.333 12.667 50.166 22.667 62.499 30s18.5 15 18.5 23c0 8.66699 -4 15.167 -12 19.5s-22.667 8.83301 -44 13.5l48 128h54z" />
    <glyph glyph-name="Tcaron" unicode="&#x164;" horiz-adv-x="534" 
d="M529 555h-184v-555h-155v555h-185v145h524v-145zM194 743l-120 120h125l67 -62l67 62h125l-120 -120h-144z" />
    <glyph glyph-name="tcaron" unicode="&#x165;" horiz-adv-x="463" 
d="M453 715v-140l-82 -82h-54l45 82h-48v140h139zM251 462l95 0.000976562v-126h-95v-139c0 -22 3.5 -37 10.5 -45s20.167 -12 39.5 -12h17v-140h-63c-49.333 0 -87.5 12.667 -114.5 38s-40.5 64.666 -40.5 117.999v180h-90v126h90v185h151v-185z" />
    <glyph glyph-name="Tbar" unicode="&#x166;" horiz-adv-x="534" 
d="M345 555v-93h116v-117h-116v-345h-155v345h-116v117h116v93h-185v145h524v-145h-184z" />
    <glyph glyph-name="tbar" unicode="&#x167;" horiz-adv-x="373" 
d="M251 336v-45.999h86v-76h-86v-17c0 -22 3.5 -37 10.5 -45s20.167 -12 39.5 -12h17v-140h-63c-49.333 0 -87.5 12.667 -114.5 38s-40.5 64.666 -40.5 117.999v58h-76v76h76v46h-90v126h90v185h151v-185h95v-126h-95z" />
    <glyph glyph-name="Utilde" unicode="&#x168;" horiz-adv-x="706" 
d="M650 283c0 -92.667 -25.332 -165.167 -75.999 -217.5s-124.334 -78.5 -221.001 -78.5c-97.333 0 -171.333 26.167 -222 78.5s-76 124.833 -76 217.5v417h165v-403c0 -45.333 11.5 -81.666 34.5 -108.999s55.833 -41 98.5 -41s75.5 13.667 98.5 41
s34.5 63.666 34.5 108.999v403h164v-417zM389.501 743.5c-16.333 3.66699 -36.166 8.83398 -59.499 15.501c-36 10 -60 15 -72 15c-11.333 0 -21.333 -3.16699 -30 -9.5s-16.667 -15.833 -24 -28.5l-47 15c10.667 38.667 24.834 68.334 42.501 89.001s42.167 31 73.5 31
c14 0 29.167 -1.83301 45.5 -5.5s36.166 -8.83398 59.499 -15.501c35.333 -10 59.333 -15 72 -15c20.667 0 38.667 13 54 39l47 -16c-11.333 -38.667 -25.833 -68.334 -43.5 -89.001s-41.834 -31 -72.501 -31c-14 0 -29.167 1.83301 -45.5 5.5z" />
    <glyph glyph-name="utilde" unicode="&#x169;" horiz-adv-x="557" 
d="M89.5 33.5c-32.333 32.333 -48.5 80.167 -48.5 143.5v285h156v-252c0 -32 6.66699 -55.5 20 -70.5s32 -22.5 56 -22.5c27.333 0 48.666 10 63.999 30s23 50.667 23 92v223h151v-462h-148v72h-2c-17.333 -28 -37.666 -49.5 -60.999 -64.5s-51.333 -22.5 -84 -22.5
c-52 0 -94.167 16.167 -126.5 48.5zM245.5 700.001c15.667 -4.66699 34.166 -11.334 55.499 -20.001c12.667 -4.66699 25 -9 37 -13s21.667 -6 29 -6c21.333 0 39.333 15.333 54 46l57 -19c-11.333 -42 -26 -74.667 -44 -98s-42 -35 -72 -35
c-14.667 0 -29.667 2.33301 -45 7s-33.666 11.334 -54.999 20.001c-32.667 12.667 -55 19 -67 19c-11.333 0 -21.333 -4 -30 -12s-16.667 -19.333 -24 -34l-56 19c10.667 42 25 74.667 43 98s42.333 35 73 35c14 0 28.833 -2.33301 44.5 -7z" />
    <glyph glyph-name="Umacron" unicode="&#x16a;" horiz-adv-x="706" 
d="M650 283c0 -92.667 -25.332 -165.167 -75.999 -217.5s-124.334 -78.5 -221.001 -78.5c-97.333 0 -171.333 26.167 -222 78.5s-76 124.833 -76 217.5v417h165v-403c0 -45.333 11.5 -81.666 34.5 -108.999s55.833 -41 98.5 -41s75.5 13.667 98.5 41
s34.5 63.666 34.5 108.999v403h164v-417zM515.001 749h-324v95h324v-95z" />
    <glyph glyph-name="umacron" unicode="&#x16b;" horiz-adv-x="557" 
d="M89.5 33.5c-32.333 32.333 -48.5 80.167 -48.5 143.5v285h156v-252c0 -32 6.66699 -55.5 20 -70.5s32 -22.5 56 -22.5c27.333 0 48.666 10 63.999 30s23 50.667 23 92v223h151v-462h-148v72h-2c-17.333 -28 -37.666 -49.5 -60.999 -64.5s-51.333 -22.5 -84 -22.5
c-52 0 -94.167 16.167 -126.5 48.5zM444 574.001h-325v99h325v-99z" />
    <glyph glyph-name="Ubreve" unicode="&#x16c;" horiz-adv-x="706" 
d="M650 283c0 -92.667 -25.332 -165.167 -75.999 -217.5s-124.334 -78.5 -221.001 -78.5c-97.333 0 -171.333 26.167 -222 78.5s-76 124.833 -76 217.5v417h165v-403c0 -45.333 11.5 -81.666 34.5 -108.999s55.833 -41 98.5 -41s75.5 13.667 98.5 41
s34.5 63.666 34.5 108.999v403h164v-417zM466.501 769.5c-29 -23 -66.832 -34.5 -113.499 -34.5s-84.334 11.5 -113.001 34.5s-45.667 54.5 -51 94.5h103c1.33301 -12.667 7.5 -23.167 18.5 -31.5s25.167 -12.5 42.5 -12.5c18 0 32.333 4 43 12s16.667 18.667 18 32h103
c-4.66699 -40 -21.5 -71.5 -50.5 -94.5z" />
    <glyph glyph-name="ubreve" unicode="&#x16d;" horiz-adv-x="557" 
d="M89.5 33.5c-32.333 32.333 -48.5 80.167 -48.5 143.5v285h156v-252c0 -32 6.66699 -55.5 20 -70.5s32 -22.5 56 -22.5c27.333 0 48.666 10 63.999 30s23 50.667 23 92v223h151v-462h-148v72h-2c-17.333 -28 -37.666 -49.5 -60.999 -64.5s-51.333 -22.5 -84 -22.5
c-52 0 -94.167 16.167 -126.5 48.5zM398.5 583.001c-31 -30 -70.167 -45 -117.5 -45c-30.667 0 -58.5 6.83301 -83.5 20.5s-44.667 32.667 -59 57s-21.5 52.5 -21.5 84.5h95c1.33301 -20 7.33301 -36.667 18 -50s27.667 -20 51 -20s40.333 6.66699 51 20s16.667 30 18 50h95
c0 -48 -15.5 -87 -46.5 -117z" />
    <glyph glyph-name="Uring" unicode="&#x16e;" horiz-adv-x="706" 
d="M650 283c0 -92.667 -25.332 -165.167 -75.999 -217.5s-124.334 -78.5 -221.001 -78.5c-97.333 0 -171.333 26.167 -222 78.5s-76 124.833 -76 217.5v417h165v-403c0 -45.333 11.5 -81.666 34.5 -108.999s55.833 -41 98.5 -41s75.5 13.667 98.5 41
s34.5 63.666 34.5 108.999v403h164v-417zM439.001 839c22.667 -22 34 -50 34 -84s-11.333 -62 -34 -84s-51.334 -33 -86.001 -33c-35.333 0 -64.333 11 -87 33s-34 50 -34 84s11.333 62 34 84s51.667 33 87 33c34.667 0 63.334 -11 86.001 -33zM311.501 795
c-10.333 -10.667 -15.5 -24 -15.5 -40s5.16699 -29.167 15.5 -39.5s24.166 -15.5 41.499 -15.5c16.667 0 30.334 5.16699 41.001 15.5s16 23.5 16 39.5s-5.33301 29.333 -16 40s-24.334 16 -41.001 16c-17.333 0 -31.166 -5.33301 -41.499 -16z" />
    <glyph glyph-name="uring" unicode="&#x16f;" horiz-adv-x="557" 
d="M89.5 33.5c-32.333 32.333 -48.5 80.167 -48.5 143.5v285h156v-252c0 -32 6.66699 -55.5 20 -70.5s32 -22.5 56 -22.5c27.333 0 48.666 10 63.999 30s23 50.667 23 92v223h151v-462h-148v72h-2c-17.333 -28 -37.666 -49.5 -60.999 -64.5s-51.333 -22.5 -84 -22.5
c-52 0 -94.167 16.167 -126.5 48.5zM366 714.001c22.667 -22 34 -50 34 -84s-11.333 -62 -34 -84s-51.334 -33 -86.001 -33s-63.334 11 -86.001 33s-34 50 -34 84s11.333 62 34 84s51.334 33 86.001 33s63.334 -11 86.001 -33zM239.5 669.501
c-10.333 -10.333 -15.5 -23.5 -15.5 -39.5s5.16699 -29.167 15.5 -39.5s23.833 -15.5 40.5 -15.5s30.167 5.16699 40.5 15.5s15.5 23.5 15.5 39.5s-5.16699 29.167 -15.5 39.5s-23.833 15.5 -40.5 15.5s-30.167 -5.16699 -40.5 -15.5z" />
    <glyph glyph-name="Uhungarumlaut" unicode="&#x170;" horiz-adv-x="706" 
d="M650 283c0 -92.667 -25.332 -165.167 -75.999 -217.5s-124.334 -78.5 -221.001 -78.5c-97.333 0 -171.333 26.167 -222 78.5s-76 124.833 -76 217.5v417h165v-403c0 -45.333 11.5 -81.666 34.5 -108.999s55.833 -41 98.5 -41s75.5 13.667 98.5 41
s34.5 63.666 34.5 108.999v403h164v-417zM343.001 743h-102l98 120h117zM501.001 743h-102l98 120h117z" />
    <glyph glyph-name="uhungarumlaut" unicode="&#x171;" horiz-adv-x="557" 
d="M89.5 33.5c-32.333 32.333 -48.5 80.167 -48.5 143.5v285h156v-252c0 -32 6.66699 -55.5 20 -70.5s32 -22.5 56 -22.5c27.333 0 48.666 10 63.999 30s23 50.667 23 92v223h151v-462h-148v72h-2c-17.333 -28 -37.666 -49.5 -60.999 -64.5s-51.333 -22.5 -84 -22.5
c-52 0 -94.167 16.167 -126.5 48.5zM252 553.001h-102l122 154h122zM411 553.001h-102l122 154h122z" />
    <glyph glyph-name="Uogonek" unicode="&#x172;" horiz-adv-x="706" 
d="M650 283c0 -92.667 -25.332 -165.167 -75.999 -217.5s-124.334 -78.5 -221.001 -78.5c-97.333 0 -171.333 26.167 -222 78.5s-76 124.833 -76 217.5v417h165v-403c0 -45.333 11.5 -81.666 34.5 -108.999s55.833 -41 98.5 -41s75.5 13.667 98.5 41
s34.5 63.666 34.5 108.999v403h164v-417zM440.001 10c-54.667 -50.667 -82.001 -85.333 -82.001 -104c0 -6.66699 2.5 -12 7.5 -16s11.167 -6 18.5 -6s20.333 2 39 6l12 -94c-34.667 -6 -58 -9 -70 -9c-35.333 0 -62.666 7 -81.999 21s-29 35.667 -29 65
c0 22.667 8.83301 45.5 26.5 68.5s45.167 50.5 82.5 82.5z" />
    <glyph glyph-name="uogonek" unicode="&#x173;" horiz-adv-x="557" 
d="M89.5 33.5c-32.333 32.333 -48.5 80.167 -48.5 143.5v285h156v-252c0 -32 6.66699 -55.5 20 -70.5s32 -22.5 56 -22.5c27.333 0 48.666 10 63.999 30s23 50.667 23 92v223h151v-462h-148v72h-2c-17.333 -28 -37.666 -49.5 -60.999 -64.5s-51.333 -22.5 -84 -22.5
c-52 0 -94.167 16.167 -126.5 48.5zM455 10.001c-54.667 -50.667 -82.001 -85.333 -82.001 -104c0 -6.66699 2.5 -12 7.5 -16s11.167 -6 18.5 -6s20.333 2 39 6l12 -94c-34.667 -6 -58 -9 -70 -9c-35.333 0 -62.666 7 -81.999 21s-29 35.667 -29 65
c0 22.667 8.83301 45.5 26.5 68.5s45.167 50.5 82.5 82.5z" />
    <glyph glyph-name="Wcircumflex" unicode="&#x174;" horiz-adv-x="1066" 
d="M825 0h-137l-154 454h-2l-154 -454h-137l-235 700h181l125 -450h2l151 450h136l151 -450h2l125 450h181zM724 743h-125l-67 62l-67 -62h-125l120 120h144z" />
    <glyph glyph-name="wcircumflex" unicode="&#x175;" horiz-adv-x="808" 
d="M803 462l-168 -462h-129l-102 270l-101 -270h-129l-169 462h150l86 -271l94 271h139l93 -271l87 271h149zM597 553h-125l-68 82l-67 -82h-125l122 154h141z" />
    <glyph glyph-name="Ycircumflex" unicode="&#x176;" horiz-adv-x="659" 
d="M407 253v-253h-155v251l-252 449h186l142 -293h2l143 293h186zM520 743h-125l-67 62l-67 -62h-125l120 120h144z" />
    <glyph glyph-name="ycircumflex" unicode="&#x177;" horiz-adv-x="560" 
d="M555 462l-307 -662h-152l116 244l-207 418h174l108 -255l115 255h153zM480 553h-125l-68 82l-67 -82h-125l122 154h141z" />
    <glyph glyph-name="Ydieresis" unicode="&#x178;" horiz-adv-x="659" 
d="M407 253v-253h-155v251l-252 449h186l142 -293h2l143 293h186zM287 743h-133v114h133v-114zM505 743h-134v114h134v-114z" />
    <glyph glyph-name="Zacute" unicode="&#x179;" horiz-adv-x="568" 
d="M548 145v-145h-528v145l329 410h-303v145h492v-145l-326 -410h336zM338 743h-109l115 120h165z" />
    <glyph glyph-name="zacute" unicode="&#x17a;" horiz-adv-x="451" 
d="M436 127v-127h-420v114l216 221h-200v127h389v-111l-221 -224h236zM291 553h-118l115 154h165z" />
    <glyph glyph-name="Zdotaccent" unicode="&#x17b;" horiz-adv-x="568" 
d="M548 145v-145h-528v145l329 410h-303v145h492v-145l-326 -410h336zM358 743h-142v128h142v-128z" />
    <glyph glyph-name="zdotaccent" unicode="&#x17c;" horiz-adv-x="451" 
d="M436 127v-127h-420v114l216 221h-200v127h389v-111l-221 -224h236zM318 547h-162v152h162v-152z" />
    <glyph glyph-name="Zcaron" unicode="&#x17d;" horiz-adv-x="568" 
d="M548 145v-145h-528v145l329 410h-303v145h492v-145l-326 -410h336zM214 743l-120 120h125l67 -62l67 62h125l-120 -120h-144z" />
    <glyph glyph-name="zcaron" unicode="&#x17e;" horiz-adv-x="451" 
d="M436 127v-127h-420v114l216 221h-200v127h389v-111l-221 -224h236zM307 546h-141l-122 154h125l67 -82l68 82h125z" />
    <glyph glyph-name="uni018F" unicode="&#x18f;" horiz-adv-x="769" 
d="M568 671c58 -29.333 102.336 -71.3311 133.003 -125.998s46 -119.334 46 -194.001c0 -73.333 -14.833 -137.666 -44.5 -192.999s-72.334 -98 -128.001 -128s-120.834 -45 -195.501 -45c-75.333 0 -140 15.167 -194 45.5s-94.833 72.666 -122.5 126.999
s-41.5 116.5 -41.5 186.5v71h549c-22.667 96.667 -92.334 145 -209.001 145c-38 0 -75.5 -5.33301 -112.5 -16s-75.5 -26.334 -115.5 -47.001l-71 149c40.667 20 86.667 36.5 138 49.5s104.333 19.5 159 19.5c81.333 0 151 -14.667 209 -44zM510.003 171.502
c32 25.667 52.667 62.833 62 111.5h-376c16.667 -100 78 -150 184 -150c54.667 0 98 12.833 130 38.5z" />
    <glyph glyph-name="florin" unicode="&#x192;" horiz-adv-x="405" 
d="M287.5 526c-13 -11.333 -19.5 -29.667 -19.5 -55v-9h116v-30h-116v-415c0 -68 -16.5 -121.167 -49.5 -159.5s-79.833 -57.5 -140.5 -57.5h-58v133h41c18.667 0 33.667 6 45 18s17 30.667 17 56v425h-95v30h95v8c0 64.667 17.833 115 53.5 151s89.167 54 160.5 54h47v-132
h-36c-27.333 0 -47.5 -5.66699 -60.5 -17z" />
    <glyph glyph-name="uni01E5" unicode="&#x1e5;" horiz-adv-x="586" 
d="M586 -48h-46c-9.33301 -55.333 -34.666 -97 -75.999 -125s-97.666 -42 -168.999 -42c-57.333 0 -123.333 7.66699 -198 23l25 141c64.667 -15.333 118.667 -23 162 -23c42 0 70.667 8.66699 86 26h-127v21h141c6 14.667 9 34.334 9 59.001v30h-2
c-34.667 -46.667 -85.334 -70 -152.001 -70c-41.333 0 -78.5 9 -111.5 27s-59 45.167 -78 81.5s-28.5 80.166 -28.5 131.499c0 52 9.66699 96.5 29 133.5s45.666 64.833 78.999 83.5s70.333 28 111 28c68.667 0 119 -26 151 -78h2v63h151v-462c0 -12 -0.333008 -21 -1 -27
h43v-21zM359 152.5c20 19.667 30 45.834 30 78.501s-10 58.834 -30 78.501s-45.667 29.5 -77 29.5c-30.667 0 -56 -9.83301 -76 -29.5s-30 -45.834 -30 -78.501s10 -58.834 30 -78.501s45.333 -29.5 76 -29.5c31.333 0 57 9.83301 77 29.5z" />
    <glyph glyph-name="uni01E9" unicode="&#x1e9;" horiz-adv-x="555" 
d="M355 0l-157 212v-212h-151v700h151v-420l135 182h187l-183 -210l213 -252h-195zM221 743l-120 120h125l67 -62l67 62h125l-120 -120h-144z" />
    <glyph glyph-name="AEacute" unicode="&#x1fc;" horiz-adv-x="999" 
d="M967 141v-141h-412v142h-267l-86 -142h-202l463 700h500v-141h-258v-114h231v-141h-231v-163h262zM555 280v303l-183 -303h183zM746 743h-109l115 120h165z" />
    <glyph glyph-name="aeacute" unicode="&#x1fd;" horiz-adv-x="828" 
d="M74 29.5c-33.333 29.667 -49.9971 69.8369 -49.9971 120.504c0 50 16.333 89.5 49 118.5s77.334 43.5 134.001 43.5c28 0 54 -3.83301 78 -11.5s43.333 -17.834 58 -30.501h2v20c0 19.333 -8.16699 36.166 -24.5 50.499s-42.5 21.5 -78.5 21.5
c-32 0 -76 -6.66699 -132 -20l-30 115c63.333 13.333 117.666 20 162.999 20c42.667 0 77.667 -6.16699 105 -18.5s48.666 -34.5 63.999 -66.5h2c18 26 41.833 46.5 71.5 61.5s64.167 22.5 103.5 22.5c68 0 122 -20.833 162 -62.5s60 -103.167 60 -184.5v-34h-328
c6.66699 -28.667 20.167 -49.834 40.5 -63.501s45.5 -20.5 75.5 -20.5c25.333 0 49.666 4 72.999 12s43.333 18 60 30l55 -114c-58.667 -36 -121.334 -54 -188.001 -54c-44.667 0 -83.167 8 -115.5 24s-57.833 39 -76.5 69h-2c-24 -32.667 -52.667 -56.334 -86 -71.001
s-69.333 -22 -108 -22c-58 0 -103.667 14.833 -137 44.5zM665.003 284.003c-0.666992 26.667 -9.16699 47.5 -25.5 62.5s-36.833 22.5 -61.5 22.5c-24 0 -44.833 -7.16699 -62.5 -21.5s-28.167 -35.5 -31.5 -63.5h181zM325.003 113.503
c15.333 10.333 22.999 24.5 22.999 42.5s-7.66699 32.333 -23 43s-34.666 16 -57.999 16s-42 -5.33301 -56 -16s-21 -25 -21 -43s6.83301 -32.167 20.5 -42.5s32.167 -15.5 55.5 -15.5c24 0 43.667 5.16699 59 15.5zM477.002 553.003h-118l115 154h165z" />
    <glyph glyph-name="Oslashacute" unicode="&#x1fe;" horiz-adv-x="780" 
d="M726 509.5c22 -48.333 33 -101.5 33 -159.5c0 -71.333 -16.167 -134.666 -48.5 -189.999s-76.5 -98.333 -132.5 -129s-118.667 -46 -188 -46c-75.333 0 -142.333 18 -201 54l-40 -53l-43 30l40 53c-39.333 32.667 -70 73.167 -92 121.5s-33 101.5 -33 159.5
c0 71.333 16.167 134.666 48.5 189.999s76.5 98.333 132.5 129s118.667 46 188 46c75.333 0 142.333 -18 201 -54l40 53l43 -30l-40 -53c39.333 -32.667 70 -73.167 92 -121.5zM247 203l245 326c-29.333 17.333 -63.333 26 -102 26c-37.333 0 -71 -8.33301 -101 -25
s-53.667 -40.5 -71 -71.5s-26 -67.167 -26 -108.5c0 -61.333 18.333 -110.333 55 -147zM491 170c30 16.667 53.667 40.5 71 71.5s26 67.167 26 108.5c0 61.333 -18.333 110.333 -55 147l-245 -326c29.333 -17.333 63.333 -26 102 -26c37.333 0 71 8.33301 101 25zM441 743
h-109l115 120h165z" />
    <glyph glyph-name="oslashacute" unicode="&#x1ff;" horiz-adv-x="561" 
d="M520 333.5c13.333 -31 20.001 -65.168 20.001 -102.501c0 -48.667 -11.167 -91.667 -33.5 -129s-53.166 -66.166 -92.499 -86.499s-84 -30.5 -134 -30.5c-58.667 0 -110.667 14.667 -156 44l-38 -43l-27 23l37 42c-24 22 -42.5 48.333 -55.5 79
s-19.5 64.334 -19.5 101.001c0 48.667 11.167 91.667 33.5 129s53.166 66.166 92.499 86.499s83.666 30.5 132.999 30.5c58 0 109.333 -14 154 -42l37 42l27 -24l-35 -40c24.667 -22 43.667 -48.5 57 -79.5zM194.001 162.999l143.001 162c-16.667 9.33301 -35.667 14 -57 14
c-30.667 0 -56.334 -10 -77.001 -30s-31 -46 -31 -78c0 -27.333 7.33301 -50 22 -68zM357.502 152.499c20.333 19.667 30.501 45.833 30.501 78.5c0 27.333 -8 51 -24 71l-143 -163c18 -10.667 37.667 -16 59 -16c31.333 0 57.166 9.83301 77.499 29.5zM335.003 552.998
h-118l115 154h165z" />
    <glyph glyph-name="Scommaaccent" unicode="&#x218;" horiz-adv-x="544" 
d="M507 664l-65 -137.002c-32.667 15.333 -61.5 26.5 -86.5 33.5s-48.833 10.5 -71.5 10.5c-42.667 0 -64 -13.667 -64 -41c0 -10.667 3.83301 -20.167 11.5 -28.5s21.5 -18.5 41.5 -30.5l116 -73c44.667 -27.333 78 -56.666 100 -87.999s33 -70.333 33 -117
c0 -67.333 -22 -118.833 -66 -154.5s-107 -53.5 -189 -53.5c-94 0 -181 23.333 -261 70l70 139c70 -42.667 135.667 -64 197 -64c28 0 49.333 4.66699 64 14s22 23.333 22 42c0 14.667 -5.33301 27.334 -16 38.001s-27.334 23 -50.001 37l-107 67
c-86 51.333 -129 118 -129 200c0 58 19 103.667 57 137s93.333 50 166 50s148.334 -17 227.001 -51zM355 -47.002v-101l-65 -62h-52l33 62h-53v101h137z" />
    <glyph glyph-name="scommaaccent" unicode="&#x219;" horiz-adv-x="434" 
d="M114 -3.5c-36.667 7.66699 -71.333 19.832 -104 36.499l57 124c60.667 -35.333 115.334 -53 164.001 -53c28 0 42 7 42 21c0 6.66699 -2 11.667 -6 15s-8.66699 5.83301 -14 7.5s-9.33301 3.16699 -12 4.5l-81 32c-38 14.667 -66.333 33.667 -85 57s-28 52 -28 86
c0 48 16.667 85 50 111s82.666 39 147.999 39c53.333 0 109 -9.33301 167 -28l-42 -122c-55.333 22.667 -101 34 -137 34c-14 0 -23.667 -1.66699 -29 -5s-8 -8.33301 -8 -15s2.66699 -11.834 8 -15.501s14.333 -8.16699 27 -13.5l80 -30c37.333 -14 65.333 -31.667 84 -53
s28 -50.666 28 -87.999c0 -53.333 -18 -92.666 -54 -117.999s-86 -38 -150 -38c-33.333 0 -68.333 3.83301 -105 11.5zM302.001 -47.002v-101l-65 -62h-52l33 62h-53v101h137z" />
    <glyph glyph-name="uni021A" unicode="&#x21a;" horiz-adv-x="534" 
d="M529 555h-184v-555h-155v555h-185v145h524v-145zM336 -47v-101l-65 -62h-52l33 62h-53v101h137z" />
    <glyph glyph-name="uni021B" unicode="&#x21b;" horiz-adv-x="362" 
d="M251 336v-138.999c0 -22 3.5 -37 10.5 -45s20.167 -12 39.5 -12h17v-140h-63c-49.333 0 -87.5 12.667 -114.5 38s-40.5 64.666 -40.5 117.999v180h-90v126h90v185h151v-185h95v-126h-95zM301 -46.999v-101l-65 -62h-52l33 62h-53v101h137z" />
    <glyph glyph-name="uni0232" unicode="&#x232;" horiz-adv-x="659" 
d="M407 253v-253h-155v251l-252 449h186l142 -293h2l143 293h186zM491 749h-324v95h324v-95z" />
    <glyph glyph-name="uni0233" unicode="&#x233;" horiz-adv-x="560" 
d="M555 462l-307 -662h-152l116 244l-207 418h174l108 -255l115 255h153zM451 574h-325v99h325v-99z" />
    <glyph glyph-name="uni0237" unicode="&#x237;" horiz-adv-x="244" 
d="M-14 -63c20.667 0 36 5.33105 46 15.998s15 27.334 15 50.001v459h151v-458c0 -69.333 -15.5 -121.166 -46.5 -155.499s-77.833 -51.5 -140.5 -51.5h-50v140h25z" />
    <glyph glyph-name="uni0259" unicode="&#x259;" horiz-adv-x="511" 
d="M78 48.5c-40.667 41.667 -61.0029 103.167 -61.0029 184.5v34h331c-4.66699 28 -17.5 49 -38.5 63s-47.5 21 -79.5 21c-25.333 0 -49.666 -4.16699 -72.999 -12.5s-43.666 -18.166 -60.999 -29.499l-55 114c58.667 36 122.334 54 191.001 54
c51.333 0 96.5 -10.167 135.5 -30.5s69.167 -48.833 90.5 -85.5s32 -79.334 32 -128.001c0 -50.667 -10.333 -94.667 -31 -132s-49.5 -65.833 -86.5 -85.5s-79.167 -29.5 -126.5 -29.5c-71.333 0 -127.333 20.833 -168 62.5zM316.497 114c17 14 27.168 35.333 30.501 64
h-184c0.666992 -26.667 9.16699 -47.5 25.5 -62.5s37.166 -22.5 62.499 -22.5c26.667 0 48.5 7 65.5 21z" />
    <glyph glyph-name="uni0292" unicode="&#x292;" horiz-adv-x="506" 
d="M97.5 -202c-41.667 8.66699 -79.167 21.333 -112.5 38l53 127c28.667 -14 58.667 -24.833 90 -32.5s60.666 -11.5 87.999 -11.5c38.667 0 68.167 7.5 88.5 22.5s30.5 36.167 30.5 63.5c0 57.333 -47.333 86 -142 86h-92v100l162 135h-239v136h425v-126l-204 -156
c16 3.33301 32.333 5 49 5c54.667 0 99.5 -16 134.5 -48s52.5 -76.667 52.5 -134c0 -67.333 -21.167 -120.5 -63.5 -159.5s-108.166 -58.5 -197.499 -58.5c-40 0 -80.833 4.33301 -122.5 13z" />
    <glyph glyph-name="uni02BC" unicode="&#x2bc;" horiz-adv-x="187" 
d="M162 715v-140l-83 -156h-54l53 156h-56v140h140z" />
    <glyph glyph-name="circumflex" unicode="&#x2c6;" horiz-adv-x="485" 
d="M435 553h-125l-68 82l-67 -82h-125l122 154h141z" />
    <glyph glyph-name="caron" unicode="&#x2c7;" horiz-adv-x="485" 
d="M313 546h-141l-122 154h125l67 -82l68 82h125z" />
    <glyph glyph-name="breve" unicode="&#x2d8;" horiz-adv-x="428" 
d="M331.5 583c-31 -30 -70.167 -45 -117.5 -45c-30.667 0 -58.5 6.83301 -83.5 20.5s-44.667 32.667 -59 57s-21.5 52.5 -21.5 84.5h95c1.33301 -20 7.33301 -36.667 18 -50s27.667 -20 51 -20s40.333 6.66699 51 20s16.667 30 18 50h95c0 -48 -15.5 -87 -46.5 -117z" />
    <glyph glyph-name="dotaccent" unicode="&#x2d9;" horiz-adv-x="262" 
d="M212 547h-162v152h162v-152z" />
    <glyph glyph-name="ring" unicode="&#x2da;" horiz-adv-x="340" 
d="M256 714c22.667 -22 34 -50 34 -84s-11.333 -62 -34 -84s-51.334 -33 -86.001 -33s-63.334 11 -86.001 33s-34 50 -34 84s11.333 62 34 84s51.334 33 86.001 33s63.334 -11 86.001 -33zM129.5 669.5c-10.333 -10.333 -15.5 -23.5 -15.5 -39.5s5.16699 -29.167 15.5 -39.5
s23.833 -15.5 40.5 -15.5s30.167 5.16699 40.5 15.5s15.5 23.5 15.5 39.5s-5.16699 29.167 -15.5 39.5s-23.833 15.5 -40.5 15.5s-30.167 -5.16699 -40.5 -15.5z" />
    <glyph glyph-name="ogonek" unicode="&#x2db;" horiz-adv-x="287" 
d="M236 10c-54.667 -50.667 -82.001 -85.333 -82.001 -104c0 -6.66699 2.5 -12 7.5 -16s11.167 -6 18.5 -6s20.333 2 39 6l12 -94c-34.667 -6 -58 -9 -70 -9c-35.333 0 -62.666 7 -81.999 21s-29 35.667 -29 65c0 22.667 8.83301 45.5 26.5 68.5s45.167 50.5 82.5 82.5z" />
    <glyph glyph-name="tilde" unicode="&#x2dc;" horiz-adv-x="493" 
d="M210.5 700c15.667 -4.66699 34.166 -11.334 55.499 -20.001c12.667 -4.66699 25 -9 37 -13s21.667 -6 29 -6c21.333 0 39.333 15.333 54 46l57 -19c-11.333 -42 -26 -74.667 -44 -98s-42 -35 -72 -35c-14.667 0 -29.667 2.33301 -45 7s-33.666 11.334 -54.999 20.001
c-32.667 12.667 -55 19 -67 19c-11.333 0 -21.333 -4 -30 -12s-16.667 -19.333 -24 -34l-56 19c10.667 42 25 74.667 43 98s42.333 35 73 35c14 0 28.833 -2.33301 44.5 -7z" />
    <glyph glyph-name="hungarumlaut" unicode="&#x2dd;" horiz-adv-x="503" 
d="M152 553h-102l122 154h122zM311 553h-102l122 154h122z" />
    <glyph glyph-name="gravecomb" unicode="&#x300;" horiz-adv-x="0" 
d="M-50 553h-118l-162 154h165z" />
    <glyph glyph-name="acutecomb" unicode="&#x301;" horiz-adv-x="0" 
d="M-212 553h-118l115 154h165z" />
    <glyph glyph-name="uni0302" unicode="&#x302;" horiz-adv-x="0" 
d="M-50 553h-125l-68 82l-67 -82h-125l122 154h141z" />
    <glyph glyph-name="tildecomb" unicode="&#x303;" horiz-adv-x="0" 
d="M-282.5 700c15.667 -4.66699 34.166 -11.334 55.499 -20.001c12.667 -4.66699 25 -9 37 -13s21.667 -6 29 -6c21.333 0 39.333 15.333 54 46l57 -19c-11.333 -42 -26 -74.667 -44 -98s-42 -35 -72 -35c-14.667 0 -29.667 2.33301 -45 7s-33.666 11.334 -54.999 20.001
c-32.667 12.667 -55 19 -67 19c-11.333 0 -21.333 -4 -30 -12s-16.667 -19.333 -24 -34l-56 19c10.667 42 25 74.667 43 98s42.333 35 73 35c14 0 28.833 -2.33301 44.5 -7z" />
    <glyph glyph-name="uni0304" unicode="&#x304;" horiz-adv-x="0" 
d="M-50 574h-325v99h325v-99z" />
    <glyph glyph-name="uni0306" unicode="&#x306;" horiz-adv-x="0" 
d="M-96.5 583c-31 -30 -70.167 -45 -117.5 -45c-30.667 0 -58.5 6.83301 -83.5 20.5s-44.667 32.667 -59 57s-21.5 52.5 -21.5 84.5h95c1.33301 -20 7.33301 -36.667 18 -50s27.667 -20 51 -20s40.333 6.66699 51 20s16.667 30 18 50h95c0 -48 -15.5 -87 -46.5 -117z" />
    <glyph glyph-name="uni0307" unicode="&#x307;" horiz-adv-x="0" 
d="M-50 547h-162v152h162v-152z" />
    <glyph glyph-name="uni0308" unicode="&#x308;" horiz-adv-x="0" 
d="M-238 555h-124v135h124v-135zM-50 555h-124v135h124v-135z" />
    <glyph glyph-name="uni030A" unicode="&#x30a;" horiz-adv-x="0" 
d="M-84 714c22.667 -22 34 -50 34 -84s-11.333 -62 -34 -84s-51.334 -33 -86.001 -33s-63.334 11 -86.001 33s-34 50 -34 84s11.333 62 34 84s51.334 33 86.001 33s63.334 -11 86.001 -33zM-210.5 669.5c-10.333 -10.333 -15.5 -23.5 -15.5 -39.5
s5.16699 -29.167 15.5 -39.5s23.833 -15.5 40.5 -15.5s30.167 5.16699 40.5 15.5s15.5 23.5 15.5 39.5s-5.16699 29.167 -15.5 39.5s-23.833 15.5 -40.5 15.5s-30.167 -5.16699 -40.5 -15.5z" />
    <glyph glyph-name="uni030B" unicode="&#x30b;" horiz-adv-x="0" 
d="M-351 553h-102l122 154h122zM-192 553h-102l122 154h122z" />
    <glyph glyph-name="uni030C" unicode="&#x30c;" horiz-adv-x="0" 
d="M-172 546h-141l-122 154h125l67 -82l68 82h125z" />
    <glyph glyph-name="uni0312" unicode="&#x312;" horiz-adv-x="0" 
d="M-50 641v-101h-137v101l65 62h52l-33 -62h53z" />
    <glyph glyph-name="uni0326" unicode="&#x326;" horiz-adv-x="0" 
d="M-50 -47v-101l-65 -62h-52l33 62h-53v101h137z" />
    <glyph glyph-name="uni0327" unicode="&#x327;" horiz-adv-x="0" 
d="M-139 -38c30 -5.33301 52.334 -12.332 67.001 -20.999s22 -22.334 22 -41.001c0 -16.667 -6.83301 -31.167 -20.5 -43.5s-31 -23 -52 -32s-52.833 -21.167 -95.5 -36.5l-16 37c29.333 12.667 50.166 22.667 62.499 30s18.5 15 18.5 23c0 8.66699 -4 15.167 -12 19.5
s-22.667 8.83301 -44 13.5l48 128h54z" />
    <glyph glyph-name="uni0328" unicode="&#x328;" horiz-adv-x="0" 
d="M-51 10c-54.667 -50.667 -82.001 -85.333 -82.001 -104c0 -6.66699 2.5 -12 7.5 -16s11.167 -6 18.5 -6s20.333 2 39 6l12 -94c-34.667 -6 -58 -9 -70 -9c-35.333 0 -62.666 7 -81.999 21s-29 35.667 -29 65c0 22.667 8.83301 45.5 26.5 68.5s45.167 50.5 82.5 82.5z" />
    <glyph glyph-name="uni0394" unicode="&#x394;" horiz-adv-x="628" 
d="M608 0h-588l249 700h90zM195 100h238l-119 373z" />
    <glyph glyph-name="uni03A9" unicode="&#x3a9;" horiz-adv-x="741" 
d="M551 675c51.333 -26.667 90.8311 -64 118.498 -112s41.5 -103.333 41.5 -166c0 -44 -8.83301 -84.5 -26.5 -121.5s-41.5 -67.667 -71.5 -92s-63.333 -40.833 -100 -49.5v-3h188v-131h-290v218c44 5.33301 80 24.5 108 57.5s42 71.833 42 116.5
c0 54.667 -16.833 98 -50.5 130s-80.167 48 -139.5 48s-106 -16 -140 -48s-51 -75.333 -51 -130c0 -44.667 14 -83.5 42 -116.5s64.333 -52.167 109 -57.5v-218h-291v131h188v3c-36.667 8.66699 -70 25.167 -100 49.5s-53.833 55 -71.5 92s-26.5 77.5 -26.5 121.5
c0 62.667 13.833 118 41.5 166s67.334 85.333 119.001 112s111.834 40 180.501 40s128.667 -13.333 180 -40z" />
    <glyph glyph-name="uni03BC" unicode="&#x3bc;" horiz-adv-x="557" 
d="M511 462l-0.000976562 -462h-148v72h-2c-17.333 -28 -37.666 -49.5 -60.999 -64.5s-51.333 -22.5 -84 -22.5c-11.333 0 -19.666 0.333008 -24.999 1v-186h-145v322c-3.33301 18.667 -5 37 -5 55v285h156v-252c0 -32 6.66699 -55.5 20 -70.5s32 -22.5 56 -22.5
c27.333 0 48.666 10 63.999 30s23 50.667 23 92v223h151z" />
    <glyph glyph-name="pi" unicode="&#x3c0;" horiz-adv-x="639" 
d="M609 346h-90v-346h-136v346h-97l-79 -346h-137l78 345c-42.667 -2 -82 -8.33301 -118 -19v131c40 13.333 92 20 156 20h423v-131z" />
    <glyph glyph-name="uni0401" unicode="&#x401;" horiz-adv-x="530" 
d="M499 145v-145h-438v700h433v-145h-278v-110h250v-141h-250v-159h283zM250 743h-133v114h133v-114zM468 743h-134v114h134v-114z" />
    <glyph glyph-name="uni0402" unicode="&#x402;" horiz-adv-x="742" 
d="M678.5 387c32.333 -29.333 48.5 -75 48.5 -137v-57c0 -69.333 -17.667 -118.833 -53 -148.5s-87 -44.5 -155 -44.5h-74v141h47c28 0 48.333 5.16699 61 15.5s19 27.5 19 51.5v19c0 22.667 -6.33301 38 -19 46s-34.667 12 -66 12c-51.333 0 -103.666 -3 -156.999 -9v-277
l-155 1v555h-170v145h568v-145h-243v-133c54.667 6 121 9 199 9c67.333 0 117.166 -14.667 149.499 -44z" />
    <glyph glyph-name="uni0403" unicode="&#x403;" horiz-adv-x="493" 
d="M488 555h-272v-555h-155v700h427v-145zM320 743h-109l115 120h165z" />
    <glyph glyph-name="uni0404" unicode="&#x404;" horiz-adv-x="658" 
d="M196 672.5c-54.667 -28.333 -97.498 -69.999 -128.498 -124.999s-46.5 -120.833 -46.5 -197.5s15.5 -142.5 46.5 -197.5s73.833 -96.667 128.5 -125s117.334 -42.5 188.001 -42.5c95.333 0 183 25.333 263 76l-84 138c-25.333 -16.667 -53.166 -29.834 -83.499 -39.501
s-60.833 -14.5 -91.5 -14.5c-49.333 0 -90.833 12.333 -124.5 37s-55.5 60.334 -65.5 107.001h259v142h-254c13.333 40.667 36.166 71.5 68.499 92.5s71.166 31.5 116.499 31.5c30.667 0 61.167 -4.83301 91.5 -14.5s58.166 -22.834 83.499 -39.501l84 138
c-80 50.667 -167.667 76 -263 76c-70.667 0 -133.334 -14.167 -188.001 -42.5z" />
    <glyph glyph-name="uni0405" unicode="&#x405;" horiz-adv-x="544" 
d="M507 664l-65 -137.002c-32.667 15.333 -61.5 26.5 -86.5 33.5s-48.833 10.5 -71.5 10.5c-42.667 0 -64 -13.667 -64 -41c0 -10.667 3.83301 -20.167 11.5 -28.5s21.5 -18.5 41.5 -30.5l116 -73c44.667 -27.333 78 -56.666 100 -87.999s33 -70.333 33 -117
c0 -67.333 -22 -118.833 -66 -154.5s-107 -53.5 -189 -53.5c-94 0 -181 23.333 -261 70l70 139c70 -42.667 135.667 -64 197 -64c28 0 49.333 4.66699 64 14s22 23.333 22 42c0 14.667 -5.33301 27.334 -16 38.001s-27.334 23 -50.001 37l-107 67
c-86 51.333 -129 118 -129 200c0 58 19 103.667 57 137s93.333 50 166 50s148.334 -17 227.001 -51z" />
    <glyph glyph-name="uni0406" unicode="&#x406;" horiz-adv-x="277" 
d="M216 0h-155v700h155v-700z" />
    <glyph glyph-name="uni0407" unicode="&#x407;" horiz-adv-x="277" 
d="M216 0h-155v700h155v-700zM96 743h-133v114h133v-114zM314 743h-134v114h134v-114z" />
    <glyph glyph-name="uni0408" unicode="&#x408;" horiz-adv-x="301" 
d="M240 177c0 -62 -14.668 -107.5 -44.001 -136.5s-74.666 -43.5 -135.999 -43.5h-50v145h34c12.667 0 22.667 4.16699 30 12.5s11 20.5 11 36.5v509h155v-523z" />
    <glyph glyph-name="uni0409" unicode="&#x409;" horiz-adv-x="1044" 
d="M966 395.5c44.667 -37 66.999 -93.832 66.999 -170.499s-22.333 -133.334 -67 -170.001s-101.667 -55 -171 -55h-279v555h-256v-378c0 -62 -14.667 -107.5 -44 -136.5s-74.666 -43.5 -135.999 -43.5h-70v145h54c12.667 0 22.667 4.16699 30 12.5s11 20.5 11 36.5v509h566
v-249h124c69.333 0 126.333 -18.5 171 -55.5zM845.499 161.501c17.667 14.333 26.5 35.5 26.5 63.5c0 28.667 -8.83301 50.167 -26.5 64.5s-41.834 21.5 -72.501 21.5h-102v-171h102c30.667 0 54.834 7.16699 72.501 21.5z" />
    <glyph glyph-name="uni040A" unicode="&#x40a;" horiz-adv-x="1024" 
d="M946 396c44.667 -36.667 67 -93.666 67 -170.999c0 -76.667 -22.333 -133.334 -67 -170.001s-101.667 -55 -171 -55h-279v311h-280v-311h-155v700h155v-249h280v249h155v-249h124c69.333 0 126.333 -18.333 171 -55zM825.5 161.501c17.667 14.333 26.5 35.5 26.5 63.5
c0 28.667 -8.83301 50.167 -26.5 64.5s-41.834 21.5 -72.501 21.5h-102v-171h102c30.667 0 54.834 7.16699 72.501 21.5z" />
    <glyph glyph-name="uni040B" unicode="&#x40b;" horiz-adv-x="741" 
d="M674 389c34.667 -34 52 -86.667 52 -158v-231h-155v217c0 25.333 -6.5 44.5 -19.5 57.5s-31.167 19.5 -54.5 19.5h-169v-294h-155v555h-168v145h568v-145h-245v-115h186c72 0 125.333 -17 160 -51z" />
    <glyph glyph-name="uni040C" unicode="&#x40c;" horiz-adv-x="726" 
d="M505 0l-289 335v-335h-155v700h155v-309l249 309h211l-289 -328l339 -372h-221zM399 743h-109l115 120h165z" />
    <glyph glyph-name="uni040E" unicode="&#x40e;" horiz-adv-x="713" 
d="M713 700l-340 -700h-179l83 171l-277 529h205l160 -348l169 348h179zM488 761c-28 -24.667 -67.3301 -37 -117.997 -37s-89.834 12.333 -117.501 37s-43.167 59 -46.5 103h103c0.666992 -18 6.16699 -32.5 16.5 -43.5s25.166 -16.5 44.499 -16.5s34.166 5.5 44.499 16.5
s15.833 25.5 16.5 43.5h103c-2.66699 -44 -18 -78.333 -46 -103z" />
    <glyph glyph-name="uni040F" unicode="&#x40f;" horiz-adv-x="722" 
d="M662 0h-228v-140h-145v140h-228v700h155v-555h291v555h155v-700z" />
    <glyph glyph-name="uni0410" unicode="&#x410;" horiz-adv-x="716" 
d="M493 142h-269l-50 -142h-174l276 700h164l276 -700h-173zM445 280l-87 248l-86 -248h173z" />
    <glyph glyph-name="uni0411" unicode="&#x411;" horiz-adv-x="614" 
d="M521 395.5c44.667 -37 67 -93.832 67 -170.499s-22.333 -133.334 -67 -170.001s-101.667 -55 -171 -55h-289v700h493v-145h-338v-104h134c69.333 0 126.333 -18.5 171 -55.5zM400.5 161.501c17.667 14.333 26.5 35.5 26.5 63.5c0 28.667 -8.83301 50.167 -26.5 64.5
s-41.834 21.5 -72.501 21.5h-112v-171h112c30.667 0 54.834 7.16699 72.501 21.5z" />
    <glyph glyph-name="uni0412" unicode="&#x412;" horiz-adv-x="625" 
d="M599 197c0 -67.333 -22.332 -117 -66.999 -149s-101.667 -48 -171 -48h-300v700h290c65.333 0 117.666 -14.5 156.999 -43.5s59 -72.5 59 -130.5c0 -79.333 -37 -131 -111 -155v-2c95.333 -16 143 -73.333 143 -172zM216.001 559l-0.000976562 -137h116
c24 0 43.167 6.16699 57.5 18.5s21.5 29.5 21.5 51.5c0 20.667 -7.16699 37 -21.5 49s-33.166 18 -56.499 18h-117zM411 160.5c18 13 27 31.833 27 56.5c0 25.333 -8.83301 44.333 -26.5 57s-42.5 19 -74.5 19h-121v-152h122c30.667 0 55 6.5 73 19.5z" />
    <glyph glyph-name="uni0413" unicode="&#x413;" horiz-adv-x="493" 
d="M488 555h-272v-555h-155v700h427v-145z" />
    <glyph glyph-name="uni0414" unicode="&#x414;" horiz-adv-x="712" 
d="M705 130v-270h-145v125h-410v-125h-145v270h82c16.667 43.333 28.667 87.333 36 132s11 96 11 154v284h487v-570h84zM278 260.5c-7.33301 -44.333 -19 -87.833 -35 -130.5h223v425h-177v-140c0 -58.667 -3.66699 -110.167 -11 -154.5z" />
    <glyph glyph-name="uni0415" unicode="&#x415;" horiz-adv-x="530" 
d="M499 145v-145h-438v700h433v-145h-278v-110h250v-141h-250v-159h283z" />
    <glyph glyph-name="uni0416" unicode="&#x416;" horiz-adv-x="1127" 
d="M908 0l-271 345v-345h-147v345l-272 -345h-218l311 366l-266 334h204l241 -319v319h147v-319l238 319h207l-266 -334l311 -366h-219z" />
    <glyph glyph-name="uni0417" unicode="&#x417;" horiz-adv-x="599" 
d="M475 670c46.667 -30 69.999 -74.333 69.999 -133c0 -45.333 -13.5 -81.5 -40.5 -108.5s-65.167 -45.833 -114.5 -56.5v-2c58.667 -8 103.834 -26 135.501 -54s47.5 -69.667 47.5 -125c0 -62 -23 -111.833 -69 -149.5s-119.333 -56.5 -220 -56.5
c-50.667 0 -99.334 5.5 -146.001 16.5s-89 26.833 -127 47.5l69 135c68.667 -36 135 -54 199 -54c46.667 0 81.334 7.16699 104.001 21.5s34 33.833 34 58.5c0 29.333 -15.833 50.333 -47.5 63s-77.167 19 -136.5 19h-64v137h65c52 0 90.667 7 116 21s38 32.667 38 56
c0 42.667 -38 64 -114 64c-29.333 0 -61.333 -4.16699 -96 -12.5s-66.667 -18.833 -96 -31.5l-56 141c39.333 14 79 25.5 119 34.5s84 13.5 132 13.5c85.333 0 151.333 -15 198 -45z" />
    <glyph glyph-name="uni0418" unicode="&#x418;" horiz-adv-x="744" 
d="M216 700v-442h1l335 442h131v-700h-155v441h-1l-334 -441h-132v700h155z" />
    <glyph glyph-name="uni0419" unicode="&#x419;" horiz-adv-x="744" 
d="M216 700v-442h1l335 442h131v-700h-155v441h-1l-334 -441h-132v700h155zM499 761c-28 -24.667 -67.3301 -37 -117.997 -37s-89.834 12.333 -117.501 37s-43.167 59 -46.5 103h103c0.666992 -18 6.16699 -32.5 16.5 -43.5s25.166 -16.5 44.499 -16.5
s34.166 5.5 44.499 16.5s15.833 25.5 16.5 43.5h103c-2.66699 -44 -18 -78.333 -46 -103z" />
    <glyph glyph-name="uni041A" unicode="&#x41a;" horiz-adv-x="726" 
d="M505 0l-289 335v-335h-155v700h155v-309l249 309h211l-289 -328l339 -372h-221z" />
    <glyph glyph-name="uni041B" unicode="&#x41b;" horiz-adv-x="717" 
d="M656 0h-155.001v555h-251v-378c0 -62 -14.667 -107.5 -44 -136.5s-74.666 -43.5 -135.999 -43.5h-60v145h44c12.667 0 22.667 4.16699 30 12.5s11 20.5 11 36.5v509h561v-700z" />
    <glyph glyph-name="uni041C" unicode="&#x41c;" horiz-adv-x="887" 
d="M887 0h-161l-95 403h-2l-130 -303h-111l-129 303h-2l-95 -403h-162l179 700h117l147 -362h2l147 362h117z" />
    <glyph glyph-name="uni041D" unicode="&#x41d;" horiz-adv-x="723" 
d="M662 700v-700h-155v294h-291v-294h-155v700h155v-260h291v260h155z" />
    <glyph glyph-name="uni041E" unicode="&#x41e;" horiz-adv-x="780" 
d="M578 669c56 -30.667 100.167 -73.667 132.5 -129s48.5 -118.666 48.5 -189.999s-16.167 -134.666 -48.5 -189.999s-76.5 -98.333 -132.5 -129s-118.667 -46 -188 -46s-132 15.333 -188 46s-100.167 73.667 -132.5 129s-48.5 118.666 -48.5 189.999
s16.167 134.666 48.5 189.999s76.5 98.333 132.5 129s118.667 46 188 46s132 -15.333 188 -46zM289 530c-30 -16.667 -53.667 -40.5 -71 -71.5s-26 -67.167 -26 -108.5s8.66699 -77.5 26 -108.5s41 -54.833 71 -71.5s63.667 -25 101 -25s71 8.33301 101 25
s53.667 40.5 71 71.5s26 67.167 26 108.5s-8.66699 77.5 -26 108.5s-41 54.833 -71 71.5s-63.667 25 -101 25s-71 -8.33301 -101 -25z" />
    <glyph glyph-name="uni041F" unicode="&#x41f;" horiz-adv-x="722" 
d="M661 0h-155v555h-290v-555h-155v700h600v-700z" />
    <glyph glyph-name="uni0420" unicode="&#x420;" horiz-adv-x="575" 
d="M503.5 638c43.667 -41.333 65.498 -95.333 65.498 -162c0 -71.333 -21.667 -128.5 -65 -171.5s-107.666 -64.5 -192.999 -64.5h-95v-240h-155v700h250c84.667 0 148.834 -20.667 192.501 -62zM375.498 404c19 16 28.5 39 28.5 69c0 29.333 -9.33301 51 -28 65
s-44.667 21 -78 21h-82v-179h82c32.667 0 58.5 8 77.5 24z" />
    <glyph glyph-name="uni0421" unicode="&#x421;" horiz-adv-x="667" 
d="M207.5 30c-58.333 30 -104 72.667 -137 128s-49.5 119.333 -49.5 192s16.5 136.667 49.5 192s78.667 98 137 128s124.166 45 197.499 45c93.333 0 177 -26 251 -78l-84 -136c-54 36 -109.667 54 -167 54c-40.667 0 -77.167 -8.33301 -109.5 -25
s-57.666 -40.5 -75.999 -71.5s-27.5 -67.167 -27.5 -108.5s9.16699 -77.5 27.5 -108.5s43.666 -54.833 75.999 -71.5s68.833 -25 109.5 -25c57.333 0 113 18 167 54l84 -136c-74 -52 -157.667 -78 -251 -78c-73.333 0 -139.166 15 -197.499 45z" />
    <glyph glyph-name="uni0422" unicode="&#x422;" horiz-adv-x="534" 
d="M529 555h-184v-555h-155v555h-185v145h524v-145z" />
    <glyph glyph-name="uni0423" unicode="&#x423;" horiz-adv-x="713" 
d="M713 700l-340 -700h-179l83 171l-277 529h205l160 -348l169 348h179z" />
    <glyph glyph-name="uni0424" unicode="&#x424;" horiz-adv-x="838" 
d="M778.5 185.5c-25.667 -47 -63 -83.667 -112 -110s-107.167 -40.166 -174.5 -41.499v-64h-146v64c-67.333 1.33301 -125.5 15.166 -174.5 41.499s-86.333 63 -112 110s-38.5 101.833 -38.5 164.5c0 62 12.833 116.667 38.5 164s63 84.166 112 110.499
s107.167 40.166 174.5 41.499v64h146v-64c67.333 -1.33301 125.5 -15.166 174.5 -41.499s86.333 -63.166 112 -110.499s38.5 -102 38.5 -164c0 -62.667 -12.833 -117.5 -38.5 -164.5zM225 223.5c28 -29.667 69.999 -44.833 125.999 -45.5v344
c-55.333 -0.666992 -97.166 -15.5 -125.499 -44.5s-42.5 -71.167 -42.5 -126.5s14 -97.833 42 -127.5zM612.999 223.501c28 29.667 41.999 72.166 41.999 127.499s-14.167 97.5 -42.5 126.5s-70.166 43.833 -125.499 44.5v-344c56 0.666992 98 15.834 126 45.501z" />
    <glyph glyph-name="uni0425" unicode="&#x425;" horiz-adv-x="722" 
d="M523 0l-162 244l-162 -244h-198l261 369l-237 331h197l139 -207l139 207h197l-237 -331l261 -369h-198z" />
    <glyph glyph-name="uni0426" unicode="&#x426;" horiz-adv-x="745" 
d="M738 145v-285h-146v140h-531v700h155v-555h274v555h155v-555h93z" />
    <glyph glyph-name="uni0427" unicode="&#x427;" horiz-adv-x="629" 
d="M568 700v-700h-155v260h-186c-72 0 -125.333 17 -160 51s-52 86.667 -52 158v231h155v-217c0 -24.667 6.66699 -43.667 20 -57s31.333 -20 54 -20h169v294h155z" />
    <glyph glyph-name="uni0428" unicode="&#x428;" horiz-adv-x="1096" 
d="M61 700h155v-555h254v555h155v-555h255v555h155v-700h-974v700z" />
    <glyph glyph-name="uni0429" unicode="&#x429;" horiz-adv-x="1135" 
d="M1128 145v-285h-145v140h-922v700h155v-555h254v555h155v-555h255v555h155v-555h93z" />
    <glyph glyph-name="uni042A" unicode="&#x42a;" horiz-adv-x="735" 
d="M657 395.5c44.667 -37 67 -93.832 67 -170.499s-22.333 -133.334 -67 -170.001s-101.667 -55 -171 -55h-289v555h-192v145h347v-249h134c69.333 0 126.333 -18.5 171 -55.5zM536.5 161.501c17.667 14.333 26.5 35.5 26.5 63.5c0 28.667 -8.83301 50.167 -26.5 64.5
s-41.834 21.5 -72.501 21.5h-112v-171h112c30.667 0 54.834 7.16699 72.501 21.5z" />
    <glyph glyph-name="uni042B" unicode="&#x42b;" horiz-adv-x="874" 
d="M521 395.5c44.667 -37 67 -93.832 67 -170.499s-22.333 -133.334 -67 -170.001s-101.667 -55 -171 -55h-289v700h155v-249h134c69.333 0 126.333 -18.5 171 -55.5zM400.5 161.501c17.667 14.333 26.5 35.5 26.5 63.5c0 28.667 -8.83301 50.167 -26.5 64.5
s-41.834 21.5 -72.501 21.5h-112v-171h112c30.667 0 54.834 7.16699 72.501 21.5zM813 0.000976562h-155v700h155v-700z" />
    <glyph glyph-name="uni042C" unicode="&#x42c;" horiz-adv-x="599" 
d="M521 395.5c44.667 -37 67 -93.832 67 -170.499s-22.333 -133.334 -67 -170.001s-101.667 -55 -171 -55h-289v700h155v-249h134c69.333 0 126.333 -18.5 171 -55.5zM400.5 161.501c17.667 14.333 26.5 35.5 26.5 63.5c0 28.667 -8.83301 50.167 -26.5 64.5
s-41.834 21.5 -72.501 21.5h-112v-171h112c30.667 0 54.834 7.16699 72.501 21.5z" />
    <glyph glyph-name="uni042D" unicode="&#x42d;" horiz-adv-x="658" 
d="M462 672.5c54.667 -28.333 97.498 -69.999 128.498 -124.999s46.5 -120.833 46.5 -197.5s-15.5 -142.5 -46.5 -197.5s-73.833 -96.667 -128.5 -125s-117.334 -42.5 -188.001 -42.5c-95.333 0 -183 25.333 -263 76l84 138c25.333 -16.667 53.166 -29.834 83.499 -39.501
s60.833 -14.5 91.5 -14.5c49.333 0 90.833 12.333 124.5 37s55.5 60.334 65.5 107.001h-259v142h254c-13.333 40.667 -36.166 71.5 -68.499 92.5s-71.166 31.5 -116.499 31.5c-30.667 0 -61.167 -4.83301 -91.5 -14.5s-58.166 -22.834 -83.499 -39.501l-84 138
c80 50.667 167.667 76 263 76c70.667 0 133.334 -14.167 188.001 -42.5z" />
    <glyph glyph-name="uni042E" unicode="&#x42e;" horiz-adv-x="1052" 
d="M850 669c56 -30.667 100.167 -73.6709 132.5 -129.004s48.5 -118.666 48.5 -189.999s-16.167 -134.666 -48.5 -189.999s-76.5 -98.333 -132.5 -129s-118.667 -46 -188 -46c-61.333 0 -117.666 12 -168.999 36s-94 58.333 -128 103s-56 96.334 -66 155.001h-83v-279h-155
v700h155v-279h83c10 58.667 32 110.334 66 155.001s76.667 79 128 103s107.666 36 168.999 36c69.333 0 132 -15.333 188 -46zM763 169.996c30 16.667 53.667 40.5 71 71.5s26 67.167 26 108.5s-8.66699 77.5 -26 108.5s-41 54.833 -71 71.5s-63.667 25 -101 25
s-71 -8.33301 -101 -25s-53.667 -40.5 -71 -71.5s-26 -67.167 -26 -108.5s8.66699 -77.5 26 -108.5s41 -54.833 71 -71.5s63.667 -25 101 -25s71 8.33301 101 25z" />
    <glyph glyph-name="uni042F" unicode="&#x42f;" horiz-adv-x="637" 
d="M576 700l0.000976562 -700h-155v263h-51l-171 -263h-188l186 275c-48.667 14 -85.834 39.333 -111.501 76s-38.5 80 -38.5 130c0 41.333 9.16699 78.5 27.5 111.5s45.5 59.167 81.5 78.5s79.333 29 130 29h290zM421.001 395l0.000976562 164h-113
c-30.667 0 -54.334 -7.16699 -71.001 -21.5s-25 -34.5 -25 -60.5c0 -54.667 32 -82 96 -82h113z" />
    <glyph glyph-name="uni0430" unicode="&#x430;" horiz-adv-x="586" 
d="M129 13.5c-33.333 19 -59.666 47 -78.999 84s-29 81.5 -29 133.5s9.66699 96.5 29 133.5s45.666 65 78.999 84s70.333 28.5 111 28.5c68.667 0 119 -26 151 -78h2v63h151v-462h-151v63h-2c-32 -52 -82.333 -78 -151 -78c-40.667 0 -77.667 9.5 -111 28.5zM359 152.5
c20 19.667 30 45.834 30 78.501s-10 58.834 -30 78.501s-45.667 29.5 -77 29.5c-30.667 0 -56 -9.83301 -76 -29.5s-30 -45.834 -30 -78.501s10 -58.834 30 -78.501s45.333 -29.5 76 -29.5c31.333 0 57 9.83301 77 29.5z" />
    <glyph glyph-name="uni0431" unicode="&#x431;" horiz-adv-x="571" 
d="M96 59.5c-50 49.667 -75.002 130.501 -75.002 242.501c0 73.333 11.167 136 33.5 188s53.5 89 93.5 111c24 13.333 71.667 30.333 143 51c6 1.33301 20 5.33301 42 12c14.667 5.33301 24.834 11.166 30.501 17.499s8.83398 14.166 9.50098 23.499h153
c0 -72 -28.333 -118.667 -85 -140c-14 -5.33301 -42 -13 -84 -23c-66.667 -16.667 -110 -30 -130 -40c-24.667 -12 -42.667 -30.167 -54 -54.5s-19 -55.833 -23 -94.5h3c14 38 36.833 66.5 68.5 85.5s68.167 28.5 109.5 28.5c42 0 79.5 -9.66699 112.5 -29
s59 -46.833 78 -82.5s28.5 -77.167 28.5 -124.5c0 -48.667 -10.333 -91.667 -31 -129s-50.5 -66.166 -89.5 -86.499s-85.167 -30.5 -138.5 -30.5c-80 0 -145 24.833 -195 74.5zM363.998 152.501c20.667 19.667 31 45.834 31 78.501s-10.333 58.834 -31 78.501
s-46.334 29.5 -77.001 29.5s-56.167 -9.83301 -76.5 -29.5s-30.5 -45.834 -30.5 -78.501s10.167 -58.834 30.5 -78.501s45.833 -29.5 76.5 -29.5s56.334 9.83301 77.001 29.5z" />
    <glyph glyph-name="uni0432" unicode="&#x432;" horiz-adv-x="527" 
d="M505 134c0 -44.667 -14 -78.167 -42 -100.5s-63.333 -33.5 -106 -33.5h-311v462h303c45.333 0 80.333 -10.167 105 -30.5s37 -47.5 37 -81.5c0 -25.333 -7 -47.5 -21 -66.5s-35.667 -31.5 -65 -37.5v-1c66.667 -8 100 -45 100 -111zM197 358v-72h92
c14.667 0 26 3.33301 34 10s12 15.667 12 27c0 23.333 -15.333 35 -46 35h-92zM335 115c8.66699 7.33301 12.999 18 12.999 32c0 26 -16.667 39 -50 39h-101v-82h100c16.667 0 29.334 3.66699 38.001 11z" />
    <glyph glyph-name="uni0433" unicode="&#x433;" horiz-adv-x="383" 
d="M378 326h-181v-326h-151v462h332v-136z" />
    <glyph glyph-name="uni0434" unicode="&#x434;" horiz-adv-x="580" 
d="M570 111v-241h-126v120h-313v-120h-126v241h59c11.333 18.667 19.5 38.167 24.5 58.5s7.5 43.5 7.5 69.5v223h415v-351h59zM217 111l145 -0.000976562v220h-118v-96c0 -45.333 -9 -86.666 -27 -123.999z" />
    <glyph glyph-name="uni0435" unicode="&#x435;" horiz-adv-x="511" 
d="M433 413.5c40.667 -41.667 61.0029 -103.167 61.0029 -184.5v-34h-331c4.66699 -28 17.5 -49 38.5 -63s47.5 -21 79.5 -21c25.333 0 49.666 4.16699 72.999 12.5s43.666 18.166 60.999 29.499l55 -114c-58.667 -36 -122.334 -54 -191.001 -54
c-51.333 0 -96.5 10.167 -135.5 30.5s-69.167 48.833 -90.5 85.5s-32 79.334 -32 128.001c0 50.667 10.333 94.667 31 132s49.5 65.833 86.5 85.5s79.167 29.5 126.5 29.5c71.333 0 127.333 -20.833 168 -62.5zM194.503 348c-17 -14 -27.168 -35.333 -30.501 -64h184
c-0.666992 26.667 -9.16699 47.5 -25.5 62.5s-37.166 22.5 -62.499 22.5c-26.667 0 -48.5 -7 -65.5 -21z" />
    <glyph glyph-name="uni0436" unicode="&#x436;" horiz-adv-x="856" 
d="M657 0l-158 212v-212h-142v212l-157 -212h-195l206 252l-176 210h186l136 -183v183h142v-183l136 183h186l-176 -210l206 -252h-194z" />
    <glyph glyph-name="uni0437" unicode="&#x437;" horiz-adv-x="449" 
d="M102 -5.5c-36.667 6.33301 -68.6641 15.1689 -95.9971 26.502l43 110c61.333 -20 113.666 -30 156.999 -30c26 0 44.833 3.16699 56.5 9.5s17.5 16.166 17.5 29.499c0 30 -23.333 45 -70 45h-92v100h94c17.333 0 30.333 3.66699 39 11s13 17.333 13 30
c0 24.667 -22.333 37 -67 37c-34 0 -81 -7.66699 -141 -23l-33 109c35.333 8.66699 67.166 15.5 95.499 20.5s60.166 7.5 95.499 7.5c67.333 0 118 -9.66699 152 -29s51 -52 51 -98c0 -28 -8.16699 -50.833 -24.5 -68.5s-40.833 -29.5 -73.5 -35.5v-2
c34 -4.66699 60.833 -17.334 80.5 -38.001s29.5 -47 29.5 -79c0 -46.667 -17.667 -82 -53 -106s-90.333 -36 -165 -36c-36 0 -72.333 3.16699 -109 9.5z" />
    <glyph glyph-name="uni0438" unicode="&#x438;" horiz-adv-x="575" 
d="M46 462h151v-250h2l196 250h133v-462h-151v250h-2l-196 -250h-133v462z" />
    <glyph glyph-name="uni0439" unicode="&#x439;" horiz-adv-x="575" 
d="M46 462h151v-250h2l196 250h133v-462h-151v250h-2l-196 -250h-133v462zM413.5 537c-31 -30 -70.167 -45 -117.5 -45c-30.667 0 -58.5 6.83301 -83.5 20.5s-44.667 32.667 -59 57s-21.5 52.5 -21.5 84.5h95c1.33301 -20 7.33301 -36.667 18 -50s27.667 -20 51 -20
s40.333 6.66699 51 20s16.667 30 18 50h95c0 -48 -15.5 -87 -46.5 -117z" />
    <glyph glyph-name="uni043A" unicode="&#x43a;" horiz-adv-x="555" 
d="M355 0l-158 212v-212h-151v462h151v-182l136 182h186l-183 -210l214 -252h-195z" />
    <glyph glyph-name="uni043B" unicode="&#x43b;" horiz-adv-x="565" 
d="M519 0h-151v326h-135v-159c0 -56 -15 -98 -45 -126s-71 -42 -123 -42h-55v140h31c13.333 0 23.5 4.16699 30.5 12.5s10.5 22.833 10.5 43.5v267h437v-462z" />
    <glyph glyph-name="uni043C" unicode="&#x43c;" horiz-adv-x="697" 
d="M154 462h109l84 -202h2l85 202h109l143 -462h-146l-69 245h-2l-74 -186h-93l-74 186h-2l-69 -245h-147z" />
    <glyph glyph-name="uni043D" unicode="&#x43d;" horiz-adv-x="561" 
d="M515 462v-462h-151v172h-167v-172h-151v462h151v-154h167v154h151z" />
    <glyph glyph-name="uni043E" unicode="&#x43e;" horiz-adv-x="561" 
d="M414 446.5c39.333 -20.333 70.166 -49.166 92.499 -86.499s33.5 -80.333 33.5 -129s-11.167 -91.667 -33.5 -129s-53.166 -66.166 -92.499 -86.499s-84 -30.5 -134 -30.5c-49.333 0 -93.666 10.167 -132.999 30.5s-70.166 49.166 -92.499 86.499s-33.5 80.333 -33.5 129
s11.167 91.667 33.5 129s53.166 66.166 92.499 86.499s83.666 30.5 132.999 30.5c50 0 94.667 -10.167 134 -30.5zM203 309c-20.667 -20 -31 -46.002 -31 -78.002s10.333 -58 31 -78s46.334 -30 77.001 -30c31.333 0 57.166 9.83301 77.499 29.5s30.5 45.834 30.5 78.501
s-10.167 58.834 -30.5 78.501s-46.166 29.5 -77.499 29.5c-30.667 0 -56.334 -10 -77.001 -30z" />
    <glyph glyph-name="uni043F" unicode="&#x43f;" horiz-adv-x="564" 
d="M517 0h-150v326h-170v-326h-151v462h471v-462z" />
    <glyph glyph-name="uni0440" unicode="&#x440;" horiz-adv-x="590" 
d="M46 462h151v-63h2c32 52 82.333 78 151 78c40.667 0 77.667 -9.5 111 -28.5s59.666 -47 78.999 -84s29 -81.5 29 -133.5s-9.66699 -96.5 -29 -133.5s-45.666 -65 -78.999 -84s-70.333 -28.5 -111 -28.5c-68.667 0 -119 26 -151 78h-2v-263h-151v662zM384 152.5
c20 19.667 30 45.834 30 78.501s-10 58.834 -30 78.501s-45.333 29.5 -76 29.5c-31.333 0 -57 -9.83301 -77 -29.5s-30 -45.834 -30 -78.501s10 -58.834 30 -78.501s45.667 -29.5 77 -29.5c30.667 0 56 9.83301 76 29.5z" />
    <glyph glyph-name="uni0441" unicode="&#x441;" horiz-adv-x="451" 
d="M145.5 15.5c-39 20.333 -69.5 49.166 -91.5 86.499s-33 80.333 -33 129s11 91.667 33 129s52.5 66.166 91.5 86.499s83.167 30.5 132.5 30.5c59.333 0 115 -15 167 -45l-62 -121c-29.333 18.667 -62 28 -98 28c-31.333 0 -58 -9.66699 -80 -29s-33 -45.666 -33 -78.999
s11 -59.666 33 -78.999s48.667 -29 80 -29c36 0 68.667 9.33301 98 28l62 -121c-52 -30 -107.667 -45 -167 -45c-49.333 0 -93.5 10.167 -132.5 30.5z" />
    <glyph glyph-name="uni0442" unicode="&#x442;" horiz-adv-x="455" 
d="M450 326h-147v-326h-151v326h-147v136h445v-136z" />
    <glyph glyph-name="uni0443" unicode="&#x443;" horiz-adv-x="560" 
d="M555 462l-307 -662h-152l116 244l-207 418h174l108 -255l115 255h153z" />
    <glyph glyph-name="uni0444" unicode="&#x444;" horiz-adv-x="888" 
d="M372 63h-2c-14.667 -25.333 -33 -44.666 -55 -57.999s-50.667 -20 -86 -20c-60.667 0 -109.667 21.333 -147 64s-56 103.334 -56 182.001s18.667 139.334 56 182.001s86.333 64 147 64c35.333 0 64 -6.66699 86 -20s40.333 -32.666 55 -57.999h2v276h145v-276h2
c14.667 25.333 32.834 44.666 54.501 57.999s50.167 20 85.5 20c60.667 0 109.667 -21.333 147 -64s56 -103.334 56 -182.001s-18.667 -139.334 -56 -182.001s-86.333 -64 -147 -64c-35.333 0 -63.833 6.66699 -85.5 20s-39.834 32.666 -54.501 57.999h-2v-263h-145v263z
M352 146c16.667 19.333 25 47.666 25 84.999s-8.33301 65.666 -25 84.999s-40.334 29 -71.001 29s-54.334 -9.66699 -71.001 -29s-25 -47.666 -25 -84.999s8.33301 -65.666 25 -84.999s40.334 -29 71.001 -29s54.334 9.66699 71.001 29zM678 146
c16.667 19.333 25 47.666 25 84.999s-8.33301 65.666 -25 84.999s-40.334 29 -71.001 29c-30 0 -53.333 -9.66699 -70 -29s-25 -47.666 -25 -84.999s8.33301 -65.666 25 -84.999s40 -29 70 -29c30.667 0 54.334 9.66699 71.001 29z" />
    <glyph glyph-name="uni0445" unicode="&#x445;" horiz-adv-x="563" 
d="M282 144l-103 -144h-174l185 242l-168 220h175l85 -122l84 122h175l-168 -220l185 -242h-174z" />
    <glyph glyph-name="uni0446" unicode="&#x446;" horiz-adv-x="592" 
d="M581 136v-266h-144v130h-391v462h151v-326h168v326h151v-326h65z" />
    <glyph glyph-name="uni0447" unicode="&#x447;" horiz-adv-x="509" 
d="M463 462v-461.999h-151v149h-132c-55.333 0 -97.5 13.667 -126.5 41s-43.5 70.666 -43.5 129.999v142h151v-130c0 -20 4.5 -33.667 13.5 -41s23.5 -11 43.5 -11h94v182h151z" />
    <glyph glyph-name="uni0448" unicode="&#x448;" horiz-adv-x="859" 
d="M812 462v-462h-766v462h151v-326h157v326h151v-326h157v326h150z" />
    <glyph glyph-name="uni0449" unicode="&#x449;" horiz-adv-x="888" 
d="M877 136v-266h-144v130h-687v462h151v-326h157v326h151v-326h157v326h150v-326h65z" />
    <glyph glyph-name="uni044A" unicode="&#x44a;" horiz-adv-x="594" 
d="M531 294c32 -28 48 -70.001 48 -126.001c0 -55.333 -16 -97.166 -48 -125.499s-75.667 -42.5 -131 -42.5h-254v326h-141v136h293v-126h102c55.333 0 99 -14 131 -42zM412 129.499c10 9 15 21.833 15 38.5c0 34.667 -19.667 52 -59 52h-71v-104h71
c19.333 0 34 4.5 44 13.5z" />
    <glyph glyph-name="uni044B" unicode="&#x44b;" horiz-adv-x="717" 
d="M431 294c32 -28 48 -70.001 48 -126.001c0 -55.333 -16 -97.166 -48 -125.499s-75.667 -42.5 -131 -42.5h-254v462h151v-126h103c55.333 0 99 -14 131 -42zM312 129.499c10 9 15 21.833 15 38.5c0 34.667 -19.667 52 -59 52h-71v-104h71c19.333 0 34 4.5 44 13.5z
M520 461.999h151v-462h-151v462z" />
    <glyph glyph-name="uni044C" unicode="&#x44c;" horiz-adv-x="494" 
d="M431 294c32 -28 48 -70.001 48 -126.001c0 -55.333 -16 -97.166 -48 -125.499s-75.667 -42.5 -131 -42.5h-254v462h151v-126h103c55.333 0 99 -14 131 -42zM312 129.499c10 9 15 21.833 15 38.5c0 34.667 -19.667 52 -59 52h-71v-104h71c19.333 0 34 4.5 44 13.5z" />
    <glyph glyph-name="uni044D" unicode="&#x44d;" horiz-adv-x="453" 
d="M361 412.5c44.667 -43 67 -103.5 67 -181.5s-22.333 -138.5 -67 -181.5s-104.334 -64.5 -179.001 -64.5c-67.333 0 -126 13.667 -176 41l62 126c34 -18.667 68.667 -28 104 -28c53.333 0 86.333 20.667 99 62h-137v90h137c-12.667 41.333 -45.667 62 -99 62
c-35.333 0 -70 -9.33301 -104 -28l-62 126c51.333 27.333 110 41 176 41c74.667 0 134.334 -21.5 179.001 -64.5z" />
    <glyph glyph-name="uni044E" unicode="&#x44e;" horiz-adv-x="795" 
d="M649 446.5c39.333 -20.333 70.166 -49.168 92.499 -86.501s33.5 -80.333 33.5 -129s-11.167 -91.667 -33.5 -129s-53.166 -66.166 -92.499 -86.499s-84 -30.5 -134 -30.5c-63.333 0 -117.833 16.5 -163.5 49.5s-75.167 77.5 -88.5 133.5h-65v-168h-151v462h151v-168h65
c13.333 56 42.833 100.5 88.5 133.5s100.167 49.5 163.5 49.5c50 0 94.667 -10.167 134 -30.5zM592.5 152.498c20.333 19.667 30.5 45.832 30.5 78.499s-10.167 58.834 -30.5 78.501s-46.166 29.5 -77.499 29.5c-30.667 0 -56.334 -10 -77.001 -30s-31 -46 -31 -78
s10.333 -58 31 -78s46.334 -30 77.001 -30c31.333 0 57.166 9.83301 77.499 29.5z" />
    <glyph glyph-name="uni044F" unicode="&#x44f;" horiz-adv-x="541" 
d="M495 462v-462.001h-151v149h-22l-119 -149h-188l133 157c-34 10 -60.333 28.667 -79 56s-28 58.333 -28 93c0 48.667 15 86.834 45 114.501s70 41.5 120 41.5h289zM225.5 333.499c-10.333 -9 -15.5 -21.167 -15.5 -36.5c0 -14.667 5.16699 -26.5 15.5 -35.5
s26.166 -13.5 47.499 -13.5h71v99h-71c-21.333 0 -37.166 -4.5 -47.499 -13.5z" />
    <glyph glyph-name="uni0451" unicode="&#x451;" horiz-adv-x="511" 
d="M433 413.5c40.667 -41.667 61.0029 -103.167 61.0029 -184.5v-34h-331c4.66699 -28 17.5 -49 38.5 -63s47.5 -21 79.5 -21c25.333 0 49.666 4.16699 72.999 12.5s43.666 18.166 60.999 29.499l55 -114c-58.667 -36 -122.334 -54 -191.001 -54
c-51.333 0 -96.5 10.167 -135.5 30.5s-69.167 48.833 -90.5 85.5s-32 79.334 -32 128.001c0 50.667 10.333 94.667 31 132s49.5 65.833 86.5 85.5s79.167 29.5 126.5 29.5c71.333 0 127.333 -20.833 168 -62.5zM194.503 348c-17 -14 -27.168 -35.333 -30.501 -64h184
c-0.666992 26.667 -9.16699 47.5 -25.5 62.5s-37.166 22.5 -62.499 22.5c-26.667 0 -48.5 -7 -65.5 -21zM234.002 514h-114v135h114v-135zM411.002 514h-114v135h114v-135z" />
    <glyph glyph-name="uni0452" unicode="&#x452;" horiz-adv-x="563" 
d="M522 0h-0.998047v-23c0 -62 -14.667 -107 -44 -135s-71.333 -42 -126 -42h-68v135h40c16 0 27.833 3.16699 35.5 9.5s11.5 19.833 11.5 40.5v16h1v243c0 66.667 -28 100 -84 100c-27.333 0 -49 -9 -65 -27s-24 -46.333 -24 -85v-232h-151v546h-65v87h65v67h151v-67h132
v-87h-132v-145h2c33.333 50.667 82.666 76 147.999 76c53.333 0 95.666 -16 126.999 -48s47 -79.667 47 -143v-286z" />
    <glyph glyph-name="uni0453" unicode="&#x453;" horiz-adv-x="383" 
d="M378 326h-181v-326h-151v462h332v-136zM274 503h-118l115 154h165z" />
    <glyph glyph-name="uni0454" unicode="&#x454;" horiz-adv-x="454" 
d="M92 412.5c-44.667 -43 -67 -103.5 -67 -181.5s22.333 -138.5 67 -181.5s104.334 -64.5 179.001 -64.5c67.333 0 126 13.667 176 41l-62 126c-34 -18.667 -68.667 -28 -104 -28c-53.333 0 -86.333 20.667 -99 62h137v90h-137c12.667 41.333 45.667 62 99 62
c35.333 0 70 -9.33301 104 -28l62 126c-51.333 27.333 -110 41 -176 41c-74.667 0 -134.334 -21.5 -179.001 -64.5z" />
    <glyph glyph-name="uni0455" unicode="&#x455;" horiz-adv-x="434" 
d="M114 -3.5c-36.667 7.66699 -71.333 19.832 -104 36.499l57 124c60.667 -35.333 115.334 -53 164.001 -53c28 0 42 7 42 21c0 6.66699 -2 11.667 -6 15s-8.66699 5.83301 -14 7.5s-9.33301 3.16699 -12 4.5l-81 32c-38 14.667 -66.333 33.667 -85 57s-28 52 -28 86
c0 48 16.667 85 50 111s82.666 39 147.999 39c53.333 0 109 -9.33301 167 -28l-42 -122c-55.333 22.667 -101 34 -137 34c-14 0 -23.667 -1.66699 -29 -5s-8 -8.33301 -8 -15s2.66699 -11.834 8 -15.501s14.333 -8.16699 27 -13.5l80 -30c37.333 -14 65.333 -31.667 84 -53
s28 -50.666 28 -87.999c0 -53.333 -18 -92.666 -54 -117.999s-86 -38 -150 -38c-33.333 0 -68.333 3.83301 -105 11.5z" />
    <glyph glyph-name="uni0456" unicode="&#x456;" horiz-adv-x="244" 
d="M47 462h151v-462h-151v462zM203 547h-162v152h162v-152z" />
    <glyph glyph-name="uni0457" unicode="&#x457;" horiz-adv-x="244" 
d="M110 514h-114v135h114v-135zM248 514h-114v135h114v-135zM47 462h151v-462h-151v462z" />
    <glyph glyph-name="uni0458" unicode="&#x458;" horiz-adv-x="244" 
d="M-14 -63c20.667 0 36 5.33105 46 15.998s15 27.334 15 50.001v459h151v-458c0 -69.333 -15.5 -121.166 -46.5 -155.499s-77.833 -51.5 -140.5 -51.5h-50v140h25zM203 546.998h-162v152h162v-152z" />
    <glyph glyph-name="uni0459" unicode="&#x459;" horiz-adv-x="794" 
d="M731 294c32 -28 48 -70.001 48 -126.001c0 -55.333 -16 -97.166 -48 -125.499s-75.667 -42.5 -131 -42.5h-252v326h-126v-160c0 -55.333 -14.833 -97 -44.5 -125s-70.5 -42 -122.5 -42h-45v140h21c27.333 0 41 18.667 41 56v267h427v-126h101c55.333 0 99 -14 131 -42z
M612.5 128.999c10.333 9.33301 15.5 22.333 15.5 39c0 17.333 -5.16699 30.333 -15.5 39s-24.833 13 -43.5 13h-70v-105h70c18.667 0 33.167 4.66699 43.5 14z" />
    <glyph glyph-name="uni045A" unicode="&#x45a;" horiz-adv-x="800" 
d="M737 286c32 -27.333 48 -68 48 -122c0 -54.667 -16 -95.667 -48 -123s-75.667 -41 -131 -41h-252v211h-157v-211h-151v462h151v-135h157v135h151v-135h101c55.333 0 99 -13.667 131 -41zM619 128c10 8 15 19.667 15 35c0 32 -19.667 48 -59 48h-70v-95h70
c19.333 0 34 4 44 12z" />
    <glyph glyph-name="uni045B" unicode="&#x45b;" horiz-adv-x="563" 
d="M475 429c31.333 -32 47.002 -79.667 47.002 -143v-286h-151v244c0 66.667 -28 100 -84 100c-27.333 0 -49 -9 -65 -27s-24 -46.333 -24 -85v-232h-151v546h-65v87h65v67h151v-67h132v-87h-132v-145h2c33.333 50.667 82.666 76 147.999 76
c53.333 0 95.666 -16 126.999 -48z" />
    <glyph glyph-name="uni045C" unicode="&#x45c;" horiz-adv-x="555" 
d="M355 0l-158 212v-212h-151v462h151v-182l136 182h186l-183 -210l214 -252h-195zM322 503h-118l115 154h165z" />
    <glyph glyph-name="uni045E" unicode="&#x45e;" horiz-adv-x="560" 
d="M555 462l-307 -662h-152l116 244l-207 418h174l108 -255l115 255h153zM405.5 537c-31 -30 -70.167 -45 -117.5 -45c-30.667 0 -58.5 6.83301 -83.5 20.5s-44.667 32.667 -59 57s-21.5 52.5 -21.5 84.5h95c1.33301 -20 7.33301 -36.667 18 -50s27.667 -20 51 -20
s40.333 6.66699 51 20s16.667 30 18 50h95c0 -48 -15.5 -87 -46.5 -117z" />
    <glyph glyph-name="uni045F" unicode="&#x45f;" horiz-adv-x="559" 
d="M513 462v-462h-166v-130h-135v130h-166v462h151v-331h165v331h151z" />
    <glyph glyph-name="uni0462" unicode="&#x462;" horiz-adv-x="642" 
d="M564 395.5c44.667 -37 67 -93.832 67 -170.499s-22.333 -133.334 -67 -170.001s-101.667 -55 -171 -55h-289v517h-99v118h99v65h155v-65h208v-118h-208v-66h134c69.333 0 126.333 -18.5 171 -55.5zM443.5 161.501c17.667 14.333 26.5 35.5 26.5 63.5
c0 28.667 -8.83301 50.167 -26.5 64.5s-41.834 21.5 -72.501 21.5h-112v-171h112c30.667 0 54.834 7.16699 72.501 21.5z" />
    <glyph glyph-name="uni0463" unicode="&#x463;" horiz-adv-x="521" 
d="M456.5 294c33 -28 49.5 -70 49.5 -126s-16.5 -98 -49.5 -126s-78.167 -42 -135.5 -42h-253v386h-86v76h86v238h151v-238h141v-76h-141v-50h102c57.333 0 102.5 -14 135.5 -42zM345 168c0 32 -18.667 48 -56 48h-70v-96h70c37.333 0 56 16 56 48z" />
    <glyph glyph-name="uni0472" unicode="&#x472;" horiz-adv-x="780" 
d="M578 669c56 -30.667 100.167 -73.667 132.5 -129s48.5 -118.666 48.5 -189.999s-16.167 -134.666 -48.5 -189.999s-76.5 -98.333 -132.5 -129s-118.667 -46 -188 -46s-132 15.333 -188 46s-100.167 73.667 -132.5 129s-48.5 118.666 -48.5 189.999
s16.167 134.666 48.5 189.999s76.5 98.333 132.5 129s118.667 46 188 46s132 -15.333 188 -46zM253.5 514c-37.667 -30.667 -60.5 -72.334 -68.5 -125.001h410c-8 52.667 -30.833 94.334 -68.5 125.001s-83.167 46 -136.5 46s-98.833 -15.333 -136.5 -46zM526.5 186
c37.667 30.667 60.5 72.334 68.5 125.001h-410c8 -52.667 30.833 -94.334 68.5 -125.001s83.167 -46 136.5 -46s98.833 15.333 136.5 46z" />
    <glyph glyph-name="uni0473" unicode="&#x473;" horiz-adv-x="561" 
d="M414 446.5c39.333 -20.333 70.166 -49.166 92.499 -86.499s33.5 -80.333 33.5 -129s-11.167 -91.667 -33.5 -129s-53.166 -66.166 -92.499 -86.499s-84 -30.5 -134 -30.5c-49.333 0 -93.666 10.167 -132.999 30.5s-70.166 49.166 -92.499 86.499s-33.5 80.333 -33.5 129
s11.167 91.667 33.5 129s53.166 66.166 92.499 86.499s83.666 30.5 132.999 30.5c50 0 94.667 -10.167 134 -30.5zM206 325.5c-20.667 -15.667 -33.999 -37.167 -39.999 -64.5h229c-6 27.333 -19.5 48.833 -40.5 64.5s-45.833 23.5 -74.5 23.5
s-53.334 -7.83301 -74.001 -23.5zM354.501 136.5c21 15.667 34.499 37.167 40.499 64.5h-229c6 -27.333 19.333 -48.833 40 -64.5s45.334 -23.5 74.001 -23.5s53.5 7.83301 74.5 23.5z" />
    <glyph glyph-name="uni0474" unicode="&#x474;" horiz-adv-x="734" 
d="M430 0h-165.001l-265 700h185l161 -503h2l129 377c16.667 46.667 39.167 81 67.5 103s69.5 33 123.5 33c22 0 44 -1.33301 66 -4v-144c-14.667 2 -28.334 3 -41.001 3c-15.333 0 -28.166 -3.5 -38.499 -10.5s-19.166 -19.5 -26.499 -37.5z" />
    <glyph glyph-name="uni0475" unicode="&#x475;" horiz-adv-x="533" 
d="M528 471l-0.000976562 -139h-10c-22 0 -37.333 -11 -46 -33l-124 -299h-151l-192 462h166l101 -293l69 197c12.667 38 32.834 65 60.501 81s65.167 24 112.5 24h14z" />
    <glyph glyph-name="uni048A" unicode="&#x48a;" horiz-adv-x="769" 
d="M263.5 761c-27.667 24.667 -43.1641 59 -46.4971 103h103c0.666992 -18 6.16699 -32.5 16.5 -43.5s25.166 -16.5 44.499 -16.5s34.166 5.5 44.499 16.5s15.833 25.5 16.5 43.5h103c-2.66699 -44 -18 -78.333 -46 -103s-67.333 -37 -118 -37s-89.834 12.333 -117.501 37z
M764.003 94l-96 -224h-109l51 130h-82v441h-1l-334 -441h-132v700h155v-442h1l335 442h131v-606h81z" />
    <glyph glyph-name="uni048B" unicode="&#x48b;" 
d="M212.5 512.5c-25 13.667 -44.667 32.667 -59 57s-21.5 52.5 -21.5 84.5h95c1.33301 -20 7.33301 -36.667 18 -50s27.667 -20 51 -20s40.333 6.66699 51 20s16.667 30 18 50h95c0 -48 -15.5 -87 -46.5 -117s-70.167 -45 -117.5 -45c-30.667 0 -58.5 6.83301 -83.5 20.5z
M610 94l-96 -224h-109l51 130h-79v250h-2l-196 -250h-133v462h151v-250h2l196 250h133v-368h82z" />
    <glyph glyph-name="uni048E" unicode="&#x48e;" horiz-adv-x="575" 
d="M545 361.5c-16 -33.667 -40.001 -60.832 -72.001 -81.499l48 -67l-50 -35l-54 77c-30 -10 -65.333 -15 -106 -15h-95v-240h-155v700h250c84.667 0 148.834 -20.667 192.501 -62s65.5 -95.333 65.5 -162c0 -42.667 -8 -80.834 -24 -114.501zM326.999 382.002l-44 63l50 35
l49 -70c14.667 16 22 37 22 63c0 29.333 -9.33301 51 -28 65s-44.667 21 -78 21h-82v-179h82c7.33301 0 17 0.666992 29 2z" />
    <glyph glyph-name="uni048F" unicode="&#x48f;" horiz-adv-x="590" 
d="M548 115c-14 -33.333 -33.332 -60.333 -57.999 -81l44 -54l-44 -38l-50 61c-28 -12 -58 -18 -90 -18c-68.667 0 -119 26 -151 78h-2v-263h-151v662h151v-63h2c32 52 82.333 78 151 78c40.667 0 77.667 -9.5 111 -28.5s59.666 -47 78.999 -84s29 -81.5 29 -133.5
c0 -44 -7 -82.667 -21 -116zM338.001 127l-45 54l44 38l51 -62c17.333 20.667 26 45.334 26 74.001c0 32.667 -10 58.834 -30 78.501s-45.333 29.5 -76 29.5c-31.333 0 -57 -9.83301 -77 -29.5s-30 -45.834 -30 -78.501s10 -58.834 30 -78.501s45.667 -29.5 77 -29.5
c11.333 0 21.333 1.33301 30 4z" />
    <glyph glyph-name="uni0490" unicode="&#x490;" horiz-adv-x="512" 
d="M507 840v-286h-291v-554h-155v700h291v140h155z" />
    <glyph glyph-name="uni0491" unicode="&#x491;" horiz-adv-x="417" 
d="M412 553v-222h-215v-331h-151v462h230v91h136z" />
    <glyph glyph-name="uni0492" unicode="&#x492;" horiz-adv-x="515" 
d="M238 555v-158h188v-136h-188v-261h-155v261h-78v136h78v303h427v-145h-272z" />
    <glyph glyph-name="uni0493" unicode="&#x493;" horiz-adv-x="427" 
d="M241 326v-73h124v-109h-124v-144h-151v144h-80v109h80v209h332v-136h-181z" />
    <glyph glyph-name="uni0494" unicode="&#x494;" horiz-adv-x="628" 
d="M563.5 358c32.333 -29.333 48.502 -75 48.502 -137v-217c0 -72.667 -18.5 -124.834 -55.5 -156.501s-90.5 -47.5 -160.5 -47.5h-73v145h56c27.333 0 47.166 6.33301 59.499 19s18.5 34.334 18.5 65.001v169c0 22 -6.5 37.333 -19.5 46s-34.833 13 -65.5 13
c-50.667 0 -102.667 -3 -156 -9v-248h-155v700h427v-145h-272v-162c54 6 120 9 198 9c67.333 0 117.166 -14.667 149.499 -44z" />
    <glyph glyph-name="uni0495" unicode="&#x495;" horiz-adv-x="530" 
d="M509 84v-73c0 -70 -17.167 -122.667 -51.5 -158s-80.833 -53 -139.5 -53h-57v136h42c19.333 0 33.333 6.16699 42 18.5s13 31.166 13 56.499v60c0 20.667 -4.83301 34.834 -14.5 42.501s-24.5 11.5 -44.5 11.5c-35.333 0 -69.333 -3.33301 -102 -10v-115h-151v462h372
v-136h-221v-81c43.333 8 87 12 131 12c120.667 0 181 -57.667 181 -173z" />
    <glyph glyph-name="uni0496" unicode="&#x496;" horiz-adv-x="1119" 
d="M908 0l-271 345v-345h-147v345l-272 -345h-218l311 366l-266 334h204l241 -319v319h147v-319l238 319h207l-266 -334l311 -366h-219zM1126 -140h-145v251h145v-251z" />
    <glyph glyph-name="uni0497" unicode="&#x497;" horiz-adv-x="866" 
d="M657 0l-158 212v-212h-142v212l-157 -212h-195l206 252l-176 210h186l136 -183v183h142v-183l136 183h186l-176 -210l206 -252h-194zM730 74h126v-204h-126v204z" />
    <glyph glyph-name="uni0498" unicode="&#x498;" horiz-adv-x="599" 
d="M475 670c46.667 -30 69.999 -74.333 69.999 -133c0 -45.333 -13.5 -81.5 -40.5 -108.5s-65.167 -45.833 -114.5 -56.5v-2c58.667 -8 103.834 -26 135.501 -54s47.5 -69.667 47.5 -125c0 -62 -23 -111.833 -69 -149.5s-119.333 -56.5 -220 -56.5
c-50.667 0 -99.334 5.5 -146.001 16.5s-89 26.833 -127 47.5l69 135c68.667 -36 135 -54 199 -54c46.667 0 81.334 7.16699 104.001 21.5s34 33.833 34 58.5c0 29.333 -15.833 50.333 -47.5 63s-77.167 19 -136.5 19h-64v137h65c52 0 90.667 7 116 21s38 32.667 38 56
c0 42.667 -38 64 -114 64c-29.333 0 -61.333 -4.16699 -96 -12.5s-66.667 -18.833 -96 -31.5l-56 141c39.333 14 79 25.5 119 34.5s84 13.5 132 13.5c85.333 0 151.333 -15 198 -45zM313.999 -38c30 -5.33301 52.334 -12.332 67.001 -20.999s22 -22.334 22 -41.001
c0 -16.667 -6.83301 -31.167 -20.5 -43.5s-31 -23 -52 -32s-52.833 -21.167 -95.5 -36.5l-16 37c29.333 12.667 50.166 22.667 62.499 30s18.5 15 18.5 23c0 8.66699 -4 15.167 -12 19.5s-22.667 8.83301 -44 13.5l48 128h54z" />
    <glyph glyph-name="uni0499" unicode="&#x499;" horiz-adv-x="449" 
d="M102 -5.5c-36.667 6.33301 -68.6641 15.1689 -95.9971 26.502l43 110c61.333 -20 113.666 -30 156.999 -30c26 0 44.833 3.16699 56.5 9.5s17.5 16.166 17.5 29.499c0 30 -23.333 45 -70 45h-92v100h94c17.333 0 30.333 3.66699 39 11s13 17.333 13 30
c0 24.667 -22.333 37 -67 37c-34 0 -81 -7.66699 -141 -23l-33 109c35.333 8.66699 67.166 15.5 95.499 20.5s60.166 7.5 95.499 7.5c67.333 0 118 -9.66699 152 -29s51 -52 51 -98c0 -28 -8.16699 -50.833 -24.5 -68.5s-40.833 -29.5 -73.5 -35.5v-2
c34 -4.66699 60.833 -17.334 80.5 -38.001s29.5 -47 29.5 -79c0 -46.667 -17.667 -82 -53 -106s-90.333 -36 -165 -36c-36 0 -72.333 3.16699 -109 9.5zM241.003 -37.9971c30 -5.33301 52.334 -12.332 67.001 -20.999s22 -22.334 22 -41.001
c0 -16.667 -6.83301 -31.167 -20.5 -43.5s-31 -23 -52 -32s-52.833 -21.167 -95.5 -36.5l-16 37c29.333 12.667 50.166 22.667 62.499 30s18.5 15 18.5 23c0 8.66699 -4 15.167 -12 19.5s-22.667 8.83301 -44 13.5l48 128h54z" />
    <glyph glyph-name="uni049A" unicode="&#x49a;" horiz-adv-x="720" 
d="M505 0l-289 335v-335h-155v700h155v-309l249 309h211l-289 -328l339 -372h-221zM727 -140h-145v251h145v-251z" />
    <glyph glyph-name="uni049B" unicode="&#x49b;" horiz-adv-x="564" 
d="M355 0l-158 212v-212h-151v462h151v-182l136 182h186l-183 -210l214 -252h-195zM428 74h126v-204h-126v204z" />
    <glyph glyph-name="uni049C" unicode="&#x49c;" horiz-adv-x="806" 
d="M358 301h-34v-127h-52v127h-56v-301h-155v700h155v-254h56v121h52v-121h45l174 254h208l-253 -328l308 -372h-222z" />
    <glyph glyph-name="uni049D" unicode="&#x49d;" horiz-adv-x="585" 
d="M268 191h-16v-93h-28v93h-27v-191h-151v462h151v-161h27v96h28v-96h14l112 161h182l-168 -211l188 -251h-191z" />
    <glyph glyph-name="uni049E" unicode="&#x49e;" horiz-adv-x="759" 
d="M537 0l-289 335v-335h-155v547h-88v106h88v47h155v-47h107v-106h-107v-156l249 309h211l-289 -328l339 -372h-221z" />
    <glyph glyph-name="uni049F" unicode="&#x49f;" horiz-adv-x="555" 
d="M355 0l-157 212v-212h-151v546h-65v87h65v67h151v-67h132v-87h-132v-266l135 182h187l-183 -210l213 -252h-195z" />
    <glyph glyph-name="uni04A0" unicode="&#x4a0;" horiz-adv-x="861" 
d="M639 0l-289 335v-335h-155v555h-190v145h345v-309l249 309h211l-289 -328l339 -372h-221z" />
    <glyph glyph-name="uni04A1" unicode="&#x4a1;" horiz-adv-x="655" 
d="M455 0l-158 212v-212h-151v326h-141v136h292v-182l136 182h186l-183 -210l214 -252h-195z" />
    <glyph glyph-name="uni04A2" unicode="&#x4a2;" horiz-adv-x="725" 
d="M662 700v-700h-155v294h-291v-294h-155v700h155v-260h291v260h155zM733 -140h-145v251h145v-251z" />
    <glyph glyph-name="uni04A3" unicode="&#x4a3;" horiz-adv-x="589" 
d="M515 462v-462h-151v172h-167v-172h-151v462h151v-154h167v154h151zM453 74h126v-204h-126v204z" />
    <glyph glyph-name="uni04A4" unicode="&#x4a4;" horiz-adv-x="902" 
d="M897 555h-255v-555h-155v294h-271v-294h-155v700h155v-260h271v260h410v-145z" />
    <glyph glyph-name="uni04A5" unicode="&#x4a5;" horiz-adv-x="694" 
d="M689 326h-185v-326h-151v172h-156v-172h-151v462h151v-154h156v154h336v-136z" />
    <glyph glyph-name="uni04A6" unicode="&#x4a6;" horiz-adv-x="1073" 
d="M1009.5 402.5c32.333 -29.667 48.501 -75.501 48.501 -137.501v-72c0 -69.333 -17.667 -118.833 -53 -148.5s-87 -44.5 -155 -44.5h-73v141h56c24.667 0 42.5 5.33301 53.5 16s16.5 27.667 16.5 51v34c0 22.667 -6.66699 38.834 -20 48.501s-35 14.5 -65 14.5
c-50.667 0 -103 -3 -157 -9v-296h-155v555h-290v-555h-155v700h600v-262c54.667 6 121 9 199 9c67.333 0 117.166 -14.833 149.499 -44.5z" />
    <glyph glyph-name="uni04A7" unicode="&#x4a7;" horiz-adv-x="855" 
d="M834 132l-0.000976562 -120c0 -70.667 -17 -123.667 -51 -159s-80 -53 -138 -53h-57v136h42c18.667 0 32.334 6.16699 41.001 18.5s13 31.5 13 57.5v108c0 20 -5 33.833 -15 41.5s-25 11.5 -45 11.5c-33.333 0 -69 -3.66699 -107 -11v-162h-150v326h-170v-326h-151v462
h471v-169c51.333 8 97 12 137 12c120 0 180 -57.667 180 -173z" />
    <glyph glyph-name="uni04A8" unicode="&#x4a8;" horiz-adv-x="827" 
d="M664 -15c-57.333 0 -106.665 9.33008 -147.998 27.9971c-38 -18.667 -82.333 -28 -133 -28c-70 0 -131.667 15.333 -185 46s-94.5 73.834 -123.5 129.501s-43.5 119.834 -43.5 192.501c0 76 16 141.167 48 195.5s77.5 95.666 136.5 123.999s128.5 42.5 208.5 42.5
c30 0 64 -3.66699 102 -11l-35 -136c-21.333 3.33301 -42.333 5 -63 5c-71.333 0 -126.833 -19 -166.5 -57s-59.5 -94.333 -59.5 -169c0 -66 15.833 -119.667 47.5 -161s73.167 -65 124.5 -71c-18.667 24 -33.334 51.833 -44.001 83.5s-16 65.834 -16 102.501
c0 44.667 9.16699 83.5 27.5 116.5s43.833 58.167 76.5 75.5s69.667 26 111 26c63.333 0 113.666 -19 150.999 -57s56 -88.667 56 -152c0 -40 -6.83301 -77.167 -20.5 -111.5s-31.834 -64.166 -54.501 -89.499h15c22.667 0 42.334 1.83301 59.001 5.5
s33.667 9.16699 51 16.5l36 -115c-49.333 -20.667 -102 -31 -158 -31zM482.001 354.997c-10.667 -15.333 -15.999 -38.001 -15.999 -68.001c0 -57.333 19.333 -101.666 58 -132.999c20.667 16 36.667 36 48 60s17 50.667 17 80c0 56 -20 84 -60 84
c-20.667 0 -36.334 -7.66699 -47.001 -23z" />
    <glyph glyph-name="uni04A9" unicode="&#x4a9;" 
d="M595 4c-34 -12.667 -65.6709 -18.998 -95.0039 -18.998c-40 0 -73.667 9.33301 -101 28c-27.333 -18.667 -65 -28 -113 -28c-82 0 -146.667 22.333 -194 67s-71 106 -71 184c0 81.333 25.833 141.833 77.5 181.5s119.834 59.5 204.501 59.5c34.667 0 72 -3.33301 112 -10
l-26 -114c-21.333 4 -42.666 6 -63.999 6c-48 0 -85.833 -10.5 -113.5 -31.5s-41.5 -54.167 -41.5 -99.5c0 -34 8.33301 -63.167 25 -87.5s40.334 -40.833 71.001 -49.5c-17.333 27.333 -26 58.666 -26 93.999c0 47.333 15.333 83.666 46 108.999s70.334 38 119.001 38
c45.333 0 81.833 -11.667 109.5 -35s41.5 -57.333 41.5 -102c0 -46 -16 -85.667 -48 -119c20 2 40 7.33301 60 16zM370.996 216.002c-8 -10 -12 -24.3311 -12 -42.998c0 -30.667 10.667 -54.667 32 -72c34.667 17.333 52 43.666 52 78.999
c0 15.333 -3.33301 27.666 -10 36.999s-16.667 14 -30 14s-24 -5 -32 -15z" />
    <glyph glyph-name="uni04AA" unicode="&#x4aa;" horiz-adv-x="667" 
d="M207.5 30c-58.333 30 -104 72.667 -137 128s-49.5 119.333 -49.5 192s16.5 136.667 49.5 192s78.667 98 137 128s124.166 45 197.499 45c93.333 0 177 -26 251 -78l-84 -136c-54 36 -109.667 54 -167 54c-40.667 0 -77.167 -8.33301 -109.5 -25
s-57.666 -40.5 -75.999 -71.5s-27.5 -67.167 -27.5 -108.5s9.16699 -77.5 27.5 -108.5s43.666 -54.833 75.999 -71.5s68.833 -25 109.5 -25c57.333 0 113 18 167 54l84 -136c-74 -52 -157.667 -78 -251 -78c-73.333 0 -139.166 15 -197.499 45zM408 -38
c30 -5.33301 52.334 -12.332 67.001 -20.999s22 -22.334 22 -41.001c0 -16.667 -6.83301 -31.167 -20.5 -43.5s-31 -23 -52 -32s-52.833 -21.167 -95.5 -36.5l-16 37c29.333 12.667 50.166 22.667 62.499 30s18.5 15 18.5 23c0 8.66699 -4 15.167 -12 19.5
s-22.667 8.83301 -44 13.5l48 128h54z" />
    <glyph glyph-name="uni04AB" unicode="&#x4ab;" horiz-adv-x="451" 
d="M145.5 15.5c-39 20.333 -69.5 49.166 -91.5 86.499s-33 80.333 -33 129s11 91.667 33 129s52.5 66.166 91.5 86.499s83.167 30.5 132.5 30.5c59.333 0 115 -15 167 -45l-62 -121c-29.333 18.667 -62 28 -98 28c-31.333 0 -58 -9.66699 -80 -29s-33 -45.666 -33 -78.999
s11 -59.666 33 -78.999s48.667 -29 80 -29c36 0 68.667 9.33301 98 28l62 -121c-52 -30 -107.667 -45 -167 -45c-49.333 0 -93.5 10.167 -132.5 30.5zM290 -38c30 -5.33301 52.334 -12.332 67.001 -20.999s22 -22.334 22 -41.001c0 -16.667 -6.83301 -31.167 -20.5 -43.5
s-31 -23 -52 -32s-52.833 -21.167 -95.5 -36.5l-16 37c29.333 12.667 50.166 22.667 62.499 30s18.5 15 18.5 23c0 8.66699 -4 15.167 -12 19.5s-22.667 8.83301 -44 13.5l48 128h54z" />
    <glyph glyph-name="uni04AC" unicode="&#x4ac;" horiz-adv-x="534" 
d="M529 555h-184v-555h-155v555h-185v145h524v-145zM437 -140h-145v251h145v-251z" />
    <glyph glyph-name="uni04AD" unicode="&#x4ad;" horiz-adv-x="455" 
d="M450 326h-147v-326h-151v326h-147v136h445v-136zM241 74h126v-204h-126v204z" />
    <glyph glyph-name="uni04AE" unicode="&#x4ae;" horiz-adv-x="659" 
d="M407 253v-253h-155v251l-252 449h186l142 -293h2l143 293h186z" />
    <glyph glyph-name="uni04AF" unicode="&#x4af;" horiz-adv-x="545" 
d="M540 462l-192 -462v-200h-151v200l-192 462h166l101 -291l101 291h167z" />
    <glyph glyph-name="uni04B0" unicode="&#x4b0;" horiz-adv-x="659" 
d="M419 274h119v-117h-131v-157h-155v157h-132v117h119l-239 426h186l142 -293h2l143 293h186z" />
    <glyph glyph-name="uni04B1" unicode="&#x4b1;" horiz-adv-x="545" 
d="M350 5h112v-103h-114v-102h-151v102h-114v103h112l-190 457h166l101 -291l101 291h167z" />
    <glyph glyph-name="uni04B2" unicode="&#x4b2;" horiz-adv-x="752" 
d="M523 0l-162 244l-162 -244h-198l261 369l-237 331h197l139 -207l139 207h197l-237 -331l261 -369h-198zM759 -140h-145v251h145v-251z" />
    <glyph glyph-name="uni04B3" unicode="&#x4b3;" horiz-adv-x="591" 
d="M282 144l-103 -144h-174l185 242l-168 220h175l85 -122l84 122h175l-168 -220l185 -242h-174zM457 74h126v-204h-126v204z" />
    <glyph glyph-name="uni04B4" unicode="&#x4b4;" horiz-adv-x="889" 
d="M882 145v-285h-146v140h-531v555h-200v145h525v-145h-170v-410h274v555h155v-555h93z" />
    <glyph glyph-name="uni04B5" unicode="&#x4b5;" horiz-adv-x="710" 
d="M699 136v-266h-144v130h-391v326h-159v136h413v-136h-103v-190h168v326h151v-326h65z" />
    </font>
</defs>
</svg>
